<?xml version="1.0" encoding="UTF-8" standalone="no"?>
<svg width="108px" height="78px" viewBox="0 0 108 78" version="1.1" xmlns="http://www.w3.org/2000/svg" xmlns:xlink="http://www.w3.org/1999/xlink">
    <!-- Generator: Sketch 43.2 (39069) - http://www.bohemiancoding.com/sketch -->
    <title>Artboard</title>
    <desc>Created with Sketch.</desc>
    <defs></defs>
    <g id="Page-1" stroke="none" stroke-width="1" fill="none" fill-rule="evenodd">
        <g id="Artboard">
            <g id="Table+dropzone" transform="translate(2.000000, 1.000000)">
                <g id="图层_1">
                    <path d="M7,4 L101,4 C102.7,4 104,5.11428571 104,6.57142857 L104,73.4285714 C104,74.8857143 102.7,76 101,76 L7,76 C5.3,76 4,74.8857143 4,73.4285714 L4,6.57142857 C4,5.11428571 5.3,4 7,4 Z" id="Fill-1" fill="#EDF4FD"></path>
                    <path d="M0,2.57142857 C0,1.11428571 1.3,0 3,0 L97,0 C98.7,0 100,1.11428571 100,2.57142857 L100,69.4285714 C100,70.8857143 98.7,72 97,72 L3,72 C1.3,72 0,70.8857143 0,69.4285714 L0,2.57142857 Z" id="Fill-3" fill="#CADDF6"></path>
                    <path d="M23.8,1 L3,1 C1.9,1 1,1.9 1,3 L1,7 L23.8,7 L23.8,1 Z" id="Fill-5" fill="#E6F1FF"></path>
                    <polygon id="Fill-7" fill="#E6F1FF" points="24.8 7 49.2 7 49.2 1 24.8 1"></polygon>
                    <polygon id="Fill-9" fill="#FFFFFF" points="24.8 70.9578929 49.2 70.9578929 49.2 8 24.8 8"></polygon>
                    <polygon id="Fill-10" fill="#FFFFFF" points="50.2 70.9578929 75.1 70.9578929 75.1 8 50.2 8"></polygon>
                    <path d="M23.8,8 L1,8 L1,69.2790158 C1,70.2023982 1.9,70.9578929 3,70.9578929 L23.8,70.9578929 L23.8,8 Z" id="Fill-11" fill="#FFFFFF"></path>
                    <path d="M76.1,8 L76.1,70.9578929 L97.1,70.9578929 C98.2,70.9578929 99.1,70.2023982 99.1,69.2790158 L99.1,8 L76.1,8 Z" id="Fill-12" fill="#FFFFFF"></path>
                    <path d="M97,1 L76,1 L76,7 L99,7 L99,3 C99,1.9 98.1,1 97,1" id="Fill-13" fill="#E6F1FF"></path>
                    <polygon id="Fill-14" fill="#E6F1FF" points="50.2 7 75.1 7 75.1 1 50.2 1"></polygon>
                </g>
            </g>
        </g>
    </g>
</svg>