<?xml version="1.0" encoding="UTF-8" standalone="no"?>
<svg width="80px" height="80px" viewBox="0 0 80 80" version="1.1" xmlns="http://www.w3.org/2000/svg" xmlns:xlink="http://www.w3.org/1999/xlink">
    <!-- Generator: Sketch 41.2 (35397) - http://www.bohemiancoding.com/sketch -->
    <title>Artboard</title>
    <desc>Created with Sketch.</desc>
    <defs>
        <rect id="path-1" x="0" y="0" width="75" height="75" rx="3"></rect>
        <filter x="-50%" y="-50%" width="200%" height="200%" filterUnits="objectBoundingBox" id="filter-2">
            <feOffset dx="0" dy="0" in="SourceAlpha" result="shadowOffsetOuter1"></feOffset>
            <feGaussianBlur stdDeviation="1" in="shadowOffsetOuter1" result="shadowBlurOuter1"></feGaussianBlur>
            <feColorMatrix values="0 0 0 0 0   0 0 0 0 0   0 0 0 0 0  0 0 0 0.15 0" type="matrix" in="shadowBlurOuter1"></feColorMatrix>
        </filter>
    </defs>
    <g id="Page-1" stroke="none" stroke-width="1" fill="none" fill-rule="evenodd">
        <g id="Artboard">
            <g id="add-new-connector" transform="translate(3.000000, 3.000000)">
                <g id="Rectangle-58">
                    <use fill="black" fill-opacity="1" filter="url(#filter-2)" xlink:href="#path-1"></use>
                    <use fill="#FA8D5B" fill-rule="evenodd" xlink:href="#path-1"></use>
                </g>
                <g id="3rdparty-addnewconnector" transform="translate(10.000000, 14.000000)" fill="#FFFFFF">
                    <g id="Group">
                        <path d="M8.5,28.5 C12.918278,28.5 16.5,24.918278 16.5,20.5 C16.5,16.081722 12.918278,12.5 8.5,12.5 C4.081722,12.5 0.5,16.081722 0.5,20.5 C0.5,24.918278 4.081722,28.5 8.5,28.5 Z M8.5,25.5 C5.73857625,25.5 3.5,23.2614237 3.5,20.5 C3.5,17.7385763 5.73857625,15.5 8.5,15.5 C11.2614237,15.5 13.5,17.7385763 13.5,20.5 C13.5,23.2614237 11.2614237,25.5 8.5,25.5 Z" id="Oval-3"></path>
                        <path d="M26.5,42.5 C29.8137085,42.5 32.5,39.8137085 32.5,36.5 C32.5,33.1862915 29.8137085,30.5 26.5,30.5 C23.1862915,30.5 20.5,33.1862915 20.5,36.5 C20.5,39.8137085 23.1862915,42.5 26.5,42.5 Z M26.5,39.5 C24.8431458,39.5 23.5,38.1568542 23.5,36.5 C23.5,34.8431458 24.8431458,33.5 26.5,33.5 C28.1568542,33.5 29.5,34.8431458 29.5,36.5 C29.5,38.1568542 28.1568542,39.5 26.5,39.5 Z" id="Oval-3-Copy"></path>
                        <path d="M47,15.5 C51.1421356,15.5 54.5,12.1421356 54.5,8 C54.5,3.85786438 51.1421356,0.5 47,0.5 C42.8578644,0.5 39.5,3.85786438 39.5,8 C39.5,12.1421356 42.8578644,15.5 47,15.5 Z M47,12.5 C44.5147186,12.5 42.5,10.4852814 42.5,8 C42.5,5.51471863 44.5147186,3.5 47,3.5 C49.4852814,3.5 51.5,5.51471863 51.5,8 C51.5,10.4852814 49.4852814,12.5 47,12.5 Z" id="Oval-3-Copy-2"></path>
                        <path d="M12.4393398,26.5606602 L20.5747739,34.6960942 C21.1605603,35.2818806 22.1103078,35.2818806 22.6960942,34.6960942 C23.2818806,34.1103078 23.2818806,33.1605603 22.6960942,32.5747739 L14.5606602,24.4393398 C13.9748737,23.8535534 13.0251263,23.8535534 12.4393398,24.4393398 C11.8535534,25.0251263 11.8535534,25.9748737 12.4393398,26.5606602 Z" id="Path-3"></path>
                        <path d="M39,39 L52,39 C52.8284271,39 53.5,38.3284271 53.5,37.5 C53.5,36.6715729 52.8284271,36 52,36 L39,36 C38.1715729,36 37.5,36.6715729 37.5,37.5 C37.5,38.3284271 38.1715729,39 39,39 Z" id="Path-3-Copy-2"></path>
                        <path d="M44,31 L44,44 C44,44.8284271 44.6715729,45.5 45.5,45.5 C46.3284271,45.5 47,44.8284271 47,44 L47,31 C47,30.1715729 46.3284271,29.5 45.5,29.5 C44.6715729,29.5 44,30.1715729 44,31 Z" id="Path-3-Copy-2"></path>
                        <path d="M43.2711521,12.6398065 L29.2711521,32.6398065 C28.7960804,33.3184804 28.9611325,34.2537761 29.6398065,34.7288479 C30.3184804,35.2039196 31.2537761,35.0388675 31.7288479,34.3601935 L45.7288479,14.3601935 C46.2039196,13.6815196 46.0388675,12.7462239 45.3601935,12.2711521 C44.6815196,11.7960804 43.7462239,11.9611325 43.2711521,12.6398065 Z" id="Path-3-Copy"></path>
                    </g>
                </g>
            </g>
        </g>
    </g>
</svg>