<?xml version="1.0" encoding="UTF-8" standalone="no"?>
<svg width="185px" height="94px" viewBox="0 0 185 94" version="1.1" xmlns="http://www.w3.org/2000/svg" xmlns:xlink="http://www.w3.org/1999/xlink">
    <!-- Generator: Sketch 43.2 (39069) - http://www.bohemiancoding.com/sketch -->
    <title>Artboard</title>
    <desc>Created with Sketch.</desc>
    <defs></defs>
    <g id="Page-1" stroke="none" stroke-width="1" fill="none" fill-rule="evenodd">
        <g id="Artboard" fill-rule="nonzero">
            <g id="Table+dropzone-Local" transform="translate(13.000000, 3.000000)">
                <path d="M85,16.8 L27.1,16.8 C25.4,16.8 24.1,18.1 24.1,19.8 L24.1,24.1 L6.1,24.1 C4.4,24.1 3.1,25.4 3.1,27.1 L3.1,84 C3.1,85.7 4.4,87 6.1,87 L24.1,87 L85,87 C86.7,87 88,85.7 88,84 L88,19.8 C88,18.1 86.7,16.8 85,16.8 Z" id="Shape" fill-opacity="0.6" fill="#EDF4FD"></path>
                <path d="M19.9,15.6 C19.9,13.9 21.2,12.6 22.9,12.6 L80.9,12.6 C82.6,12.6 83.9,13.9 83.9,15.6 L83.9,80 C83.9,81.7 82.6,83 80.9,83 L19.9,83 L19.9,15.6 L19.9,15.6 Z" id="Shape" fill="#CADDF5"></path>
                <path d="M0,23 C0,21.3 1.3,20 3,20 L21,20 L21,83 L3,83 C1.3,83 0,81.7 0,80 L0,23 Z" id="Shape" fill="#CADDF5"></path>
                <path d="M99.4,4.2 L156.3,4.2 C158,4.2 159.3,5.5 159.3,7.2 L159.3,85 C159.3,86.7 158,88 156.3,88 L99.4,88 C97.7,88 96.4,86.7 96.4,85 L96.4,7.2 C96.4,5.5 97.7,4.2 99.4,4.2 Z" id="Rectangle-2" fill-opacity="0.6" fill="#EDF4FD"></path>
                <path d="M92.2,3 C92.2,1.3 93.5,0 95.2,0 L152,0 C153.7,0 155,1.3 155,3 L155,81 C155,82.7 153.7,84 152,84 L95.1,84 C93.4,84 92.1,82.7 92.1,81 L92.1,3 L92.2,3 Z" id="Shape" fill="#CADDF5"></path>
                <path d="M113.6,1 L133.6,1 L133.6,7.4 L113.6,7.4 L113.6,1 Z M152,1 L134.5,1 L134.5,7.4 L154,7.4 L154,3 C154,1.9 153.2,1 152,1 Z M112.6,1 L95.1,1 C94,1 93.1,1.9 93.1,3 L93.1,7.4 L112.6,7.4 L112.6,1 Z" id="Shape" fill="#E6F1FF"></path>
                <path d="M112.6,83 L95.1,83 C94,83 93.1,82.1 93.1,81 L93.1,8.4 L112.6,8.4 L112.6,83 Z M113.6,83 L133.6,83 L133.6,8.4 L113.6,8.4 L113.6,83 Z M134.6,8.4 L134.6,83 L152,83 C153.1,83 154,82.1 154,81 L154,8.4 L134.6,8.4 Z" id="Shape" fill="#FFFFFF"></path>
                <path d="M1,27.3 L1,23 C1,21.9 1.9,21 3,21 L20,21 L20,27.3 L1,27.3 Z M1,28.3 L1,80 C1,81.1 1.9,82 3,82 L20,82 L20,28.3 L1,28.3 Z" id="Shape" fill="#E6F1FF"></path>
                <path d="M41,28.3 L61,28.3 L61,82 L41,82 L41,28.3 Z M62,27.3 L82.9,27.3 L82.9,21 L62,21 L62,27.3 Z M41,21 L41,27.3 L61,27.3 L61,21 L41,21 Z M62,28.3 L62,82 L80.9,82 C82,82 82.9,81.1 82.9,80 L82.9,28.3 L62,28.3 Z M40,27.3 L40,21 L20.9,21 L20.9,27.3 L40,27.3 Z M40,28.3 L20.9,28.3 L20.9,82 L40,82 L40,28.3 Z" id="Shape" fill="#FFFFFF"></path>
                <path d="M61,13.6 L61,20 L41,20 L41,13.6 L61,13.6 Z M62,20 L82.8,20 L82.8,15.6 C82.8,14.5 81.9,13.6 80.8,13.6 L62,13.6 L62,20 Z M40,13.6 L22.9,13.6 C21.8,13.6 20.9,14.5 20.9,15.6 L20.9,20 L40,20 L40,13.6 Z" id="Shape" fill="#E6F1FF"></path>
            </g>
        </g>
    </g>
</svg>