<?xml version="1.0" encoding="UTF-8"?>
<svg width="74px" height="74px" viewBox="0 0 74 74" version="1.1" xmlns="http://www.w3.org/2000/svg" xmlns:xlink="http://www.w3.org/1999/xlink">
    <!-- Generator: Sketch 42 (36781) - http://www.bohemiancoding.com/sketch -->
    <title>data-1</title>
    <desc>Created with Sketch.</desc>
    <defs>
        <path d="M15.4401956,-0.0392780708 C15.9675648,-1.0154819 16.8197014,-1.02084609 17.3499685,-0.0392780708 L32.969249,28.8732958 C33.4966182,29.8494996 33.0222952,30.6408691 31.926094,30.6408691 L0.864070088,30.6408691 C-0.239417711,30.6408691 -0.709351969,29.8548638 -0.179084884,28.8732958 L15.4401956,-0.0392780708 Z" id="path-1"></path>
        <mask id="mask-2" maskContentUnits="userSpaceOnUse" maskUnits="objectBoundingBox" x="0" y="0" width="32.4128336" height="30.5922095" fill="white">
            <use xlink:href="#path-1"></use>
        </mask>
    </defs>
    <g id="Symbols" stroke="none" stroke-width="1" fill="none" fill-rule="evenodd">
        <g id="data-1">
            <g id="Group-22" transform="translate(5.000000, 3.000000)">
                <g id="Group-9">
                    <path d="M0.6,0.56 L33.9129783,0.56 L40.1436253,6.80739095 C40.1436253,6.80739095 45.5187629,12.1452954 45.5187629,12.1452954 C45.5187629,12.1452954 45.5187629,59.44 45.5187629,59.44 L0.6,59.44 L0.6,0.56 Z" id="Rectangle-71" fill="#6C71BE"></path>
                    <path d="M45.5187629,12.2913502 L45.3562319,12.2913502 L33.6386546,12.2913502 C33.6386546,12.2913502 33.8496726,0.56 33.8662396,0.56 C33.8828065,0.56 45.5187629,12.2913502 45.5187629,12.2913502 Z" id="Path-855" fill="#565BA6"></path>
                    <path d="M34.5321002,36.1225 C34.5769733,36.2786676 34.6,36.4373162 34.6,36.5979994 C34.6,36.6381464 34.5985625,36.6781663 34.595706,36.7180522 L34.5964075,39.3411757 C34.5987978,39.3776727 34.6,39.4142813 34.6,39.4509961 C34.6,39.4877109 34.5987978,39.5243194 34.5964075,39.5608164 L34.5964075,39.7143023 L34.5792839,39.7143023 C34.2194725,41.9944272 29.2175766,43.8015204 23.1,43.8015204 C16.9824234,43.8015204 11.9805275,41.9944272 11.6207161,39.7143023 L11.6,39.7143023 L11.6,36.7180522 L11.6042928,36.7180522 C11.6014375,36.6781663 11.6,36.6381464 11.6,36.5979994 C11.6,36.4373162 11.6230267,36.2786676 11.6678998,36.1225 C12.2940236,38.3015366 17.173469,39.9975248 23.1,39.9975248 C29.026531,39.9975248 33.9059764,38.3015366 34.5321002,36.1225 L34.5321002,36.1225 Z" id="Combined-Shape-Copy-15" fill="#FFFFFF"></path>
                    <path d="M34.5321002,28.52875 C34.5769733,28.6849176 34.6,28.8435662 34.6,29.0042494 C34.6,29.0443964 34.5985625,29.0844163 34.595706,29.1243022 L34.5964075,31.7474257 C34.5987978,31.7839227 34.6,31.8205313 34.6,31.8572461 C34.6,31.8939609 34.5987978,31.9305694 34.5964075,31.9670664 L34.5964075,32.1205523 L34.5792839,32.1205523 C34.2194725,34.4006772 29.2175766,36.2077704 23.1,36.2077704 C16.9824234,36.2077704 11.9805275,34.4006772 11.6207161,32.1205523 L11.6,32.1205523 L11.6,29.1243022 L11.6042928,29.1243022 C11.6014375,29.0844163 11.6,29.0443964 11.6,29.0042494 C11.6,28.8435662 11.6230267,28.6849176 11.6678998,28.52875 C12.2940236,30.7077866 17.173469,32.4037748 23.1,32.4037748 C29.026531,32.4037748 33.9059764,30.7077866 34.5321002,28.52875 L34.5321002,28.52875 Z" id="Combined-Shape-Copy-16" fill="#FFFFFF"></path>
                    <path d="M34.6,21.9105243 C34.6,19.5077961 29.4512746,17.56 23.1,17.56 C16.7487254,17.56 11.6,19.5077961 11.6,21.9105243 C11.6,21.9506712 11.6014375,21.9906911 11.604294,22.030577 L11.6,25.0268272 C11.9805275,27.3069521 16.9824234,29.1140452 23.1,29.1140452 C29.2175766,29.1140452 34.2194725,27.3069521 34.5792839,25.0268272 L34.5964075,24.8733413 C34.5987978,24.8368443 34.6,24.8002357 34.6,24.7635209 C34.6,24.7268061 34.5987978,24.6901976 34.5964075,24.6537005 L34.5964075,22.030577 C34.5985625,21.9906911 34.6,21.9506712 34.6,21.9105243 Z" id="Combined-Shape-Copy-17" fill="#FFFFFF"></path>
                    <ellipse id="Oval-Copy-19" fill="#FFFFFF" cx="23.1" cy="21.77875" rx="11.5" ry="4.21875"></ellipse>
                </g>
                <g id="icon_offline_conflict" transform="translate(28.000000, 32.000000)">
                    <g transform="translate(0.128906, -0.414062)" id="Group-6">
                        <g transform="translate(1.800000, 3.600000)">
                            <g id="Group-3" transform="translate(0.000000, 0.000000)">
                                <use id="Triangle-6" stroke="#D48D19" mask="url(#mask-2)" stroke-width="2" fill="#FFB132" xlink:href="#path-1"></use>
                                <g id="Group" transform="translate(14.400000, 9.000000)" fill="#FFFFFF">
                                    <path d="M1.56584978,10.9311076 C1.56584978,9.38143744 1.39720632,7.91884935 1.05991435,6.54329944 C0.722622372,5.16774952 0.370004232,3.73127907 0.00204934989,2.23384499 C0.00204934989,1.64183617 0.163027196,1.14995386 0.484987718,0.758183315 C0.80694824,0.36641277 1.33587545,0.170530435 2.07178521,0.170530435 C2.71570626,0.170530435 3.1986398,0.362059829 3.52060032,0.745124362 C3.84256084,1.12818889 4.00353869,1.6418359 4.00353869,2.2860808 C4.00353869,2.59949724 3.74290789,3.76608536 3.22163847,5.78588017 C2.70036906,7.80567498 2.43973826,9.52073364 2.43973826,10.9311076 L1.56584978,10.9311076 Z" id="!"></path>
                                    <ellipse id="Oval-83" cx="2.00279402" cy="14.5397925" rx="2.00074467" ry="2.00074467"></ellipse>
                                </g>
                            </g>
                        </g>
                    </g>
                </g>
            </g>
        </g>
    </g>
</svg>