<?xml version="1.0" encoding="UTF-8"?>
<svg width="150px" height="158px" viewBox="0 0 150 158" version="1.1" xmlns="http://www.w3.org/2000/svg" xmlns:xlink="http://www.w3.org/1999/xlink">
    <!-- Generator: Sketch 44.1 (41455) - http://www.bohemiancoding.com/sketch -->
    <title>drag and drop</title>
    <desc>Created with Sketch.</desc>
    <defs>
        <circle id="path-1" cx="6" cy="6" r="6"></circle>
        <rect id="path-2" x="0" y="0" width="5" height="11"></rect>
        <rect id="path-3" x="6" y="3" width="2" height="8"></rect>
        <rect id="path-4" x="9" y="6" width="1" height="5"></rect>
        <rect id="path-5" x="0" y="0" width="3.88888889" height="8.55555556"></rect>
        <rect id="path-6" x="4.66666667" y="2.33333333" width="1.55555556" height="6.22222222"></rect>
        <rect id="path-7" x="7" y="4.66666667" width="1" height="3.88888889"></rect>
        <rect id="path-8" x="0.859375" y="0.759765625" width="9.10791016" height="3"></rect>
        <rect id="path-9" x="0.859375" y="4.75976562" width="9.10791016" height="3"></rect>
        <rect id="path-10" x="0.859375" y="8.75976562" width="9.10791016" height="3"></rect>
    </defs>
    <g id="Dossier-Editor-Designer-Use" stroke="none" stroke-width="1" fill="none" fill-rule="evenodd" opacity="0.45">
        <g id="drag-and-drop">
            <g id="Group-34" transform="translate(38.000000, 5.000000)">
                <g id="noun_770888_cc" opacity="0.25" transform="translate(0.000000, 83.000000)">
                    <rect id="Rectangle-path" x="1" y="0" width="69.0457717" height="69.0457717"></rect>
                    <path d="M68.854745,29.4963537 L61.6271871,16.9108438 C61.5427978,16.7159813 61.3885956,16.552573 61.18913,16.4589776 L34.895733,4.21639512 C34.8918971,4.21486077 34.8888284,4.21332642 34.8857597,4.21255925 C34.8642788,4.20335314 34.8435651,4.19491422 34.8228514,4.18724246 C34.8136453,4.18494094 34.8067407,4.18110506 34.7983018,4.17803636 C34.7752865,4.17036461 34.7522712,4.16422721 34.7284888,4.15885698 C34.7215842,4.15732263 34.7146797,4.15578828 34.7077751,4.15425393 C34.6832255,4.14811653 34.6579087,4.14428065 34.6318247,4.14121195 C34.6264545,4.14044478 34.6203171,4.13891042 34.6149469,4.13814325 C34.5834927,4.13507455 34.5520385,4.1335402 34.5205843,4.1335402 L34.5205843,4.1335402 C34.5198171,4.1335402 34.51905,4.1335402 34.5182828,4.1335402 C34.4875958,4.1335402 34.4561416,4.13507455 34.4262218,4.13814325 C34.4200844,4.13891042 34.413947,4.14044478 34.4085767,4.14121195 C34.3840271,4.14428065 34.3587103,4.14811653 34.3333936,4.15425393 C34.3257218,4.15578828 34.3188172,4.15732263 34.3126798,4.15962416 C34.2888974,4.16576156 34.2658821,4.17189896 34.2436341,4.17803636 C34.2351951,4.18110506 34.2275234,4.18494094 34.2183173,4.18724246 C34.1976035,4.19491422 34.1761226,4.20335314 34.1569433,4.21255925 C34.1523402,4.2140936 34.1485043,4.21486077 34.1446684,4.21639512 L7.85664164,16.4758555 C7.85280577,16.4773898 7.84896989,16.4796913 7.84590119,16.4819929 C7.82979051,16.4888975 7.814447,16.4965692 7.79987067,16.504241 C7.79756915,16.5057753 7.79526762,16.5080768 7.79219892,16.5096112 C7.75921039,16.5280234 7.7277562,16.5487371 7.69706919,16.5717524 C7.69553484,16.5732867 7.69323332,16.5740539 7.69169897,16.5755883 C7.67865699,16.5863287 7.66561501,16.596302 7.6533402,16.6078096 C7.64796998,16.6131798 7.64183257,16.6170157 7.63722952,16.6223859 C7.62572189,16.6331264 7.61421427,16.6430997 7.60270664,16.6546073 C7.59733641,16.6607447 7.59196618,16.6668821 7.58659596,16.6714852 C7.56895093,16.6898974 7.55284025,16.7098439 7.53672957,16.7297905 C7.52982499,16.7382294 7.52292041,16.7466683 7.51601584,16.7558744 C7.50834408,16.7658477 7.50143951,16.775821 7.4953021,16.7865614 C7.48763035,16.7980691 7.4799586,16.8095767 7.4738212,16.8203172 C7.46998532,16.8272217 7.46538227,16.832592 7.46154639,16.8379622 L0.192560985,29.4963537 C0.0690457717,29.7119299 0.041427463,29.970468 0.115843461,30.2075251 C0.191026635,30.4461166 0.362106714,30.6402119 0.587656235,30.745315 L7.34340141,33.8945693 L7.34340141,51.7628479 C7.34340141,52.1096111 7.54363414,52.4233857 7.85740882,52.569149 L34.14697,64.8286094 C34.1508058,64.8309109 34.1554089,64.8316781 34.1584776,64.8324453 C34.1791913,64.8431857 34.2006722,64.8500903 34.221386,64.8592964 C34.2305921,64.8623651 34.2374967,64.8654338 34.2451684,64.8669681 C34.2681837,64.8754071 34.2919661,64.8823116 34.3157485,64.8861475 C34.3226531,64.8876819 34.3295577,64.8899834 34.3356951,64.8915178 C34.3602447,64.8976552 34.3855615,64.901491 34.4124126,64.9037926 C34.4177828,64.9045597 34.4239202,64.9060941 34.4285233,64.9068613 C34.4592103,64.9106971 34.4906645,64.9129987 34.5213515,64.9129987 C34.5221187,64.9129987 34.5221187,64.9129987 34.5228858,64.9129987 L34.5228858,64.9129987 C34.5228858,64.9129987 34.5228858,64.9129987 34.523653,64.9129987 C34.5551072,64.9129987 34.5865614,64.9114643 34.6180156,64.9068613 C34.6233858,64.9060941 34.628756,64.9045597 34.6341263,64.9037926 C34.659443,64.901491 34.6847598,64.8976552 34.7108438,64.8915178 C34.7177484,64.8899834 34.7246529,64.8876819 34.7315575,64.8853804 C34.7538056,64.8815445 34.7783552,64.8746399 34.8006033,64.8669681 C34.8090422,64.8654338 34.816714,64.8623651 34.8243857,64.8592964 C34.8458666,64.8500903 34.8665803,64.8431857 34.8872941,64.8332124 C34.8903628,64.8316781 34.8949658,64.8309109 34.8988017,64.8286094 L61.18913,52.5699162 C61.5021375,52.4249201 61.7016031,52.1103782 61.7016031,51.763615 L61.7016031,33.8961037 L68.460417,30.7460821 C68.6851993,30.6409791 68.8570466,30.4461166 68.9314626,30.2082923 C69.0058786,29.970468 68.9790274,29.7119299 68.854745,29.4963537 Z M35.4120419,28.1422894 L35.4120419,27.7617704 C35.4120419,27.2700111 35.0131108,26.8726143 34.5228858,26.8726143 C34.0326609,26.8726143 33.6337297,27.2707783 33.6337297,27.7617704 L33.6337297,28.1445909 L10.336152,17.2813895 L33.6321954,6.41818807 L33.6321954,6.80100851 C33.6321954,7.29200066 34.0311265,7.69016461 34.5205843,7.69016461 C35.0123436,7.69016461 35.4112748,7.29046631 35.4105076,6.80024134 L35.4105076,6.41742089 L58.7088525,17.266046 L35.4120419,28.1422894 Z M8.59619857,18.4321523 L33.2693215,29.9367123 L26.8894922,41.0469441 L2.2156021,29.5431514 L8.59619857,18.4321523 Z M59.9232909,51.1982069 L35.4120419,62.6268164 L35.4105076,45.5855528 C35.4105076,45.0937935 35.0115765,44.6956295 34.5205843,44.6956295 C34.0295922,44.6956295 33.6321954,45.0945607 33.6321954,45.5855528 L33.6337297,62.6268164 L9.12094644,51.1974397 L9.12094644,34.7246529 L26.8779846,43.0040081 C26.9984311,43.0600119 27.1265493,43.0868631 27.2523661,43.0868631 C27.5623049,43.0868631 27.860736,42.9257563 28.0249116,42.6403671 L34.5228858,31.3245323 L41.0208601,42.6403671 C41.1858028,42.9257563 41.484234,43.0868631 41.7926384,43.0868631 C41.9192223,43.0868631 42.0473406,43.0600119 42.1685543,43.0040081 L59.9240581,34.7254201 L59.9240581,51.1982069 L59.9232909,51.1982069 Z M42.1570467,41.0469441 L35.7764502,29.9367123 L60.4518746,18.4321523 L66.8301696,29.5431514 L42.1570467,41.0469441 Z" id="Shape" fill="#000000" fill-rule="nonzero"></path>
                    <path d="M34.5205843,10.1036979 C34.0303593,10.1036979 33.6321954,10.502629 33.6321954,10.992854 L33.6329626,15.1854667 C33.6329626,15.6756917 34.0311265,16.0738556 34.5221187,16.0738556 C35.0131108,16.0738556 35.4112748,15.6749245 35.4112748,15.1854667 L35.4112748,10.992854 C35.4112748,10.5018619 35.0131108,10.1036979 34.5205843,10.1036979 Z" id="Shape" fill="#000000" fill-rule="nonzero"></path>
                    <path d="M34.5221187,18.487389 C34.0311265,18.4881561 33.6337297,18.8870873 33.6337297,19.3780794 L33.6337297,23.5683906 C33.6337297,24.0609171 34.0326609,24.4583139 34.5221187,24.4583139 C35.013878,24.4583139 35.4120419,24.0601499 35.4120419,23.5683906 L35.4112748,19.3773122 C35.4112748,18.8855529 35.0131108,18.487389 34.5221187,18.487389 Z" id="Shape" fill="#000000" fill-rule="nonzero"></path>
                </g>
                <g id="geo-attribute" transform="translate(45.000000, 28.000000)">
                    <g id="Group-3-Copy-2">
                        <rect id="Rectangle-2961-Copy-12" fill="#00FFA0" opacity="0" x="0" y="0" width="18" height="18"></rect>
                        <path d="M5.04925161,10.0649497 C4.39159353,9.21844738 4,8.15495448 4,7 C4,4.23857625 6.23857625,2 9,2 C11.7614237,2 14,4.23857625 14,7 C14,8.35751812 13.4590003,9.58867898 12.5808394,10.489644 L9,16 L5.04925161,10.0649497 Z M9,10 C10.6568542,10 12,8.65685425 12,7 C12,5.34314575 10.6568542,4 9,4 C7.34314575,4 6,5.34314575 6,7 C6,8.65685425 7.34314575,10 9,10 Z" id="Combined-Shape" stroke="#3FB582" fill="#6CC9A7"></path>
                    </g>
                </g>
                <g id="time-attribute" transform="translate(13.000000, 17.000000)">
                    <g id="Group-3-Copy-4" fill="#00FFA0" opacity="0">
                        <rect id="Rectangle-2961-Copy-12" x="0" y="0" width="18" height="18"></rect>
                    </g>
                    <g id="Group-10" transform="translate(3.000000, 3.000000)">
                        <g id="Oval-93">
                            <use fill="#74CEA7" fill-rule="evenodd" xlink:href="#path-1"></use>
                            <circle stroke="#3FB582" stroke-width="1" cx="6" cy="6" r="5.5"></circle>
                        </g>
                        <polyline id="Path-4" stroke="#FFFFFF" points="5.5 2.5 5.5 6.5 9.5 6.5"></polyline>
                    </g>
                </g>
                <g id="metric" transform="translate(26.000000, 37.000000)">
                    <g id="Group-3-Copy-3" stroke-width="1" transform="translate(4.000000, 4.000000)">
                        <g id="metric-copy">
                            <g id="Rectangle-433">
                                <use fill="#F7ECDE" fill-rule="evenodd" xlink:href="#path-2"></use>
                                <rect stroke="#E99E41" stroke-width="1" x="-0.5" y="-0.5" width="6" height="12"></rect>
                            </g>
                            <path d="M1,2.5 L5,2.5" id="Line" stroke="#E99D41"></path>
                            <path d="M1,8.5 L5,8.5" id="Line-Copy-18" stroke="#E99D41"></path>
                            <path d="M2,5.5 L5,5.5" id="Line-Copy-17" stroke="#E99D41"></path>
                            <g id="Rectangle-433-Copy">
                                <use fill="#F7ECDE" fill-rule="evenodd" xlink:href="#path-3"></use>
                                <rect stroke="#E99E41" stroke-width="1" x="5.5" y="2.5" width="3" height="9"></rect>
                            </g>
                            <g id="Rectangle-433-Copy-2">
                                <use fill="#F7ECDE" fill-rule="evenodd" xlink:href="#path-4"></use>
                                <rect stroke="#E99E41" stroke-width="1" x="8.5" y="5.5" width="2" height="6"></rect>
                            </g>
                        </g>
                    </g>
                    <rect id="Rectangle-2961-Copy-12" fill="#00FFA0" opacity="0" x="0" y="0" width="18" height="18"></rect>
                </g>
                <g id="metric">
                    <g id="Group-3-Copy-3" stroke-width="1" transform="translate(3.111111, 3.111111)">
                        <g id="metric-copy">
                            <g id="Rectangle-433">
                                <use fill="#F7ECDE" fill-rule="evenodd" xlink:href="#path-5"></use>
                                <rect stroke="#E99E41" stroke-width="1" x="-0.5" y="-0.5" width="4.88888889" height="9.55555556"></rect>
                            </g>
                            <path d="M0.777777778,1.94444444 L3.88888889,1.94444444" id="Line" stroke="#E99D41"></path>
                            <path d="M0.777777778,6.61111111 L3.88888889,6.61111111" id="Line-Copy-18" stroke="#E99D41"></path>
                            <path d="M1.55555556,4.27777778 L3.88888889,4.27777778" id="Line-Copy-17" stroke="#E99D41"></path>
                            <g id="Rectangle-433-Copy">
                                <use fill="#F7ECDE" fill-rule="evenodd" xlink:href="#path-6"></use>
                                <rect stroke="#E99E41" stroke-width="1" x="4.16666667" y="1.83333333" width="2.55555556" height="7.22222222"></rect>
                            </g>
                            <g id="Rectangle-433-Copy-2">
                                <use fill="#F7ECDE" fill-rule="evenodd" xlink:href="#path-7"></use>
                                <rect stroke="#E99E41" stroke-width="1" x="6.5" y="4.16666667" width="1.77777778" height="4.88888889"></rect>
                            </g>
                        </g>
                    </g>
                    <rect id="Rectangle-2961-Copy-12" fill="#00FFA0" opacity="0" x="0" y="0" width="14" height="14"></rect>
                </g>
                <circle id="Oval" stroke="#444649" opacity="0.296422101" cx="15" cy="47" r="2"></circle>
                <circle id="Oval-Copy" stroke="#444649" opacity="0.296422101" cx="54" cy="56" r="2"></circle>
                <g id="Group-24" transform="translate(41.000000, 20.000000)" stroke="#979797" stroke-linecap="square" opacity="0.51953125">
                    <path d="M0.6,0.6 L5.69116882,5.69116882" id="Line"></path>
                    <path d="M0.308831175,0.6 L5.4,5.69116882" id="Line" transform="translate(2.854416, 3.145584) scale(-1, 1) translate(-2.854416, -3.145584) "></path>
                </g>
                <g id="Group-24-Copy" transform="translate(0.000000, 28.000000)" stroke="#979797" stroke-linecap="square" opacity="0.51953125">
                    <path d="M0.6,0.6 L5.69116882,5.69116882" id="Line"></path>
                    <path d="M0.308831175,0.6 L5.4,5.69116882" id="Line" transform="translate(2.854416, 3.145584) scale(-1, 1) translate(-2.854416, -3.145584) "></path>
                </g>
                <g id="attribute" transform="translate(6.000000, 56.000000)" stroke="#3FB582" fill="#86D4B2">
                    <polygon id="attr" points="23 10 17 16 11 10 17 4"></polygon>
                </g>
                <g id="Custom-Group" transform="translate(37.000000, 64.000000)">
                    <g id="Group-5">
                        <rect id="Rectangle-2961-Copy-12" fill="#00FFA0" opacity="0" x="0" y="0" width="18" height="18"></rect>
                        <g id="Group-7" transform="translate(1.140625, 3.240234)" stroke="#3FB582" stroke-linecap="square">
                            <path d="M1.859375,1.5 L1.859375,9.5" id="Line"></path>
                            <path d="M1.859375,9.5 L4.859375,9.5" id="Line"></path>
                            <path d="M1.859375,5.5 L4.859375,5.5" id="Line"></path>
                            <path d="M4.859375,1.5 L2.859375,1.5" id="Line"></path>
                        </g>
                        <g id="Group-8" transform="translate(5.140625, 2.240234)">
                            <g id="Rectangle-416">
                                <use fill="#6FCBA3" fill-rule="evenodd" xlink:href="#path-8"></use>
                                <rect stroke="#3FB582" stroke-width="1" x="1.359375" y="1.25976562" width="8.10791016" height="2"></rect>
                            </g>
                            <g id="Rectangle-416-Copy">
                                <use fill="#6FCBA3" fill-rule="evenodd" xlink:href="#path-9"></use>
                                <rect stroke="#3FB582" stroke-width="1" x="1.359375" y="5.25976562" width="8.10791016" height="2"></rect>
                            </g>
                            <g id="Rectangle-416-Copy-2">
                                <use fill="#6FCBA3" fill-rule="evenodd" xlink:href="#path-10"></use>
                                <rect stroke="#3FB582" stroke-width="1" x="1.359375" y="9.25976562" width="8.10791016" height="2"></rect>
                            </g>
                        </g>
                    </g>
                </g>
            </g>
        </g>
    </g>
</svg>