<?xml version="1.0" encoding="UTF-8"?>
<svg width="150px" height="150px" viewBox="0 0 150 150" version="1.1" xmlns="http://www.w3.org/2000/svg" xmlns:xlink="http://www.w3.org/1999/xlink">
    <!-- Generator: Sketch 44.1 (41455) - http://www.bohemiancoding.com/sketch -->
    <title>add dataset</title>
    <desc>Created with Sketch.</desc>
    <defs>
        <path d="M52.2095908,75.0603109 C52.1180881,75.289359 52.0676692,75.5392007 52.0676692,75.8007515 L52.0676692,108.563575 C52.0676692,109.675857 52.9628343,110.566534 54.0670765,110.566534 L96.2549158,110.566534 C97.3524367,110.566534 98.2543232,109.669779 98.2543232,108.563575 L98.2543232,75.8007515 C98.2543232,74.6884693 97.359158,73.7977926 96.2549158,73.7977926 L68.4695854,73.7977926 C68.3824813,73.7696165 68.291425,73.7381439 68.196342,73.7030278 C67.4498637,73.4273384 66.6361243,72.6196726 65.8136972,72.0920263 C65.2226294,71.7128137 64.5838885,71.5404581 64.1641738,71.5234375 L64.1641738,71.5234375 L52.869325,71.5234375 C52.4260457,71.5234375 52.0676692,71.8942638 52.0676692,72.3517012 L52.0676692,75.0256679 L52.2095908,75.0603109 Z" id="path-1"></path>
        <path d="M52.0893723,78.8515625 L98.3554079,78.8515625 C99.2578278,78.8515625 99.964068,79.5688218 99.9324959,80.4633426 L98.9224459,109.080754 C98.8910277,109.970916 98.1650529,110.692535 97.3057257,110.692535 L53.1390545,110.692535 C52.2775828,110.692535 51.5539064,109.975275 51.5223343,109.080754 L50.5122843,80.4633426 C50.4808661,79.573181 51.1891989,78.8515625 52.0893723,78.8515625 Z" id="path-2"></path>
    </defs>
    <g id="Dossier-Editor-Designer-Use" stroke="none" stroke-width="1" fill="none" fill-rule="evenodd">
        <g id="add-dataset">
            <g id="Combined-Shape">
                <use fill="#E5EFF8" fill-rule="evenodd" xlink:href="#path-1"></use>
                <path stroke="#D2E4F5" stroke-width="1" d="M52.5676692,74.6330372 L52.1862379,74.5399298 L52.0676692,75.0256679 L52.5676692,75.0256679 L52.5676692,74.6330372 Z"></path>
            </g>
            <g id="icon_Dataset" opacity="0.6" transform="translate(23.245271, 74.154831) rotate(-16.000000) translate(-23.245271, -74.154831) translate(12.066150, 62.987389)">
                <g>
                    <rect id="outline" x="0" y="0" width="22" height="22"></rect>
                    <g id="Dataset" transform="translate(1.222222, 1.222222)" fill="#444649">
                        <g id="Group-26" transform="translate(0.548896, 0.000000)">
                            <path d="M17.8011602,4.14559586 C17.8032856,4.11552407 17.8043552,4.08535128 17.8043552,4.05508273 C17.8043552,2.24355904 13.9733511,0.775028935 9.24756798,0.775028935 C4.52178489,0.775028935 0.690780755,2.24355904 0.690780755,4.05508273 C0.690780755,4.08535128 0.691850322,4.11552407 0.693975759,4.14559586 L0.690780755,4.14559583 L0.690780755,6.40460211 L0.706194931,6.40460211 C0.973919267,8.12368972 4.69567222,9.48613761 9.24756798,9.48613761 C13.7994637,9.48613761 17.5212167,8.12368972 17.788941,6.40460211 L17.8016821,6.40460211 L17.8016821,6.28888228 C17.8034607,6.26136556 17.8043552,6.23376473 17.8043552,6.20608382 C17.8043552,6.17840291 17.8034607,6.15080208 17.8016821,6.12328536 L17.8016821,4.14559583 L17.8011602,4.14559586 Z" id="Combined-Shape"></path>
                            <g id="Group" transform="translate(0.569745, 7.333333)">
                                <path d="M17.1706217,1.122111 C17.2039865,1.23985267 17.2211076,1.35946494 17.2211076,1.48061118 C17.2211076,1.51087974 17.2200388,1.54105253 17.2179149,1.57112432 L17.2184365,3.54881382 C17.2202138,3.57633054 17.2211076,3.60393137 17.2211076,3.63161228 C17.2211076,3.65929319 17.2202138,3.68689402 17.2184365,3.71441074 L17.2184365,3.83013057 L17.2057045,3.83013057 C16.9381722,5.54921818 13.2190881,6.91166607 8.67045643,6.91166607 C4.12182481,6.91166607 0.402740705,5.54921818 0.135208352,3.83013057 L0.11980523,3.83013057 L0.11980523,1.57112429 L0.122997066,1.57112429 C0.12087403,1.54105253 0.11980523,1.51087974 0.11980523,1.48061118 C0.11980523,1.35946494 0.136926381,1.23985267 0.170291126,1.122111 C0.635835987,2.76498366 4.26387385,4.04366461 8.67045643,4.04366461 C13.077039,4.04366461 16.7050769,2.76498366 17.1706217,1.122111 L17.1706217,1.122111 Z" id="Combined-Shape"></path>
                                <path d="M17.1735725,6.10021973 C17.2069149,6.21796139 17.2240246,6.33757366 17.2240246,6.45871991 C17.2240246,6.48898846 17.2229565,6.51916126 17.220834,6.54923304 L17.2213553,8.52692254 C17.2231313,8.55443927 17.2240246,8.58204009 17.2240246,8.609721 C17.2240246,8.63740191 17.2231313,8.66500274 17.2213553,8.69251946 L17.2213553,8.80823929 L17.2086318,8.80823929 C16.9412785,10.5273269 13.2246832,11.8897748 8.67909553,11.8897748 C4.13350786,11.8897748 0.416912581,10.5273269 0.149559262,8.80823929 L0.134166447,8.80823929 L0.134166447,6.54923302 L0.137356147,6.54923302 C0.135234532,6.51916126 0.134166447,6.48898846 0.134166447,6.45871991 C0.134166447,6.33757366 0.151276141,6.21796139 0.184618558,6.10021973 C0.649851875,7.74309238 4.27546185,9.02177334 8.67909553,9.02177334 C13.0827292,9.02177334 16.7083392,7.74309238 17.1735725,6.10021973 L17.1735725,6.10021973 Z" id="Combined-Shape"></path>
                            </g>
                        </g>
                    </g>
                </g>
            </g>
            <g id="thumbnailicon_Dossier" transform="translate(85.955859, 70.069851) rotate(15.000000) translate(-85.955859, -70.069851) translate(67.019768, 51.226101)">
                <g id="icon_Dataset" transform="translate(0.000000, -0.000000)">
                    <rect id="outline" x="1.59247052e-12" y="-4.31432667e-13" width="37.5049463" height="37.4657609"></rect>
                    <g id="Dataset" transform="translate(3.121202, 3.128306)" fill="#8F9092">
                        <g id="Group-26" transform="translate(0.416944, -0.000000)">
                            <path d="M29.8280919,6.01302968 C29.8317153,5.96181776 29.8335387,5.91043382 29.8335387,5.85888681 C29.8335387,2.77388166 23.3025567,0.272990853 15.2461821,0.272990853 C7.18980751,0.272990853 0.658825512,2.77388166 0.658825512,5.85888681 C0.658825512,5.91043382 0.660648878,5.96181776 0.664272259,6.01302968 L0.658825512,6.01302965 L0.658825512,9.86009278 L0.685103141,9.86009278 C1.14151163,12.7876803 7.48624547,15.1079142 15.2461821,15.1079142 C23.0061187,15.1079142 29.3508526,12.7876803 29.807261,9.86009278 L29.8289817,9.86009278 L29.8289817,9.66302317 C29.8320137,9.61616249 29.8335387,9.56915858 29.8335387,9.52201829 C29.8335387,9.474878 29.8320137,9.42787409 29.8289817,9.38101341 L29.8289817,6.01302965 L29.8280919,6.01302968 Z" id="Combined-Shape"></path>
                            <g id="Group" transform="translate(0.452488, 11.441712)">
                                <path d="M29.2719657,1.91094284 C29.3288449,2.11145562 29.3580326,2.31515402 29.3580326,2.52146475 C29.3580326,2.57301177 29.3562105,2.62439571 29.3525897,2.67560763 L29.3534789,6.04359136 C29.3565087,6.09045204 29.3580326,6.13745595 29.3580326,6.18459624 C29.3580326,6.23173653 29.3565087,6.27874043 29.3534789,6.32560111 L29.3534789,6.52267073 L29.3317738,6.52267073 C28.8756926,9.45025824 22.5355085,11.7704922 14.7811365,11.7704922 C7.02676445,11.7704922 0.686580387,9.45025824 0.230499181,6.52267073 L0.204240396,6.52267073 L0.204240396,2.6756076 L0.209681744,2.6756076 C0.206062454,2.62439571 0.204240396,2.57301177 0.204240396,2.52146475 C0.204240396,2.31515402 0.233428026,2.11145562 0.290307251,1.91094284 C1.0839543,4.70873712 7.26892544,6.88631688 14.7811365,6.88631688 C22.2933475,6.88631688 28.4783187,4.70873712 29.2719657,1.91094284 L29.2719657,1.91094284 Z" id="Combined-Shape"></path>
                                <path d="M29.2769961,10.3886079 C29.3338372,10.5891207 29.3630053,10.7928191 29.3630053,10.9991298 C29.3630053,11.0506768 29.3611845,11.1020608 29.3575661,11.1532727 L29.3584547,14.5212564 C29.3614825,14.5681171 29.3630053,14.615121 29.3630053,14.6622613 C29.3630053,14.7094016 29.3614825,14.7564055 29.3584547,14.8032662 L29.3584547,15.0003358 L29.3367641,15.0003358 C28.8809881,17.9279233 22.5450469,20.2481572 14.7958642,20.2481572 C7.04668138,20.2481572 0.71074018,17.9279233 0.254964185,15.0003358 L0.228722972,15.0003358 L0.228722972,11.1532726 L0.234160679,11.1532726 C0.230543811,11.1020608 0.228722972,11.0506768 0.228722972,10.9991298 C0.228722972,10.7928191 0.25789107,10.5891207 0.314732232,10.3886079 C1.10784817,13.1864022 7.28868031,15.3639819 14.7958642,15.3639819 C22.303048,15.3639819 28.4838801,13.1864022 29.2769961,10.3886079 L29.2769961,10.3886079 Z" id="Combined-Shape"></path>
                            </g>
                        </g>
                    </g>
                </g>
            </g>
            <g id="icon_Dataset" opacity="0.6" transform="translate(121.415280, 42.635783) rotate(6.000000) translate(-121.415280, -42.635783) translate(111.152614, 32.383839)">
                <g>
                    <rect id="outline" x="0" y="0" width="21" height="21"></rect>
                    <g id="Dataset" transform="translate(1.166667, 1.166667)" fill="#444649">
                        <g id="Group-26" transform="translate(0.523946, 0.000000)">
                            <path d="M16.9920165,3.95715968 C16.9940454,3.9284548 16.9950663,3.89965349 16.9950663,3.87076078 C16.9950663,2.14157908 13.3381987,0.739800347 8.82722398,0.739800347 C4.31624921,0.739800347 0.65938163,2.14157908 0.65938163,3.87076078 C0.65938163,3.89965349 0.66040258,3.9284548 0.662431406,3.95715968 L0.65938163,3.95715966 L0.65938163,6.11348383 L0.674095161,6.11348383 C0.92965021,7.75443109 4.48223257,9.05494954 8.82722398,9.05494954 C13.1722154,9.05494954 16.7247977,7.75443109 16.9803528,6.11348383 L16.9925148,6.11348383 L16.9925148,6.00302399 C16.9942125,5.97675803 16.9950663,5.95041179 16.9950663,5.9239891 C16.9950663,5.89756641 16.9942125,5.87122017 16.9925148,5.84495421 L16.9925148,3.95715966 L16.9920165,3.95715968 Z" id="Combined-Shape"></path>
                            <g id="Group" transform="translate(0.543848, 7.000000)">
                                <path d="M16.3901389,1.07110596 C16.4219871,1.18349573 16.43833,1.29767108 16.43833,1.41331068 C16.43833,1.44220339 16.4373098,1.47100469 16.4352824,1.49970957 L16.4357803,3.3875041 C16.4374768,3.41377006 16.43833,3.44011631 16.43833,3.46653899 C16.43833,3.49296168 16.4374768,3.51930792 16.4357803,3.54557389 L16.4357803,3.65603373 L16.423627,3.65603373 C16.1682552,5.29698099 12.6182204,6.59749943 8.27634478,6.59749943 C3.93446914,6.59749943 0.38443431,5.29698099 0.129062518,3.65603373 L0.114359538,3.65603373 L0.114359538,1.49970955 L0.11740629,1.49970955 C0.115379756,1.47100469 0.114359538,1.44220339 0.114359538,1.41331068 C0.114359538,1.29767108 0.130702455,1.18349573 0.16255062,1.07110596 C0.606934351,2.63930258 4.0700614,3.85986167 8.27634478,3.85986167 C12.4826282,3.85986167 15.9457552,2.63930258 16.3901389,1.07110596 L16.3901389,1.07110596 Z" id="Combined-Shape"></path>
                                <path d="M16.3929556,5.82293701 C16.4247824,5.93532678 16.4411144,6.04950213 16.4411144,6.16514173 C16.4411144,6.19403444 16.4400949,6.22283574 16.4380689,6.25154063 L16.4385664,8.13933516 C16.4402617,8.16560112 16.4411144,8.19194736 16.4411144,8.21837005 C16.4411144,8.24479274 16.4402617,8.27113898 16.4385664,8.29740494 L16.4385664,8.40786478 L16.4264213,8.40786478 C16.1712204,10.048812 12.6235612,11.3493305 8.28459119,11.3493305 C3.94562114,11.3493305 0.397962009,10.048812 0.142761113,8.40786478 L0.128067972,8.40786478 L0.128067972,6.25154061 L0.131112686,6.25154061 C0.129087508,6.22283574 0.128067972,6.19403444 0.128067972,6.16514173 C0.128067972,6.04950213 0.144399953,5.93532678 0.176226805,5.82293701 C0.620313153,7.39113364 4.08112267,8.61169273 8.28459119,8.61169273 C12.4880597,8.61169273 15.9488692,7.39113364 16.3929556,5.82293701 L16.3929556,5.82293701 Z" id="Combined-Shape"></path>
                            </g>
                        </g>
                    </g>
                </g>
            </g>
            <ellipse id="Oval-87" stroke="#8F9092" stroke-width="2" transform="translate(39.311885, 49.043526) rotate(20.000000) translate(-39.311885, -49.043526) " cx="39.3118854" cy="49.0435262" rx="1.59398496" ry="1.6171875"></ellipse>
            <ellipse id="Oval-87-Copy" stroke="#8F9092" stroke-width="2" transform="translate(125.003010, 82.780803) rotate(20.000000) translate(-125.003010, -82.780803) " cx="125.00301" cy="82.7808034" rx="1.59398496" ry="1.6171875"></ellipse>
            <g id="Rectangle-897">
                <use fill="#E5EFF8" fill-rule="evenodd" xlink:href="#path-2"></use>
                <path stroke="#D2E4F5" stroke-width="1" d="M52.0893723,79.3515625 C51.469848,79.3515625 50.9906246,79.8408462 51.0119731,80.4457061 L52.0220232,109.063118 C52.0441603,109.690323 52.5488205,110.192535 53.1390545,110.192535 L97.3057257,110.192535 C97.8929945,110.192535 98.4007443,109.6868 98.4227571,109.063118 L99.4328071,80.4457061 C99.4542794,79.8373377 98.9780384,79.3515625 98.3554079,79.3515625 L52.0893723,79.3515625 Z"></path>
            </g>
        </g>
    </g>
</svg>