<?xml version="1.0" encoding="UTF-8" standalone="no"?>
<svg width="152px" height="75px" viewBox="0 0 152 75" version="1.1" xmlns="http://www.w3.org/2000/svg" xmlns:xlink="http://www.w3.org/1999/xlink">
    <!-- Generator: Sketch 42 (36781) - http://www.bohemiancoding.com/sketch -->
    <title>icon</title>
    <desc>Created with Sketch.</desc>
    <defs></defs>
    <g id="Page-1" stroke="none" stroke-width="1" fill="none" fill-rule="evenodd">
        <g id="icon">
            <path d="M18.6,10 L16.600125,11.994 L18.6,13.996625 L19.210625,13.39975 L18.202375,12.40175 L18.202375,12.39125 L20.8,12.39125 L20.8,15.591 L21.599875,15.591 L21.599875,11.991 L21.599875,11.59125 L18.205125,11.59125 L19.210625,10.59475 L18.6,10 Z M13.800125,10 L10,13.8 L13.800125,17.6 L17.600125,13.8 L13.800125,10 Z M14.4,18.2 L18.2,22 L22,18.2 L18.2,14.4 L14.4,18.2 Z M10.8,16.4 L10.8,20.8 L10.8,21.2 L15.600125,21.2 L15.600125,20.400125 L11.6,20.400125 L11.6,16.4 L10.8,16.4 Z" id="RA-Copy" fill="#00BA9D"></path>
            <g id="info-icon" transform="translate(50.000000, 10.000000)">
                <g id="icon_offline_success" transform="translate(0.687675, 0.324930)">
                    <g>
                        <rect id="outline" x="0" y="0" width="14.3417367" height="14.3417367"></rect>
                        <g id="Group-6" transform="translate(0.717087, 0.717087)" fill="#14B4E6">
                            <circle id="Oval-14" cx="6.45378151" cy="6.45378151" r="6.45378151"></circle>
                        </g>
                    </g>
                </g>
                <path d="M8.26118925,5.02030305 C8.26118925,4.89894845 8.22029864,4.7987005 8.13851619,4.7195562 C8.05673375,4.64041189 7.95516675,4.60084034 7.83381215,4.60084034 C7.71245755,4.60084034 7.61089055,4.64041189 7.52910811,4.7195562 C7.44732566,4.7987005 7.40643505,4.89894845 7.40643505,5.02030305 C7.40643505,5.13638136 7.44864471,5.2366293 7.5330653,5.32104989 C7.61748589,5.40547049 7.71773384,5.44768015 7.83381215,5.44768015 C7.95516675,5.44768015 8.05673375,5.40678954 8.13851619,5.32500709 C8.22029864,5.24322464 8.26118925,5.14165764 8.26118925,5.02030305 L8.26118925,5.02030305 Z M8.70439513,10.0934275 L8.70439513,10.0142836 C8.65163226,10.003731 8.59755113,9.99713578 8.54215012,9.99449764 C8.48674911,9.99185949 8.43530608,9.98526423 8.3878195,9.97471166 C8.34033292,9.96415909 8.29944231,9.94701141 8.26514645,9.92326812 C8.23085058,9.89952483 8.2084267,9.86127232 8.19787412,9.80850945 L8.19787412,6.27077679 L8.15038778,6.27077679 L7.08194503,6.61900998 L7.08194503,6.66649632 C7.15581304,6.69287776 7.2257228,6.7218969 7.29167638,6.75355462 C7.35762997,6.78521234 7.4143492,6.81686959 7.46183578,6.84852731 C7.49876979,6.87490875 7.52119368,6.90392789 7.52910811,6.93558561 C7.53702254,6.96724333 7.54097969,7.00417678 7.54097969,7.04638708 L7.54097969,9.76102311 C7.54097969,9.80850969 7.52383202,9.84808125 7.48953615,9.87973897 C7.45524029,9.91139669 7.41303063,9.93645868 7.3629059,9.95492568 C7.31278117,9.97339269 7.25606194,9.98658321 7.1927465,9.99449764 C7.12943106,10.0024121 7.06611656,10.0090073 7.00280112,10.0142836 L7.00280112,10.0934275 L8.70439513,10.0934275 Z" id="i" stroke="#FFFFFF" stroke-width="0.5" fill="#FFFFFF"></path>
            </g>
            <text id="12*12" font-family="Arial-BoldMT, Arial" font-size="10" font-weight="bold" fill="#444649">
                <tspan x="5" y="67">12*12</tspan>
            </text>
            <text id="16*16" font-family="Arial-BoldMT, Arial" font-size="10" font-weight="bold" fill="#444649">
                <tspan x="50" y="67">16*16</tspan>
            </text>
            <text id="18*18" font-family="Arial-BoldMT, Arial" font-size="10" font-weight="bold" fill="#444649">
                <tspan x="99" y="67">18*18</tspan>
            </text>
            <text id="(10,10)" font-family="Arial-BoldMT, Arial" font-size="9" font-weight="bold" fill="#444649">
                <tspan x="5" y="44">(10,10)</tspan>
            </text>
            <text id="(x,y)" font-family="Arial-BoldMT, Arial" font-size="6" font-weight="bold" fill="#9B9B9B">
                <tspan x="5" y="34">(x,y)</tspan>
            </text>
            <text id="size" font-family="Arial-BoldMT, Arial" font-size="6" font-weight="bold" fill="#9B9B9B">
                <tspan x="5" y="57">size</tspan>
            </text>
            <text id="(50,10)" font-family="Arial-BoldMT, Arial" font-size="9" font-weight="bold" fill="#444649">
                <tspan x="49" y="44">(50,10)</tspan>
            </text>
            <text id="(100,10)" font-family="Arial-BoldMT, Arial" font-size="9" font-weight="bold" fill="#444649">
                <tspan x="95" y="44">(100,10)</tspan>
            </text>
            <g id="info-icon" transform="translate(100.000000, 10.000000)">
                <ellipse id="Oval-98" fill="#FFB132" cx="9" cy="9" rx="7" ry="7"></ellipse>
                <text id="!" font-family="Helvetica-Bold, Helvetica" font-size="11" font-weight="bold" fill="#FFFFFF">
                    <tspan x="7.16845703" y="13">!</tspan>
                </text>
            </g>
        </g>
    </g>
</svg>