<?xml version="1.0" encoding="UTF-8" standalone="no"?>
<svg width="470px" height="373px" viewBox="0 0 470 373" version="1.1" xmlns="http://www.w3.org/2000/svg" xmlns:xlink="http://www.w3.org/1999/xlink">
    <!-- Generator: Sketch 39.1 (31720) - http://www.bohemiancoding.com/sketch -->
    <title>Network Browser Pics</title>
    <desc>Created with Sketch.</desc>
    <defs>
        <rect id="path-1" x="0" y="10" width="108" height="78"></rect>
        <mask id="mask-2" maskContentUnits="userSpaceOnUse" maskUnits="objectBoundingBox" x="0" y="0" width="108" height="78" fill="white">
            <use xlink:href="#path-1"></use>
        </mask>
        <rect id="path-3" x="0" y="0" width="81" height="107"></rect>
        <mask id="mask-4" maskContentUnits="userSpaceOnUse" maskUnits="objectBoundingBox" x="0" y="0" width="81" height="107" fill="white">
            <use xlink:href="#path-3"></use>
        </mask>
        <rect id="path-5" x="2.84217094e-14" y="0" width="185" height="94" rx="2"></rect>
        <mask id="mask-6" maskContentUnits="userSpaceOnUse" maskUnits="objectBoundingBox" x="0" y="0" width="185" height="94" fill="white">
            <use xlink:href="#path-5"></use>
        </mask>
    </defs>
    <g id="Page-1" stroke="none" stroke-width="1" fill="none" fill-rule="evenodd">
        <g id="Network-Browser-Pics">
            <g id="table-dropzone-local" transform="translate(50.000000, 50.000000)" stroke="#444649" opacity="0.35">
                <g>
                    <g id="table-crosstab" transform="translate(0.000000, 19.000000)">
                        <path d="M1,20 L107.501175,20" id="Line" stroke-linecap="square"></path>
                        <path d="M26.4984663,1 L107.501541,1" id="Line" stroke-linecap="square"></path>
                        <path d="M26.5,1.49431818 L26.5,87.5113615" id="Line" stroke-linecap="square"></path>
                        <path d="M53.5,1.49431818 L53.5,87.5056818" id="Line" stroke-linecap="square"></path>
                        <path d="M80.5,1.49425287 L80.5,86.5057471" id="Line" stroke-linecap="square"></path>
                        <path d="M107.5,1.49425287 L107.5,10.5" id="Line" stroke-linecap="square"></path>
                        <use id="Rectangle-2" mask="url(#mask-2)" stroke-width="2" xlink:href="#path-1"></use>
                    </g>
                    <g id="table-tabular" transform="translate(129.000000, 0.000000)">
                        <path d="M0.498437524,10 L80.5011749,10" id="Line" stroke-linecap="square"></path>
                        <path d="M26.5,0.607954545 L26.5,106.392045" id="Line" stroke-linecap="square"></path>
                        <path d="M53.5,0.609195402 L53.5,105.390805" id="Line" stroke-linecap="square"></path>
                        <path d="M80.5,20.4942529 L80.5,29.5" id="Line" stroke-linecap="square"></path>
                        <use id="Rectangle-2" mask="url(#mask-4)" stroke-width="2" xlink:href="#path-3"></use>
                    </g>
                </g>
            </g>
            <g id="Group-3" transform="translate(50.000000, 200.000000)">
                <g id="Group-2" transform="translate(14.000000, 5.000000)">
                    <path d="M36.3994413,10.9375 L107.444134,10.9375" id="Line" stroke-opacity="0.35" stroke="#444649" stroke-linecap="square"></path>
                    <path d="M58.3268156,41.5625 L129.371508,41.5625" id="Line-Copy" stroke-opacity="0.35" stroke="#444649" stroke-linecap="square"></path>
                    <path d="M85.5167598,73.0625 L156.561453,73.0625" id="Line-Copy-2" stroke-opacity="0.35" stroke="#444649" stroke-linecap="square"></path>
                    <g id="folder-(2)" fill="#444649" fill-opacity="0.35">
                        <g id="Capa_1">
                            <path d="M11.244723,3.15972222 L9.28701778,0.441939815 L9.12083752,0.210648148 L0,0.210648148 L0,22.5393519 L25.4357542,22.5393519 L25.4357542,3.15972222 L11.244723,3.15972222 L11.244723,3.15972222 Z M24.5878957,4.00231481 L24.5878957,6.1087963 L13.3690324,6.1087963 L11.8517897,4.00231481 L24.5878957,4.00231481 L24.5878957,4.00231481 Z M0.847858473,21.6967593 L0.847858473,1.05324074 L8.68419041,1.05324074 L10.8038366,4.00231481 L10.8089237,4.00231481 L12.7971519,6.76222685 C12.8798181,6.87681944 13.0095404,6.93790741 13.1418063,6.9383287 L13.1418063,6.95138889 L24.5878957,6.95138889 L24.5878957,21.6967593 L0.847858473,21.6967593 L0.847858473,21.6967593 Z" id="Shape"></path>
                        </g>
                    </g>
                    <g id="folder-(2)-copy" transform="translate(23.681564, 29.750000)" fill="#444649" fill-opacity="0.35">
                        <g id="Capa_1">
                            <path d="M11.244723,3.15972222 L9.28701778,0.441939815 L9.12083752,0.210648148 L0,0.210648148 L0,22.5393519 L25.4357542,22.5393519 L25.4357542,3.15972222 L11.244723,3.15972222 L11.244723,3.15972222 Z M24.5878957,4.00231481 L24.5878957,6.1087963 L13.3690324,6.1087963 L11.8517897,4.00231481 L24.5878957,4.00231481 L24.5878957,4.00231481 Z M0.847858473,21.6967593 L0.847858473,1.05324074 L8.68419041,1.05324074 L10.8038366,4.00231481 L10.8089237,4.00231481 L12.7971519,6.76222685 C12.8798181,6.87681944 13.0095404,6.93790741 13.1418063,6.9383287 L13.1418063,6.95138889 L24.5878957,6.95138889 L24.5878957,21.6967593 L0.847858473,21.6967593 L0.847858473,21.6967593 Z" id="Shape"></path>
                        </g>
                    </g>
                    <g id="folder-(2)-copy-2" transform="translate(45.608939, 61.250000)" fill="#444649" fill-opacity="0.35">
                        <g id="Capa_1">
                            <path d="M11.244723,3.15972222 L9.28701778,0.441939815 L9.12083752,0.210648148 L0,0.210648148 L0,22.5393519 L25.4357542,22.5393519 L25.4357542,3.15972222 L11.244723,3.15972222 L11.244723,3.15972222 Z M24.5878957,4.00231481 L24.5878957,6.1087963 L13.3690324,6.1087963 L11.8517897,4.00231481 L24.5878957,4.00231481 L24.5878957,4.00231481 Z M0.847858473,21.6967593 L0.847858473,1.05324074 L8.68419041,1.05324074 L10.8038366,4.00231481 L10.8089237,4.00231481 L12.7971519,6.76222685 C12.8798181,6.87681944 13.0095404,6.93790741 13.1418063,6.9383287 L13.1418063,6.95138889 L24.5878957,6.95138889 L24.5878957,21.6967593 L0.847858473,21.6967593 L0.847858473,21.6967593 Z" id="Shape"></path>
                        </g>
                    </g>
                </g>
                <use id="Rectangle-2" stroke-opacity="0.35" stroke="#444649" mask="url(#mask-6)" stroke-width="2" xlink:href="#path-5"></use>
            </g>
            <g id="text" transform="translate(50.000000, 19.000000)" font-size="11" font-family="Helvetica" fill="#000000" font-weight="normal">
                <text id="(50,50)">
                    <tspan x="0.0734863281" y="10">(50,50)</tspan>
                </text>
                <text id="(50,200)">
                    <tspan x="0.0146484375" y="153">(50,200)</tspan>
                </text>
                <text id="size:-185-*-94">
                    <tspan x="247.144287" y="88">size:  185 * 94</tspan>
                </text>
                <text id="size:-185-*-94">
                    <tspan x="247.144287" y="225">size:  185 * 94</tspan>
                </text>
            </g>
        </g>
    </g>
</svg>