<?xml version="1.0" encoding="UTF-8" standalone="no"?>
<svg width="67px" height="80px" viewBox="0 0 67 80" version="1.1" xmlns="http://www.w3.org/2000/svg" xmlns:xlink="http://www.w3.org/1999/xlink">
    <!-- Generator: Sketch 40.1 (33804) - http://www.bohemiancoding.com/sketch -->
    <title>icons 10*10</title>
    <desc>Created with Sketch.</desc>
    <defs></defs>
    <g id="Page-1" stroke="none" stroke-width="1" fill="none" fill-rule="evenodd">
        <g id="icons-10*10">
            <g id="Group-2-Copy" transform="translate(10.000000, 10.000000)" fill-opacity="0.899999976" fill="#444649">
                <path d="M8.2524732,3.71304064 L3.10328493,8.88744613 L1.07021205,6.84327666 L6.21824699,1.66887117 L8.2524732,3.71304064 Z M9.79605743,1.17586436 L8.88887082,0.264234966 C8.53827451,-0.0880783222 7.96897856,-0.0880783222 7.6171911,0.264234966 L6.74819704,1.13748477 L8.78242325,3.18167323 L9.79605743,2.16307496 C10.0679809,1.88980084 10.0679809,1.44911948 9.79605743,1.17586436 L9.79605743,1.17586436 Z M0.00566077157,9.71652139 C-0.0313595363,9.88394763 0.119066189,10.03397 0.285695388,9.99325348 L2.55249913,9.4409483 L0.519426259,7.39677883 L0.00566077157,9.71652139 L0.00566077157,9.71652139 Z" id="Shape"></path>
            </g>
            <g id="Group-2-Copy-2" transform="translate(30.000000, 10.000000)" fill="#4990E2">
                <path d="M8.2524732,3.71304064 L3.10328493,8.88744613 L1.07021205,6.84327666 L6.21824699,1.66887117 L8.2524732,3.71304064 Z M9.79605743,1.17586436 L8.88887082,0.264234966 C8.53827451,-0.0880783222 7.96897856,-0.0880783222 7.6171911,0.264234966 L6.74819704,1.13748477 L8.78242325,3.18167323 L9.79605743,2.16307496 C10.0679809,1.88980084 10.0679809,1.44911948 9.79605743,1.17586436 L9.79605743,1.17586436 Z M0.00566077157,9.71652139 C-0.0313595363,9.88394763 0.119066189,10.03397 0.285695388,9.99325348 L2.55249913,9.4409483 L0.519426259,7.39677883 L0.00566077157,9.71652139 L0.00566077157,9.71652139 Z" id="Shape"></path>
            </g>
            <g id="close-10*10-copy-3" transform="translate(10.000000, 30.000000)" fill="#626466">
                <g id="Group-Copy-10" transform="translate(1.500000, 1.500000)">
                    <polygon id="Shape" points="0.0829413123 1.1114062 1.22674877 0.0047189057 3.66142573 2.49889499 6.17780291 0.0047189057 7.27259033 1.14444159 4.77255317 3.63861767 7.28893034 6.21538218 6.19414292 7.30555168 3.64508555 4.72878717 1.12870838 7.25599849 0.00124077613 6.13279358 2.58297832 3.62209988"></polygon>
                </g>
            </g>
            <g id="close-10*10-copy-4" transform="translate(30.000000, 30.000000)" fill="#3B92ED">
                <g id="Group-Copy-10" transform="translate(1.500000, 1.500000)">
                    <polygon id="Shape" points="0.0829413123 1.1114062 1.22674877 0.0047189057 3.66142573 2.49889499 6.17780291 0.0047189057 7.27259033 1.14444159 4.77255317 3.63861767 7.28893034 6.21538218 6.19414292 7.30555168 3.64508555 4.72878717 1.12870838 7.25599849 0.00124077613 6.13279358 2.58297832 3.62209988"></polygon>
                </g>
            </g>
            <text id="(10,10)" font-family="Helvetica-Light, Helvetica" font-size="7" font-weight="300" fill="#444649">
                <tspan x="2" y="7">(10,10)</tspan>
            </text>
            <text id="(10,30)" font-family="Helvetica-Light, Helvetica" font-size="7" font-weight="300" fill="#444649">
                <tspan x="1" y="28">(10,30)</tspan>
            </text>
            <text id="(30,30)" font-family="Helvetica-Light, Helvetica" font-size="7" font-weight="300" fill="#444649">
                <tspan x="29" y="28">(30,30)</tspan>
            </text>
            <text id="(30,10)" font-family="Helvetica-Light, Helvetica" font-size="7" font-weight="300" fill="#444649">
                <tspan x="30" y="7">(30,10)</tspan>
            </text>
            <text id="size:10*10" font-family="Helvetica-Bold, Helvetica" font-size="10" font-weight="bold" fill="#444649">
                <tspan x="5" y="68">size:10*10</tspan>
            </text>
        </g>
    </g>
</svg>