<?xml version="1.0" encoding="UTF-8"?>
<svg width="21px" height="434px" viewBox="0 0 21 434" version="1.1" xmlns="http://www.w3.org/2000/svg" xmlns:xlink="http://www.w3.org/1999/xlink">
    <!-- Generator: Sketch 50.2 (55047) - http://www.bohemiancoding.com/sketch -->
    <title>Artboard 3</title>
    <desc>Created with Sketch.</desc>
    <defs></defs>
    <g id="Artboard-3" stroke="none" stroke-width="1" fill="none" fill-rule="evenodd">
        <g id="data-source" transform="translate(0.000000, 30.000000)">
            <rect id="outline" x="0" y="0" width="20" height="20"></rect>
            <path d="M4.5,9 L4.5,14.034207 C4.5,14.034207 4.92363684,15.8518718 9.95996559,15.9999602 C9.95996559,15.9999602 14.6279778,16.035788 15.5,13.9585705 L15.5,9 C14.6279778,11.0780137 9.95996559,10.9665493 9.95996559,10.9665493 C4.92363684,10.818461 4.5,9 4.5,9 Z" id="Fill-4" fill="#3B92ED" fill-rule="evenodd"></path>
            <path d="M15.4985361,6.32154882 L15.4985361,7.68350168 C15.5,7.70286195 15.5,7.72138047 15.5,7.74074074 C15.5,7.75925926 15.5,7.77861953 15.4985361,7.7979798 L15.4985361,7.87710438 L15.4904844,7.87710438 C15.3184722,9.06144781 12.9256721,10 10,10 C7.07432792,10 4.68152781,9.06144781 4.50951557,7.87710438 L4.5,7.87710438 L4.5,6.32154882 L4.5021959,6.32154882 C4.50073197,6.30050505 4.5,6.28030303 4.5,6.25925926 C4.5,5.01178451 6.96233697,4 10,4 C13.037663,4 15.5,5.01178451 15.5,6.25925926 C15.5,6.28030303 15.499268,6.30050505 15.4985361,6.32154882 L15.4985361,6.32154882 Z" id="Fill-1" fill="#3B92ED" fill-rule="evenodd"></path>
        </g>
        <g id="data-source-header" transform="translate(0.000000, 10.000000)" fill="#444649" opacity="0.699999988">
            <path d="M4.5,9 L4.5,14.034207 C4.5,14.034207 4.92363684,15.8518718 9.95996559,15.9999602 C9.95996559,15.9999602 14.6279778,16.035788 15.5,13.9585705 L15.5,9 C14.6279778,11.0780137 9.95996559,10.9665493 9.95996559,10.9665493 C4.92363684,10.818461 4.5,9 4.5,9 Z" id="Fill-4"></path>
            <path d="M15.4985361,6.32154882 L15.4985361,7.68350168 C15.5,7.70286195 15.5,7.72138047 15.5,7.74074074 C15.5,7.75925926 15.5,7.77861953 15.4985361,7.7979798 L15.4985361,7.87710438 L15.4904844,7.87710438 C15.3184722,9.06144781 12.9256721,10 10,10 C7.07432792,10 4.68152781,9.06144781 4.50951557,7.87710438 L4.5,7.87710438 L4.5,6.32154882 L4.5021959,6.32154882 C4.50073197,6.30050505 4.5,6.28030303 4.5,6.25925926 C4.5,5.01178451 6.96233697,4 10,4 C13.037663,4 15.5,5.01178451 15.5,6.25925926 C15.5,6.28030303 15.499268,6.30050505 15.4985361,6.32154882 L15.4985361,6.32154882 Z" id="Fill-1"></path>
        </g>
        <g id="data-source-copy-2" transform="translate(0.000000, 50.000000)">
            <rect id="outline" x="0" y="0" width="20" height="20"></rect>
            <path d="M4.5,9 L4.5,14.034207 C4.5,14.034207 4.92363684,15.8518718 9.95996559,15.9999602 C9.95996559,15.9999602 14.6279778,16.035788 15.5,13.9585705 L15.5,9 C14.6279778,11.0780137 9.95996559,10.9665493 9.95996559,10.9665493 C4.92363684,10.818461 4.5,9 4.5,9 Z" id="Fill-4" fill="#3B92ED" fill-rule="evenodd"></path>
            <path d="M15.4985361,6.32154882 L15.4985361,7.68350168 C15.5,7.70286195 15.5,7.72138047 15.5,7.74074074 C15.5,7.75925926 15.5,7.77861953 15.4985361,7.7979798 L15.4985361,7.87710438 L15.4904844,7.87710438 C15.3184722,9.06144781 12.9256721,10 10,10 C7.07432792,10 4.68152781,9.06144781 4.50951557,7.87710438 L4.5,7.87710438 L4.5,6.32154882 L4.5021959,6.32154882 C4.50073197,6.30050505 4.5,6.28030303 4.5,6.25925926 C4.5,5.01178451 6.96233697,4 10,4 C13.037663,4 15.5,5.01178451 15.5,6.25925926 C15.5,6.28030303 15.499268,6.30050505 15.4985361,6.32154882 L15.4985361,6.32154882 Z" id="Fill-1" fill="#3B92ED" fill-rule="evenodd"></path>
            <path d="M8.91260092,12.16523 C8.57040627,12.4496401 8.13771975,12.6099999 7.67999995,12.6099999 C6.61409041,12.6099999 5.75,11.7459095 5.75,10.6799999 C5.75,9.61409041 6.61409041,8.75 7.67999995,8.75 C7.97603371,8.75 8.26266122,8.81691327 8.52238816,8.94310609 L10.7962727,7.1017507 C10.7656356,6.96439119 10.75,6.82317445 10.75,6.67999995 C10.75,5.61409041 11.6140904,4.75 12.6799999,4.75 C13.7459095,4.75 14.6099999,5.61409041 14.6099999,6.67999995 C14.6099999,7.74590949 13.7459095,8.6099999 12.6799999,8.6099999 C12.350995,8.6099999 12.0338906,8.52731648 11.7528382,8.37308697 L9.54038095,10.1646995 C9.58636782,10.3310357 9.6099999,10.503993 9.6099999,10.6799999 C9.6099999,10.694929 9.60982992,10.7098395 9.60949047,10.7247292 L11.7554063,12.0656463 C12.1169758,11.6406437 12.6496838,11.3863636 13.2254545,11.3863636 C14.291364,11.3863636 15.1554544,12.250454 15.1554544,13.3163636 C15.1554544,14.3822731 14.291364,15.2463635 13.2254545,15.2463635 C12.2894867,15.2463635 11.4980051,14.5766309 11.328737,13.6749994 L8.91260092,12.16523 Z" id="Combined-Shape" stroke="#FFFFFF" stroke-width="0.5" fill="#1C458B" fill-rule="evenodd"></path>
        </g>
        <g id="table" transform="translate(4.000000, 74.000000)" fill="#95BEFF" stroke="#6EA5FD">
            <g id="Group-12" transform="translate(0.500000, 0.500000)">
                <rect id="Rectangle-6" x="0.5" y="0.5" width="10" height="2"></rect>
                <rect id="Rectangle-6-Copy" x="0.5" y="4.5" width="2" height="2"></rect>
                <rect id="Rectangle-6-Copy-3" x="4.5" y="4.5" width="2" height="2"></rect>
                <rect id="Rectangle-6-Copy-5" x="8.5" y="4.5" width="2" height="2"></rect>
                <rect id="Rectangle-6-Copy-2" x="0.5" y="8.5" width="2" height="2"></rect>
                <rect id="Rectangle-6-Copy-4" x="4.5" y="8.5" width="2" height="2"></rect>
                <rect id="Rectangle-6-Copy-6" x="8.5" y="8.5" width="2" height="2"></rect>
            </g>
        </g>
        <path d="M12.7826795,182.08265 L16,185.299971 L15.2999705,186 L12.0826501,182.78268 C11.2293417,183.480965 10.1385739,183.899912 8.94995581,183.899912 C6.2161707,183.899912 4,181.683741 4,178.949956 C4,176.216171 6.2161707,174 8.94995581,174 C11.6837409,174 13.8999116,176.216171 13.8999116,178.949956 C13.8999116,180.138574 13.4809645,181.229342 12.7826795,182.08265 Z M8.94995581,182.90992 C11.1369839,182.90992 12.9099204,181.136984 12.9099204,178.949956 C12.9099204,176.762928 11.1369839,174.989991 8.94995581,174.989991 C6.76292772,174.989991 4.98999116,176.762928 4.98999116,178.949956 C4.98999116,181.136984 6.76292772,182.90992 8.94995581,182.90992 Z" id="Icon---Search" fill-opacity="0.7" fill="#444649"></path>
        <g id="Group-13" transform="translate(4.000000, 154.000000)" fill="#6CC9A7" stroke="#3FB582">
            <path d="M3.08698753,6.76067837 C2.59374398,6.15603384 2.30004883,5.39639605 2.30004883,4.57142857 C2.30004883,2.59898304 3.97898102,1 6.05004883,1 C8.12111664,1 9.80004883,2.59898304 9.80004883,4.57142857 C9.80004883,5.54108437 9.39429903,6.42048498 8.73567836,7.06403143 L6.05004883,11 L3.08698753,6.76067837 Z M6.05004883,6.71428571 C7.29268952,6.71428571 8.30004883,5.75489589 8.30004883,4.57142857 C8.30004883,3.38796125 7.29268952,2.42857143 6.05004883,2.42857143 C4.80740814,2.42857143 3.80004883,3.38796125 3.80004883,4.57142857 C3.80004883,5.75489589 4.80740814,6.71428571 6.05004883,6.71428571 Z" id="Combined-Shape"></path>
        </g>
        <g id="Group-29" transform="translate(4.000000, 134.000000)" stroke="#E99D41">
            <g id="metric-copy" transform="translate(1.500000, 1.000000)">
                <rect id="Rectangle-433" fill="#F7ECDE" x="-0.5" y="-0.5" width="5.5" height="11"></rect>
                <path d="M0.9,2.27272727 L4.5,2.27272727" id="Line"></path>
                <path d="M0.9,7.72727273 L4.5,7.72727273" id="Line-Copy-18"></path>
                <path d="M1.8,5 L4.5,5" id="Line-Copy-17"></path>
                <rect id="Rectangle-433-Copy" fill="#F7ECDE" x="4.9" y="2.22727273" width="2.8" height="8.27272727"></rect>
                <rect id="Rectangle-433-Copy-2" fill="#F7ECDE" x="7.6" y="4.95454545" width="1.9" height="5.54545455"></rect>
            </g>
        </g>
        <g id="attribute" transform="translate(4.000000, 114.000000)" fill="#86D4B2" stroke="#3FB582">
            <path d="M11.2928932,6 L6,0.707106781 L0.707106781,6 L6,11.2928932 L11.2928932,6 Z" id="attr"></path>
        </g>
        <g id="attribute" transform="translate(4.000000, 244.000000)" fill="#86D4B2" stroke="#3FB582">
            <path d="M11.2928932,6 L6,0.707106781 L0.707106781,6 L6,11.2928932 L11.2928932,6 Z" id="attr"></path>
        </g>
        <g id="table-copy" transform="translate(4.000000, 94.000000)">
            <g id="Group-12">
                <rect id="Rectangle-6" stroke="#CECED2" fill="#EFEFF4" x="0.5" y="0.5" width="11" height="2.27272727"></rect>
                <rect id="Rectangle-6-Copy" stroke="#CECED2" fill="#EFEFF4" x="0.5" y="4.86363636" width="2.27272727" height="2.27272727"></rect>
                <rect id="Rectangle-6-Copy-3" stroke="#6EA5FD" fill="#95BEFF" x="4.86363636" y="4.86363636" width="2.27272727" height="2.27272727"></rect>
                <rect id="Rectangle-6-Copy-5" stroke="#CECED2" fill="#EFEFF4" x="9.22727273" y="4.86363636" width="2.27272727" height="2.27272727"></rect>
                <rect id="Rectangle-6-Copy-2" stroke="#CECED2" fill="#EFEFF4" x="0.5" y="9.22727273" width="2.27272727" height="2.27272727"></rect>
                <rect id="Rectangle-6-Copy-4" stroke="#6EA5FD" fill="#95BEFF" x="4.86363636" y="9.22727273" width="2.27272727" height="2.27272727"></rect>
                <rect id="Rectangle-6-Copy-6" stroke="#CECED2" fill="#EFEFF4" x="9.22727273" y="9.22727273" width="2.27272727" height="2.27272727"></rect>
            </g>
        </g>
        <g id="table-copy" transform="translate(4.000000, 304.000000)">
            <g id="Group-12">
                <rect id="Rectangle-6" stroke="#CECED2" fill="#EFEFF4" x="0.5" y="0.5" width="11" height="2.27272727"></rect>
                <rect id="Rectangle-6-Copy" stroke="#CECED2" fill="#EFEFF4" x="0.5" y="4.86363636" width="2.27272727" height="2.27272727"></rect>
                <rect id="Rectangle-6-Copy-3" stroke="#6EA5FD" fill="#95BEFF" x="4.86363636" y="4.86363636" width="2.27272727" height="2.27272727"></rect>
                <rect id="Rectangle-6-Copy-5" stroke="#CECED2" fill="#EFEFF4" x="9.22727273" y="4.86363636" width="2.27272727" height="2.27272727"></rect>
                <rect id="Rectangle-6-Copy-2" stroke="#CECED2" fill="#EFEFF4" x="0.5" y="9.22727273" width="2.27272727" height="2.27272727"></rect>
                <rect id="Rectangle-6-Copy-4" stroke="#6EA5FD" fill="#95BEFF" x="4.86363636" y="9.22727273" width="2.27272727" height="2.27272727"></rect>
                <rect id="Rectangle-6-Copy-6" stroke="#CECED2" fill="#EFEFF4" x="9.22727273" y="9.22727273" width="2.27272727" height="2.27272727"></rect>
            </g>
        </g>
        <polygon id="Triangle-4" fill="#4A4A4A" points="7 198 13 198 10 202"></polygon>
        <polygon id="Triangle-4-Copy-2" fill="#4A4A4A" transform="translate(10.000000, 220.000000) rotate(-90.000000) translate(-10.000000, -220.000000) " points="7 218 13 218 10 222"></polygon>
        <g id="Group-32" transform="translate(4.000000, 274.000000)">
            <g id="Group-31">
                <path d="M7.31428582,1.61538462 L3.10303035,6 L7.31428582,10.3846154 L5.76277065,12 L0,6 L5.76277065,0 L7.31428582,1.61538462 Z" id="Combined-Shape" fill="#585858"></path>
                <rect id="Rectangle-2662" stroke="#3FB582" fill="#74CCA6" transform="translate(8.718203, 6.032801) rotate(45.000000) translate(-8.718203, -6.032801) " x="6.93248824" y="4.22510822" width="3.57142864" height="3.61538462"></rect>
            </g>
        </g>
        <g id="Group-13" transform="translate(4.000000, 334.000000)" fill="#6CC9A7" stroke="#3FB582">
            <path d="M3.08698753,6.76067837 C2.59374398,6.15603384 2.30004883,5.39639605 2.30004883,4.57142857 C2.30004883,2.59898304 3.97898102,1 6.05004883,1 C8.12111664,1 9.80004883,2.59898304 9.80004883,4.57142857 C9.80004883,5.54108437 9.39429903,6.42048498 8.73567836,7.06403143 L6.05004883,11 L3.08698753,6.76067837 Z M6.05004883,6.71428571 C7.29268952,6.71428571 8.30004883,5.75489589 8.30004883,4.57142857 C8.30004883,3.38796125 7.29268952,2.42857143 6.05004883,2.42857143 C4.80740814,2.42857143 3.80004883,3.38796125 3.80004883,4.57142857 C3.80004883,5.75489589 4.80740814,6.71428571 6.05004883,6.71428571 Z" id="Combined-Shape"></path>
        </g>
        <g id="Group-15" transform="translate(4.000000, 364.000000)">
            <g id="Group-14">
                <g id="Group-10" fill="#74CEA7" stroke="#3FB582">
                    <circle id="Oval-93" cx="6" cy="6" r="5.5"></circle>
                </g>
                <polyline id="Path-4" stroke="#FFFFFF" points="5.5 2.5 5.5 6.5 9.5 6.5"></polyline>
            </g>
        </g>
    </g>
</svg>