<?xml version="1.0" encoding="UTF-8"?>
<svg width="565px" height="216px" viewBox="0 0 565 216" version="1.1" xmlns="http://www.w3.org/2000/svg" xmlns:xlink="http://www.w3.org/1999/xlink">
    <!-- Generator: Sketch 47 (45396) - http://www.bohemiancoding.com/sketch -->
    <title>Map_toolbar_sprite Copy</title>
    <desc>Created with Sketch.</desc>
    <defs></defs>
    <g id="toolbar" stroke="none" stroke-width="1" fill="none" fill-rule="evenodd">
        <g id="Map_toolbar_sprite-Copy">
            <g id="rotate-copy-4" transform="translate(150.000000, 30.000000)" fill-opacity="0.7" fill="#2F3133">
                <path d="M5.37775027,11.6275626 L8.54462779,4.6272043 C8.65837797,4.37576041 8.95444487,4.26412918 9.20591173,4.37786897 C9.31657091,4.4279207 9.40521353,4.51655522 9.45526983,4.6272043 L12.622127,11.6275175 C12.7358771,11.8789614 12.6242357,12.1750013 12.3727689,12.288741 C12.2505981,12.3439995 12.1113439,12.347848 11.9863072,12.2994214 L9.06028634,11.1661762 C9.0215782,11.1511846 8.97866682,11.1511839 8.93995825,11.1661745 L6.01355682,12.2994716 C5.75618802,12.3991419 5.46674326,12.271321 5.36706386,12.0139757 C5.31863816,11.8889536 5.32248878,11.7497177 5.37775027,11.6275626 Z M8.99994881,6.04688559 L6.79304308,10.9252337 L8.57882655,10.2336597 C8.84989135,10.1286853 9.15038268,10.1286896 9.42144451,10.2336716 L11.2068137,10.9251435 L8.99994881,6.04688559 Z" id="Combined-Shape"></path>
            </g>
            <g id="pin" transform="translate(470.000000, 150.000000)" fill="#4D4D4D">
                <path d="M4.76000023,7.81016667 C4.76000023,5.43370833 6.66179354,3.5 8.99958356,3.5 C11.3369227,3.5 13.2391669,5.43370833 13.2391669,7.81016667 C13.2391669,10.04775 9.89998215,13.8340417 9.00183794,14.5 C8.10324286,13.8253333 4.76000023,10.0225417 4.76000023,7.81016667 Z M8.99980966,5.90625 C8.11486134,5.90625 7.3954169,6.62569444 7.3954169,7.51064276 C7.3954169,8.39513889 8.11486134,9.11458333 8.99980966,9.11458333 C9.88430578,9.11458333 10.6037502,8.39513889 10.6037502,7.51064276 C10.6037502,6.62569444 9.88430578,5.90625 8.99980966,5.90625 Z" id="Combined-Shape"></path>
            </g>
            <g id="style-copy-2" transform="translate(240.000000, 60.000000)" fill="#3B92ED">
                <path d="M14.3143125,11.1689792 C14.2160208,11.2983333 14.1218125,11.3923958 14.0432083,11.4451875 C14.0363542,11.4497083 14.0299375,11.4536458 14.0239583,11.4574375 C13.9799167,11.3744583 13.9405417,11.2328542 13.91575,11.0355417 C13.7850833,9.99954167 13.333875,9.46054167 12.5243542,9.07422917 C12.4743333,9.0503125 12.4228542,9.02683333 12.3607292,8.99897917 C12.3309792,8.98570833 12.22875,8.9405 12.2087708,8.93160417 C11.7307292,8.71825 11.618875,8.6101875 11.59875,8.293 C11.55675,7.62989583 11.8453542,7.18904167 12.3990833,6.867625 C12.6047083,6.74833333 12.8139792,6.66258333 13.080125,6.57566667 C13.1088542,6.56633333 13.1972292,6.53804167 13.2088958,6.53425 C13.2602292,6.51747917 13.2939167,6.5058125 13.3257083,6.493125 C13.3534167,6.48189583 13.3787917,6.47008333 13.4051875,6.4550625 C13.4725625,6.41670833 13.5278333,6.37164583 13.5777083,6.28677083 C13.6885417,6.0985 13.6447917,5.868375 13.4912292,5.7305625 C13.4285208,5.67397917 13.3710625,5.64772917 13.3052917,5.62833333 C13.118625,5.5735 12.9472708,5.5175 12.7910833,5.46047917 C12.1906875,5.241875 11.8438958,5.02414583 11.6875625,4.82522917 C11.6104167,4.7269375 11.5977292,4.67327083 11.5993333,4.53647917 C11.5994792,4.51927083 11.599625,4.5099375 11.599625,4.49929167 C11.599625,4.2693125 11.8342708,4.04954167 12.3443958,3.86972917 C13.955125,4.9220625 15.0379375,6.711875 15.1172708,8.75995833 C15.1175625,8.75427083 15.1181458,8.74858333 15.1184375,8.74275 C15.1219375,8.82820833 15.125,8.9138125 15.125,9 C15.125,8.9195 15.1203333,8.839875 15.1172708,8.75995833 C15.0669583,9.6671875 14.742625,10.6057708 14.3143125,11.1689792 M9,15.1251458 C8.3205625,15.1139167 7.94854167,15.0332708 7.94854167,15.0332708 C8.4500625,14.7752917 8.8210625,14.2295833 8.8210625,13.6936458 C8.8210625,13.2879375 8.98672917,12.9538333 9.43735417,12.3394375 C9.45675,12.3128958 9.5263125,12.21825 9.52470833,12.2204375 C9.56014583,12.1721667 9.58697917,12.1355625 9.61308333,12.0995417 C9.68075,12.0060625 9.73616667,11.926875 9.7875,11.8500208 C10.3673333,10.978375 10.4116667,10.23375 9.69839583,9.40527083 C9.35525,9.00685417 9.04914583,8.88333333 8.44933333,8.78402083 C7.98295833,8.706875 7.81116667,8.6434375 7.5698125,8.41127083 C7.38504167,8.2335 7.177375,8.09554167 6.95089583,7.99360417 C6.56166667,7.81816667 6.24039583,7.77208333 5.76789583,7.7649375 C5.70154167,7.65527083 5.63825,7.50783333 5.628625,7.446875 C5.61054167,7.33225 5.65429167,7.24635417 5.84445833,7.04758333 C5.8723125,7.01841667 5.98154167,6.90670833 5.97775,6.91064583 C6.528125,6.34452083 6.72470833,5.85947917 6.487,5.07722917 C6.32935417,4.55864583 5.96958333,4.22672917 5.45975,4.065875 C5.43904167,4.05945833 5.41775,4.05420833 5.39675,4.04822917 C6.40795833,3.31104167 7.65279167,2.875 9,2.875 C9.85064583,2.875 10.6601667,3.049125 11.3960417,3.36295833 C11.3964792,3.36266667 11.3960417,3.36295833 11.3960417,3.36295833 C10.9559167,3.65010417 10.724625,4.02372917 10.724625,4.49929167 C10.7173333,5.15495833 11.036125,5.64495833 12.0046042,6.085375 C11.989875,6.0936875 11.9748542,6.10214583 11.9598333,6.11089583 C11.1409792,6.5863125 10.6603125,7.32014583 10.7255,8.34827083 C10.7712917,9.07320833 11.1083125,9.39870833 11.8523542,9.73077083 C11.8739375,9.74025 11.9757292,9.78545833 12.0034375,9.79785417 C12.0597292,9.8229375 12.1049375,9.84364583 12.1475208,9.8640625 C12.7062083,10.1306458 12.9574792,10.4307708 13.0476042,11.1450625 C13.1339375,11.8290208 13.3922083,12.2719167 13.8701042,12.3448333 C13.9593542,12.3585417 14.047,12.3544583 14.133625,12.3392917 C13.04075,14.0157917 11.1501667,15.1604375 9,15.1251458 M7.3598125,14.3109583 C6.98764583,14.3306458 6.58077083,13.8143958 6.33125,12.5062708 C6.28327083,12.2539792 6.1400625,12.0702292 5.906,11.8803542 C5.8259375,11.8154583 5.52625,11.5984583 5.46879167,11.5536875 C4.9925,11.1816667 4.82858333,10.8223333 4.977625,10.0975417 C5.00285417,10.022875 5.01116667,9.9944375 5.01947917,9.9445625 C5.038,9.833 5.0288125,9.71997917 4.968,9.60564583 C4.67997917,9.06372917 4.32370833,8.66647917 3.82510417,8.26602083 C3.74489583,8.2015625 3.663375,8.13870833 3.5588125,8.0598125 C3.54729167,8.05120833 3.36179167,7.91208333 3.31002083,7.87270833 C3.20254167,7.79089583 3.11022917,7.716375 3.02739583,7.644625 C3.27122917,6.56545833 3.79929167,5.59479167 4.52991667,4.814875 C5.2305,4.83047917 5.54097917,4.9736875 5.64977083,5.3315625 C5.77752083,5.752 5.70154167,5.93954167 5.35052083,6.300625 C5.35752083,6.29333333 5.2440625,6.40927083 5.21197917,6.4428125 C4.85147917,6.81979167 4.69295833,7.1314375 4.76441667,7.58352083 C4.8056875,7.84485417 5.00547917,8.27389583 5.23633333,8.49847917 C5.30983333,8.57008333 5.38260417,8.6014375 5.46339583,8.62010417 C5.4978125,8.628125 5.53033333,8.63235417 5.5660625,8.63497917 C5.60470833,8.63789583 5.63664583,8.638625 5.712625,8.63935417 C6.09777083,8.64314583 6.33008333,8.673625 6.5915625,8.7913125 C6.72864583,8.85314583 6.85245833,8.93539583 6.96314583,9.04185417 C7.36302083,9.4265625 7.68035417,9.54366667 8.3065625,9.64735417 C8.72175,9.71604167 8.85883333,9.77145833 9.0354375,9.97635417 C9.45995833,10.4694167 9.44070833,10.7912708 9.05891667,11.3654167 C9.01502083,11.4314792 8.965875,11.5014792 8.90433333,11.5862083 C8.87983333,11.6203333 8.85416667,11.6554792 8.81975,11.7021458 C8.82164583,11.6996667 8.75164583,11.79475 8.73166667,11.8220208 C8.176625,12.5788958 7.9460625,13.0439583 7.9460625,13.6936458 C7.9460625,13.95425 7.6371875,14.2962292 7.3598125,14.3109583 M6.08172917,14.3863542 L6.08158333,14.3863542 C4.17160417,13.3494792 2.875,11.3261875 2.875,9 C2.875,8.8823125 2.8806875,8.7659375 2.88754167,8.65 C2.95491667,8.70060417 3.02622917,8.754125 3.03191667,8.7585 C3.13020833,8.8324375 3.20516667,8.89033333 3.27720833,8.94822917 C3.649375,9.24704167 3.91289583,9.52966667 4.1266875,9.89352083 C3.89875,10.9996667 4.20922917,11.6802708 4.93022917,12.2431875 C5.00722917,12.3032708 5.297875,12.5138542 5.35475,12.5597917 C5.443125,12.6315417 5.47127083,12.6677083 5.47185417,12.6701875 C5.60995833,13.395125 5.81733333,13.9697083 6.08158333,14.3863542 C6.081875,14.3865 6.08202083,14.3866458 6.08216667,14.3866458 C6.08202083,14.3866458 6.081875,14.3865 6.08172917,14.3863542 M9,2 C5.13395833,2 2,5.13410417 2,9 C2,12.8661875 5.13395833,16.0001458 9,16.0001458 C12.8658958,16.0001458 16,12.8661875 16,9 C16,5.13410417 12.8658958,2 9,2" id="Fill-1"></path>
            </g>
            <g id="multi_layer" transform="translate(210.000000, 30.000000)" fill-opacity="0.7" fill="#2F3133">
                <path d="M9.00003614,14.6266997 L3.53820411,11.2902393 L6.48557121,9.48584823 L8.70958237,10.8445464 C8.8886255,10.9540294 9.11131124,10.9540294 9.29048991,10.8445464 L11.5145011,9.48584823 L14.4618682,11.2902393 L9.00003614,14.6266997 Z M3.53820411,6.71675932 L9.00003614,3.37336961 L14.4618682,6.71675932 L10.7224284,9.00107404 L9.00003614,10.0533583 L7.27750839,9.00107404 L3.53820411,6.71675932 Z M15.2212767,10.7859244 L12.3068449,9.00190556 L15.2208701,7.22176708 C15.3028694,7.17159891 15.3714506,7.10119717 15.4199726,7.01665965 C15.5807183,6.73810158 15.4916711,6.37805489 15.2212767,6.21258309 L9.29089652,2.58232014 C9.11158231,2.47255995 8.88848996,2.47255995 8.70917576,2.58232014 L2.77866005,6.21258309 C2.69679627,6.26275125 2.62835056,6.33329158 2.57969312,6.4178291 C2.41935396,6.69652575 2.50853669,7.05643386 2.7792022,7.22176708 L5.69322742,9.00190556 L2.77866005,10.7859244 C2.69679627,10.8360926 2.62835056,10.9066329 2.57969312,10.9911705 C2.41935396,11.2698671 2.50853669,11.6297752 2.7792022,11.7949699 L8.70958237,15.4178877 C8.8886255,15.5273708 9.11131124,15.5273708 9.29048991,15.4178877 L15.2208701,11.7949699 C15.3028694,11.7449403 15.3714506,11.6743999 15.4199726,11.5901396 C15.5807183,11.3114429 15.4916711,10.9513963 15.2212767,10.7859244 L15.2212767,10.7859244 Z"></path>
            </g>
            <text id="left-top-of-each-ico" font-family="SFUIDisplay-Semibold, SF UI Display" font-size="9" font-weight="500" fill="#444649">
                <tspan x="15" y="9">left top of each icon(30(x+1), 30y), each icon 18*18px; x= #column, y=#row</tspan>
            </text>
            <text id="normal" font-family="SFUIDisplay-Semibold, SF UI Display" font-size="9" font-weight="500" fill="#444649">
                <tspan x="12" y="40">normal</tspan>
            </text>
            <text id="on-click" font-family="SFUIDisplay-Semibold, SF UI Display" font-size="9" font-weight="500" fill="#444649">
                <tspan x="9" y="102">on click</tspan>
            </text>
            <text id="disable" font-family="SFUIDisplay-Semibold, SF UI Display" font-size="9" font-weight="500" fill="#444649">
                <tspan x="11" y="130">disable</tspan>
            </text>
            <text id="other" font-family="SFUIDisplay-Semibold, SF UI Display" font-size="9" font-weight="500" fill="#444649">
                <tspan x="19" y="158">other</tspan>
            </text>
            <text id="selected" font-family="SFUIDisplay-Semibold, SF UI Display" font-size="9" font-weight="500" fill="#444649">
                <tspan x="6" y="73">selected</tspan>
            </text>
            <g id="reset-zoom-level" transform="translate(60.000000, 90.000000)" fill="#2F3133">
                <g id="Group-2" transform="translate(2.000000, 2.000000)">
                    <polygon id="Combined-Shape" points="7 7.94280904 9.23917147 10.1819805 8.1785113 11.2426407 11.2426407 11.2426407 11.2426407 8.1785113 10.1819805 9.23917147 7.94280904 7 10.1819805 4.76082853 11.2426407 5.8214887 11.2426407 2.75735931 8.1785113 2.75735931 9.23917147 3.81801948 7 6.05719096 4.76082853 3.81801948 5.8214887 2.75735931 2.75735931 2.75735931 2.75735931 5.8214887 3.81801948 4.76082853 6.05719096 7 3.81801948 9.23917147 2.75735931 8.1785113 2.75735931 11.2426407 5.8214887 11.2426407 4.76082853 10.1819805"></polygon>
                    <polygon id="Combined-Shape-Copy" points="7.40148683e-16 1.12362453e-16 4 0 4 1 1 1 1 4 0 4"></polygon>
                    <polygon id="Combined-Shape-Copy-4" points="1 13 4 13 4 14 0 14 2.96059473e-16 10 1 10"></polygon>
                    <polygon id="Combined-Shape-Copy-2" points="14 4 14 0 10 0 10 1 13 1 13 4"></polygon>
                    <polygon id="Combined-Shape-Copy-3" points="13 13 10 13 10 14 14 14 14 10 13 10"></polygon>
                </g>
            </g>
            <g id="reset-zoom-level-copy" transform="translate(60.000000, 30.000000)" opacity="0.7" fill="#2F3133">
                <g id="Group-2" transform="translate(2.000000, 2.000000)">
                    <polygon id="Combined-Shape" points="7 7.94280904 9.23917147 10.1819805 8.1785113 11.2426407 11.2426407 11.2426407 11.2426407 8.1785113 10.1819805 9.23917147 7.94280904 7 10.1819805 4.76082853 11.2426407 5.8214887 11.2426407 2.75735931 8.1785113 2.75735931 9.23917147 3.81801948 7 6.05719096 4.76082853 3.81801948 5.8214887 2.75735931 2.75735931 2.75735931 2.75735931 5.8214887 3.81801948 4.76082853 6.05719096 7 3.81801948 9.23917147 2.75735931 8.1785113 2.75735931 11.2426407 5.8214887 11.2426407 4.76082853 10.1819805"></polygon>
                    <polygon id="Combined-Shape-Copy" points="7.40148683e-16 1.12362453e-16 4 0 4 1 1 1 1 4 0 4"></polygon>
                    <polygon id="Combined-Shape-Copy-4" points="1 13 4 13 4 14 0 14 2.96059473e-16 10 1 10"></polygon>
                    <polygon id="Combined-Shape-Copy-2" points="14 4 14 0 10 0 10 1 13 1 13 4"></polygon>
                    <polygon id="Combined-Shape-Copy-3" points="13 13 10 13 10 14 14 14 14 10 13 10"></polygon>
                </g>
            </g>
            <g id="reset-zoom-level-copy-2" transform="translate(60.000000, 120.000000)" opacity="0.3" fill="#2F3133">
                <g id="Group-2" transform="translate(2.000000, 2.000000)">
                    <polygon id="Combined-Shape" points="7 7.94280904 9.23917147 10.1819805 8.1785113 11.2426407 11.2426407 11.2426407 11.2426407 8.1785113 10.1819805 9.23917147 7.94280904 7 10.1819805 4.76082853 11.2426407 5.8214887 11.2426407 2.75735931 8.1785113 2.75735931 9.23917147 3.81801948 7 6.05719096 4.76082853 3.81801948 5.8214887 2.75735931 2.75735931 2.75735931 2.75735931 5.8214887 3.81801948 4.76082853 6.05719096 7 3.81801948 9.23917147 2.75735931 8.1785113 2.75735931 11.2426407 5.8214887 11.2426407 4.76082853 10.1819805"></polygon>
                    <polygon id="Combined-Shape-Copy" points="7.40148683e-16 1.12362453e-16 4 0 4 1 1 1 1 4 0 4"></polygon>
                    <polygon id="Combined-Shape-Copy-4" points="1 13 4 13 4 14 0 14 2.96059473e-16 10 1 10"></polygon>
                    <polygon id="Combined-Shape-Copy-2" points="14 4 14 0 10 0 10 1 13 1 13 4"></polygon>
                    <polygon id="Combined-Shape-Copy-3" points="13 13 10 13 10 14 14 14 14 10 13 10"></polygon>
                </g>
            </g>
            <g id="dm+-copy" transform="translate(90.000000, 90.000000)" fill-rule="nonzero" fill="#2F3133">
                <path d="M9.70000017,9.70000017 L16,9.70000017 L16,8.30000019 L9.70000017,8.30000019 L9.70000017,2 L8.30000019,2 L8.30000019,8.30000019 L2,8.30000019 L2,9.70000017 L8.30000019,9.70000017 L8.30000019,16 L9.70000017,16 L9.70000017,9.70000017 Z" id="Combined-Shape"></path>
            </g>
            <g id="dm+-copy-3" transform="translate(90.000000, 30.000000)" fill-opacity="0.7" fill="#2F3133">
                <g id="inmenu+">
                    <path d="M9.70000017,9.70000017 L16,9.70000017 L16,8.30000019 L9.70000017,8.30000019 L9.70000017,2 L8.30000019,2 L8.30000019,8.30000019 L2,8.30000019 L2,9.70000017 L8.30000019,9.70000017 L8.30000019,16 L9.70000017,16 L9.70000017,9.70000017 Z" id="Combined-Shape" fill-rule="nonzero"></path>
                </g>
            </g>
            <g id="dm+-copy-4" transform="translate(90.000000, 120.000000)">
                <g id="inmenu+" stroke-width="1" fill-rule="evenodd"></g>
                <path d="M9.70000017,9.70000017 L16,9.70000017 L16,8.30000019 L9.70000017,8.30000019 L9.70000017,2 L8.30000019,2 L8.30000019,8.30000019 L2,8.30000019 L2,9.70000017 L8.30000019,9.70000017 L8.30000019,16 L9.70000017,16 L9.70000017,9.70000017 Z" id="Combined-Shape" fill-opacity="0.3" fill="#2F3133" fill-rule="nonzero"></path>
            </g>
            <g id="dm--copy-2" transform="translate(120.000000, 120.000000)">
                <g id="inmenu-">
                    <rect id="Rectangle-2521" fill="#C2FF6F" opacity="0" x="0" y="0" width="18" height="18"></rect>
                    <polygon id="Line" fill-opacity="0.3" fill="#2F3133" fill-rule="nonzero" points="16 9.70000017 16 8.30000019 2 8.30000019 2 9.70000017"></polygon>
                </g>
            </g>
            <g id="dm--copy" transform="translate(120.000000, 90.000000)">
                <g id="inmenu-">
                    <rect id="Rectangle-2521" fill="#C2FF6F" opacity="0" x="0" y="0" width="18" height="18"></rect>
                    <polygon id="Line" fill="#2F3133" fill-rule="nonzero" points="16 9.70000017 16 8.30000019 2 8.30000019 2 9.70000017"></polygon>
                </g>
            </g>
            <g id="dm-" transform="translate(120.000000, 30.000000)">
                <g id="inmenu-">
                    <rect id="Rectangle-2521" fill="#C2FF6F" opacity="0" x="0" y="0" width="18" height="18"></rect>
                    <polygon id="Line" fill-opacity="0.7" fill="#2F3133" fill-rule="nonzero" points="16 9.70000017 16 8.30000019 2 8.30000019 2 9.70000017"></polygon>
                </g>
            </g>
            <g id="style" transform="translate(240.000000, 30.000000)" fill-opacity="0.7" fill="#2F3133">
                <path d="M14.3143125,11.1689792 C14.2160208,11.2983333 14.1218125,11.3923958 14.0432083,11.4451875 C14.0363542,11.4497083 14.0299375,11.4536458 14.0239583,11.4574375 C13.9799167,11.3744583 13.9405417,11.2328542 13.91575,11.0355417 C13.7850833,9.99954167 13.333875,9.46054167 12.5243542,9.07422917 C12.4743333,9.0503125 12.4228542,9.02683333 12.3607292,8.99897917 C12.3309792,8.98570833 12.22875,8.9405 12.2087708,8.93160417 C11.7307292,8.71825 11.618875,8.6101875 11.59875,8.293 C11.55675,7.62989583 11.8453542,7.18904167 12.3990833,6.867625 C12.6047083,6.74833333 12.8139792,6.66258333 13.080125,6.57566667 C13.1088542,6.56633333 13.1972292,6.53804167 13.2088958,6.53425 C13.2602292,6.51747917 13.2939167,6.5058125 13.3257083,6.493125 C13.3534167,6.48189583 13.3787917,6.47008333 13.4051875,6.4550625 C13.4725625,6.41670833 13.5278333,6.37164583 13.5777083,6.28677083 C13.6885417,6.0985 13.6447917,5.868375 13.4912292,5.7305625 C13.4285208,5.67397917 13.3710625,5.64772917 13.3052917,5.62833333 C13.118625,5.5735 12.9472708,5.5175 12.7910833,5.46047917 C12.1906875,5.241875 11.8438958,5.02414583 11.6875625,4.82522917 C11.6104167,4.7269375 11.5977292,4.67327083 11.5993333,4.53647917 C11.5994792,4.51927083 11.599625,4.5099375 11.599625,4.49929167 C11.599625,4.2693125 11.8342708,4.04954167 12.3443958,3.86972917 C13.955125,4.9220625 15.0379375,6.711875 15.1172708,8.75995833 C15.1175625,8.75427083 15.1181458,8.74858333 15.1184375,8.74275 C15.1219375,8.82820833 15.125,8.9138125 15.125,9 C15.125,8.9195 15.1203333,8.839875 15.1172708,8.75995833 C15.0669583,9.6671875 14.742625,10.6057708 14.3143125,11.1689792 M9,15.1251458 C8.3205625,15.1139167 7.94854167,15.0332708 7.94854167,15.0332708 C8.4500625,14.7752917 8.8210625,14.2295833 8.8210625,13.6936458 C8.8210625,13.2879375 8.98672917,12.9538333 9.43735417,12.3394375 C9.45675,12.3128958 9.5263125,12.21825 9.52470833,12.2204375 C9.56014583,12.1721667 9.58697917,12.1355625 9.61308333,12.0995417 C9.68075,12.0060625 9.73616667,11.926875 9.7875,11.8500208 C10.3673333,10.978375 10.4116667,10.23375 9.69839583,9.40527083 C9.35525,9.00685417 9.04914583,8.88333333 8.44933333,8.78402083 C7.98295833,8.706875 7.81116667,8.6434375 7.5698125,8.41127083 C7.38504167,8.2335 7.177375,8.09554167 6.95089583,7.99360417 C6.56166667,7.81816667 6.24039583,7.77208333 5.76789583,7.7649375 C5.70154167,7.65527083 5.63825,7.50783333 5.628625,7.446875 C5.61054167,7.33225 5.65429167,7.24635417 5.84445833,7.04758333 C5.8723125,7.01841667 5.98154167,6.90670833 5.97775,6.91064583 C6.528125,6.34452083 6.72470833,5.85947917 6.487,5.07722917 C6.32935417,4.55864583 5.96958333,4.22672917 5.45975,4.065875 C5.43904167,4.05945833 5.41775,4.05420833 5.39675,4.04822917 C6.40795833,3.31104167 7.65279167,2.875 9,2.875 C9.85064583,2.875 10.6601667,3.049125 11.3960417,3.36295833 C11.3964792,3.36266667 11.3960417,3.36295833 11.3960417,3.36295833 C10.9559167,3.65010417 10.724625,4.02372917 10.724625,4.49929167 C10.7173333,5.15495833 11.036125,5.64495833 12.0046042,6.085375 C11.989875,6.0936875 11.9748542,6.10214583 11.9598333,6.11089583 C11.1409792,6.5863125 10.6603125,7.32014583 10.7255,8.34827083 C10.7712917,9.07320833 11.1083125,9.39870833 11.8523542,9.73077083 C11.8739375,9.74025 11.9757292,9.78545833 12.0034375,9.79785417 C12.0597292,9.8229375 12.1049375,9.84364583 12.1475208,9.8640625 C12.7062083,10.1306458 12.9574792,10.4307708 13.0476042,11.1450625 C13.1339375,11.8290208 13.3922083,12.2719167 13.8701042,12.3448333 C13.9593542,12.3585417 14.047,12.3544583 14.133625,12.3392917 C13.04075,14.0157917 11.1501667,15.1604375 9,15.1251458 M7.3598125,14.3109583 C6.98764583,14.3306458 6.58077083,13.8143958 6.33125,12.5062708 C6.28327083,12.2539792 6.1400625,12.0702292 5.906,11.8803542 C5.8259375,11.8154583 5.52625,11.5984583 5.46879167,11.5536875 C4.9925,11.1816667 4.82858333,10.8223333 4.977625,10.0975417 C5.00285417,10.022875 5.01116667,9.9944375 5.01947917,9.9445625 C5.038,9.833 5.0288125,9.71997917 4.968,9.60564583 C4.67997917,9.06372917 4.32370833,8.66647917 3.82510417,8.26602083 C3.74489583,8.2015625 3.663375,8.13870833 3.5588125,8.0598125 C3.54729167,8.05120833 3.36179167,7.91208333 3.31002083,7.87270833 C3.20254167,7.79089583 3.11022917,7.716375 3.02739583,7.644625 C3.27122917,6.56545833 3.79929167,5.59479167 4.52991667,4.814875 C5.2305,4.83047917 5.54097917,4.9736875 5.64977083,5.3315625 C5.77752083,5.752 5.70154167,5.93954167 5.35052083,6.300625 C5.35752083,6.29333333 5.2440625,6.40927083 5.21197917,6.4428125 C4.85147917,6.81979167 4.69295833,7.1314375 4.76441667,7.58352083 C4.8056875,7.84485417 5.00547917,8.27389583 5.23633333,8.49847917 C5.30983333,8.57008333 5.38260417,8.6014375 5.46339583,8.62010417 C5.4978125,8.628125 5.53033333,8.63235417 5.5660625,8.63497917 C5.60470833,8.63789583 5.63664583,8.638625 5.712625,8.63935417 C6.09777083,8.64314583 6.33008333,8.673625 6.5915625,8.7913125 C6.72864583,8.85314583 6.85245833,8.93539583 6.96314583,9.04185417 C7.36302083,9.4265625 7.68035417,9.54366667 8.3065625,9.64735417 C8.72175,9.71604167 8.85883333,9.77145833 9.0354375,9.97635417 C9.45995833,10.4694167 9.44070833,10.7912708 9.05891667,11.3654167 C9.01502083,11.4314792 8.965875,11.5014792 8.90433333,11.5862083 C8.87983333,11.6203333 8.85416667,11.6554792 8.81975,11.7021458 C8.82164583,11.6996667 8.75164583,11.79475 8.73166667,11.8220208 C8.176625,12.5788958 7.9460625,13.0439583 7.9460625,13.6936458 C7.9460625,13.95425 7.6371875,14.2962292 7.3598125,14.3109583 M6.08172917,14.3863542 L6.08158333,14.3863542 C4.17160417,13.3494792 2.875,11.3261875 2.875,9 C2.875,8.8823125 2.8806875,8.7659375 2.88754167,8.65 C2.95491667,8.70060417 3.02622917,8.754125 3.03191667,8.7585 C3.13020833,8.8324375 3.20516667,8.89033333 3.27720833,8.94822917 C3.649375,9.24704167 3.91289583,9.52966667 4.1266875,9.89352083 C3.89875,10.9996667 4.20922917,11.6802708 4.93022917,12.2431875 C5.00722917,12.3032708 5.297875,12.5138542 5.35475,12.5597917 C5.443125,12.6315417 5.47127083,12.6677083 5.47185417,12.6701875 C5.60995833,13.395125 5.81733333,13.9697083 6.08158333,14.3863542 C6.081875,14.3865 6.08202083,14.3866458 6.08216667,14.3866458 C6.08202083,14.3866458 6.081875,14.3865 6.08172917,14.3863542 M9,2 C5.13395833,2 2,5.13410417 2,9 C2,12.8661875 5.13395833,16.0001458 9,16.0001458 C12.8658958,16.0001458 16,12.8661875 16,9 C16,5.13410417 12.8658958,2 9,2" id="Fill-1"></path>
            </g>
            <g id="multi_layer-copy-3" transform="translate(210.000000, 60.000000)" fill="#3B92ED">
                <path d="M9.00003614,14.6266997 L3.53820411,11.2902393 L6.48557121,9.48584823 L8.70958237,10.8445464 C8.8886255,10.9540294 9.11131124,10.9540294 9.29048991,10.8445464 L11.5145011,9.48584823 L14.4618682,11.2902393 L9.00003614,14.6266997 Z M3.53820411,6.71675932 L9.00003614,3.37336961 L14.4618682,6.71675932 L10.7224284,9.00107404 L9.00003614,10.0533583 L7.27750839,9.00107404 L3.53820411,6.71675932 Z M15.2212767,10.7859244 L12.3068449,9.00190556 L15.2208701,7.22176708 C15.3028694,7.17159891 15.3714506,7.10119717 15.4199726,7.01665965 C15.5807183,6.73810158 15.4916711,6.37805489 15.2212767,6.21258309 L9.29089652,2.58232014 C9.11158231,2.47255995 8.88848996,2.47255995 8.70917576,2.58232014 L2.77866005,6.21258309 C2.69679627,6.26275125 2.62835056,6.33329158 2.57969312,6.4178291 C2.41935396,6.69652575 2.50853669,7.05643386 2.7792022,7.22176708 L5.69322742,9.00190556 L2.77866005,10.7859244 C2.69679627,10.8360926 2.62835056,10.9066329 2.57969312,10.9911705 C2.41935396,11.2698671 2.50853669,11.6297752 2.7792022,11.7949699 L8.70958237,15.4178877 C8.8886255,15.5273708 9.11131124,15.5273708 9.29048991,15.4178877 L15.2208701,11.7949699 C15.3028694,11.7449403 15.3714506,11.6743999 15.4199726,11.5901396 C15.5807183,11.3114429 15.4916711,10.9513963 15.2212767,10.7859244 L15.2212767,10.7859244 Z" id="multi_layer"></path>
            </g>
            <g id="square-lasso" transform="translate(270.000000, 30.000000)">
                <g id="Group" stroke-width="1" transform="translate(2.500000, 2.500000)"></g>
                <path d="M2.5,8.32291667 L2.5,6.29166667 L3.3125,6.29166667 L3.3125,8.32291667 L2.5,8.32291667 Z M14.6875,8.32291667 L14.6875,6.29166667 L15.5,6.29166667 L15.5,8.32291667 L14.6875,8.32291667 Z M2.5,11.7083333 L2.5,9.67708333 L3.3125,9.67708333 L3.3125,11.7083333 L2.5,11.7083333 Z M14.6875,11.7083333 L14.6875,9.67708333 L15.5,9.67708333 L15.5,11.7083333 L14.6875,11.7083333 Z M6.29166667,2.5 L8.32291667,2.5 L8.32291667,3.3125 L6.29166667,3.3125 L6.29166667,2.90638542 L6.29166667,2.5 Z M6.29166667,14.6875 L8.32291667,14.6875 L8.32291667,15.5 L6.29166667,15.5 L6.29166667,15.0938854 L6.29166667,14.6875 Z M9.67708333,2.5 L11.7083333,2.5 L11.7083333,3.3125 L9.67708333,3.3125 L9.67708333,2.90638542 L9.67708333,2.5 Z M9.67708333,14.6875 L11.7083333,14.6875 L11.7083333,15.5 L9.67708333,15.5 L9.67708333,15.0938854 L9.67708333,14.6875 Z M13.0625,14.6875 L14.6875,14.6875 L14.6875,13.0625 L15.5,13.0625 L15.5,15.5 L13.0625,15.5 L13.0625,14.6875 Z M13.0625,3.3125 L13.0625,2.5 L15.5,2.5 L15.5,4.9375 L14.6875,4.9375 L14.6875,3.3125 L13.0625,3.3125 Z M3.3125,13.0625 L3.3125,14.6875 L4.9375,14.6875 L4.9375,15.5 L2.5,15.5 L2.5,13.0625 L3.3125,13.0625 Z M3.3125,4.9375 L2.5,4.9375 L2.5,2.5 L4.9375,2.5 L4.9375,3.3125 L3.3125,3.3125 L3.3125,4.9375 Z" id="Combined-Shape" fill-opacity="0.7" fill="#2F3133"></path>
            </g>
            <g id="square-lasso-copy" transform="translate(270.000000, 60.000000)">
                <g id="Group" stroke-width="1" transform="translate(2.500000, 2.500000)"></g>
                <path d="M2.5,8.32291667 L2.5,6.29166667 L3.3125,6.29166667 L3.3125,8.32291667 L2.5,8.32291667 Z M14.6875,8.32291667 L14.6875,6.29166667 L15.5,6.29166667 L15.5,8.32291667 L14.6875,8.32291667 Z M2.5,11.7083333 L2.5,9.67708333 L3.3125,9.67708333 L3.3125,11.7083333 L2.5,11.7083333 Z M14.6875,11.7083333 L14.6875,9.67708333 L15.5,9.67708333 L15.5,11.7083333 L14.6875,11.7083333 Z M6.29166667,2.5 L8.32291667,2.5 L8.32291667,3.3125 L6.29166667,3.3125 L6.29166667,2.90638542 L6.29166667,2.5 Z M6.29166667,14.6875 L8.32291667,14.6875 L8.32291667,15.5 L6.29166667,15.5 L6.29166667,15.0938854 L6.29166667,14.6875 Z M9.67708333,2.5 L11.7083333,2.5 L11.7083333,3.3125 L9.67708333,3.3125 L9.67708333,2.90638542 L9.67708333,2.5 Z M9.67708333,14.6875 L11.7083333,14.6875 L11.7083333,15.5 L9.67708333,15.5 L9.67708333,15.0938854 L9.67708333,14.6875 Z M13.0625,14.6875 L14.6875,14.6875 L14.6875,13.0625 L15.5,13.0625 L15.5,15.5 L13.0625,15.5 L13.0625,14.6875 Z M13.0625,3.3125 L13.0625,2.5 L15.5,2.5 L15.5,4.9375 L14.6875,4.9375 L14.6875,3.3125 L13.0625,3.3125 Z M3.3125,13.0625 L3.3125,14.6875 L4.9375,14.6875 L4.9375,15.5 L2.5,15.5 L2.5,13.0625 L3.3125,13.0625 Z M3.3125,4.9375 L2.5,4.9375 L2.5,2.5 L4.9375,2.5 L4.9375,3.3125 L3.3125,3.3125 L3.3125,4.9375 Z" id="Combined-Shape" stroke="#3892ED" stroke-width="0.16" fill="#3B92ED"></path>
            </g>
            <g id="free_lasso" transform="translate(300.000000, 30.000000)" fill-opacity="0.7" fill="#2F3133">
                <path d="M7.15979456,15.3695462 C7.36807851,15.5787463 7.58451334,15.7889977 7.80909904,16 L8.3971264,15.3336533 C8.17967272,15.1294091 7.97022436,14.9260659 7.76892687,14.7239242 L7.15979456,15.3695462 Z M6.22957603,13.0030166 C6.74642879,12.9138099 7.32601418,12.8396212 8.04300002,12.7663336 L7.95697919,11.8696114 C7.01089556,11.966327 6.28939763,12.064995 5.63310669,12.1989552 C5.60195871,12.1539013 5.57008296,12.1086972 5.53980829,12.0637936 L4.82282245,12.5783087 C5.2942632,13.277695 5.86336889,13.990297 6.53188614,14.7149134 L7.16445221,14.0936206 C6.82502651,13.7256806 6.51398332,13.3622461 6.22957603,13.0030166 L6.22957603,13.0030166 Z M3.26877092,9.1632254 C3.45434887,10.0045313 3.80512757,10.8794775 4.32430915,11.7811556 L5.0750629,11.3208552 C4.60071112,10.4971203 4.28471919,9.70897795 4.12024619,8.9633364 L3.26877092,9.1632254 Z M3.99856528,8.13930111 C3.93597821,7.26555639 4.09855904,6.46885379 4.46505728,5.76346037 L3.69538186,5.33770129 C3.25043146,6.19432554 3.05277275,7.16193249 3.12758614,8.20583066 L3.99856528,8.13930111 Z M6.81149024,3.58450503 L6.44033435,2.7688798 C5.54723141,3.20154714 4.78512465,3.7979102 4.21747448,4.52583056 L4.89792693,5.09065591 C5.37882852,4.47401861 6.03424615,3.96115538 6.81149024,3.58450503 L6.81149024,3.58450503 Z M10.0200237,2.9034407 L10.0422931,2.00266365 C9.12066205,1.97848474 8.18520367,2.119203 7.31262346,2.41310441 L7.58364003,3.26972866 C8.36161188,3.00766532 9.19780425,2.88196502 10.0200237,2.9034407 L10.0200237,2.9034407 Z M13.5818102,3.07434504 C12.82407,2.56193236 11.9273283,2.22763264 10.9586842,2.082409 L10.8330734,2.97417527 C11.6800366,3.10107701 12.4559707,3.39032285 13.1030919,3.82794611 L13.5818102,3.07434504 Z M15.7713389,6.19237321 C15.5054166,5.19442999 15.0127253,4.34936957 14.3268875,3.68061995 L13.7270705,4.33540287 C14.2969039,4.89121744 14.7057576,5.59240584 14.9293244,6.4313089 L15.7713389,6.19237321 Z M15.9506581,7.14766543 L15.0834633,7.25354203 C15.1121369,7.50389137 15.126692,7.7638522 15.126692,8.03327434 C15.126692,8.67499163 15.0121431,9.20212191 14.791924,9.63373798 L15.564656,10.0534899 C15.8543031,9.48611147 16,8.81525934 16,8.03327434 C16,7.72886036 15.9834071,7.43345715 15.9506581,7.14766543 L15.9506581,7.14766543 Z M12.2257085,11.3073391 L12.4310814,12.1831863 C13.5310128,11.9086581 14.3651675,11.5009205 14.9667311,10.8856349 L14.3517768,10.2457197 C13.8806271,10.7277961 13.1843096,11.068103 12.2257085,11.3073391 L12.2257085,11.3073391 Z M8.87730023,11.7804047 C8.85255651,11.7826574 8.85255651,11.7826574 8.82795833,11.7850603 L8.90772046,12.6823832 C8.93231863,12.6799803 8.93231863,12.6799803 8.95706236,12.6777276 C10.2550891,12.5548807 10.8537417,12.4868494 11.542345,12.3680574 L11.3981037,11.4792947 C10.7383195,11.5931308 10.1534943,11.6596603 8.87730023,11.7804047 L8.87730023,11.7804047 Z M4.43347265,12.5093763 L4.69633834,13.3685536 C3.80818414,13.6577995 3.12816834,14.0551746 2.6363504,14.5950702 L2,13.9778321 C2.60505687,13.3137381 3.41315784,12.8415735 4.43347265,12.5093763 L4.43347265,12.5093763 Z"></path>
            </g>
            <g id="free_lasso-copy" transform="translate(300.000000, 60.000000)" stroke="#3892ED" stroke-width="0.16" fill="#3B92ED">
                <path d="M7.15979456,15.3695462 C7.36807851,15.5787463 7.58451334,15.7889977 7.80909904,16 L8.3971264,15.3336533 C8.17967272,15.1294091 7.97022436,14.9260659 7.76892687,14.7239242 L7.15979456,15.3695462 Z M6.22957603,13.0030166 C6.74642879,12.9138099 7.32601418,12.8396212 8.04300002,12.7663336 L7.95697919,11.8696114 C7.01089556,11.966327 6.28939763,12.064995 5.63310669,12.1989552 C5.60195871,12.1539013 5.57008296,12.1086972 5.53980829,12.0637936 L4.82282245,12.5783087 C5.2942632,13.277695 5.86336889,13.990297 6.53188614,14.7149134 L7.16445221,14.0936206 C6.82502651,13.7256806 6.51398332,13.3622461 6.22957603,13.0030166 L6.22957603,13.0030166 Z M3.26877092,9.1632254 C3.45434887,10.0045313 3.80512757,10.8794775 4.32430915,11.7811556 L5.0750629,11.3208552 C4.60071112,10.4971203 4.28471919,9.70897795 4.12024619,8.9633364 L3.26877092,9.1632254 Z M3.99856528,8.13930111 C3.93597821,7.26555639 4.09855904,6.46885379 4.46505728,5.76346037 L3.69538186,5.33770129 C3.25043146,6.19432554 3.05277275,7.16193249 3.12758614,8.20583066 L3.99856528,8.13930111 Z M6.81149024,3.58450503 L6.44033435,2.7688798 C5.54723141,3.20154714 4.78512465,3.7979102 4.21747448,4.52583056 L4.89792693,5.09065591 C5.37882852,4.47401861 6.03424615,3.96115538 6.81149024,3.58450503 L6.81149024,3.58450503 Z M10.0200237,2.9034407 L10.0422931,2.00266365 C9.12066205,1.97848474 8.18520367,2.119203 7.31262346,2.41310441 L7.58364003,3.26972866 C8.36161188,3.00766532 9.19780425,2.88196502 10.0200237,2.9034407 L10.0200237,2.9034407 Z M13.5818102,3.07434504 C12.82407,2.56193236 11.9273283,2.22763264 10.9586842,2.082409 L10.8330734,2.97417527 C11.6800366,3.10107701 12.4559707,3.39032285 13.1030919,3.82794611 L13.5818102,3.07434504 Z M15.7713389,6.19237321 C15.5054166,5.19442999 15.0127253,4.34936957 14.3268875,3.68061995 L13.7270705,4.33540287 C14.2969039,4.89121744 14.7057576,5.59240584 14.9293244,6.4313089 L15.7713389,6.19237321 Z M15.9506581,7.14766543 L15.0834633,7.25354203 C15.1121369,7.50389137 15.126692,7.7638522 15.126692,8.03327434 C15.126692,8.67499163 15.0121431,9.20212191 14.791924,9.63373798 L15.564656,10.0534899 C15.8543031,9.48611147 16,8.81525934 16,8.03327434 C16,7.72886036 15.9834071,7.43345715 15.9506581,7.14766543 L15.9506581,7.14766543 Z M12.2257085,11.3073391 L12.4310814,12.1831863 C13.5310128,11.9086581 14.3651675,11.5009205 14.9667311,10.8856349 L14.3517768,10.2457197 C13.8806271,10.7277961 13.1843096,11.068103 12.2257085,11.3073391 L12.2257085,11.3073391 Z M8.87730023,11.7804047 C8.85255651,11.7826574 8.85255651,11.7826574 8.82795833,11.7850603 L8.90772046,12.6823832 C8.93231863,12.6799803 8.93231863,12.6799803 8.95706236,12.6777276 C10.2550891,12.5548807 10.8537417,12.4868494 11.542345,12.3680574 L11.3981037,11.4792947 C10.7383195,11.5931308 10.1534943,11.6596603 8.87730023,11.7804047 L8.87730023,11.7804047 Z M4.43347265,12.5093763 L4.69633834,13.3685536 C3.80818414,13.6577995 3.12816834,14.0551746 2.6363504,14.5950702 L2,13.9778321 C2.60505687,13.3137381 3.41315784,12.8415735 4.43347265,12.5093763 L4.43347265,12.5093763 Z" id="free_lasso"></path>
            </g>
            <g id="circle-lasso" transform="translate(330.000000, 30.000000)" fill-opacity="0.7" fill="#2F3133">
                <path d="M8.56155918,15.1207892 C8.02256926,15.0826452 7.50301689,14.9752284 7.01137858,14.8068688 L6.66778713,15.6163683 C7.2661127,15.8272561 7.90141345,15.9592254 8.56155918,16 L8.56155918,15.1207892 Z M4.3618807,13.018049 C4.04006514,12.6468396 3.76223981,12.2367556 3.53600434,11.7955426 L2.72678873,12.1391304 C2.99979122,12.6835221 3.34133662,13.1872853 3.74046391,13.6394593 L4.3618807,13.018049 Z M6.20435518,14.4638655 C5.76313757,14.2377786 5.3531954,13.9599562 4.98198217,13.6379978 L4.36041923,14.2595543 C4.81259787,14.6586774 5.31636637,15.0000731 5.86090987,15.2730727 L6.20435518,14.4638655 Z M10.9886214,14.8068688 C10.4969831,14.9752284 9.97743074,15.0826452 9.43844082,15.1207892 L9.43844082,16 C10.0985866,15.9592254 10.7338873,15.8272561 11.3322129,15.6163683 L10.9886214,14.8068688 Z M14.8070025,7.01147242 C14.9753638,7.50295944 15.0827818,8.02250639 15.1209262,8.56149068 L16,8.56149068 C15.959225,7.90135185 15.8272543,7.26605773 15.6163643,6.66788455 L14.8070025,7.01147242 Z M13.0180178,13.6379978 C12.6468046,13.9599562 12.2368624,14.2377786 11.7956448,14.4638655 L12.1390901,15.2730727 C12.6836336,15.0000731 13.1874021,14.6586774 13.6395808,14.2595543 L13.0180178,13.6379978 Z M14.4639957,11.7955426 C14.2377602,12.2367556 13.9599349,12.6468396 13.6381193,13.018049 L14.2595361,13.6394593 C14.6586634,13.1872853 15.0002088,12.6835221 15.2732113,12.1391304 L14.4639957,11.7955426 Z M15.1209262,9.43836317 C15.0827818,9.97734746 14.9753638,10.4968944 14.8070025,10.9885276 L15.6163643,11.3321155 C15.8272543,10.7337961 15.959225,10.0986482 16,9.43836317 L15.1209262,9.43836317 Z M2.87907385,8.56149068 C2.9172182,8.02250639 3.0246362,7.50295944 3.19299747,7.01147242 L2.38363572,6.66788455 C2.17274568,7.26605773 2.040775,7.90135185 2,8.56149068 L2.87907385,8.56149068 Z M9.43844082,2.87921081 C9.97743074,2.91720862 10.4969831,3.02477165 10.9886214,3.19313117 L11.3322129,2.38363171 C10.7338873,2.17274388 10.0985866,2.04077457 9.43844082,2 L9.43844082,2.87921081 Z M7.01137858,3.19313117 C7.50301689,3.02477165 8.02256926,2.91720862 8.56155918,2.87921081 L8.56155918,2 C7.90141345,2.04077457 7.2661127,2.17274388 6.66778713,2.38363171 L7.01137858,3.19313117 Z M11.7956448,3.53598831 C12.2368624,3.76222141 12.6468046,4.04004384 13.0180178,4.36200219 L13.6395808,3.74044574 C13.1874021,3.34132262 12.6836336,2.99978078 12.1390901,2.72692729 L11.7956448,3.53598831 Z M4.98198217,4.36200219 C5.3531954,4.04004384 5.76313757,3.76222141 6.20435518,3.53598831 L5.86090987,2.72692729 C5.31636637,2.99978078 4.81259787,3.34132262 4.36041923,3.74044574 L4.98198217,4.36200219 Z M3.19299747,10.9885276 C3.0246362,10.4968944 2.9172182,9.97734746 2.87907385,9.43836317 L2,9.43836317 C2.040775,10.0986482 2.17274568,10.7337961 2.38363572,11.3321155 L3.19299747,10.9885276 Z M3.53600434,6.20431129 C3.76223981,5.76324443 4.04006514,5.35316039 4.3618807,4.98195104 L3.74046391,4.36054074 C3.34133662,4.81271465 2.99979122,5.3164779 2.72678873,5.86086957 L3.53600434,6.20431129 Z M15.2732113,5.86086957 L14.4639957,6.20431129 C14.2377602,5.76324443 13.9599349,5.35316039 13.6381193,4.98195104 L14.2595361,4.36054074 C14.6586634,4.81271465 15.0002088,5.3164779 15.2732113,5.86086957 L15.2732113,5.86086957 Z" id="Fill-1"></path>
            </g>
            <g id="circle-lasso-copy" transform="translate(330.000000, 60.000000)" stroke="#3892ED" stroke-width="0.16" fill="#3B92ED">
                <path d="M8.56155918,15.1207892 C8.02256926,15.0826452 7.50301689,14.9752284 7.01137858,14.8068688 L6.66778713,15.6163683 C7.2661127,15.8272561 7.90141345,15.9592254 8.56155918,16 L8.56155918,15.1207892 Z M4.3618807,13.018049 C4.04006514,12.6468396 3.76223981,12.2367556 3.53600434,11.7955426 L2.72678873,12.1391304 C2.99979122,12.6835221 3.34133662,13.1872853 3.74046391,13.6394593 L4.3618807,13.018049 Z M6.20435518,14.4638655 C5.76313757,14.2377786 5.3531954,13.9599562 4.98198217,13.6379978 L4.36041923,14.2595543 C4.81259787,14.6586774 5.31636637,15.0000731 5.86090987,15.2730727 L6.20435518,14.4638655 Z M10.9886214,14.8068688 C10.4969831,14.9752284 9.97743074,15.0826452 9.43844082,15.1207892 L9.43844082,16 C10.0985866,15.9592254 10.7338873,15.8272561 11.3322129,15.6163683 L10.9886214,14.8068688 Z M14.8070025,7.01147242 C14.9753638,7.50295944 15.0827818,8.02250639 15.1209262,8.56149068 L16,8.56149068 C15.959225,7.90135185 15.8272543,7.26605773 15.6163643,6.66788455 L14.8070025,7.01147242 Z M13.0180178,13.6379978 C12.6468046,13.9599562 12.2368624,14.2377786 11.7956448,14.4638655 L12.1390901,15.2730727 C12.6836336,15.0000731 13.1874021,14.6586774 13.6395808,14.2595543 L13.0180178,13.6379978 Z M14.4639957,11.7955426 C14.2377602,12.2367556 13.9599349,12.6468396 13.6381193,13.018049 L14.2595361,13.6394593 C14.6586634,13.1872853 15.0002088,12.6835221 15.2732113,12.1391304 L14.4639957,11.7955426 Z M15.1209262,9.43836317 C15.0827818,9.97734746 14.9753638,10.4968944 14.8070025,10.9885276 L15.6163643,11.3321155 C15.8272543,10.7337961 15.959225,10.0986482 16,9.43836317 L15.1209262,9.43836317 Z M2.87907385,8.56149068 C2.9172182,8.02250639 3.0246362,7.50295944 3.19299747,7.01147242 L2.38363572,6.66788455 C2.17274568,7.26605773 2.040775,7.90135185 2,8.56149068 L2.87907385,8.56149068 Z M9.43844082,2.87921081 C9.97743074,2.91720862 10.4969831,3.02477165 10.9886214,3.19313117 L11.3322129,2.38363171 C10.7338873,2.17274388 10.0985866,2.04077457 9.43844082,2 L9.43844082,2.87921081 Z M7.01137858,3.19313117 C7.50301689,3.02477165 8.02256926,2.91720862 8.56155918,2.87921081 L8.56155918,2 C7.90141345,2.04077457 7.2661127,2.17274388 6.66778713,2.38363171 L7.01137858,3.19313117 Z M11.7956448,3.53598831 C12.2368624,3.76222141 12.6468046,4.04004384 13.0180178,4.36200219 L13.6395808,3.74044574 C13.1874021,3.34132262 12.6836336,2.99978078 12.1390901,2.72692729 L11.7956448,3.53598831 Z M4.98198217,4.36200219 C5.3531954,4.04004384 5.76313757,3.76222141 6.20435518,3.53598831 L5.86090987,2.72692729 C5.31636637,2.99978078 4.81259787,3.34132262 4.36041923,3.74044574 L4.98198217,4.36200219 Z M3.19299747,10.9885276 C3.0246362,10.4968944 2.9172182,9.97734746 2.87907385,9.43836317 L2,9.43836317 C2.040775,10.0986482 2.17274568,10.7337961 2.38363572,11.3321155 L3.19299747,10.9885276 Z M3.53600434,6.20431129 C3.76223981,5.76324443 4.04006514,5.35316039 4.3618807,4.98195104 L3.74046391,4.36054074 C3.34133662,4.81271465 2.99979122,5.3164779 2.72678873,5.86086957 L3.53600434,6.20431129 Z M15.2732113,5.86086957 L14.4639957,6.20431129 C14.2377602,5.76324443 13.9599349,5.35316039 13.6381193,4.98195104 L14.2595361,4.36054074 C14.6586634,4.81271465 15.0002088,5.3164779 15.2732113,5.86086957 L15.2732113,5.86086957 Z" id="Fill-1"></path>
            </g>
            <g id="eye-open" transform="translate(360.000000, 60.000000)" fill="#3B92ED">
                <path d="M14.0475429,8.10428316 C12.9975569,6.42085722 11.1301753,5.30000019 9,5.30000019 C6.86982466,5.30000019 5.00232417,6.42085722 3.95245714,8.10428316 C3.77825222,8.38372449 3.62664043,8.67838646 3.5,8.98624757 C3.62664043,9.29398977 3.77825222,9.58865174 3.95245714,9.86797416 C5.00232417,11.551519 6.86982466,12.6724949 9,12.6724949 C11.1301753,12.6724949 12.9975569,11.551519 14.0475429,9.86797416 C14.2217478,9.58865174 14.3733596,9.29398977 14.5,8.98624757 C14.3733596,8.67838646 14.2217478,8.38372449 14.0475429,8.10428316 M9,6.78958352 C10.2023903,6.78958352 11.1770833,7.76427654 11.1770833,8.96666686 C11.1770833,10.1690572 10.2023903,11.1437502 9,11.1437502 C7.79760968,11.1437502 6.82291667,10.1690572 6.82291667,8.96666686 C6.82291667,7.76427654 7.79760968,6.78958352 9,6.78958352 Z M10.2603708,8.9666554 C10.2603708,8.27056165 9.6961625,7.70623873 8.99995417,7.70623873 C8.30386042,7.70623873 7.7395375,8.27056165 7.7395375,8.9666554 C7.7395375,9.66274915 8.30386042,10.2271866 8.99995417,10.2271866 C9.6961625,10.2271866 10.2603708,9.66274915 10.2603708,8.9666554 Z" id="Combined-Shape"></path>
            </g>
            <g id="eye-close" transform="translate(380.000000, 30.000000)" fill-opacity="0.7" fill="#2F3133">
                <path d="M10.2340625,10.5718956 C10.7123333,10.2025936 11.0215938,9.62555189 11.0215938,8.97437481 C11.0215938,7.85787481 10.1166146,6.95289564 9,6.95289564 C8.3489375,6.95289564 7.77178125,7.26215606 7.40259375,7.74042689 L7.93884375,8.27656231 C8.16273958,7.92685398 8.55392708,7.69436439 9,7.69436439 C9.69620833,7.69436439 10.2604167,8.25868731 10.2604167,8.95478106 C10.2604167,9.40096856 10.0280417,9.79204148 9.67821875,10.0160519 L10.2340625,10.5718956 Z M14.5,8.97437481 C14.3733854,9.28214564 14.2217917,9.57673939 14.0475104,9.85609356 C13.4734479,10.7765415 12.6542917,11.5272915 11.6821667,12.0199998 L12.6403125,12.9781456 L11.9921146,13.6263436 L4.21396875,5.84808314 L4.86216667,5.19999981 L5.8533125,6.19114564 C6.76585417,5.61983314 7.84373958,5.28811439 9,5.28811439 C11.1302188,5.28811439 12.9975833,6.40896856 14.0475104,8.09242689 C14.2217917,8.37189564 14.3733854,8.66648939 14.5,8.97437481 L14.5,8.97437481 Z M4.47945833,7.37398939 L9.721875,12.6165206 C9.48526042,12.6452811 9.24440625,12.6606352 9,12.6606352 C6.86989583,12.6606352 5.00241667,11.5396665 3.95248958,9.85609356 C3.77832292,9.57673939 3.62672917,9.28214564 3.5,8.97437481 C3.62672917,8.66648939 3.77832292,8.37189564 3.95248958,8.09242689 C4.11027083,7.83954148 4.28672917,7.59971856 4.47945833,7.37398939 L4.47945833,7.37398939 Z" id="invisible"></path>
            </g>
            <g id="rotate-copy" transform="translate(150.000000, 150.000000)" fill-opacity="0.7" fill="#2F3133">
                <path d="M1.00064313,9.31389894 C1.00064313,9.21524239 0.999007338,9.11652942 1.00095337,9.01790109 C1.0061428,8.75135632 1.19733356,8.55503064 1.44947185,8.55556666 C1.70259726,8.5561309 1.89099589,8.75350041 1.89280091,9.01996055 C1.91409447,12.2115295 3.98704349,14.985536 7.06657143,15.8334971 C9.46318253,16.4933985 11.6519347,16.0017803 13.5927226,14.4365068 C13.6868091,14.3606454 13.7007134,14.3173403 13.6037783,14.2270063 C13.3700287,14.0093243 13.1596314,13.7659414 12.9207769,13.5544378 C12.6373892,13.3034941 12.7245095,12.8398337 13.1311742,12.7343781 C14.160062,12.4675512 15.1842116,12.1824713 16.2114918,11.9094379 C16.6111902,11.8031924 16.8769225,12.0804858 16.7699189,12.4839423 C16.6810782,12.8189852 16.5905171,13.1535768 16.5000125,13.4881683 C16.3141803,14.1754069 16.1293353,14.8629277 15.9412469,15.5495739 C15.8285744,15.9609014 15.4344603,16.0625766 15.1322045,15.76088 C14.892645,15.5218135 14.6507163,15.2850039 14.4161769,15.041085 C14.3470222,14.969145 14.3081862,14.976734 14.236888,15.0383767 C13.1037887,16.0178328 11.8022587,16.6599326 10.3223987,16.8897738 C7.98132012,17.2534235 5.85436161,16.721406 3.99838125,15.232389 C2.36932535,13.9253943 1.41066399,12.2173693 1.08254577,10.1557945 C1.03826645,9.87754182 1.01172707,9.59643978 1.00064313,9.31389894 Z M16.9994973,8.72398808 C16.9994973,8.78292246 17.0007664,8.88160722 16.9992717,8.98023556 C16.995154,9.2539179 16.7976174,9.45597057 16.5427152,9.44857909 C16.2876156,9.44113118 16.1085805,9.24692138 16.1073395,8.97628591 C16.0925609,5.75895965 13.9361299,2.9317457 10.8191478,2.13744342 C8.48021267,1.54141343 6.3394627,2.01001087 4.44791787,3.53446188 C4.28814568,3.66322038 4.2899789,3.66584407 4.4348315,3.80495629 C4.65856898,4.0198171 4.8843371,4.23256203 5.10595932,4.44959515 C5.38788039,4.7256755 5.28823782,5.13813152 4.90867662,5.24223294 C3.86563072,5.52835667 2.82128747,5.80962798 1.77626733,6.08852951 C1.43012715,6.18089483 1.14710615,5.9024447 1.23755441,5.55428329 C1.5096043,4.50714716 1.78563085,3.46099844 2.06763653,2.416486 C2.16617917,2.0515668 2.57321047,1.95355912 2.84472448,2.22072455 C3.08589165,2.45807014 3.32751008,2.69527467 3.56083671,2.94026565 C3.64186504,3.02535234 3.68656741,3.03367481 3.78234612,2.95135288 C4.88701642,2.00197052 6.15199478,1.37928041 7.59019835,1.13045263 C9.3720602,0.822154447 11.0843161,1.05213677 12.6818688,1.90760216 C14.9167335,3.10431707 16.3078938,4.95613742 16.8420378,7.4415094 C16.8863453,7.64762456 16.9201611,7.85667375 16.9460237,8.06594863 C16.9713785,8.27085069 16.9802626,8.477784 16.9994973,8.72398808 Z" id="Combined-Shape"></path>
            </g>
            <g id="rotate-copy-2" transform="translate(150.000000, 90.000000)" fill="#2F3133">
                <path d="M5.37441686,11.6242292 C5.31915537,11.7463843 5.31530475,11.8856202 5.36373045,12.0106423 C5.46340986,12.2679876 5.75285461,12.3958084 6.01022341,12.2961381 L8.93662484,11.1628411 C8.97533341,11.1478505 9.01824479,11.1478511 9.05695294,11.1628428 L11.9829738,12.2960879 C12.1080105,12.3445145 12.2472647,12.3406661 12.3694354,12.2854076 C12.6209023,12.1716678 12.7325437,11.875628 12.6187936,11.6241841 L9.45193643,4.62387089 C9.40188012,4.51322181 9.3132375,4.42458729 9.20257832,4.37453556 C8.95111146,4.26079577 8.65504456,4.372427 8.54129438,4.62387089 L5.37441686,11.6242292 Z" id="Combined-Shape"></path>
            </g>
            <g id="rotate-copy-3" transform="translate(150.000000, 180.000000)" fill="#2F3133">
                <path d="M1.00064313,9.31389894 C1.00064313,9.21524239 0.999007338,9.11652942 1.00095337,9.01790109 C1.0061428,8.75135632 1.19733356,8.55503064 1.44947185,8.55556666 C1.70259726,8.5561309 1.89099589,8.75350041 1.89280091,9.01996055 C1.91409447,12.2115295 3.98704349,14.985536 7.06657143,15.8334971 C9.46318253,16.4933985 11.6519347,16.0017803 13.5927226,14.4365068 C13.6868091,14.3606454 13.7007134,14.3173403 13.6037783,14.2270063 C13.3700287,14.0093243 13.1596314,13.7659414 12.9207769,13.5544378 C12.6373892,13.3034941 12.7245095,12.8398337 13.1311742,12.7343781 C14.160062,12.4675512 15.1842116,12.1824713 16.2114918,11.9094379 C16.6111902,11.8031924 16.8769225,12.0804858 16.7699189,12.4839423 C16.6810782,12.8189852 16.5905171,13.1535768 16.5000125,13.4881683 C16.3141803,14.1754069 16.1293353,14.8629277 15.9412469,15.5495739 C15.8285744,15.9609014 15.4344603,16.0625766 15.1322045,15.76088 C14.892645,15.5218135 14.6507163,15.2850039 14.4161769,15.041085 C14.3470222,14.969145 14.3081862,14.976734 14.236888,15.0383767 C13.1037887,16.0178328 11.8022587,16.6599326 10.3223987,16.8897738 C7.98132012,17.2534235 5.85436161,16.721406 3.99838125,15.232389 C2.36932535,13.9253943 1.41066399,12.2173693 1.08254577,10.1557945 C1.03826645,9.87754182 1.01172707,9.59643978 1.00064313,9.31389894 Z M16.9994973,8.72398808 C16.9994973,8.78292246 17.0007664,8.88160722 16.9992717,8.98023556 C16.995154,9.2539179 16.7976174,9.45597057 16.5427152,9.44857909 C16.2876156,9.44113118 16.1085805,9.24692138 16.1073395,8.97628591 C16.0925609,5.75895965 13.9361299,2.9317457 10.8191478,2.13744342 C8.48021267,1.54141343 6.3394627,2.01001087 4.44791787,3.53446188 C4.28814568,3.66322038 4.2899789,3.66584407 4.4348315,3.80495629 C4.65856898,4.0198171 4.8843371,4.23256203 5.10595932,4.44959515 C5.38788039,4.7256755 5.28823782,5.13813152 4.90867662,5.24223294 C3.86563072,5.52835667 2.82128747,5.80962798 1.77626733,6.08852951 C1.43012715,6.18089483 1.14710615,5.9024447 1.23755441,5.55428329 C1.5096043,4.50714716 1.78563085,3.46099844 2.06763653,2.416486 C2.16617917,2.0515668 2.57321047,1.95355912 2.84472448,2.22072455 C3.08589165,2.45807014 3.32751008,2.69527467 3.56083671,2.94026565 C3.64186504,3.02535234 3.68656741,3.03367481 3.78234612,2.95135288 C4.88701642,2.00197052 6.15199478,1.37928041 7.59019835,1.13045263 C9.3720602,0.822154447 11.0843161,1.05213677 12.6818688,1.90760216 C14.9167335,3.10431707 16.3078938,4.95613742 16.8420378,7.4415094 C16.8863453,7.64762456 16.9201611,7.85667375 16.9460237,8.06594863 C16.9713785,8.27085069 16.9802626,8.477784 16.9994973,8.72398808 Z" id="Combined-Shape"></path>
            </g>
            <g id="pin-copy" transform="translate(470.000000, 30.000000)" fill="#3B92ED">
                <path d="M4.76000023,7.81016667 C4.76000023,5.43370833 6.66179354,3.5 8.99958356,3.5 C11.3369227,3.5 13.2391669,5.43370833 13.2391669,7.81016667 C13.2391669,10.04775 9.89998215,13.8340417 9.00183794,14.5 C8.10324286,13.8253333 4.76000023,10.0225417 4.76000023,7.81016667 Z M8.99980966,5.90625 C8.11486134,5.90625 7.3954169,6.62569444 7.3954169,7.51064276 C7.3954169,8.39513889 8.11486134,9.11458333 8.99980966,9.11458333 C9.88430578,9.11458333 10.6037502,8.39513889 10.6037502,7.51064276 C10.6037502,6.62569444 9.88430578,5.90625 8.99980966,5.90625 Z" id="Combined-Shape"></path>
            </g>
            <g id="pin-copy-2" transform="translate(470.000000, 60.000000)" fill="#FFFFFF">
                <path d="M4.76000023,7.81016667 C4.76000023,5.43370833 6.66179354,3.5 8.99958356,3.5 C11.3369227,3.5 13.2391669,5.43370833 13.2391669,7.81016667 C13.2391669,10.04775 9.89998215,13.8340417 9.00183794,14.5 C8.10324286,13.8253333 4.76000023,10.0225417 4.76000023,7.81016667 Z M8.99980966,5.90625 C8.11486134,5.90625 7.3954169,6.62569444 7.3954169,7.51064276 C7.3954169,8.39513889 8.11486134,9.11458333 8.99980966,9.11458333 C9.88430578,9.11458333 10.6037502,8.39513889 10.6037502,7.51064276 C10.6037502,6.62569444 9.88430578,5.90625 8.99980966,5.90625 Z" id="Combined-Shape"></path>
            </g>
            <g id="multi_layer-copy-5" transform="translate(410.000000, 30.000000)" fill-opacity="0.6" fill="#444649">
                <path d="M8.99002474,12.8022348 L5.21715942,10.5455259 L7.25310982,9.32507515 L8.78938822,10.2440689 C8.9130657,10.3181208 9.06689015,10.3181208 9.19066125,10.2440689 L10.7269397,9.32507515 L12.76289,10.5455259 L8.99002474,12.8022348 Z M5.21715942,7.45212386 L8.99002474,5.19072805 L12.76289,7.45212386 L10.1798002,8.99718447 L8.99002474,9.70892658 L7.80015563,8.99718447 L5.21715942,7.45212386 Z M13.2874661,10.2044183 L11.2742663,8.99774689 L13.2871852,7.79370008 C13.3438278,7.75976743 13.3912016,7.71214923 13.424719,7.6549699 C13.5357573,7.4665593 13.4742462,7.22303158 13.2874661,7.11111006 L9.19094212,4.65567945 C9.0670774,4.58144006 8.91297207,4.58144006 8.78910735,4.65567945 L4.69248978,7.11111006 C4.6359408,7.14504271 4.58866062,7.19275465 4.55504955,7.24993399 C4.4442922,7.43843832 4.50589688,7.6818723 4.69286428,7.79370008 L6.70578314,8.99774689 L4.69248978,10.2044183 C4.6359408,10.238351 4.58866062,10.2860629 4.55504955,10.3432423 C4.4442922,10.5317466 4.50589688,10.7751806 4.69286428,10.8869146 L8.78938822,13.3373772 C8.9130657,13.4114291 9.06689015,13.4114291 9.19066125,13.3373772 L13.2871852,10.8869146 C13.3438278,10.8530757 13.3912016,10.8053638 13.424719,10.7483719 C13.5357573,10.5598676 13.4742462,10.3163398 13.2874661,10.2044183 L13.2874661,10.2044183 Z" id="multi_layer-copy"></path>
            </g>
            <g id="map" transform="translate(440.000000, 30.000000)" fill-opacity="0.5" fill="#2F3133">
                <path d="M12.4163437,10.3943437 C12.3531562,10.4775 12.2925938,10.5379687 12.2420625,10.5719062 C12.2376563,10.5748125 12.2335312,10.5773437 12.2296875,10.5797812 C12.201375,10.5264375 12.1760625,10.4354062 12.160125,10.3085625 C12.076125,9.6425625 11.7860625,9.2960625 11.2656562,9.04771875 C11.2335,9.03234375 11.2004063,9.01725 11.1604687,8.99934375 C11.1413438,8.9908125 11.075625,8.96175 11.0627813,8.95603125 C10.7554688,8.818875 10.6835625,8.74940625 10.670625,8.5455 C10.643625,8.11921875 10.8291563,7.8358125 11.185125,7.6291875 C11.3173125,7.5525 11.4518438,7.497375 11.6229375,7.4415 C11.6414062,7.4355 11.6982188,7.4173125 11.7057188,7.414875 C11.7387188,7.40409375 11.760375,7.39659375 11.7808125,7.3884375 C11.798625,7.38121875 11.8149375,7.373625 11.8319063,7.36396875 C11.8752188,7.3393125 11.91075,7.31034375 11.9428125,7.25578125 C12.0140625,7.13475 11.9859375,6.9868125 11.8872187,6.89821875 C11.8469062,6.86184375 11.8099687,6.84496875 11.7676875,6.8325 C11.6476875,6.79725 11.5375313,6.76125 11.437125,6.72459375 C11.0511563,6.5840625 10.8282188,6.44409375 10.7277188,6.31621875 C10.678125,6.25303125 10.6699688,6.21853125 10.671,6.13059375 C10.6710938,6.11953125 10.6711875,6.11353125 10.6711875,6.1066875 C10.6711875,5.95884375 10.8220313,5.8175625 11.1499688,5.70196875 C12.1854375,6.37846875 12.8815313,7.5290625 12.9325313,8.8456875 C12.9327187,8.84203125 12.9330937,8.838375 12.9332813,8.834625 C12.9355313,8.8895625 12.9375,8.94459375 12.9375,9 C12.9375,8.94825 12.9345,8.8970625 12.9325313,8.8456875 C12.9001875,9.42890625 12.6916875,10.0322812 12.4163437,10.3943437 M9,12.9375938 C8.56321875,12.930375 8.3240625,12.8785313 8.3240625,12.8785313 C8.64646875,12.7126875 8.88496875,12.361875 8.88496875,12.0173438 C8.88496875,11.7565313 8.99146875,11.54175 9.28115625,11.1467813 C9.293625,11.1297188 9.33834375,11.068875 9.3373125,11.0702813 C9.36009375,11.03925 9.37734375,11.0157188 9.394125,10.9925625 C9.437625,10.9324688 9.47325,10.8815625 9.50625,10.8321563 C9.879,10.2718125 9.9075,9.793125 9.44896875,9.26053125 C9.228375,9.00440625 9.03159375,8.925 8.646,8.86115625 C8.3461875,8.8115625 8.23575,8.77078125 8.08059375,8.62153125 C7.9618125,8.50725 7.8283125,8.4185625 7.68271875,8.35303125 C7.4325,8.24025 7.22596875,8.210625 6.92221875,8.20603125 C6.8795625,8.13553125 6.838875,8.04075 6.8326875,8.0015625 C6.8210625,7.927875 6.8491875,7.87265625 6.9714375,7.744875 C6.98934375,7.726125 7.0595625,7.6543125 7.057125,7.65684375 C7.4109375,7.29290625 7.5373125,6.98109375 7.3845,6.47821875 C7.28315625,6.14484375 7.051875,5.93146875 6.724125,5.8280625 C6.7108125,5.8239375 6.697125,5.8205625 6.683625,5.81671875 C7.3336875,5.3428125 8.1339375,5.0625 9,5.0625 C9.54684375,5.0625 10.06725,5.1744375 10.5403125,5.3761875 C10.5405937,5.376 10.5403125,5.3761875 10.5403125,5.3761875 C10.257375,5.56078125 10.1086875,5.80096875 10.1086875,6.1066875 C10.104,6.5281875 10.3089375,6.8431875 10.9315312,7.1263125 C10.9220625,7.13165625 10.9124063,7.13709375 10.90275,7.14271875 C10.3763438,7.44834375 10.0673437,7.92009375 10.10925,8.58103125 C10.1386875,9.0470625 10.3553437,9.2563125 10.8336562,9.46978125 C10.8475313,9.475875 10.9129687,9.5049375 10.9307812,9.51290625 C10.9669688,9.52903125 10.9960312,9.54234375 11.0234062,9.55546875 C11.3825625,9.72684375 11.5440938,9.91978125 11.6020313,10.3789688 C11.6575312,10.8186563 11.8235625,11.103375 12.1307812,11.15025 C12.1881563,11.1590625 12.2445,11.1564375 12.3001875,11.1466875 C11.597625,12.2244375 10.38225,12.9602813 9,12.9375938 M7.94559375,12.4141875 C7.70634375,12.4268438 7.44478125,12.0949688 7.284375,11.2540313 C7.25353125,11.0918438 7.16146875,10.9737188 7.011,10.8516563 C6.95953125,10.8099375 6.766875,10.6704375 6.7299375,10.6416563 C6.42375,10.4025 6.318375,10.1715 6.4141875,9.7055625 C6.43040625,9.6575625 6.43575,9.63928125 6.44109375,9.60721875 C6.453,9.5355 6.44709375,9.46284375 6.408,9.38934375 C6.22284375,9.04096875 5.9938125,8.78559375 5.67328125,8.52815625 C5.62171875,8.48671875 5.5693125,8.4463125 5.50209375,8.39559375 C5.4946875,8.3900625 5.3754375,8.300625 5.34215625,8.2753125 C5.2730625,8.22271875 5.21371875,8.1748125 5.16046875,8.1286875 C5.31721875,7.4349375 5.6566875,6.8109375 6.126375,6.3095625 C6.57675,6.31959375 6.77634375,6.41165625 6.84628125,6.64171875 C6.92840625,6.912 6.8795625,7.0325625 6.65390625,7.2646875 C6.65840625,7.26 6.58546875,7.33453125 6.56484375,7.35609375 C6.33309375,7.5984375 6.2311875,7.79878125 6.277125,8.08940625 C6.30365625,8.25740625 6.43209375,8.53321875 6.5805,8.67759375 C6.62775,8.723625 6.67453125,8.74378125 6.72646875,8.75578125 C6.74859375,8.7609375 6.7695,8.76365625 6.79246875,8.76534375 C6.8173125,8.76721875 6.83784375,8.7676875 6.8866875,8.76815625 C7.13428125,8.77059375 7.283625,8.7901875 7.45171875,8.86584375 C7.53984375,8.90559375 7.6194375,8.95846875 7.69059375,9.02690625 C7.94765625,9.27421875 8.15165625,9.3495 8.55421875,9.41615625 C8.821125,9.4603125 8.90925,9.4959375 9.02278125,9.62765625 C9.2956875,9.944625 9.2833125,10.1515313 9.037875,10.520625 C9.00965625,10.5630938 8.9780625,10.6080938 8.9385,10.6625625 C8.92275,10.6845 8.90625,10.7070938 8.884125,10.7370938 C8.88534375,10.7355 8.84034375,10.796625 8.8275,10.8141563 C8.4706875,11.3007188 8.32246875,11.5996875 8.32246875,12.0173438 C8.32246875,12.184875 8.12390625,12.4047188 7.94559375,12.4141875 M7.12396875,12.4626563 L7.123875,12.4626563 C5.89603125,11.7960938 5.0625,10.4954063 5.0625,9 C5.0625,8.92434375 5.06615625,8.84953125 5.0705625,8.775 C5.113875,8.80753125 5.15971875,8.8419375 5.163375,8.84475 C5.2265625,8.89228125 5.27475,8.9295 5.3210625,8.96671875 C5.5603125,9.1588125 5.72971875,9.3405 5.86715625,9.57440625 C5.720625,10.2855 5.92021875,10.7230313 6.38371875,11.0849063 C6.43321875,11.1235313 6.6200625,11.2589063 6.656625,11.2884375 C6.7134375,11.3345625 6.73153125,11.3578125 6.73190625,11.3594063 C6.8206875,11.8254375 6.954,12.1948125 7.123875,12.4626563 C7.1240625,12.46275 7.12415625,12.4628438 7.12425,12.4628438 C7.12415625,12.4628438 7.1240625,12.46275 7.12396875,12.4626563 M9,4.5 C6.5146875,4.5 4.5,6.51478125 4.5,9 C4.5,11.4854062 6.5146875,13.5000937 9,13.5000937 C11.4852187,13.5000937 13.5,11.4854062 13.5,9 C13.5,6.51478125 11.4852187,4.5 9,4.5" id="Fill-1"></path>
            </g>
            <g id="legend" opacity="0.7" transform="translate(180.000000, 30.000000)" fill="#2F3133" fill-rule="nonzero">
                <path d="M3.89583333,9.98360463 C4.45962402,9.98360463 4.91666667,9.5299711 4.91666667,8.97038578 C4.91666667,8.41080046 4.45962402,7.95716692 3.89583333,7.95716692 C3.33204265,7.95716692 2.875,8.41080046 2.875,8.97038578 C2.875,9.5299711 3.33204265,9.98360463 3.89583333,9.98360463 Z M3.89583333,10.8520779 C2.8487935,10.8520779 2,10.0096157 2,8.97038578 C2,7.9311559 2.8487935,7.08869362 3.89583333,7.08869362 C4.94287317,7.08869362 5.79166667,7.9311559 5.79166667,8.97038578 C5.79166667,10.0096157 4.94287317,10.8520779 3.89583333,10.8520779 Z M4.14724817,2.89284629 L5.73021701,5.56594711 C5.85265311,5.77270041 5.78304092,6.0388208 5.57473385,6.16034363 C5.50753106,6.1995486 5.43099516,6.22022032 5.35304368,6.22022032 L2.43855488,6.22022032 C2.1969303,6.22022032 2.00105488,6.02580595 2.00105488,5.78598367 C2.00105488,5.70861364 2.02188194,5.63264862 2.06138154,5.56594711 L3.64435039,2.89284629 C3.72597446,2.75501075 3.90472134,2.70894879 4.04359272,2.78996402 C4.08640552,2.81494028 4.1220842,2.85035283 4.14724817,2.89284629 Z M3.20317865,5.35174702 L4.5884199,5.35174702 L3.89579928,4.18214424 L3.20317865,5.35174702 Z M2.4375,11.7205512 L5.35416667,11.7205512 C5.51524972,11.7205512 5.64583333,11.8501608 5.64583333,12.0100423 L5.64583333,14.9049533 C5.64583333,15.0648349 5.51524972,15.1944444 5.35416667,15.1944444 L2.4375,15.1944444 C2.27641695,15.1944444 2.14583333,15.0648349 2.14583333,14.9049533 L2.14583333,12.0100423 C2.14583333,11.8501608 2.27641695,11.7205512 2.4375,11.7205512 Z M3.02083333,14.3259711 L4.77083333,14.3259711 L4.77083333,12.5890245 L3.02083333,12.5890245 L3.02083333,14.3259711 Z M6.95833333,8.53614913 L16,8.53614913 L16,9.40462243 L6.95833333,9.40462243 L6.95833333,8.53614913 Z M6.95833333,4.04903706 L16,4.04903706 L16,4.91751037 L6.95833333,4.91751037 L6.95833333,4.04903706 Z M6.95833333,13.0232612 L16,13.0232612 L16,13.8917345 L6.95833333,13.8917345 L6.95833333,13.0232612 Z"></path>
            </g>
            <g id="legend-copy-21" transform="translate(180.000000, 60.000000)" fill-rule="nonzero" fill="#4A90E2">
                <path d="M3.89583333,9.98360463 C4.45962402,9.98360463 4.91666667,9.5299711 4.91666667,8.97038578 C4.91666667,8.41080046 4.45962402,7.95716692 3.89583333,7.95716692 C3.33204265,7.95716692 2.875,8.41080046 2.875,8.97038578 C2.875,9.5299711 3.33204265,9.98360463 3.89583333,9.98360463 Z M3.89583333,10.8520779 C2.8487935,10.8520779 2,10.0096157 2,8.97038578 C2,7.9311559 2.8487935,7.08869362 3.89583333,7.08869362 C4.94287317,7.08869362 5.79166667,7.9311559 5.79166667,8.97038578 C5.79166667,10.0096157 4.94287317,10.8520779 3.89583333,10.8520779 Z M4.14724817,2.89284629 L5.73021701,5.56594711 C5.85265311,5.77270041 5.78304092,6.0388208 5.57473385,6.16034363 C5.50753106,6.1995486 5.43099516,6.22022032 5.35304368,6.22022032 L2.43855488,6.22022032 C2.1969303,6.22022032 2.00105488,6.02580595 2.00105488,5.78598367 C2.00105488,5.70861364 2.02188194,5.63264862 2.06138154,5.56594711 L3.64435039,2.89284629 C3.72597446,2.75501075 3.90472134,2.70894879 4.04359272,2.78996402 C4.08640552,2.81494028 4.1220842,2.85035283 4.14724817,2.89284629 Z M3.20317865,5.35174702 L4.5884199,5.35174702 L3.89579928,4.18214424 L3.20317865,5.35174702 Z M2.4375,11.7205512 L5.35416667,11.7205512 C5.51524972,11.7205512 5.64583333,11.8501608 5.64583333,12.0100423 L5.64583333,14.9049533 C5.64583333,15.0648349 5.51524972,15.1944444 5.35416667,15.1944444 L2.4375,15.1944444 C2.27641695,15.1944444 2.14583333,15.0648349 2.14583333,14.9049533 L2.14583333,12.0100423 C2.14583333,11.8501608 2.27641695,11.7205512 2.4375,11.7205512 Z M3.02083333,14.3259711 L4.77083333,14.3259711 L4.77083333,12.5890245 L3.02083333,12.5890245 L3.02083333,14.3259711 Z M6.95833333,8.53614913 L16,8.53614913 L16,9.40462243 L6.95833333,9.40462243 L6.95833333,8.53614913 Z M6.95833333,4.04903706 L16,4.04903706 L16,4.91751037 L6.95833333,4.91751037 L6.95833333,4.04903706 Z M6.95833333,13.0232612 L16,13.0232612 L16,13.8917345 L6.95833333,13.8917345 L6.95833333,13.0232612 Z" id="legend"></path>
            </g>
        </g>
    </g>
</svg>