<?xml version="1.0" encoding="UTF-8"?>
<svg width="28px" height="28px" viewBox="0 0 28 28" version="1.1" xmlns="http://www.w3.org/2000/svg" xmlns:xlink="http://www.w3.org/1999/xlink">
    <!-- Generator: Sketch 47.1 (45422) - http://www.bohemiancoding.com/sketch -->
    <title>bulb tooltip</title>
    <desc>Created with Sketch.</desc>
    <defs></defs>
    <g id="Dossier-Editor-Designer-Use" stroke="none" stroke-width="1" fill="none" fill-rule="evenodd">
        <g id="Group-8-Copy" transform="translate(-53.000000, -963.000000)"></g>
        <g id="bulb-tooltip" fill="#1471D5">
            <path d="M5.224346,7.820375 C5.170346,8.126375 4.8787835,8.3305625 4.5727835,8.27675 L3.464846,8.081375 C3.158846,8.027375 2.9546585,7.735625 3.0086585,7.429625 C3.062471,7.1238125 3.354221,6.9194375 3.660221,6.9734375 L4.7681585,7.1688125 C5.073971,7.222625 5.278346,7.514375 5.224346,7.820375 M19.7681585,8.081375 L18.660221,8.27675 C18.354221,8.3305625 18.062471,8.126375 18.008471,7.820375 C17.9546585,7.514375 18.158846,7.222625 18.464846,7.1688125 L19.5727835,6.9734375 C19.8787835,6.9194375 20.170346,7.1238125 20.224346,7.429625 C20.278346,7.735625 20.0741585,8.027375 19.7681585,8.081375 M6.5756585,4.756625 L6.0131585,3.782375 C5.857721,3.5133125 5.949971,3.16925 6.2190335,3.014 C6.4879085,2.85875 6.831971,2.9508125 6.9874085,3.219875 L7.5499085,4.194125 C7.7051585,4.4631875 7.6129085,4.80725 7.3440335,4.9625 C7.074971,5.11775 6.7309085,5.0256875 6.5756585,4.756625 M17.2999085,3.782375 L16.7374085,4.756625 C16.581971,5.0256875 16.238096,5.11775 15.968846,4.9625 C15.699971,4.80725 15.607721,4.4631875 15.7631585,4.194125 L16.3256585,3.219875 C16.4809085,2.9508125 16.824971,2.85875 17.093846,3.014 C17.363096,3.16925 17.4551585,3.5133125 17.2999085,3.782375 M11.0539085,3.6875 L11.0539085,2.5625 C11.0539085,2.2518125 11.3059085,2 11.6164085,2 C11.9272835,2 12.1789085,2.2518125 12.1789085,2.5625 L12.1789085,3.6875 C12.1789085,3.9981875 11.9272835,4.25 11.6164085,4.25 C11.3059085,4.25 11.0539085,3.9981875 11.0539085,3.6875 M14.524721,13.7343125 C14.093096,14.0916875 13.793096,14.514125 13.6399085,15.000125 L10.032596,15.000125 C9.879221,14.5083125 9.575096,14.0811875 9.1380335,13.734875 C8.1971585,12.9903125 7.665971,12.06125 7.5240335,10.908875 C7.2739085,8.8806875 8.4930335,6.9936875 10.481846,6.3423125 C12.9337835,5.53925 15.5839085,7.04375 16.0762835,9.5069375 C16.417346,11.2120625 15.911846,12.585125 14.524721,13.7343125 M10.7055335,18.4375625 L12.9660335,18.4375625 C12.666596,18.7085 12.270971,18.875 11.835221,18.875 C11.400221,18.875 11.004971,18.7090625 10.7055335,18.4375625 M10.149971,16.392125 C10.148846,16.3615625 10.148096,16.3161875 10.147721,16.25 L13.5274085,16.25 C13.5285335,16.38275 13.5285335,16.4290625 13.5277835,16.4538125 C13.5270335,16.4815625 13.5262835,16.506875 13.525721,16.5415625 C13.5236585,16.6505 13.522721,16.842125 13.522721,17.1875 L10.147721,17.1875 C10.147721,17.167625 10.1479085,17.1543125 10.1482835,17.1419375 C10.1546585,16.652 10.1550335,16.5329375 10.149971,16.392125 M10.131596,5.2731875 C7.6387835,6.08975 6.090596,8.4771875 6.407471,11.0466875 C6.5872835,12.5050625 7.277471,13.6968125 8.439596,14.6170625 C8.8140335,14.9135 9.0244085,15.2789375 9.022721,15.752375 C9.0187835,16.8985625 9.037346,16.0548125 9.0236585,17.1126875 C9.023096,17.137625 9.022721,17.1625625 9.0229085,17.2173125 C9.038846,18.756875 10.2919085,20 11.835221,20 C13.388471,20 14.647721,18.7409375 14.647721,17.1875 C14.647721,16.01525 14.660096,16.9518125 14.647721,15.77975 C14.642471,15.2841875 14.860346,14.916875 15.2422835,14.6005625 C16.9309085,13.2018125 17.6059085,11.4185 17.1795335,9.2864375 C16.552346,6.1484375 13.211471,4.264625 10.131596,5.2731875" id="Fill-1"></path>
        </g>
    </g>
</svg>
