<?xml version="1.0" encoding="UTF-8"?>
<svg width="266px" height="138px" viewBox="0 0 266 138" version="1.1" xmlns="http://www.w3.org/2000/svg" xmlns:xlink="http://www.w3.org/1999/xlink">
    <!-- Generator: Sketch 46.2 (44496) - http://www.bohemiancoding.com/sketch -->
    <title>Artboard 2</title>
    <desc>Created with Sketch.</desc>
    <defs>
        <polygon id="path-1" points="0 0 80 0 80 58 0 58"></polygon>
        <polygon id="path-3" points="44.4101755 0 76.8442055 0 80 3.15579775 80 24.7499428 46.972167 57.7777778 0 57.7777778 0 44.4101693"></polygon>
        <polygon id="path-5" points="45.7777778 0.269244628 45.7777778 45.7777778 0.269246515 45.7777778"></polygon>
        <polygon id="path-7" points="52.0452993 52.4444444 0 52.4444444 0 0.399169386"></polygon>
        <path d="M16.1596444,8.90792444 L8.22264444,16.9985422 L1.73468444,10.5414356 C1.22215556,10.0318711 1.21772889,9.20117778 1.72361333,8.68603556 C2.22949778,8.16978222 3.05419556,8.16532 3.56672,8.67488444 L9.43588889,14.5164978 L16.7618222,7.04806667 L10.5838222,0.898711111 C9.90413778,0.221888889 8.79827111,0.228577778 8.12744444,0.913204444 L0.8004,8.38163556 C0.128466667,9.06625778 0.135106667,10.1801689 0.815897778,10.8569867 L8.22928889,18.2362178 L16.7773333,9.52230667 L16.1596444,8.90792444 Z" id="path-9"></path>
        <path d="M8.87747111,0.1312 C8.40922222,0.1312 7.93986667,0.311835556 7.58674222,0.671986667 L0.775546667,7.61412444 C0.0737244444,8.33108444 0.0803644444,9.49405778 0.79104,10.2020978 L7.54578667,16.9056222 L8.18450667,16.2544489 L1.75189333,9.87204889 C1.21722667,9.33906667 1.21169333,8.47157778 1.74082222,7.93302222 C2.00760444,7.66095556 2.35851556,7.52492444 2.70942667,7.52492444 C3.0548,7.52492444 3.40128,7.65649778 3.66695556,7.92075556 L11.7290311,15.9455867 L11.75228,15.9210533 L6.33918667,10.5332578 C5.6584,9.85644 5.65175556,8.74252889 6.32368889,8.05790667 L11.8895422,2.38354667 L10.15492,0.656377778 C9.80179556,0.306257778 9.34018667,0.1312 8.87747111,0.1312 Z" id="path-11"></path>
        <polygon id="path-13" points="0 0 80 0 80 58 0 58"></polygon>
        <polygon id="path-15" points="44.4101755 0 76.8442055 0 80 3.15579775 80 24.7499428 46.972167 57.7777778 0 57.7777778 0 44.4101693"></polygon>
        <polygon id="path-17" points="45.7777778 0.269244628 45.7777778 45.7777778 0.269246515 45.7777778"></polygon>
        <polygon id="path-19" points="52.0452993 52.4444444 0 52.4444444 0 0.399169386"></polygon>
        <path d="M16.1596444,8.90792444 L8.22264444,16.9985422 L1.73468444,10.5414356 C1.22215556,10.0318711 1.21772889,9.20117778 1.72361333,8.68603556 C2.22949778,8.16978222 3.05419556,8.16532 3.56672,8.67488444 L9.43588889,14.5164978 L16.7618222,7.04806667 L10.5838222,0.898711111 C9.90413778,0.221888889 8.79827111,0.228577778 8.12744444,0.913204444 L0.8004,8.38163556 C0.128466667,9.06625778 0.135106667,10.1801689 0.815897778,10.8569867 L8.22928889,18.2362178 L16.7773333,9.52230667 L16.1596444,8.90792444 Z" id="path-21"></path>
        <path d="M8.87747111,0.1312 C8.40922222,0.1312 7.93986667,0.311835556 7.58674222,0.671986667 L0.775546667,7.61412444 C0.0737244444,8.33108444 0.0803644444,9.49405778 0.79104,10.2020978 L7.54578667,16.9056222 L8.18450667,16.2544489 L1.75189333,9.87204889 C1.21722667,9.33906667 1.21169333,8.47157778 1.74082222,7.93302222 C2.00760444,7.66095556 2.35851556,7.52492444 2.70942667,7.52492444 C3.0548,7.52492444 3.40128,7.65649778 3.66695556,7.92075556 L11.7290311,15.9455867 L11.75228,15.9210533 L6.33918667,10.5332578 C5.6584,9.85644 5.65175556,8.74252889 6.32368889,8.05790667 L11.8895422,2.38354667 L10.15492,0.656377778 C9.80179556,0.306257778 9.34018667,0.1312 8.87747111,0.1312 Z" id="path-23"></path>
    </defs>
    <g id="url" stroke="none" stroke-width="1" fill="none" fill-rule="evenodd">
        <g id="Artboard-2">
            <g id="cover-page-error" transform="translate(90.000000, -6.000000)">
                <g id="defaultcoverpage_Dossier">
                    <g id="Group-13">
                        <g id="Group-3">
                            <g id="Fill-1-Clipped">
                                <mask id="mask-2" fill="white">
                                    <use xlink:href="#path-1"></use>
                                </mask>
                                <g id="path-1"></g>
                                <polygon id="Fill-1" fill="#1C91DC" fill-rule="nonzero" mask="url(#mask-2)" points="0 51 80 51 80 6 0 6"></polygon>
                            </g>
                        </g>
                        <g id="Group-6">
                            <g id="Fill-4-Clipped">
                                <mask id="mask-4" fill="white">
                                    <use xlink:href="#path-3"></use>
                                </mask>
                                <g id="path-3"></g>
                                <polygon id="Fill-4" fill-opacity="0.0491" fill="#FFFFFF" fill-rule="nonzero" mask="url(#mask-4)" points="-19.1700222 60.4374916 60.6272 -19.3596889 93.9397778 13.9528756 14.1425644 93.7500756"></polygon>
                            </g>
                        </g>
                        <g id="Group-9" transform="translate(34.222222, 12.000000)">
                            <g id="Fill-7-Clipped">
                                <mask id="mask-6" fill="white">
                                    <use xlink:href="#path-5"></use>
                                </mask>
                                <g id="path-5"></g>
                                <polygon id="Fill-7" fill-opacity="0.1851" fill="#FFFFFF" fill-rule="nonzero" mask="url(#mask-6)" points="-60.1018444 103.006178 50.2021778 -7.29786667 83.5147556 26.0147333 -26.7892578 136.318756"></polygon>
                            </g>
                        </g>
                        <g id="Group-12" transform="translate(0.000000, 5.333333)">
                            <g id="Fill-10-Clipped">
                                <mask id="mask-8" fill="white">
                                    <use xlink:href="#path-7"></use>
                                </mask>
                                <g id="path-7"></g>
                                <polygon id="Fill-10" fill-opacity="0.0711" fill="#FFFFFF" fill-rule="nonzero" mask="url(#mask-8)" points="-55.7538222 16.9273778 -18.0414444 -20.7849778 57.7225333 54.9790107 20.0101867 92.6913733"></polygon>
                            </g>
                        </g>
                    </g>
                    <g id="Group-16" transform="translate(34.222222, 15.555556)">
                        <g id="Fill-14-Clipped">
                            <mask id="mask-10" fill="white">
                                <use xlink:href="#path-9"></use>
                            </mask>
                            <g id="path-9"></g>
                            <polygon id="Fill-14" fill="#FFFFFF" fill-rule="nonzero" mask="url(#mask-10)" points="-1.92137778 20.45844 18.9995467 20.45844 18.9995467 -1.82683556 -1.92137778 -1.82683556"></polygon>
                        </g>
                    </g>
                    <g id="Group-19" transform="translate(28.888889, 16.000000)">
                        <g id="Fill-17-Clipped">
                            <mask id="mask-12" fill="white">
                                <use xlink:href="#path-11"></use>
                            </mask>
                            <g id="path-11"></g>
                            <polygon id="Fill-17" fill="#FFFFFF" fill-rule="nonzero" mask="url(#mask-12)" points="-1.96864889 19.1278444 14.1117644 19.1278444 14.1117644 -2.09102222 -1.96864889 -2.09102222"></polygon>
                        </g>
                    </g>
                </g>
                <g id="Group" transform="translate(5.000000, 36.000000)" font-size="10" font-family="Helvetica" fill="#FFFFFF" font-weight="normal">
                    <g id="image-not-found">
                        <text>
                            <tspan x="0" y="10">image not found</tspan>
                        </text>
                    </g>
                </g>
                <g id="icon_offline_conflict" transform="translate(44.000000, 16.000000)" fill-rule="nonzero">
                    <g id="Group-6">
                        <g id="Group" transform="translate(0.600000, 0.200000)">
                            <g id="Group-3">
                                <path d="M4.51324128,1.15955054 C5.03889822,0.186516292 5.8946784,0.193035637 6.41681343,1.15955054 L10.3562591,8.45178869 C10.881916,9.42482294 10.4104656,10.213623 9.29914401,10.213623 L1.6309107,10.213623 C0.521425235,10.213623 0.0516606096,9.41830359 0.573795633,8.45178869 L4.51324128,1.15955054 Z" id="Triangle-6" fill="#FFB132"></path>
                                <g id="Group" transform="translate(3.800000, 3.000000)" fill="#FFFFFF">
                                    <path d="M1.52194993,3.64370253 C1.52194993,3.12714581 1.46573544,2.63961645 1.35330478,2.18109981 C1.24087412,1.72258317 1.12333474,1.24375969 1.00068312,0.744614996 C1.00068312,0.547278722 1.0543424,0.383317953 1.16166257,0.252727772 C1.26898275,0.12213759 1.44529182,0.0568434785 1.69059507,0.0568434785 C1.90523542,0.0568434785 2.06621327,0.12068661 2.17353344,0.248374787 C2.28085361,0.376062965 2.3345129,0.547278635 2.3345129,0.762026933 C2.3345129,0.866499079 2.24763596,1.25536179 2.07387949,1.92862672 C1.90012302,2.60189166 1.81324609,3.17357788 1.81324609,3.64370253 L1.52194993,3.64370253 Z" id="!"></path>
                                    <circle id="Oval-83" cx="1.66759801" cy="4.8465975" r="1"></circle>
                                </g>
                            </g>
                        </g>
                    </g>
                </g>
            </g>
            <g id="cove-page-default" transform="translate(0.000000, -6.000000)">
                <g id="Group-13">
                    <g id="Group-3">
                        <g id="Fill-1-Clipped">
                            <mask id="mask-14" fill="white">
                                <use xlink:href="#path-13"></use>
                            </mask>
                            <g id="path-1"></g>
                            <polygon id="Fill-1" fill="#1C91DC" fill-rule="nonzero" mask="url(#mask-14)" points="0 51 80 51 80 6 0 6"></polygon>
                        </g>
                    </g>
                    <g id="Group-6">
                        <g id="Fill-4-Clipped">
                            <mask id="mask-16" fill="white">
                                <use xlink:href="#path-15"></use>
                            </mask>
                            <g id="path-3"></g>
                            <polygon id="Fill-4" fill-opacity="0.0491" fill="#FFFFFF" fill-rule="nonzero" mask="url(#mask-16)" points="-19.1700222 60.4374916 60.6272 -19.3596889 93.9397778 13.9528756 14.1425644 93.7500756"></polygon>
                        </g>
                    </g>
                    <g id="Group-9" transform="translate(34.222222, 12.000000)">
                        <g id="Fill-7-Clipped">
                            <mask id="mask-18" fill="white">
                                <use xlink:href="#path-17"></use>
                            </mask>
                            <g id="path-5"></g>
                            <polygon id="Fill-7" fill-opacity="0.1851" fill="#FFFFFF" fill-rule="nonzero" mask="url(#mask-18)" points="-60.1018444 103.006178 50.2021778 -7.29786667 83.5147556 26.0147333 -26.7892578 136.318756"></polygon>
                        </g>
                    </g>
                    <g id="Group-12" transform="translate(0.000000, 5.333333)">
                        <g id="Fill-10-Clipped">
                            <mask id="mask-20" fill="white">
                                <use xlink:href="#path-19"></use>
                            </mask>
                            <g id="path-7"></g>
                            <polygon id="Fill-10" fill-opacity="0.0711" fill="#FFFFFF" fill-rule="nonzero" mask="url(#mask-20)" points="-55.7538222 16.9273778 -18.0414444 -20.7849778 57.7225333 54.9790107 20.0101867 92.6913733"></polygon>
                        </g>
                    </g>
                </g>
                <g id="Group-16" transform="translate(34.222222, 19.555556)">
                    <g id="Fill-14-Clipped">
                        <mask id="mask-22" fill="white">
                            <use xlink:href="#path-21"></use>
                        </mask>
                        <g id="path-9"></g>
                        <polygon id="Fill-14" fill="#FFFFFF" fill-rule="nonzero" mask="url(#mask-22)" points="-1.92137778 20.45844 18.9995467 20.45844 18.9995467 -1.82683556 -1.92137778 -1.82683556"></polygon>
                    </g>
                </g>
                <g id="Group-19" transform="translate(28.888889, 20.000000)">
                    <g id="Fill-17-Clipped">
                        <mask id="mask-24" fill="white">
                            <use xlink:href="#path-23"></use>
                        </mask>
                        <g id="path-11"></g>
                        <polygon id="Fill-17" fill="#FFFFFF" fill-rule="nonzero" mask="url(#mask-24)" points="-1.96864889 19.1278444 14.1117644 19.1278444 14.1117644 -2.09102222 -1.96864889 -2.09102222"></polygon>
                    </g>
                </g>
            </g>
        </g>
    </g>
</svg>