<?xml version="1.0" encoding="UTF-8"?>
<svg width="336px" height="128px" viewBox="0 0 336 128" version="1.1" xmlns="http://www.w3.org/2000/svg" xmlns:xlink="http://www.w3.org/1999/xlink">
    <!-- Generator: Sketch 51.3 (57544) - http://www.bohemiancoding.com/sketch -->
    <title>Dark Theme</title>
    <desc>Created with Sketch.</desc>
    <defs></defs>
    <g id="Dark-Theme" stroke="none" stroke-width="1" fill="none" fill-rule="evenodd">
        <g id="search-A" transform="translate(30.000000, 60.000000)">
            <g id="search">
                <rect id="Rectangle-2961-Copy-12" fill="#00FFA0" opacity="0" x="0" y="0" width="18" height="18"></rect>
                <path d="M11.7826795,11.0826501 L15,14.2999705 L14.2999705,15 L11.0826501,11.7826795 C10.2293417,12.4809645 9.13857394,12.8999116 7.94995581,12.8999116 C5.2161707,12.8999116 3,10.6837409 3,7.94995581 C3,5.2161707 5.2161707,3 7.94995581,3 C10.6837409,3 12.8999116,5.2161707 12.8999116,7.94995581 C12.8999116,9.13857394 12.4809645,10.2293417 11.7826795,11.0826501 Z M7.94995581,11.9099204 C10.1369839,11.9099204 11.9099204,10.1369839 11.9099204,7.94995581 C11.9099204,5.76292772 10.1369839,3.98999116 7.94995581,3.98999116 C5.76292772,3.98999116 3.98999116,5.76292772 3.98999116,7.94995581 C3.98999116,10.1369839 5.76292772,11.9099204 7.94995581,11.9099204 Z" id="Icon---Search" fill="#F2F3F4"></path>
            </g>
        </g>
        <g id="search" transform="translate(0.000000, 60.000000)">
            <g>
                <rect id="Rectangle-2961-Copy-12" fill="#00FFA0" opacity="0" x="0" y="0" width="18" height="18"></rect>
                <path d="M11.7826795,11.0826501 L15,14.2999705 L14.2999705,15 L11.0826501,11.7826795 C10.2293417,12.4809645 9.13857394,12.8999116 7.94995581,12.8999116 C5.2161707,12.8999116 3,10.6837409 3,7.94995581 C3,5.2161707 5.2161707,3 7.94995581,3 C10.6837409,3 12.8999116,5.2161707 12.8999116,7.94995581 C12.8999116,9.13857394 12.4809645,10.2293417 11.7826795,11.0826501 Z M7.94995581,11.9099204 C10.1369839,11.9099204 11.9099204,10.1369839 11.9099204,7.94995581 C11.9099204,5.76292772 10.1369839,3.98999116 7.94995581,3.98999116 C5.76292772,3.98999116 3.98999116,5.76292772 3.98999116,7.94995581 C3.98999116,10.1369839 5.76292772,11.9099204 7.94995581,11.9099204 Z" id="Icon---Search" fill="#F2F3F4" opacity="0.7"></path>
            </g>
        </g>
        <g id="search-D" transform="translate(60.000000, 60.000000)">
            <g id="search-copy-2">
                <rect id="Rectangle-2961-Copy-12" fill="#00FFA0" opacity="0" x="0" y="0" width="18" height="18"></rect>
                <path d="M11.7826795,11.0826501 L15,14.2999705 L14.2999705,15 L11.0826501,11.7826795 C10.2293417,12.4809645 9.13857394,12.8999116 7.94995581,12.8999116 C5.2161707,12.8999116 3,10.6837409 3,7.94995581 C3,5.2161707 5.2161707,3 7.94995581,3 C10.6837409,3 12.8999116,5.2161707 12.8999116,7.94995581 C12.8999116,9.13857394 12.4809645,10.2293417 11.7826795,11.0826501 Z M7.94995581,11.9099204 C10.1369839,11.9099204 11.9099204,10.1369839 11.9099204,7.94995581 C11.9099204,5.76292772 10.1369839,3.98999116 7.94995581,3.98999116 C5.76292772,3.98999116 3.98999116,5.76292772 3.98999116,7.94995581 C3.98999116,10.1369839 5.76292772,11.9099204 7.94995581,11.9099204 Z" id="Icon---Search" fill="#F2F3F4" opacity="0.35"></path>
            </g>
        </g>
        <g id="cm-expanded" transform="translate(30.000000, 30.000000)">
            <g id="Group-13-Copy">
                <rect id="Rectangle-2961-Copy-10" fill="#00FFA0" opacity="0" x="0" y="0" width="18" height="18"></rect>
                <path d="M7.24264069,12.2426407 L12.2426407,12.2426407 L12.2426407,13.2426407 L6.24264069,13.2426407 L6.24264069,12.2426407 L6.24264069,7.24264069 L7.24264069,7.24264069 L7.24264069,12.2426407 Z" id="Combined-Shape" fill="#F2F3F4" transform="translate(9.242641, 10.242641) rotate(135.000000) translate(-9.242641, -10.242641) "></path>
            </g>
        </g>
        <g id="cm-collapse" transform="translate(0.000000, 30.000000)">
            <g id="Group-13" fill="#00FFA0" opacity="0.7">
                <g id="dropdown-copy">
                    <rect id="Rectangle-2961-Copy-10" opacity="0" x="0" y="0" width="18" height="18"></rect>
                </g>
            </g>
            <g id="Group-80-Copy-14" transform="translate(9.242641, 7.242641) rotate(-45.000000) translate(-9.242641, -7.242641) translate(6.242641, 4.242641)" fill="#F2F3F4">
                <path d="M1,5 L6,5 L6,6 L1.2390089e-13,6 L1.2390089e-13,5 L1.52322599e-13,-1.03028697e-13 L1,-1.03028697e-13 L1,5 Z" id="Combined-Shape"></path>
            </g>
        </g>
        <g id="cm-disable" transform="translate(60.000000, 30.000000)">
            <g id="Group-25">
                <g id="Group-13-Copy-2" fill="#00FFA0" opacity="0.7">
                    <g id="dropdown-copy">
                        <rect id="Rectangle-2961-Copy-10" opacity="0" x="0" y="0" width="18" height="18"></rect>
                    </g>
                </g>
                <g id="Group-80-Copy-16" opacity="0.35" transform="translate(9.242641, 7.242641) rotate(-45.000000) translate(-9.242641, -7.242641) translate(6.242641, 4.242641)" fill="#F2F3F4">
                    <path d="M1,5 L6,5 L6,6 L3.41060513e-13,6 L3.41060513e-13,5 L3.69482223e-13,1.13686838e-13 L1,1.13686838e-13 L1,5 Z" id="Combined-Shape"></path>
                </g>
            </g>
        </g>
        <g id="Calendar_darktheme" transform="translate(0.000000, 90.000000)" fill="#F2F3F4" opacity="0.695011">
            <g id="Group-3" transform="translate(1.000000, 1.000000)">
                <path d="M10,2 L5,2 L5,2.5 C5,2.77614237 4.77614237,3 4.5,3 C4.22385763,3 4,2.77614237 4,2.5 L4,2 L2,2 C1.44771525,2 1,2.44771525 1,3 L1,4 L14,4 L14,3 C14,2.44771525 13.5522847,2 13,2 L11,2 L11,2.5 C11,2.77614237 10.7761424,3 10.5,3 C10.2238576,3 10,2.77614237 10,2.5 L10,2 Z M11,1 L13,1 C14.1045695,1 15,1.8954305 15,3 L15,14 C15,15.1045695 14.1045695,16 13,16 L2,16 C0.8954305,16 0,15.1045695 0,14 L0,3 C0,1.8954305 0.8954305,1 2,1 L4,1 L4,0.5 C4,0.223857625 4.22385763,5.07265313e-17 4.5,0 C4.77614237,-5.07265313e-17 5,0.223857625 5,0.5 L5,1 L10,1 L10,0.5 C10,0.223857625 10.2238576,5.07265313e-17 10.5,0 C10.7761424,-5.07265313e-17 11,0.223857625 11,0.5 L11,1 Z M14,5 L1,5 L1,14 C1,14.5522847 1.44771525,15 2,15 L13,15 C13.5522847,15 14,14.5522847 14,14 L14,5 Z" id="Combined-Shape" fill-rule="nonzero"></path>
                <rect id="Rectangle-4-Copy-3" x="2" y="9" width="2" height="2"></rect>
                <rect id="Rectangle-4-Copy-6" x="2" y="12" width="2" height="2"></rect>
                <rect id="Rectangle-4-Copy-4" x="5" y="9" width="2" height="2"></rect>
                <rect id="Rectangle-4-Copy-7" x="5" y="12" width="2" height="2"></rect>
                <rect id="Rectangle-4-Copy-2" x="8" y="6" width="2" height="2"></rect>
                <rect id="Rectangle-4-Copy-11" x="5" y="6" width="2" height="2"></rect>
                <rect id="Rectangle-4-Copy-15" x="2" y="6" width="2" height="2"></rect>
                <rect id="Rectangle-4-Copy-9" x="11" y="6" width="2" height="2"></rect>
                <rect id="Rectangle-4-Copy-5" x="8" y="9" width="2" height="2"></rect>
                <rect id="Rectangle-4-Copy-10" x="11" y="9" width="2" height="2"></rect>
                <rect id="Rectangle-4-Copy-8" x="8" y="12" width="2" height="2"></rect>
                <rect id="Rectangle-4-Copy-12" x="11" y="12" width="2" height="2"></rect>
            </g>
        </g>
        <g id="Calendar_darktheme_hover" transform="translate(30.000000, 90.000000)" fill="#F2F3F4">
            <g id="Group-3" transform="translate(1.000000, 1.000000)">
                <path d="M10,2 L5,2 L5,2.5 C5,2.77614237 4.77614237,3 4.5,3 C4.22385763,3 4,2.77614237 4,2.5 L4,2 L2,2 C1.44771525,2 1,2.44771525 1,3 L1,4 L14,4 L14,3 C14,2.44771525 13.5522847,2 13,2 L11,2 L11,2.5 C11,2.77614237 10.7761424,3 10.5,3 C10.2238576,3 10,2.77614237 10,2.5 L10,2 Z M11,1 L13,1 C14.1045695,1 15,1.8954305 15,3 L15,14 C15,15.1045695 14.1045695,16 13,16 L2,16 C0.8954305,16 0,15.1045695 0,14 L0,3 C0,1.8954305 0.8954305,1 2,1 L4,1 L4,0.5 C4,0.223857625 4.22385763,5.07265313e-17 4.5,0 C4.77614237,-5.07265313e-17 5,0.223857625 5,0.5 L5,1 L10,1 L10,0.5 C10,0.223857625 10.2238576,5.07265313e-17 10.5,0 C10.7761424,-5.07265313e-17 11,0.223857625 11,0.5 L11,1 Z M14,5 L1,5 L1,14 C1,14.5522847 1.44771525,15 2,15 L13,15 C13.5522847,15 14,14.5522847 14,14 L14,5 Z" id="Combined-Shape" fill-rule="nonzero"></path>
                <rect id="Rectangle-4-Copy-3" x="2" y="9" width="2" height="2"></rect>
                <rect id="Rectangle-4-Copy-6" x="2" y="12" width="2" height="2"></rect>
                <rect id="Rectangle-4-Copy-4" x="5" y="9" width="2" height="2"></rect>
                <rect id="Rectangle-4-Copy-7" x="5" y="12" width="2" height="2"></rect>
                <rect id="Rectangle-4-Copy-2" x="8" y="6" width="2" height="2"></rect>
                <rect id="Rectangle-4-Copy-11" x="5" y="6" width="2" height="2"></rect>
                <rect id="Rectangle-4-Copy-15" x="2" y="6" width="2" height="2"></rect>
                <rect id="Rectangle-4-Copy-9" x="11" y="6" width="2" height="2"></rect>
                <rect id="Rectangle-4-Copy-5" x="8" y="9" width="2" height="2"></rect>
                <rect id="Rectangle-4-Copy-10" x="11" y="9" width="2" height="2"></rect>
                <rect id="Rectangle-4-Copy-8" x="8" y="12" width="2" height="2"></rect>
                <rect id="Rectangle-4-Copy-12" x="11" y="12" width="2" height="2"></rect>
            </g>
        </g>
        <g id="Calendar_darktheme_disabled" transform="translate(60.000000, 90.000000)" fill="#F2F3F4" opacity="0.351105">
            <g id="Group-3" transform="translate(1.000000, 1.000000)">
                <path d="M10,2 L5,2 L5,2.5 C5,2.77614237 4.77614237,3 4.5,3 C4.22385763,3 4,2.77614237 4,2.5 L4,2 L2,2 C1.44771525,2 1,2.44771525 1,3 L1,4 L14,4 L14,3 C14,2.44771525 13.5522847,2 13,2 L11,2 L11,2.5 C11,2.77614237 10.7761424,3 10.5,3 C10.2238576,3 10,2.77614237 10,2.5 L10,2 Z M11,1 L13,1 C14.1045695,1 15,1.8954305 15,3 L15,14 C15,15.1045695 14.1045695,16 13,16 L2,16 C0.8954305,16 0,15.1045695 0,14 L0,3 C0,1.8954305 0.8954305,1 2,1 L4,1 L4,0.5 C4,0.223857625 4.22385763,5.07265313e-17 4.5,0 C4.77614237,-5.07265313e-17 5,0.223857625 5,0.5 L5,1 L10,1 L10,0.5 C10,0.223857625 10.2238576,5.07265313e-17 10.5,0 C10.7761424,-5.07265313e-17 11,0.223857625 11,0.5 L11,1 Z M14,5 L1,5 L1,14 C1,14.5522847 1.44771525,15 2,15 L13,15 C13.5522847,15 14,14.5522847 14,14 L14,5 Z" id="Combined-Shape" fill-rule="nonzero"></path>
                <rect id="Rectangle-4-Copy-3" x="2" y="9" width="2" height="2"></rect>
                <rect id="Rectangle-4-Copy-6" x="2" y="12" width="2" height="2"></rect>
                <rect id="Rectangle-4-Copy-4" x="5" y="9" width="2" height="2"></rect>
                <rect id="Rectangle-4-Copy-7" x="5" y="12" width="2" height="2"></rect>
                <rect id="Rectangle-4-Copy-2" x="8" y="6" width="2" height="2"></rect>
                <rect id="Rectangle-4-Copy-11" x="5" y="6" width="2" height="2"></rect>
                <rect id="Rectangle-4-Copy-15" x="2" y="6" width="2" height="2"></rect>
                <rect id="Rectangle-4-Copy-9" x="11" y="6" width="2" height="2"></rect>
                <rect id="Rectangle-4-Copy-5" x="8" y="9" width="2" height="2"></rect>
                <rect id="Rectangle-4-Copy-10" x="11" y="9" width="2" height="2"></rect>
                <rect id="Rectangle-4-Copy-8" x="8" y="12" width="2" height="2"></rect>
                <rect id="Rectangle-4-Copy-12" x="11" y="12" width="2" height="2"></rect>
            </g>
        </g>
        <text id="left-top-of-each-ico" font-family="HelveticaNeue, Helvetica Neue" font-size="9" font-weight="normal" fill="#444649">
            <tspan x="0" y="11">left top of each icon(0+30(x-1), 0+30y), each icon 18*18px; x= #column, y=#row</tspan>
        </text>
    </g>
</svg>