<?xml version="1.0" encoding="utf-8"?>
<!-- Generator: Adobe Illustrator 19.2.1, SVG Export Plug-In . SVG Version: 6.00 Build 0)  -->
<svg version="1.0" id="Layer_1" xmlns="http://www.w3.org/2000/svg" xmlns:xlink="http://www.w3.org/1999/xlink" x="0px" y="0px"
	 viewBox="0 0 25 50" style="enable-background:new 0 0 25 50;" xml:space="preserve">
<style type="text/css">
	.st0{fill:#FFFFFF;}
	.st1{fill-rule:evenodd;clip-rule:evenodd;fill:#FFFFFF;}
</style>
<polygon class="st0" points="12,30.8 11.3,30.1 6,35.4 0.7,30.1 0,30.8 5.3,36.1 0,41.4 0.7,42.1 6,36.8 11.3,42.1 12,41.4 
	6.7,36.1 "/>
<path class="st1" d="M24.9,9.8c-0.1-0.1-0.3-0.1-0.4,0l-9.4,9.5c-0.9-0.9-5-4.9-7.9-7.9C6.8,10.8,6.5,10,7.4,9.1
	c0.4-0.3,0.8-0.6,1.3-0.6c0.5,0,1,0.3,1.4,0.7c1.1,1,5.5,5.5,5.6,5.6l0.2,0.2L24,6.7c0,0-5.5-5.6-6.1-6.2C17.5,0.2,17.1,0,16.6,0
	c-0.5,0-1,0.2-1.3,0.5c-0.2,0.2-1.1,1.1-2.2,2.3c0,0-1.1-1.2-2.2-2.2C10.5,0.2,10,0,9.5,0C9,0.1,8.4,0.3,8,0.8
	C7.5,1.4,1.7,7.3,0.8,8.3C0.3,8.7,0,9.4,0,10c0,0.6,0.3,1.2,0.8,1.7c0.9,0.9,7.3,7.2,7.4,7.3c0,0,0.1,0.1,0.2,0.1
	c0.1,0,0.1,0,0.2-0.1c0.1-0.1,0.1-0.2,0-0.3c-0.1-0.1-6.4-6.4-7.4-7.3c-0.4-0.4-0.6-0.9-0.7-1.4c0-0.5,0.2-1,0.6-1.4c0,0,0,0,0,0
	C1.8,8,2.8,7.7,3.7,8.7C4.1,9,15.2,20,15.2,20l9.7-9.9C25,10,25,9.9,24.9,9.8z"/>
</svg>
