<?xml version="1.0" encoding="UTF-8"?>
<svg width="23px" height="234px" viewBox="0 0 23 234" version="1.1" xmlns="http://www.w3.org/2000/svg" xmlns:xlink="http://www.w3.org/1999/xlink">
    <!-- Generator: Sketch 45.2 (43514) - http://www.bohemiancoding.com/sketch -->
    <title>Artboard</title>
    <desc>Created with Sketch.</desc>
    <defs></defs>
    <g id="Page-1" stroke="none" stroke-width="1" fill="none" fill-rule="evenodd">
        <g id="Artboard" fill-rule="nonzero">
            <g id="Group">
                <rect id="Rectangle-2961-Copy-10" fill="#00FFA0" opacity="0" x="0" y="0" width="18" height="18"></rect>
                <path d="M6.242641,4.242641 L7.242641,4.242641 L7.242641,9.242641 L6.242641,9.242641 L6.242641,4.242641 Z M12.242641,9.242641 L12.242641,10.242641 L6.242641,10.242641 L6.242641,9.242641 L12.242641,9.242641 Z" id="Combined-Shape" fill="#454545" transform="translate(9.242641, 7.242641) rotate(-45.000000) translate(-9.242641, -7.242641) "></path>
            </g>
            <g id="Group-2" transform="translate(0.000000, 30.000000)">
                <rect id="Rectangle-2961-Copy-10" fill="#00FFA0" opacity="0" x="0" y="0" width="18" height="18"></rect>
                <path d="M6.242641,7.242641 L7.242641,7.242641 L7.242641,12.242641 L6.242641,12.242641 L6.242641,7.242641 Z M12.242641,12.242641 L12.242641,13.242641 L6.242641,13.242641 L6.242641,12.242641 L12.242641,12.242641 Z" id="Combined-Shape" fill="#454545" transform="translate(9.242641, 10.242641) scale(1, -1) rotate(-45.000000) translate(-9.242641, -10.242641) "></path>
            </g>
            <g id="Group-3" opacity="0.45" transform="translate(0.000000, 60.000000)">
                <rect id="Rectangle-2961-Copy-10" fill="#00FFA0" opacity="0" x="0" y="0" width="18" height="18"></rect>
                <path d="M6.242641,4.242641 L7.242641,4.242641 L7.242641,9.242641 L6.242641,9.242641 L6.242641,4.242641 Z M12.242641,9.242641 L12.242641,10.242641 L6.242641,10.242641 L6.242641,9.242641 L12.242641,9.242641 Z" id="Combined-Shape" fill="#454545" transform="translate(9.242641, 7.242641) rotate(-45.000000) translate(-9.242641, -7.242641) "></path>
            </g>
            <g id="Group-3" transform="translate(0.000000, 90.000000)">
                <rect id="Rectangle-2961-Copy-10" fill="#00FFA0" opacity="0" x="0" y="0" width="18" height="18"></rect>
                <path d="M6.242641,4.242641 L7.242641,4.242641 L7.242641,9.242641 L6.242641,9.242641 L6.242641,4.242641 Z M12.242641,9.242641 L12.242641,10.242641 L6.242641,10.242641 L6.242641,9.242641 L12.242641,9.242641 Z" id="Combined-Shape" fill="#FFFFFF" transform="translate(9.242641, 7.242641) rotate(-45.000000) translate(-9.242641, -7.242641) "></path>
            </g>
            <g id="Group-3" transform="translate(0.000000, 150.000000)">
                <rect id="Rectangle-2961-Copy-10" fill="#00FFA0" opacity="0" x="0" y="0" width="18" height="18"></rect>
                <path d="M6.242641,4.242641 L7.242641,4.242641 L7.242641,9.242641 L6.242641,9.242641 L6.242641,4.242641 Z M12.242641,9.242641 L12.242641,10.242641 L6.242641,10.242641 L6.242641,9.242641 L12.242641,9.242641 Z" id="Combined-Shape" fill="#FFFFFF" opacity="0.45" transform="translate(9.242641, 7.242641) rotate(-45.000000) translate(-9.242641, -7.242641) "></path>
            </g>
            <g id="Group-3" transform="translate(0.000000, 120.000000)">
                <rect id="Rectangle-2961-Copy-10" fill="#00FFA0" opacity="0" x="0" y="0" width="18" height="18"></rect>
                <path d="M6.242641,7.242641 L7.242641,7.242641 L7.242641,12.242641 L6.242641,12.242641 L6.242641,7.242641 Z M12.242641,12.242641 L12.242641,13.242641 L6.242641,13.242641 L6.242641,12.242641 L12.242641,12.242641 Z" id="Combined-Shape" fill="#FFFFFF" transform="translate(9.242641, 10.242641) scale(1, -1) rotate(-45.000000) translate(-9.242641, -10.242641) "></path>
            </g>
        </g>
    </g>
</svg>