<?xml version="1.0" encoding="UTF-8" standalone="no"?>
<svg width="18px" height="78px" viewBox="0 0 18 78" version="1.1" xmlns="http://www.w3.org/2000/svg" xmlns:xlink="http://www.w3.org/1999/xlink">
    <!-- Generator: Sketch 3.8.3 (29802) - http://www.bohemiancoding.com/sketch -->
    <title>Artboard 17 Copy 2</title>
    <desc>Created with Sketch.</desc>
    <defs></defs>
    <g id="toolbar" stroke="none" stroke-width="1" fill="none" fill-rule="evenodd">
        <g id="Artboard-17-Copy-2">
            <g id="dropdown" transform="translate(0.000000, 30.000000)">
                <rect id="Rectangle-2961-Copy-10" fill="#00FFA0" opacity="0" x="0" y="0" width="18" height="18"></rect>
                <g id="cm-dropdown" transform="translate(5.000000, 7.000000)" fill-opacity="0.9" fill="#333333">
                    <polygon id="Path-2507" points="0 0.710694891 3.67447016 4.65162534 3.99928998 5 4.32371782 4.6512032 8 0.69878205 7.35035922 0 3.67407705 3.95242115 4.3233247 3.95199901 0.64885454 0.0110685668"></polygon>
                </g>
            </g>
            <g id="dropdown-copy" opacity="0.7">
                <rect id="Rectangle-2961-Copy-10" fill="#00FFA0" opacity="0" x="0" y="0" width="18" height="18"></rect>
                <g id="cm-dropdown" transform="translate(5.000000, 7.000000)" fill-opacity="0.9" fill="#333333">
                    <polygon id="Path-2507" points="0 0.710694891 3.67447016 4.65162534 3.99928998 5 4.32371782 4.6512032 8 0.69878205 7.35035922 0 3.67407705 3.95242115 4.3233247 3.95199901 0.64885454 0.0110685668"></polygon>
                </g>
            </g>
            <g id="dropdown-copy-2" opacity="0.4" transform="translate(0.000000, 60.000000)">
                <rect id="Rectangle-2961-Copy-10" fill="#00FFA0" opacity="0" x="0" y="0" width="18" height="18"></rect>
                <g id="cm-dropdown" transform="translate(5.000000, 7.000000)" fill-opacity="0.9" fill="#333333">
                    <polygon id="Path-2507" points="0 0.710694891 3.67447016 4.65162534 3.99928998 5 4.32371782 4.6512032 8 0.69878205 7.35035922 0 3.67407705 3.95242115 4.3233247 3.95199901 0.64885454 0.0110685668"></polygon>
                </g>
            </g>
        </g>
    </g>
</svg>