<?xml version="1.0" encoding="UTF-8"?>
<svg width="360px" height="200px" viewBox="0 0 360 200" version="1.1" xmlns="http://www.w3.org/2000/svg" xmlns:xlink="http://www.w3.org/1999/xlink">
    <!-- Generator: Sketch 45.2 (43514) - http://www.bohemiancoding.com/sketch -->
    <title>Artboard</title>
    <desc>Created with Sketch.</desc>
    <defs></defs>
    <g id="Dossier-Editor-Designer-Use" stroke="none" stroke-width="1" fill="none" fill-rule="evenodd">
        <g id="Artboard">
            <g id="Group-2" transform="translate(30.000000, 30.000000)">
                <rect id="Rectangle-15-Copy" fill="#C2FF6F" opacity="0" x="0" y="0" width="16" height="16"></rect>
                <path d="M8,2.875 L8,1 L5.5,3.5 L8,6 L8,4.125 C10.06875,4.125 11.75,5.80625 11.75,7.875 C11.75,8.50625 11.59375,9.10625 11.3125,9.625 L12.225,10.5375 C12.7125,9.76875 13,8.85625 13,7.875 C13,5.1125 10.7625,2.875 8,2.875 Z M8,11.625 C5.93125,11.625 4.25,9.94375 4.25,7.875 C4.25,7.24375 4.40625,6.64375 4.6875,6.125 L3.775,5.2125 C3.2875,5.98125 3,6.89375 3,7.875 C3,10.6375 5.2375,12.875 8,12.875 L8,14.75 L10.5,12.25 L8,9.75 L8,11.625 Z" id="Shape" fill="#000000" fill-rule="nonzero" opacity="0.3"></path>
            </g>
            <g id="Group" transform="translate(0.000000, 30.000000)">
                <rect id="Rectangle-15" fill="#C2FF6F" opacity="0" x="0" y="0" width="16" height="16"></rect>
                <g id="select-element-itself-" opacity="0.75" transform="translate(1.000000, 2.000000)" fill="#231F20">
                    <path d="M2,5 C2.552,5 3,5.448 3,6 C3,6.552 2.552,7 2,7 C1.448,7 1,6.552 1,6 C1,5.448 1.448,5 2,5 Z" id="Fill-1"></path>
                    <path d="M3,10 C3,10.552 2.552,11 2,11 C1.448,11 1,10.552 1,10 C1,9.448 1.448,9 2,9 C2.552,9 3,9.448 3,10 Z" id="Fill-3"></path>
                    <polygon id="Fill-5" points="5 3 13 3 13 2 5 2"></polygon>
                    <polygon id="Fill-7" points="5 7 13 7 13 6 5 6"></polygon>
                    <polygon id="Fill-8" points="5 11 13 11 13 10 5 10"></polygon>
                    <polygon id="Fill-9" points="2.0781 4.0317 0.0001 1.9337 0.7111 1.2297 1.9061 2.4367 3.4531 -0.0003 4.2971 0.5357"></polygon>
                </g>
            </g>
            <text id="normal:-from-(0,30)" font-family="Helvetica" font-size="9" font-weight="normal" fill="#444649">
                <tspan x="-0.0522460938" y="14">normal: from (0,30) space between each icon is 30</tspan>
            </text>
            <text id="pressed/focus:-from" font-family="Helvetica" font-size="9" font-weight="normal" fill="#444649">
                <tspan x="0" y="82">pressed/focus: from (0,90) space between each icon is 30</tspan>
            </text>
            <g id="deselect-itself" opacity="0.746263587" transform="translate(0.000000, 90.000000)">
                <rect id="Rectangle-15" fill="#C2FF6F" opacity="0" x="0" y="0" width="16" height="16"></rect>
                <path d="M3,7 C3.552,7 4,7.448 4,8 C4,8.552 3.552,9 3,9 C2.448,9 2,8.552 2,8 C2,7.448 2.448,7 3,7 Z" id="Fill-1" fill="#231F20"></path>
                <path d="M4,12 C4,12.552 3.552,13 3,13 C2.448,13 2,12.552 2,12 C2,11.448 2.448,11 3,11 C3.552,11 4,11.448 4,12 Z" id="Fill-3" fill="#231F20"></path>
                <circle id="Oval" stroke="#231F20" cx="3" cy="3.5" r="1.5"></circle>
                <polygon id="Fill-5" fill="#231F20" points="6 5 14 5 14 4 6 4"></polygon>
                <polygon id="Fill-7" fill="#231F20" points="6 9 14 9 14 8 6 8"></polygon>
                <polygon id="Fill-8" fill="#231F20" points="6 13 14 13 14 12 6 12"></polygon>
            </g>
            <g id="Group-4" transform="translate(61.000000, 91.000000)">
                <path d="M4.375,0.875 C3.40850169,0.875 2.625,1.65850169 2.625,2.625 L2.625,9.625 C2.625,10.5914983 3.40850169,11.375 4.375,11.375 L11.375,11.375 C12.3414983,11.375 13.125,10.5914983 13.125,9.625 L13.125,2.625 C13.125,1.65850169 12.3414983,0.875 11.375,0.875 L4.375,0.875 Z M4.375,0 L11.375,0 C12.8247475,0 14,1.17525253 14,2.625 L14,9.625 C14,11.0747475 12.8247475,12.25 11.375,12.25 L4.375,12.25 C2.92525253,12.25 1.75,11.0747475 1.75,9.625 L1.75,2.625 C1.75,1.17525253 2.92525253,0 4.375,0 Z" id="Rectangle-5-Copy-2" fill="#3B92ED" fill-rule="nonzero"></path>
                <path d="M1.875,2.625 L10.375,2.625 C10.9272847,2.625 11.375,3.07271525 11.375,3.625 L11.375,12.125 C11.375,12.6772847 10.9272847,13.125 10.375,13.125 L1.875,13.125 C1.32271525,13.125 0.875,12.6772847 0.875,12.125 L0.875,3.625 L0.875,3.625 C0.875,3.07271525 1.32271525,2.625 1.875,2.625 L1.875,2.625 Z M5.1059697,9.55707237 L3.24863636,7.69792701 L2.625,8.3221718 L5.1059697,10.805562 L9.15833333,6.74924479 L8.53469697,6.125 L5.1059697,9.55707237 Z" id="Combined-Shape" fill="#3B92ED"></path>
                <path d="M2.625,1.75 L9.625,1.75 C11.0747475,1.75 12.25,2.92525253 12.25,4.375 L12.25,11.375 C12.25,12.8247475 11.0747475,14 9.625,14 L2.625,14 C1.17525253,14 0,12.8247475 0,11.375 L0,4.375 C0,2.92525253 1.17525253,1.75 2.625,1.75 Z" id="Rectangle-5-Copy" fill="#3B92ED" fill-rule="nonzero"></path>
                <polygon id="Shape" fill="#FFFFFF" points="5.1059697 9.55707237 3.24863636 7.69792701 2.625 8.3221718 5.1059697 10.805562 9.15833333 6.74924479 8.53469697 6.125"></polygon>
            </g>
            <rect id="Rectangle-15" fill="#C2FF6F" opacity="0" x="60" y="90" width="16" height="16"></rect>
            <g id="Group-5" transform="translate(60.000000, 30.000000)">
                <g id="Group-4-Copy" transform="translate(1.000000, 1.000000)">
                    <path d="M4.375,0.875 C3.40850169,0.875 2.625,1.65850169 2.625,2.625 L2.625,9.625 C2.625,10.5914983 3.40850169,11.375 4.375,11.375 L11.375,11.375 C12.3414983,11.375 13.125,10.5914983 13.125,9.625 L13.125,2.625 C13.125,1.65850169 12.3414983,0.875 11.375,0.875 L4.375,0.875 Z M4.375,0 L11.375,0 C12.8247475,0 14,1.17525253 14,2.625 L14,9.625 C14,11.0747475 12.8247475,12.25 11.375,12.25 L4.375,12.25 C2.92525253,12.25 1.75,11.0747475 1.75,9.625 L1.75,2.625 C1.75,1.17525253 2.92525253,0 4.375,0 Z" id="Rectangle-5-Copy-2" fill="#7B7E81" fill-rule="nonzero"></path>
                    <path d="M1.875,2.625 L10.375,2.625 C10.9272847,2.625 11.375,3.07271525 11.375,3.625 L11.375,12.125 C11.375,12.6772847 10.9272847,13.125 10.375,13.125 L1.875,13.125 C1.32271525,13.125 0.875,12.6772847 0.875,12.125 L0.875,3.625 L0.875,3.625 C0.875,3.07271525 1.32271525,2.625 1.875,2.625 L1.875,2.625 Z M5.1059697,9.55707237 L3.24863636,7.69792701 L2.625,8.3221718 L5.1059697,10.805562 L9.15833333,6.74924479 L8.53469697,6.125 L5.1059697,9.55707237 Z" id="Combined-Shape" fill="#FFFFFF"></path>
                    <path d="M2.625,2.625 C1.65850169,2.625 0.875,3.40850169 0.875,4.375 L0.875,11.375 C0.875,12.3414983 1.65850169,13.125 2.625,13.125 L9.625,13.125 C10.5914983,13.125 11.375,12.3414983 11.375,11.375 L11.375,4.375 C11.375,3.40850169 10.5914983,2.625 9.625,2.625 L2.625,2.625 Z M2.625,1.75 L9.625,1.75 C11.0747475,1.75 12.25,2.92525253 12.25,4.375 L12.25,11.375 C12.25,12.8247475 11.0747475,14 9.625,14 L2.625,14 C1.17525253,14 0,12.8247475 0,11.375 L0,4.375 C0,2.92525253 1.17525253,1.75 2.625,1.75 Z" id="Rectangle-5-Copy" fill="#7B7E81" fill-rule="nonzero"></path>
                    <polygon id="Shape" fill="#7B7E81" points="5.1059697 9.55707237 3.24863636 7.69792701 2.625 8.3221718 5.1059697 10.805562 9.15833333 6.74924479 8.53469697 6.125"></polygon>
                </g>
            </g>
        </g>
    </g>
</svg>