<?xml version="1.0" encoding="UTF-8" standalone="no"?>
<svg width="396px" height="176px" viewBox="0 0 396 176" version="1.1" xmlns="http://www.w3.org/2000/svg" xmlns:xlink="http://www.w3.org/1999/xlink">
    <!-- Generator: Sketch 39.1 (31720) - http://www.bohemiancoding.com/sketch -->
    <title>Derived Attribute/Metric</title>
    <desc>Created with Sketch.</desc>
    <defs></defs>
    <g id="Page-1" stroke="none" stroke-width="1" fill="none" fill-rule="evenodd">
        <g id="Derived-Attribute/Metric">
            <text id="left-top-of-each-ico" font-family=".AppleSystemUIFont" font-size="9" font-weight="normal" fill="#444649">
                <tspan x="0" y="11">left top of each icon(0+30n, 0+30n), each icon 18*18px</tspan>
            </text>
            <g id="Group" opacity="0.7" transform="translate(0.000000, 30.000000)">
                <rect id="Rectangle-168" fill="#D8D8D8" opacity="0" x="0" y="0" width="18" height="18"></rect>
                <polygon id="Triangle-8" fill="#444649" transform="translate(9.000000, 9.000000) scale(-1, -1) rotate(90.000000) translate(-9.000000, -9.000000) " points="9 5 13 13 5 13"></polygon>
            </g>
            <g id="Group-Copy-2" transform="translate(0.000000, 90.000000)">
                <rect id="Rectangle-168" fill="#D8D8D8" opacity="0" x="0" y="0" width="18" height="18"></rect>
                <polygon id="Triangle-8" fill="#444649" transform="translate(9.000000, 9.000000) scale(-1, -1) rotate(90.000000) translate(-9.000000, -9.000000) " points="9 5 13 13 5 13"></polygon>
            </g>
            <g id="Group-Copy" transform="translate(0.000000, 60.000000)">
                <rect id="Rectangle-168" fill="#D8D8D8" opacity="0" x="0" y="0" width="18" height="18"></rect>
                <polygon id="Triangle-8" fill-opacity="0.35" fill="#444649" transform="translate(9.000000, 9.000000) scale(-1, -1) rotate(90.000000) translate(-9.000000, -9.000000) " points="9 5 13 13 5 13"></polygon>
            </g>
            <g id="Group-2" opacity="0.7" transform="translate(30.000000, 30.000000)">
                <rect id="Rectangle-168-Copy" fill="#D8D8D8" opacity="0" x="0" y="0" width="18" height="18"></rect>
                <polygon id="Triangle-8" fill="#444649" transform="translate(10.000000, 9.000000) scale(1, -1) rotate(90.000000) translate(-10.000000, -9.000000) " points="10 5 14 13 6 13"></polygon>
            </g>
            <g id="Group-2-Copy-2" transform="translate(30.000000, 90.000000)">
                <rect id="Rectangle-168-Copy" fill="#D8D8D8" opacity="0" x="0" y="0" width="18" height="18"></rect>
                <polygon id="Triangle-8" fill="#444649" transform="translate(10.000000, 9.000000) scale(1, -1) rotate(90.000000) translate(-10.000000, -9.000000) " points="10 5 14 13 6 13"></polygon>
            </g>
            <g id="Group-2-Copy" transform="translate(30.000000, 60.000000)">
                <rect id="Rectangle-168-Copy" fill="#D8D8D8" opacity="0" x="0" y="0" width="18" height="18"></rect>
                <polygon id="Triangle-8" fill-opacity="0.35" fill="#444649" transform="translate(10.000000, 9.000000) scale(1, -1) rotate(90.000000) translate(-10.000000, -9.000000) " points="10 5 14 13 6 13"></polygon>
            </g>
            <text id="Disable" font-family=".SFNSText-Regular, .SF NS Text" font-size="6" font-weight="normal" fill="#8D8D8D">
                <tspan x="0" y="57">Disable</tspan>
            </text>
            <text id="Selected" font-family=".SFNSText-Regular, .SF NS Text" font-size="6" font-weight="normal" fill="#8D8D8D">
                <tspan x="0" y="87">Selected</tspan>
            </text>
            <text id="normal" font-family=".SFNSText-Regular, .SF NS Text" font-size="6" font-weight="normal" fill="#444649">
                <tspan x="0" y="23">normal</tspan>
            </text>
            <text id="Derived-Metric" font-family=".SFNSText-Regular, .SF NS Text" font-size="6" font-weight="normal" fill="#444649">
                <tspan x="93" y="23">Derived Metric</tspan>
            </text>
            <g id="Group-3" opacity="0.7" transform="translate(60.000000, 30.000000)">
                <g id="Group-10">
                    <rect id="Rectangle" x="0" y="0" width="18" height="18"></rect>
                    <path d="M10,8 L15,8 L15,10 L10,10 L10,15 L8,15 L8,10 L3,10 L3,8 L8,8 L8,3 L10,3 L10,8 Z" id="Combined-Shape" fill="#444649"></path>
                </g>
            </g>
            <g id="Group-3-Copy-2" transform="translate(60.000000, 60.000000)">
                <g id="Group-10">
                    <rect id="Rectangle" x="0" y="0" width="18" height="18"></rect>
                    <path d="M10,8 L15,8 L15,10 L10,10 L10,15 L8,15 L8,10 L3,10 L3,8 L8,8 L8,3 L10,3 L10,8 Z" id="Combined-Shape" fill="#FFF"></path>
                </g>
            </g>
            <g id="Group-3-Copy" transform="translate(60.000000, 90.000000)">
                <g id="Group-10">
                    <rect id="Rectangle" x="0" y="0" width="18" height="18"></rect>
                    <path d="M10,8 L15,8 L15,10 L10,10 L10,15 L8,15 L8,10 L3,10 L3,8 L8,8 L8,3 L10,3 L10,8 Z" id="Combined-Shape" fill="#444649"></path>
                </g>
            </g>
            <g id="Group-5" opacity="0.7" transform="translate(90.000000, 30.000000)">
                <g id="Group-4" transform="translate(120.000000, 0.000000)">
                    <rect id="Rectangle" x="0" y="0" width="18" height="18"></rect>
                    <path d="M5,3 C5,3 5.76658862,3 6.5,3 C5,4.70000076 4,6.68212891 4,9 C4,11.3178711 5,13.2999992 6.5,15 C6.5,15 5.2057828,15 5,15 C3.60241699,13.9000015 2,11.7879639 2,9 C2,6.21203613 3.6000061,4.09999847 5,3 Z M13,3 C13,3 12.2334114,3 11.5,3 C13,4.70000076 14,6.68212891 14,9 C14,11.3178711 13,13.2999992 11.5,15 C11.5,15 12.7942172,15 13,15 C14.397583,13.9000015 16,11.7879639 16,9 C16,6.21203613 14.3999939,4.09999847 13,3 Z" id="Combined-Shape" fill="#444649"></path>
                </g>
                <g id="Group-7-Copy" transform="translate(150.000000, 0.000000)" fill="#444649">
                    <path d="M2,9 L5,3 L7,3 L4,9 L7,15 L5,15 L2,9 Z M16,9 L13,3 L11,3 L14,9 L11,15 L13,15 L16,9 Z" id="&lt;-&gt;"></path>
                </g>
                <g id="Group-10-Copy-2" transform="translate(60.000000, 0.000000)" fill="#444649">
                    <path d="M10.5,9 L15,13.5 L13.5,15 L9,10.5 L4.5,15 L3,13.5 L7.5,9 L3,4.5 L4.5,3 L9,7.5 L13.5,3 L15,4.5 L10.5,9 Z" id="Combined-Shape"></path>
                </g>
                <g id="Group-10" fill="#444649">
                    <path d="M10,8 L16,8 L16,10 L10,10 L10,16 L8,16 L8,10 L2,10 L2,8 L8,8 L8,2 L10,2 L10,8 Z" id="Combined-Shape"></path>
                </g>
                <g id="Group-10-Copy" transform="translate(30.000000, 0.000000)">
                    <rect id="Rectangle-2521" fill="#C2FF6F" opacity="0" x="0" y="0" width="18" height="18"></rect>
                    <polygon id="Line" fill="#444649" points="16 10 16 8 2 8 2 10"></polygon>
                </g>
                <g id="Group-10-Copy-3" transform="translate(90.000000, 0.000000)">
                    <rect id="Rectangle-2521" fill="#C2FF6F" opacity="0" x="0" y="0" width="18" height="18"></rect>
                    <path d="M15,10 L15,8 L2,8 L2,10 L15,10 Z M8.5,6 C9.32842712,6 10,5.32842712 10,4.5 C10,3.67157288 9.32842712,3 8.5,3 C7.67157288,3 7,3.67157288 7,4.5 C7,5.32842712 7.67157288,6 8.5,6 Z M8.5,15 C9.32842712,15 10,14.3284271 10,13.5 C10,12.6715729 9.32842712,12 8.5,12 C7.67157288,12 7,12.6715729 7,13.5 C7,14.3284271 7.67157288,15 8.5,15 Z" id="Combined-Shape" fill="#444649"></path>
                </g>
            </g>
            <g id="Group-5-Copy" transform="translate(90.000000, 90.000000)">
                <g id="Group-4" transform="translate(120.000000, 0.000000)">
                    <rect id="Rectangle" x="0" y="0" width="18" height="18"></rect>
                    <path d="M5,3 C5,3 5.76658862,3 6.5,3 C5,4.70000076 4,6.68212891 4,9 C4,11.3178711 5,13.2999992 6.5,15 C6.5,15 5.2057828,15 5,15 C3.60241699,13.9000015 2,11.7879639 2,9 C2,6.21203613 3.6000061,4.09999847 5,3 Z M13,3 C13,3 12.2334114,3 11.5,3 C13,4.70000076 14,6.68212891 14,9 C14,11.3178711 13,13.2999992 11.5,15 C11.5,15 12.7942172,15 13,15 C14.397583,13.9000015 16,11.7879639 16,9 C16,6.21203613 14.3999939,4.09999847 13,3 Z" id="Combined-Shape" fill="#444649"></path>
                </g>
                <g id="Group-7-Copy" transform="translate(150.000000, 0.000000)" fill="#444649">
                    <path d="M2,9 L5,3 L7,3 L4,9 L7,15 L5,15 L2,9 Z M16,9 L13,3 L11,3 L14,9 L11,15 L13,15 L16,9 Z" id="&lt;-&gt;"></path>
                </g>
                <g id="Group-10-Copy-2" transform="translate(60.000000, 0.000000)" fill="#444649">
                    <path d="M10.5,9 L15,13.5 L13.5,15 L9,10.5 L4.5,15 L3,13.5 L7.5,9 L3,4.5 L4.5,3 L9,7.5 L13.5,3 L15,4.5 L10.5,9 Z" id="Combined-Shape"></path>
                </g>
                <g id="Group-10" fill="#444649">
                    <path d="M10,8 L16,8 L16,10 L10,10 L10,16 L8,16 L8,10 L2,10 L2,8 L8,8 L8,2 L10,2 L10,8 Z" id="Combined-Shape"></path>
                </g>
                <g id="Group-10-Copy" transform="translate(30.000000, 0.000000)">
                    <rect id="Rectangle-2521" fill="#C2FF6F" opacity="0" x="0" y="0" width="18" height="18"></rect>
                    <polygon id="Line" fill="#444649" points="16 10 16 8 2 8 2 10"></polygon>
                </g>
                <g id="Group-10-Copy-3" transform="translate(90.000000, 0.000000)">
                    <rect id="Rectangle-2521" fill="#C2FF6F" opacity="0" x="0" y="0" width="18" height="18"></rect>
                    <path d="M15,10 L15,8 L2,8 L2,10 L15,10 Z M8.5,6 C9.32842712,6 10,5.32842712 10,4.5 C10,3.67157288 9.32842712,3 8.5,3 C7.67157288,3 7,3.67157288 7,4.5 C7,5.32842712 7.67157288,6 8.5,6 Z M8.5,15 C9.32842712,15 10,14.3284271 10,13.5 C10,12.6715729 9.32842712,12 8.5,12 C7.67157288,12 7,12.6715729 7,13.5 C7,14.3284271 7.67157288,15 8.5,15 Z" id="Combined-Shape" fill="#444649"></path>
                </g>
            </g>
        </g>
    </g>
</svg>