<?xml version="1.0" encoding="UTF-8"?>
<svg width="130px" height="41px" viewBox="0 0 74 41" version="1.1" xmlns="http://www.w3.org/2000/svg" xmlns:xlink="http://www.w3.org/1999/xlink">
    <!-- Generator: Sketch 42 (36781) - http://www.bohemiancoding.com/sketch -->
    <title>Artboard 4</title>
    <desc>Created with Sketch.</desc>
    <defs></defs>
    <g id="Page-1" stroke="none" stroke-width="1" fill="none" fill-rule="evenodd">
        <g id="Artboard-4" fill-rule="nonzero" fill="#2AA4F0">
            <g id="Group" opacity="0.75" transform="translate(0.000000, 8.000000)">
                <path d="M8.87837838,17.7567568 L8.87837838,17.7567568 C8.51351351,17.7567568 8.22162162,17.4648649 8.22162162,17.1 L8.22162162,15.4459459 C6.93243243,15.3243243 5.69189189,14.8135135 4.69459459,13.9864865 L3.52702703,15.1540541 C3.28378378,15.3972973 2.87027027,15.3972973 2.6027027,15.1540541 L2.6027027,15.1540541 C2.35945946,14.9108108 2.35945946,14.4972973 2.6027027,14.2297297 L3.77027027,13.0621622 C2.94324324,12.0648649 2.43243243,10.8486486 2.31081081,9.55945946 L0.656756757,9.55945946 C0.291891892,9.55945946 0,9.26756757 0,8.9027027 L0,8.9027027 C0,8.53783784 0.291891892,8.24594595 0.656756757,8.24594595 L2.31081081,8.24594595 C2.43243243,6.93243243 2.94324324,5.69189189 3.77027027,4.67027027 L2.6027027,3.52702703 C2.35945946,3.28378378 2.35945946,2.87027027 2.6027027,2.6027027 L2.6027027,2.6027027 C2.84594595,2.35945946 3.25945946,2.35945946 3.52702703,2.6027027 L4.69459459,3.77027027 C5.69189189,2.94324324 6.93243243,2.43243243 8.22162162,2.31081081 L8.22162162,0.656756757 C8.22162162,0.291891892 8.51351351,0 8.87837838,0 L8.87837838,0 C9.24324324,0 9.53513514,0.291891892 9.53513514,0.656756757 L9.53513514,2.31081081 C10.8243243,2.43243243 12.0648649,2.94324324 13.0621622,3.77027027 L14.2540541,2.57837838 C14.4972973,2.33513514 14.9108108,2.33513514 15.1783784,2.57837838 L15.1783784,2.57837838 C15.4216216,2.82162162 15.4216216,3.23513514 15.1783784,3.5027027 L13.9864865,4.69459459 C14.8135135,5.71621622 15.3243243,6.95675676 15.4459459,8.27027027 L17.1,8.27027027 C17.4648649,8.27027027 17.7567568,8.56216216 17.7567568,8.92702703 L17.7567568,8.92702703 C17.7567568,9.29189189 17.4648649,9.58378378 17.1,9.58378378 L15.4459459,9.58378378 C15.3243243,10.872973 14.8135135,12.0891892 13.9864865,13.0864865 L15.1783784,14.2783784 C15.4216216,14.5216216 15.4216216,14.9351351 15.1783784,15.2027027 L15.1783784,15.2027027 C14.9351351,15.4459459 14.5216216,15.4459459 14.2540541,15.2027027 L13.0621622,13.9864865 C12.0648649,14.8135135 10.8243243,15.3243243 9.53513514,15.4459459 L9.53513514,17.1 C9.53513514,17.4648649 9.24324324,17.7567568 8.87837838,17.7567568 Z M5.61891892,13.0621622 C6.37297297,13.6459459 7.27297297,14.0351351 8.22162162,14.1567568 L8.53783784,10.2405405 C8.41621622,10.2162162 8.29459459,10.1675676 8.17297297,10.0945946 L5.61891892,13.0621622 Z M9.21891892,10.2162162 L9.53513514,14.1324324 C10.4837838,14.0108108 11.3837838,13.6459459 12.1378378,13.0378378 L9.58378378,10.0702703 C9.46216216,10.1432432 9.34054054,10.1918919 9.21891892,10.2162162 Z M3.62432432,9.55945946 C3.74594595,10.5081081 4.11081081,11.3837838 4.69459459,12.1378378 L7.71081081,9.58378378 C7.63783784,9.48648649 7.61351351,9.36486486 7.56486486,9.24324324 L3.62432432,9.55945946 Z M10.0459459,9.58378378 L13.0621622,12.1378378 C13.6459459,11.3837838 14.0108108,10.5081081 14.1324324,9.55945946 L10.1918919,9.24324324 C10.1675676,9.36486486 10.1189189,9.48648649 10.0459459,9.58378378 Z M10.1918919,8.58648649 L14.1567568,8.27027027 C14.0351351,7.2972973 13.6702703,6.3972973 13.0621622,5.61891892 L10.0459459,8.22162162 C10.0945946,8.31891892 10.1675676,8.44054054 10.1918919,8.58648649 Z M3.6,8.27027027 L7.56486486,8.58648649 C7.58918919,8.46486486 7.63783784,8.34324324 7.71081081,8.22162162 L4.69459459,5.61891892 C4.11081081,6.37297297 3.72162162,7.2972973 3.6,8.27027027 Z M5.61891892,4.69459459 L8.1972973,7.73513514 C8.29459459,7.66216216 8.41621622,7.63783784 8.53783784,7.58918919 L8.22162162,3.6 C7.27297297,3.72162162 6.37297297,4.11081081 5.61891892,4.69459459 Z M9.21891892,7.61351351 C9.34054054,7.63783784 9.46216216,7.68648649 9.55945946,7.75945946 L12.1378378,4.71891892 C11.3837838,4.13513514 10.4837838,3.74594595 9.53513514,3.62432432 L9.21891892,7.61351351 Z" id="Shape"></path>
            </g>
            <g id="Group-Copy" transform="translate(40.000000, 8.000000)">
                <path d="M8.87837838,17.7567568 L8.87837838,17.7567568 C8.51351351,17.7567568 8.22162162,17.4648649 8.22162162,17.1 L8.22162162,15.4459459 C6.93243243,15.3243243 5.69189189,14.8135135 4.69459459,13.9864865 L3.52702703,15.1540541 C3.28378378,15.3972973 2.87027027,15.3972973 2.6027027,15.1540541 L2.6027027,15.1540541 C2.35945946,14.9108108 2.35945946,14.4972973 2.6027027,14.2297297 L3.77027027,13.0621622 C2.94324324,12.0648649 2.43243243,10.8486486 2.31081081,9.55945946 L0.656756757,9.55945946 C0.291891892,9.55945946 0,9.26756757 0,8.9027027 L0,8.9027027 C0,8.53783784 0.291891892,8.24594595 0.656756757,8.24594595 L2.31081081,8.24594595 C2.43243243,6.93243243 2.94324324,5.69189189 3.77027027,4.67027027 L2.6027027,3.52702703 C2.35945946,3.28378378 2.35945946,2.87027027 2.6027027,2.6027027 L2.6027027,2.6027027 C2.84594595,2.35945946 3.25945946,2.35945946 3.52702703,2.6027027 L4.69459459,3.77027027 C5.69189189,2.94324324 6.93243243,2.43243243 8.22162162,2.31081081 L8.22162162,0.656756757 C8.22162162,0.291891892 8.51351351,0 8.87837838,0 L8.87837838,0 C9.24324324,0 9.53513514,0.291891892 9.53513514,0.656756757 L9.53513514,2.31081081 C10.8243243,2.43243243 12.0648649,2.94324324 13.0621622,3.77027027 L14.2540541,2.57837838 C14.4972973,2.33513514 14.9108108,2.33513514 15.1783784,2.57837838 L15.1783784,2.57837838 C15.4216216,2.82162162 15.4216216,3.23513514 15.1783784,3.5027027 L13.9864865,4.69459459 C14.8135135,5.71621622 15.3243243,6.95675676 15.4459459,8.27027027 L17.1,8.27027027 C17.4648649,8.27027027 17.7567568,8.56216216 17.7567568,8.92702703 L17.7567568,8.92702703 C17.7567568,9.29189189 17.4648649,9.58378378 17.1,9.58378378 L15.4459459,9.58378378 C15.3243243,10.872973 14.8135135,12.0891892 13.9864865,13.0864865 L15.1783784,14.2783784 C15.4216216,14.5216216 15.4216216,14.9351351 15.1783784,15.2027027 L15.1783784,15.2027027 C14.9351351,15.4459459 14.5216216,15.4459459 14.2540541,15.2027027 L13.0621622,13.9864865 C12.0648649,14.8135135 10.8243243,15.3243243 9.53513514,15.4459459 L9.53513514,17.1 C9.53513514,17.4648649 9.24324324,17.7567568 8.87837838,17.7567568 Z M5.61891892,13.0621622 C6.37297297,13.6459459 7.27297297,14.0351351 8.22162162,14.1567568 L8.53783784,10.2405405 C8.41621622,10.2162162 8.29459459,10.1675676 8.17297297,10.0945946 L5.61891892,13.0621622 Z M9.21891892,10.2162162 L9.53513514,14.1324324 C10.4837838,14.0108108 11.3837838,13.6459459 12.1378378,13.0378378 L9.58378378,10.0702703 C9.46216216,10.1432432 9.34054054,10.1918919 9.21891892,10.2162162 Z M3.62432432,9.55945946 C3.74594595,10.5081081 4.11081081,11.3837838 4.69459459,12.1378378 L7.71081081,9.58378378 C7.63783784,9.48648649 7.61351351,9.36486486 7.56486486,9.24324324 L3.62432432,9.55945946 Z M10.0459459,9.58378378 L13.0621622,12.1378378 C13.6459459,11.3837838 14.0108108,10.5081081 14.1324324,9.55945946 L10.1918919,9.24324324 C10.1675676,9.36486486 10.1189189,9.48648649 10.0459459,9.58378378 Z M10.1918919,8.58648649 L14.1567568,8.27027027 C14.0351351,7.2972973 13.6702703,6.3972973 13.0621622,5.61891892 L10.0459459,8.22162162 C10.0945946,8.31891892 10.1675676,8.44054054 10.1918919,8.58648649 Z M3.6,8.27027027 L7.56486486,8.58648649 C7.58918919,8.46486486 7.63783784,8.34324324 7.71081081,8.22162162 L4.69459459,5.61891892 C4.11081081,6.37297297 3.72162162,7.2972973 3.6,8.27027027 Z M5.61891892,4.69459459 L8.1972973,7.73513514 C8.29459459,7.66216216 8.41621622,7.63783784 8.53783784,7.58918919 L8.22162162,3.6 C7.27297297,3.72162162 6.37297297,4.11081081 5.61891892,4.69459459 Z M9.21891892,7.61351351 C9.34054054,7.63783784 9.46216216,7.68648649 9.55945946,7.75945946 L12.1378378,4.71891892 C11.3837838,4.13513514 10.4837838,3.74594595 9.53513514,3.62432432 L9.21891892,7.61351351 Z" id="Shape"></path>
            </g>
            <g id="Group-Disable" opacity="0.35" transform="translate(80.000000, 8.000000)">
                <path d="M8.87837838,17.7567568 L8.87837838,17.7567568 C8.51351351,17.7567568 8.22162162,17.4648649 8.22162162,17.1 L8.22162162,15.4459459 C6.93243243,15.3243243 5.69189189,14.8135135 4.69459459,13.9864865 L3.52702703,15.1540541 C3.28378378,15.3972973 2.87027027,15.3972973 2.6027027,15.1540541 L2.6027027,15.1540541 C2.35945946,14.9108108 2.35945946,14.4972973 2.6027027,14.2297297 L3.77027027,13.0621622 C2.94324324,12.0648649 2.43243243,10.8486486 2.31081081,9.55945946 L0.656756757,9.55945946 C0.291891892,9.55945946 0,9.26756757 0,8.9027027 L0,8.9027027 C0,8.53783784 0.291891892,8.24594595 0.656756757,8.24594595 L2.31081081,8.24594595 C2.43243243,6.93243243 2.94324324,5.69189189 3.77027027,4.67027027 L2.6027027,3.52702703 C2.35945946,3.28378378 2.35945946,2.87027027 2.6027027,2.6027027 L2.6027027,2.6027027 C2.84594595,2.35945946 3.25945946,2.35945946 3.52702703,2.6027027 L4.69459459,3.77027027 C5.69189189,2.94324324 6.93243243,2.43243243 8.22162162,2.31081081 L8.22162162,0.656756757 C8.22162162,0.291891892 8.51351351,0 8.87837838,0 L8.87837838,0 C9.24324324,0 9.53513514,0.291891892 9.53513514,0.656756757 L9.53513514,2.31081081 C10.8243243,2.43243243 12.0648649,2.94324324 13.0621622,3.77027027 L14.2540541,2.57837838 C14.4972973,2.33513514 14.9108108,2.33513514 15.1783784,2.57837838 L15.1783784,2.57837838 C15.4216216,2.82162162 15.4216216,3.23513514 15.1783784,3.5027027 L13.9864865,4.69459459 C14.8135135,5.71621622 15.3243243,6.95675676 15.4459459,8.27027027 L17.1,8.27027027 C17.4648649,8.27027027 17.7567568,8.56216216 17.7567568,8.92702703 L17.7567568,8.92702703 C17.7567568,9.29189189 17.4648649,9.58378378 17.1,9.58378378 L15.4459459,9.58378378 C15.3243243,10.872973 14.8135135,12.0891892 13.9864865,13.0864865 L15.1783784,14.2783784 C15.4216216,14.5216216 15.4216216,14.9351351 15.1783784,15.2027027 L15.1783784,15.2027027 C14.9351351,15.4459459 14.5216216,15.4459459 14.2540541,15.2027027 L13.0621622,13.9864865 C12.0648649,14.8135135 10.8243243,15.3243243 9.53513514,15.4459459 L9.53513514,17.1 C9.53513514,17.4648649 9.24324324,17.7567568 8.87837838,17.7567568 Z M5.61891892,13.0621622 C6.37297297,13.6459459 7.27297297,14.0351351 8.22162162,14.1567568 L8.53783784,10.2405405 C8.41621622,10.2162162 8.29459459,10.1675676 8.17297297,10.0945946 L5.61891892,13.0621622 Z M9.21891892,10.2162162 L9.53513514,14.1324324 C10.4837838,14.0108108 11.3837838,13.6459459 12.1378378,13.0378378 L9.58378378,10.0702703 C9.46216216,10.1432432 9.34054054,10.1918919 9.21891892,10.2162162 Z M3.62432432,9.55945946 C3.74594595,10.5081081 4.11081081,11.3837838 4.69459459,12.1378378 L7.71081081,9.58378378 C7.63783784,9.48648649 7.61351351,9.36486486 7.56486486,9.24324324 L3.62432432,9.55945946 Z M10.0459459,9.58378378 L13.0621622,12.1378378 C13.6459459,11.3837838 14.0108108,10.5081081 14.1324324,9.55945946 L10.1918919,9.24324324 C10.1675676,9.36486486 10.1189189,9.48648649 10.0459459,9.58378378 Z M10.1918919,8.58648649 L14.1567568,8.27027027 C14.0351351,7.2972973 13.6702703,6.3972973 13.0621622,5.61891892 L10.0459459,8.22162162 C10.0945946,8.31891892 10.1675676,8.44054054 10.1918919,8.58648649 Z M3.6,8.27027027 L7.56486486,8.58648649 C7.58918919,8.46486486 7.63783784,8.34324324 7.71081081,8.22162162 L4.69459459,5.61891892 C4.11081081,6.37297297 3.72162162,7.2972973 3.6,8.27027027 Z M5.61891892,4.69459459 L8.1972973,7.73513514 C8.29459459,7.66216216 8.41621622,7.63783784 8.53783784,7.58918919 L8.22162162,3.6 C7.27297297,3.72162162 6.37297297,4.11081081 5.61891892,4.69459459 Z M9.21891892,7.61351351 C9.34054054,7.63783784 9.46216216,7.68648649 9.55945946,7.75945946 L12.1378378,4.71891892 C11.3837838,4.13513514 10.4837838,3.74594595 9.53513514,3.62432432 L9.21891892,7.61351351 Z" id="Shape"></path>
            </g>
        </g>
    </g>
</svg>