<?xml version="1.0" encoding="UTF-8"?>
<svg width="316px" height="217px" viewBox="0 0 316 217" version="1.1" xmlns="http://www.w3.org/2000/svg" xmlns:xlink="http://www.w3.org/1999/xlink">
    <!-- Generator: Sketch 50.2 (55047) - http://www.bohemiancoding.com/sketch -->
    <title>financial_report</title>
    <desc>Created with Sketch.</desc>
    <defs></defs>
    <g id="financial_report" stroke="none" stroke-width="1" fill="none" fill-rule="evenodd">
        <g id="deselect-itself-copy" transform="translate(210.000000, 90.000000)">
            <rect id="Rectangle-15" fill="#C2FF6F" fill-rule="nonzero" opacity="0" x="0" y="0" width="16" height="16"></rect>
            <path d="M3,7 C3.552,7 4,7.448 4,8 C4,8.552 3.552,9 3,9 C2.448,9 2,8.552 2,8 C2,7.448 2.448,7 3,7 Z" id="Fill-1" fill="#A5A4A4" fill-rule="nonzero"></path>
            <path d="M4,12 C4,12.552 3.552,13 3,13 C2.448,13 2,12.552 2,12 C2,11.448 2.448,11 3,11 C3.552,11 4,11.448 4,12 Z" id="Fill-3" fill="#A5A4A4" fill-rule="nonzero"></path>
            <circle id="Oval" stroke="#A5A4A4" cx="3.5" cy="3.5" r="1.5"></circle>
            <polygon id="Fill-5" fill="#A5A4A4" fill-rule="nonzero" points="6 5 14 5 14 4 6 4"></polygon>
            <polygon id="Fill-7" fill="#A5A4A4" fill-rule="nonzero" points="6 9 14 9 14 8 6 8"></polygon>
            <polygon id="Fill-8" fill="#A5A4A4" fill-rule="nonzero" points="6 13 14 13 14 12 6 12"></polygon>
        </g>
        <g id="deselect-itself-copy-2" opacity="0.9" transform="translate(240.000000, 90.000000)">
            <rect id="Rectangle-15" fill="#C2FF6F" fill-rule="nonzero" opacity="0" x="0" y="0" width="16" height="16"></rect>
            <path d="M3,7 C3.552,7 4,7.448 4,8 C4,8.552 3.552,9 3,9 C2.448,9 2,8.552 2,8 C2,7.448 2.448,7 3,7 Z" id="Fill-1" fill="#333333" fill-rule="nonzero"></path>
            <path d="M4,12 C4,12.552 3.552,13 3,13 C2.448,13 2,12.552 2,12 C2,11.448 2.448,11 3,11 C3.552,11 4,11.448 4,12 Z" id="Fill-3" fill="#333333" fill-rule="nonzero"></path>
            <circle id="Oval" stroke="#333333" cx="3.5" cy="3.5" r="1.5"></circle>
            <polygon id="Fill-5" fill="#333333" fill-rule="nonzero" points="6 5 14 5 14 4 6 4"></polygon>
            <polygon id="Fill-7" fill="#333333" fill-rule="nonzero" points="6 9 14 9 14 8 6 8"></polygon>
            <polygon id="Fill-8" fill="#333333" fill-rule="nonzero" points="6 13 14 13 14 12 6 12"></polygon>
        </g>
        <g id="Group-Copy" transform="translate(240.000000, 30.000000)" fill-rule="nonzero">
            <rect id="Rectangle-15" fill="#C2FF6F" opacity="0" x="0" y="0" width="16" height="16"></rect>
            <g id="select-element-itself-" opacity="0.9" transform="translate(1.000000, 2.000000)" fill="#333333">
                <path d="M2,5 C2.552,5 3,5.448 3,6 C3,6.552 2.552,7 2,7 C1.448,7 1,6.552 1,6 C1,5.448 1.448,5 2,5 Z" id="Fill-1"></path>
                <path d="M3,10 C3,10.552 2.552,11 2,11 C1.448,11 1,10.552 1,10 C1,9.448 1.448,9 2,9 C2.552,9 3,9.448 3,10 Z" id="Fill-3"></path>
                <polygon id="Fill-5" points="5 3 13 3 13 2 5 2"></polygon>
                <polygon id="Fill-7" points="5 7 13 7 13 6 5 6"></polygon>
                <polygon id="Fill-8" points="5 11 13 11 13 10 5 10"></polygon>
                <polygon id="Fill-9" points="2.0781 4.0317 0.0001 1.9337 0.7111 1.2297 1.9061 2.4367 3.4531 -0.0003 4.2971 0.5357"></polygon>
            </g>
        </g>
        <g id="Group" transform="translate(210.000000, 30.000000)" fill-rule="nonzero">
            <rect id="Rectangle-15" fill="#C2FF6F" opacity="0" x="0" y="0" width="16" height="16"></rect>
            <g id="select-element-itself-" transform="translate(1.000000, 2.000000)" fill="#A5A4A4">
                <path d="M2,5 C2.552,5 3,5.448 3,6 C3,6.552 2.552,7 2,7 C1.448,7 1,6.552 1,6 C1,5.448 1.448,5 2,5 Z" id="Fill-1"></path>
                <path d="M3,10 C3,10.552 2.552,11 2,11 C1.448,11 1,10.552 1,10 C1,9.448 1.448,9 2,9 C2.552,9 3,9.448 3,10 Z" id="Fill-3"></path>
                <polygon id="Fill-5" points="5 3 13 3 13 2 5 2"></polygon>
                <polygon id="Fill-7" points="5 7 13 7 13 6 5 6"></polygon>
                <polygon id="Fill-8" points="5 11 13 11 13 10 5 10"></polygon>
                <polygon id="Fill-9" points="2.0781 4.0317 0.0001 1.9337 0.7111 1.2297 1.9061 2.4367 3.4531 -0.0003 4.2971 0.5357"></polygon>
            </g>
        </g>
        <g id="Group-2" transform="translate(30.000000, 30.000000)" fill-rule="nonzero">
            <rect id="Rectangle-15-Copy" fill="#C2FF6F" opacity="0" x="0" y="0" width="16" height="16"></rect>
            <path d="M8,2.875 L8,1 L5.5,3.5 L8,6 L8,4.125 C10.06875,4.125 11.75,5.80625 11.75,7.875 C11.75,8.50625 11.59375,9.10625 11.3125,9.625 L12.225,10.5375 C12.7125,9.76875 13,8.85625 13,7.875 C13,5.1125 10.7625,2.875 8,2.875 Z M8,11.625 C5.93125,11.625 4.25,9.94375 4.25,7.875 C4.25,7.24375 4.40625,6.64375 4.6875,6.125 L3.775,5.2125 C3.2875,5.98125 3,6.89375 3,7.875 C3,10.6375 5.2375,12.875 8,12.875 L8,14.75 L10.5,12.25 L8,9.75 L8,11.625 Z" id="Shape" fill="#000000" opacity="0.3"></path>
        </g>
        <g id="Group" transform="translate(0.000000, 30.000000)" fill-rule="nonzero">
            <rect id="Rectangle-15" fill="#C2FF6F" opacity="0" x="0" y="0" width="16" height="16"></rect>
            <g id="select-element-itself-" transform="translate(1.000000, 2.000000)" fill="#3B92ED">
                <path d="M2,5 C2.552,5 3,5.448 3,6 C3,6.552 2.552,7 2,7 C1.448,7 1,6.552 1,6 C1,5.448 1.448,5 2,5 Z" id="Fill-1"></path>
                <path d="M3,10 C3,10.552 2.552,11 2,11 C1.448,11 1,10.552 1,10 C1,9.448 1.448,9 2,9 C2.552,9 3,9.448 3,10 Z" id="Fill-3"></path>
                <polygon id="Fill-5" points="5 3 13 3 13 2 5 2"></polygon>
                <polygon id="Fill-7" points="5 7 13 7 13 6 5 6"></polygon>
                <polygon id="Fill-8" points="5 11 13 11 13 10 5 10"></polygon>
                <polygon id="Fill-9" points="2.0781 4.0317 0.0001 1.9337 0.7111 1.2297 1.9061 2.4367 3.4531 -0.0003 4.2971 0.5357"></polygon>
            </g>
        </g>
        <text id="normal:-from-(0,30)-space-between-each-icon-is-30" fill="#444649" font-family="Helvetica" font-size="9" font-weight="normal">
            <tspan x="-0.052246094" y="14">normal: from (0,30) space between each icon is 30</tspan>
        </text>
        <text id="pressed/focus:-from-(0,90)-space-between-each-icon-is-30" fill="#444649" font-family="Helvetica" font-size="9" font-weight="normal">
            <tspan x="0" y="82">pressed/focus: from (0,90) space between each icon is 30</tspan>
        </text>
        <g id="deselect-itself" transform="translate(0.000000, 90.000000)">
            <rect id="Rectangle-15" fill="#C2FF6F" fill-rule="nonzero" opacity="0" x="0" y="0" width="16" height="16"></rect>
            <path d="M3,7 C3.552,7 4,7.448 4,8 C4,8.552 3.552,9 3,9 C2.448,9 2,8.552 2,8 C2,7.448 2.448,7 3,7 Z" id="Fill-1" fill="#3B92ED" fill-rule="nonzero"></path>
            <path d="M4,12 C4,12.552 3.552,13 3,13 C2.448,13 2,12.552 2,12 C2,11.448 2.448,11 3,11 C3.552,11 4,11.448 4,12 Z" id="Fill-3" fill="#3B92ED" fill-rule="nonzero"></path>
            <circle id="Oval" stroke="#3B92ED" cx="3" cy="3.5" r="1.5"></circle>
            <polygon id="Fill-5" fill="#3B92ED" fill-rule="nonzero" points="6 5 14 5 14 4 6 4"></polygon>
            <polygon id="Fill-7" fill="#3B92ED" fill-rule="nonzero" points="6 9 14 9 14 8 6 8"></polygon>
            <polygon id="Fill-8" fill="#3B92ED" fill-rule="nonzero" points="6 13 14 13 14 12 6 12"></polygon>
        </g>
        <g id="Group-4" transform="translate(61.000000, 91.000000)" fill-rule="nonzero">
            <path d="M4.375,0.875 C3.40850169,0.875 2.625,1.65850169 2.625,2.625 L2.625,9.625 C2.625,10.5914983 3.40850169,11.375 4.375,11.375 L11.375,11.375 C12.3414983,11.375 13.125,10.5914983 13.125,9.625 L13.125,2.625 C13.125,1.65850169 12.3414983,0.875 11.375,0.875 L4.375,0.875 Z M4.375,0 L11.375,0 C12.8247475,0 14,1.17525253 14,2.625 L14,9.625 C14,11.0747475 12.8247475,12.25 11.375,12.25 L4.375,12.25 C2.92525253,12.25 1.75,11.0747475 1.75,9.625 L1.75,2.625 C1.75,1.17525253 2.92525253,0 4.375,0 Z" id="Rectangle-5-Copy-2" fill="#3B92ED"></path>
            <path d="M1.875,2.625 L10.375,2.625 C10.9272847,2.625 11.375,3.07271525 11.375,3.625 L11.375,12.125 C11.375,12.6772847 10.9272847,13.125 10.375,13.125 L1.875,13.125 C1.32271525,13.125 0.875,12.6772847 0.875,12.125 L0.875,3.625 C0.875,3.07271525 1.32271525,2.625 1.875,2.625 Z M5.1059697,9.55707237 L3.24863636,7.69792701 L2.625,8.3221718 L5.1059697,10.805562 L9.15833333,6.74924479 L8.53469697,6.125 L5.1059697,9.55707237 Z" id="Combined-Shape" fill="#3B92ED"></path>
            <path d="M2.625,1.75 L9.625,1.75 C11.0747475,1.75 12.25,2.92525253 12.25,4.375 L12.25,11.375 C12.25,12.8247475 11.0747475,14 9.625,14 L2.625,14 C1.17525253,14 0,12.8247475 0,11.375 L0,4.375 C0,2.92525253 1.17525253,1.75 2.625,1.75 Z" id="Rectangle-5-Copy" fill="#3B92ED"></path>
            <polygon id="Shape" fill="#FFFFFF" points="5.1059697 9.55707237 3.24863636 7.69792701 2.625 8.3221718 5.1059697 10.805562 9.15833333 6.74924479 8.53469697 6.125"></polygon>
        </g>
        <rect id="Rectangle-15" fill="#C2FF6F" fill-rule="nonzero" opacity="0" x="60" y="90" width="16" height="16"></rect>
        <g id="Group-5" transform="translate(60.000000, 30.000000)" fill-rule="nonzero">
            <g id="Group-4-Copy">
                <path d="M4.375,0.875 C3.40850169,0.875 2.625,1.65850169 2.625,2.625 L2.625,9.625 C2.625,10.5914983 3.40850169,11.375 4.375,11.375 L11.375,11.375 C12.3414983,11.375 13.125,10.5914983 13.125,9.625 L13.125,2.625 C13.125,1.65850169 12.3414983,0.875 11.375,0.875 L4.375,0.875 Z M4.375,0 L11.375,0 C12.8247475,0 14,1.17525253 14,2.625 L14,9.625 C14,11.0747475 12.8247475,12.25 11.375,12.25 L4.375,12.25 C2.92525253,12.25 1.75,11.0747475 1.75,9.625 L1.75,2.625 C1.75,1.17525253 2.92525253,0 4.375,0 Z" id="Rectangle-5-Copy-2" fill="#7B7E81"></path>
                <path d="M1.875,2.625 L10.375,2.625 C10.9272847,2.625 11.375,3.07271525 11.375,3.625 L11.375,12.125 C11.375,12.6772847 10.9272847,13.125 10.375,13.125 L1.875,13.125 C1.32271525,13.125 0.875,12.6772847 0.875,12.125 L0.875,3.625 C0.875,3.07271525 1.32271525,2.625 1.875,2.625 Z M5.1059697,9.55707237 L3.24863636,7.69792701 L2.625,8.3221718 L5.1059697,10.805562 L9.15833333,6.74924479 L8.53469697,6.125 L5.1059697,9.55707237 Z" id="Combined-Shape" fill="#FFFFFF"></path>
                <path d="M2.625,2.625 C1.65850169,2.625 0.875,3.40850169 0.875,4.375 L0.875,11.375 C0.875,12.3414983 1.65850169,13.125 2.625,13.125 L9.625,13.125 C10.5914983,13.125 11.375,12.3414983 11.375,11.375 L11.375,4.375 C11.375,3.40850169 10.5914983,2.625 9.625,2.625 L2.625,2.625 Z M2.625,1.75 L9.625,1.75 C11.0747475,1.75 12.25,2.92525253 12.25,4.375 L12.25,11.375 C12.25,12.8247475 11.0747475,14 9.625,14 L2.625,14 C1.17525253,14 0,12.8247475 0,11.375 L0,4.375 C0,2.92525253 1.17525253,1.75 2.625,1.75 Z" id="Rectangle-5-Copy" fill="#7B7E81"></path>
                <polygon id="Shape" fill="#7B7E81" points="5.1059697 9.55707237 3.24863636 7.69792701 2.625 8.3221718 5.1059697 10.805562 9.15833333 6.74924479 8.53469697 6.125"></polygon>
            </g>
        </g>
        <rect id="Rectangle-21" fill="#B8E986" fill-rule="nonzero" opacity="0" x="90" y="90" width="16" height="16"></rect>
        <g id="add" transform="translate(93.000000, 93.000000)" fill="#3B92ED" fill-rule="nonzero">
            <path d="M4,4.5 L0.509665847,4.5 C0.222473145,4.5 0,4.72385763 0,5 C0,5.26806641 0.228185172,5.5 0.509665847,5.5 L4,5.5 L4,8.99033415 C4,9.27752686 4.22385763,9.5 4.5,9.5 C4.76806641,9.5 5,9.27181483 5,8.99033415 L5,5.5 L8.49033415,5.5 C8.77752686,5.5 9,5.27614237 9,5 C9,4.73193359 8.77181483,4.5 8.49033415,4.5 L5,4.5 L5,1.00966585 C5,0.722473145 4.77614237,0.5 4.5,0.5 C4.23193359,0.5 4,0.728185172 4,1.00966585 L4,4.5 Z" id="Shape"></path>
        </g>
        <g id="Group-3" transform="translate(120.000000, 90.000000)" fill-rule="nonzero">
            <rect id="Rectangle-21-Copy" fill="#B8E986" opacity="0" x="0" y="0" width="16" height="16"></rect>
            <g id="add-copy" transform="translate(3.000000, 7.000000)" fill="#3B92ED">
                <rect id="add" x="0" y="0.5" width="9" height="1" rx="0.5"></rect>
            </g>
        </g>
        <g id="Group-3-Copy" transform="translate(90.000000, 30.000000)" fill-rule="nonzero">
            <rect id="Rectangle-21" fill="#B8E986" opacity="0" x="0" y="0" width="16" height="16"></rect>
            <g id="add" opacity="0.846682518" transform="translate(3.000000, 3.000000)" fill="#444649">
                <path d="M4,4.5 L0.509665847,4.5 C0.222473145,4.5 0,4.72385763 0,5 C0,5.26806641 0.228185172,5.5 0.509665847,5.5 L4,5.5 L4,8.99033415 C4,9.27752686 4.22385763,9.5 4.5,9.5 C4.76806641,9.5 5,9.27181483 5,8.99033415 L5,5.5 L8.49033415,5.5 C8.77752686,5.5 9,5.27614237 9,5 C9,4.73193359 8.77181483,4.5 8.49033415,4.5 L5,4.5 L5,1.00966585 C5,0.722473145 4.77614237,0.5 4.5,0.5 C4.23193359,0.5 4,0.728185172 4,1.00966585 L4,4.5 Z" id="Shape"></path>
            </g>
        </g>
        <g id="Group-3-Copy-2" transform="translate(120.000000, 30.000000)" fill-rule="nonzero">
            <rect id="Rectangle-21" fill="#B8E986" opacity="0" x="0" y="0" width="16" height="16"></rect>
            <g id="add" opacity="0.846682518" transform="translate(3.000000, 7.000000)" fill="#444649">
                <rect id="Rectangle-path" x="0" y="0.5" width="9" height="1" rx="0.5"></rect>
            </g>
        </g>
        <g id="Group-5" opacity="0.8" transform="translate(150.000000, 30.000000)" fill-rule="nonzero">
            <rect id="Rectangle-5-Copy-16" fill="#9F795C" opacity="0" x="0" y="0" width="16" height="16"></rect>
            <g id="cm-dropdown" transform="translate(9.000000, 7.500000) rotate(-90.000000) translate(-9.000000, -7.500000) translate(5.000000, 5.000000)" fill="#333333" fill-opacity="0.9">
                <polygon id="Path-2507" points="0 0.710694891 3.67447016 4.65162534 3.99928998 5 4.32371782 4.6512032 8 0.69878205 7.35035922 0 3.67407705 3.95242115 4.3233247 3.95199901 0.64885454 0.0110685668"></polygon>
            </g>
        </g>
        <g id="Group-5-Copy" transform="translate(150.000000, 90.000000)" fill-rule="nonzero">
            <rect id="Rectangle-5-Copy-16" fill="#9F795C" opacity="0" x="0" y="0" width="16" height="16"></rect>
            <g id="cm-dropdown" transform="translate(9.000000, 7.500000) rotate(-90.000000) translate(-9.000000, -7.500000) translate(5.000000, 5.000000)" fill="#333333" fill-opacity="0.9">
                <polygon id="Path-2507" points="0 0.710694891 3.67447016 4.65162534 3.99928998 5 4.32371782 4.6512032 8 0.69878205 7.35035922 0 3.67407705 3.95242115 4.3233247 3.95199901 0.64885454 0.0110685668"></polygon>
            </g>
        </g>
        <g id="Group-5-Copy-2" transform="translate(180.000000, 90.000000)" fill-rule="nonzero">
            <rect id="Rectangle-5-Copy-16" fill="#9F795C" opacity="0" x="0" y="0" width="16" height="16"></rect>
            <g id="cm-dropdown" transform="translate(9.000000, 7.500000) scale(-1, 1) translate(-9.000000, -7.500000) translate(5.000000, 5.000000)" fill="#333333" fill-opacity="0.9">
                <polygon id="Path-2507" points="0 0.710694891 3.67447016 4.65162534 3.99928998 5 4.32371782 4.6512032 8 0.69878205 7.35035922 0 3.67407705 3.95242115 4.3233247 3.95199901 0.64885454 0.0110685668"></polygon>
            </g>
        </g>
        <g id="Group-5-Copy-3" opacity="0.8" transform="translate(180.000000, 30.000000)" fill-rule="nonzero">
            <rect id="Rectangle-5-Copy-16" fill="#9F795C" opacity="0" x="0" y="0" width="16" height="16"></rect>
            <g id="cm-dropdown" transform="translate(9.000000, 7.500000) scale(-1, 1) translate(-9.000000, -7.500000) translate(5.000000, 5.000000)" fill="#333333" fill-opacity="0.9">
                <polygon id="Path-2507" points="0 0.710694891 3.67447016 4.65162534 3.99928998 5 4.32371782 4.6512032 8 0.69878205 7.35035922 0 3.67407705 3.95242115 4.3233247 3.95199901 0.64885454 0.0110685668"></polygon>
            </g>
        </g>
        <g id="Group-3" opacity="0.75" transform="translate(0.000000, 150.000000)" fill-rule="nonzero">
            <rect id="Rectangle" fill="#F5A623" opacity="0" x="0" y="0" width="16" height="16"></rect>
            <path d="M2.89778317,7.21186183 C2.16786657,7.21186183 1.58393328,6.62788695 1.58393328,5.89791835 C1.58393328,5.16794976 2.16786657,4.58397488 2.89778317,4.58397488 C3.62769977,4.58397488 4.21163306,5.16794976 4.21163306,5.89791835 C4.21163306,6.62788695 3.62769977,7.21186183 2.89778317,7.21186183 M13.2625989,7.94183042 C12.4012973,7.94183042 11.6713807,8.56960342 11.5399958,9.40176762 L8.64952601,9.40176762 C8.10938772,9.40176762 7.64224109,9.03678332 7.5108561,8.5258053 L6.92692282,6.18990579 L10.9268658,6.18990579 C11.0874475,6.18990579 11.2188325,6.05851144 11.2188325,5.89791835 C11.2188325,5.73732526 11.0874475,5.60593091 10.9268658,5.60593091 L4.76636967,5.60593091 C4.62038635,4.70076985 3.84667475,4 2.89778317,4 C1.84670326,4 1,4.84676357 1,5.89791835 C1,6.94907313 1.84670326,7.7958367 2.89778317,7.7958367 C3.84667475,7.7958367 4.63498469,7.09506685 4.76636967,6.18990579 L6.31379287,6.18990579 L6.94152115,8.65705366 C7.13129947,9.43096636 7.83201941,9.9857425 8.63492767,9.9857425 L11.5253974,9.9857425 C11.6713807,10.8179067 12.386699,11.4456797 13.2480006,11.4456797 C14.2114905,11.4456797 14.9998005,10.6573136 14.9998005,9.69375506 C15.0143988,8.73005052 14.2260889,7.94183042 13.2625989,7.94183042" id="Fill-1" fill="#A5A4A4"></path>
        </g>
        <g id="Group-3" opacity="0.75" transform="translate(30.000000, 150.000000)" fill-rule="nonzero">
            <rect id="Rectangle" fill="#F5A623" opacity="0" x="0" y="0" width="16" height="16"></rect>
            <path d="M15,9.54166667 C15,10.5081042 14.2164375,11.2916667 13.25,11.2916667 C12.3831667,11.2916667 11.665375,10.6606458 11.52625,9.83333333 L8.343875,9.83333333 C7.54266667,9.83333333 6.8436875,9.28908333 6.64725,8.51208333 L6.02279167,6.04166667 L4.47375,6.04166667 C4.334625,6.86897917 3.61683333,7.5 2.75,7.5 C1.7835625,7.5 1,6.7164375 1,5.75 C1,4.7835625 1.7835625,4 2.75,4 C3.61683333,4 4.334625,4.63102083 4.47375,5.45833333 L10.625,5.45833333 C10.786,5.45833333 10.9166667,5.58885417 10.9166667,5.75 C10.9166667,5.911 10.786,6.04166667 10.625,6.04166667 L6.6245,6.04166667 L7.2129375,8.36916667 C7.34375,8.88716667 7.8096875,9.25 8.343875,9.25 L11.52625,9.25 C11.665375,8.42254167 12.3831667,7.79166667 13.25,7.79166667 C14.2164375,7.79166667 15,8.57508333 15,9.54166667" id="Fill-1" fill="#A5A4A4"></path>
        </g>
        <g id="Group-4" opacity="0.75" transform="translate(60.000000, 150.000000)" fill-rule="nonzero">
            <rect id="Rectangle" fill="#F5A623" opacity="0" x="0" y="0" width="16" height="16"></rect>
            <path d="M13.1041667,10.8541667 C12.3792292,10.8541667 11.7916667,10.2666042 11.7916667,9.54166667 C11.7916667,8.81672917 12.3792292,8.22916667 13.1041667,8.22916667 C13.8291042,8.22916667 14.4166667,8.81672917 14.4166667,9.54166667 C14.4166667,10.2666042 13.8291042,10.8541667 13.1041667,10.8541667 M13.1041667,7.64583333 C12.1565417,7.64583333 11.3737083,8.34175 11.233125,9.25 L8.343875,9.25 C7.8096875,9.25 7.34375,8.88716667 7.2129375,8.36916667 L6.6245,6.04166667 L10.625,6.04166667 C10.786,6.04166667 10.9166667,5.911 10.9166667,5.75 C10.9166667,5.58885417 10.786,5.45833333 10.625,5.45833333 L4.47375,5.45833333 C4.334625,4.63102083 3.61683333,4 2.75,4 C1.7835625,4 1,4.7835625 1,5.75 C1,6.7164375 1.7835625,7.5 2.75,7.5 C3.61683333,7.5 4.334625,6.86897917 4.47375,6.04166667 L6.02279167,6.04166667 L6.64725,8.51208333 C6.8436875,9.28908333 7.54266667,9.83333333 8.343875,9.83333333 L11.233125,9.83333333 C11.3737083,10.7415833 12.1565417,11.4375 13.1041667,11.4375 C14.15125,11.4375 15,10.58875 15,9.54166667 C15,8.49458333 14.15125,7.64583333 13.1041667,7.64583333" id="Fill-1" fill="#A5A4A4"></path>
        </g>
        <g id="Group-3" transform="translate(90.000000, 150.000000)" fill-rule="nonzero">
            <rect id="Rectangle-2" fill="#FFFFFF" opacity="0" x="0" y="0" width="16" height="16"></rect>
            <g id="whole-branch-copy-15" transform="translate(2.000000, 2.000000)" fill="#666768">
                <path d="M9.0853529,10 L7.5,10 C6.11928813,10 5,8.8807119 5,7.5 L5,6 L2.91464715,6 C2.70872894,6.58259619 2.15310941,7 1.5,7 C0.67157288,7 0,6.32842712 0,5.5 C0,4.67157288 0.67157288,4 1.5,4 C2.15310941,4 2.70872894,4.41740381 2.91464715,5 L5,5 L5,3.5 C5,2.11928813 6.11928813,1 7.5,1 L9.0853529,1 C9.2912711,0.41740381 9.8468906,0 10.5,0 C11.3284271,0 12,0.67157288 12,1.5 C12,2.32842712 11.3284271,3 10.5,3 C9.8468906,3 9.2912711,2.58259619 9.0853529,2 L7.5,2 C6.67157288,2 6,2.67157288 6,3.5 L6,5 L9.0853529,5 C9.2912711,4.41740381 9.8468906,4 10.5,4 C11.3284271,4 12,4.67157288 12,5.5 C12,6.32842712 11.3284271,7 10.5,7 C9.8468906,7 9.2912711,6.58259619 9.0853529,6 L6,6 L6,7.5 C6,8.3284271 6.67157288,9 7.5,9 L9.0853529,9 C9.2912711,8.4174038 9.8468906,8 10.5,8 C11.3284271,8 12,8.6715729 12,9.5 C12,10.3284271 11.3284271,11 10.5,11 C9.8468906,11 9.2912711,10.5825962 9.0853529,10 Z" id="Combined-Shape"></path>
            </g>
        </g>
        <g id="Group-3-Copy" transform="translate(150.000000, 150.000000)" fill-rule="nonzero">
            <rect id="Rectangle-2" fill="#FFFFFF" opacity="0" x="0" y="0" width="16" height="16"></rect>
            <g id="whole-branch-copy-15" opacity="0.35" transform="translate(2.000000, 2.000000)" fill="#666768">
                <path d="M9.0853529,10 L7.5,10 C6.11928813,10 5,8.8807119 5,7.5 L5,6 L2.91464715,6 C2.70872894,6.58259619 2.15310941,7 1.5,7 C0.67157288,7 0,6.32842712 0,5.5 C0,4.67157288 0.67157288,4 1.5,4 C2.15310941,4 2.70872894,4.41740381 2.91464715,5 L5,5 L5,3.5 C5,2.11928813 6.11928813,1 7.5,1 L9.0853529,1 C9.2912711,0.41740381 9.8468906,0 10.5,0 C11.3284271,0 12,0.67157288 12,1.5 C12,2.32842712 11.3284271,3 10.5,3 C9.8468906,3 9.2912711,2.58259619 9.0853529,2 L7.5,2 C6.67157288,2 6,2.67157288 6,3.5 L6,5 L9.0853529,5 C9.2912711,4.41740381 9.8468906,4 10.5,4 C11.3284271,4 12,4.67157288 12,5.5 C12,6.32842712 11.3284271,7 10.5,7 C9.8468906,7 9.2912711,6.58259619 9.0853529,6 L6,6 L6,7.5 C6,8.3284271 6.67157288,9 7.5,9 L9.0853529,9 C9.2912711,8.4174038 9.8468906,8 10.5,8 C11.3284271,8 12,8.6715729 12,9.5 C12,10.3284271 11.3284271,11 10.5,11 C9.8468906,11 9.2912711,10.5825962 9.0853529,10 Z" id="Combined-Shape"></path>
            </g>
        </g>
        <g id="Group-2" transform="translate(120.000000, 150.000000)" fill-rule="nonzero">
            <rect id="Rectangle-2-Copy" fill="#FFFFFF" opacity="0" x="0" y="0" width="16" height="16"></rect>
            <g id="whole-branch-copy-12" transform="translate(2.000000, 2.000000)" fill="#666768">
                <g id="Group">
                    <g id="Combined-Shape" transform="translate(0.000000, 8.000000)">
                        <g id="path-1-link">
                            <path d="M1.71467738,0.07805778 L5.67812737,1.70633868 C6.2029584,1.92195193 6.7970416,1.92195193 7.32187263,1.70633868 L11.2853226,0.07805778 C11.407055,0.02804718 11.543596,0.02804718 11.6653284,0.07805778 L12.6837348,0.49644369 C12.9485143,0.6052215 13.0711693,0.89916096 12.9576923,1.15297586 C12.9049329,1.2709833 12.8068401,1.3650141 12.6837348,1.41558872 L6.91093632,3.7871937 C6.6485208,3.8950003 6.3514792,3.8950003 6.08906368,3.7871937 L0.316265216,1.41558872 C0.0514857117,1.30681091 -0.0711692591,1.01287145 0.0423076715,0.75905656 C0.095067074,0.64104912 0.193159944,0.54701831 0.316265216,0.49644369 L1.33467159,0.07805778 C1.45640396,0.02804718 1.59294501,0.02804718 1.71467738,0.07805778 Z" id="path-1"></path>
                        </g>
                    </g>
                    <path d="M5.67812737,6.70633868 C6.2029584,6.92195193 6.7970416,6.92195193 7.32187263,6.70633868 L11.2853226,5.07805778 C11.407055,5.02804718 11.543596,5.02804718 11.6653284,5.07805778 L12.6837348,5.49644369 C12.9485143,5.6052215 13.0711693,5.89916096 12.9576923,6.15297586 C12.9049329,6.2709833 12.8068401,6.3650141 12.6837348,6.41558872 L6.91093632,8.78719365 C6.6485208,8.89500028 6.3514792,8.89500028 6.08906368,8.78719365 L0.316265216,6.41558872 C0.0514857117,6.30681091 -0.0711692591,6.01287145 0.0423076715,5.75905656 C0.095067074,5.64104912 0.193159944,5.54701831 0.316265216,5.49644369 L1.33467159,5.07805778 C1.45640396,5.02804718 1.59294501,5.02804718 1.71467738,5.07805778 L5.67812737,6.70633868 Z" id="Combined-Shape"></path>
                    <path d="M6.61400174,4.77723016 L10.9289852,3.00453082 C10.9800706,2.98354368 11.0044702,2.9251173 10.983483,2.87403183 C10.9733283,2.84931399 10.953703,2.82968869 10.9289852,2.819534 L6.61400174,1.04683467 C6.54096232,1.01682831 6.45903768,1.01682831 6.38599826,1.04683467 L2.07101481,2.819534 C2.01992935,2.84052114 1.99552984,2.89894753 2.01651698,2.95003299 C2.02667167,2.97475083 2.04629697,2.99437614 2.07101481,3.00453082 L6.38599826,4.77723016 C6.45903768,4.80723652 6.54096232,4.80723652 6.61400174,4.77723016 Z M0.316265216,2.4524599 L6.08906368,0.08085497 C6.3514792,-0.0269516567 6.6485208,-0.0269516567 6.91093632,0.08085497 L12.6837348,2.4524599 C12.9485143,2.56123771 13.0711693,2.85517717 12.9576923,3.10899206 C12.9049329,3.2269995 12.8068401,3.32103031 12.6837348,3.37160493 L6.91093632,5.74320986 C6.6485208,5.85101648 6.3514792,5.85101648 6.08906368,5.74320986 L0.316265216,3.37160493 C0.0514857117,3.26282712 -0.0711692591,2.96888766 0.0423076715,2.71507276 C0.095067074,2.59706532 0.193159944,2.50303452 0.316265216,2.4524599 Z" id="Rectangle-2-Copy-5"></path>
                </g>
            </g>
        </g>
        <g id="Group-2-Copy" transform="translate(180.000000, 150.000000)" fill-rule="nonzero">
            <rect id="Rectangle-2-Copy" fill="#FFFFFF" opacity="0" x="0" y="0" width="16" height="16"></rect>
            <g id="whole-branch-copy-12" opacity="0.35" transform="translate(2.000000, 2.000000)" fill="#666768">
                <g id="Group">
                    <g id="Combined-Shape" transform="translate(0.000000, 8.000000)">
                        <g id="path-1-link">
                            <path d="M1.71467738,0.07805778 L5.67812737,1.70633868 C6.2029584,1.92195193 6.7970416,1.92195193 7.32187263,1.70633868 L11.2853226,0.07805778 C11.407055,0.02804718 11.543596,0.02804718 11.6653284,0.07805778 L12.6837348,0.49644369 C12.9485143,0.6052215 13.0711693,0.89916096 12.9576923,1.15297586 C12.9049329,1.2709833 12.8068401,1.3650141 12.6837348,1.41558872 L6.91093632,3.7871937 C6.6485208,3.8950003 6.3514792,3.8950003 6.08906368,3.7871937 L0.316265216,1.41558872 C0.0514857117,1.30681091 -0.0711692591,1.01287145 0.0423076715,0.75905656 C0.095067074,0.64104912 0.193159944,0.54701831 0.316265216,0.49644369 L1.33467159,0.07805778 C1.45640396,0.02804718 1.59294501,0.02804718 1.71467738,0.07805778 Z" id="path-1"></path>
                        </g>
                    </g>
                    <path d="M5.67812737,6.70633868 C6.2029584,6.92195193 6.7970416,6.92195193 7.32187263,6.70633868 L11.2853226,5.07805778 C11.407055,5.02804718 11.543596,5.02804718 11.6653284,5.07805778 L12.6837348,5.49644369 C12.9485143,5.6052215 13.0711693,5.89916096 12.9576923,6.15297586 C12.9049329,6.2709833 12.8068401,6.3650141 12.6837348,6.41558872 L6.91093632,8.78719365 C6.6485208,8.89500028 6.3514792,8.89500028 6.08906368,8.78719365 L0.316265216,6.41558872 C0.0514857117,6.30681091 -0.0711692591,6.01287145 0.0423076715,5.75905656 C0.095067074,5.64104912 0.193159944,5.54701831 0.316265216,5.49644369 L1.33467159,5.07805778 C1.45640396,5.02804718 1.59294501,5.02804718 1.71467738,5.07805778 L5.67812737,6.70633868 Z" id="Combined-Shape"></path>
                    <path d="M6.61400174,4.77723016 L10.9289852,3.00453082 C10.9800706,2.98354368 11.0044702,2.9251173 10.983483,2.87403183 C10.9733283,2.84931399 10.953703,2.82968869 10.9289852,2.819534 L6.61400174,1.04683467 C6.54096232,1.01682831 6.45903768,1.01682831 6.38599826,1.04683467 L2.07101481,2.819534 C2.01992935,2.84052114 1.99552984,2.89894753 2.01651698,2.95003299 C2.02667167,2.97475083 2.04629697,2.99437614 2.07101481,3.00453082 L6.38599826,4.77723016 C6.45903768,4.80723652 6.54096232,4.80723652 6.61400174,4.77723016 Z M0.316265216,2.4524599 L6.08906368,0.08085497 C6.3514792,-0.0269516567 6.6485208,-0.0269516567 6.91093632,0.08085497 L12.6837348,2.4524599 C12.9485143,2.56123771 13.0711693,2.85517717 12.9576923,3.10899206 C12.9049329,3.2269995 12.8068401,3.32103031 12.6837348,3.37160493 L6.91093632,5.74320986 C6.6485208,5.85101648 6.3514792,5.85101648 6.08906368,5.74320986 L0.316265216,3.37160493 C0.0514857117,3.26282712 -0.0711692591,2.96888766 0.0423076715,2.71507276 C0.095067074,2.59706532 0.193159944,2.50303452 0.316265216,2.4524599 Z" id="Rectangle-2-Copy-5"></path>
                </g>
            </g>
        </g>
        <g id="pressed/focus:-from" transform="translate(0.000000, 133.000000)" fill="#444649" font-family="Helvetica" font-size="9" font-weight="normal">
            <g id="Group">
                <text id="symbol-icons:-from-(0,150)-space-between-each-icon-is-30">
                    <tspan x="0" y="9">symbol icons: from (0,150) space between each icon is 30</tspan>
                </text>
            </g>
        </g>
    </g>
</svg>