<?xml version="1.0" encoding="UTF-8" standalone="no"?>
<svg xmlns="http://www.w3.org/2000/svg" height="677px" width="1500px" version="1.1" xmlns:xlink="http://www.w3.org/1999/xlink" viewBox="0 0 1500 677"><!-- Generator: Sketch 51.2 (57519) - http://www.bohemiancoding.com/sketch -->
 <title>illustration - in use</title>
 <desc>Created with Sketch.</desc>
 <defs>
  <rect id="path-1" y="0" x="0" height="58" width="72"/>
  <filter id="filter-2" height="120.7%" width="116.7%" y="-10.3%" x="-8.3%" filterUnits="objectBoundingBox">
   <feOffset in="SourceAlpha" result="shadowOffsetOuter1" dx="0" dy="0"/>
   <feGaussianBlur stdDeviation="2" result="shadowBlurOuter1" in="shadowOffsetOuter1"/>
   <feColorMatrix type="matrix" values="0 0 0 0 0.266666667   0 0 0 0 0.274509804   0 0 0 0 0.28627451  0 0 0 0.165449502 0" in="shadowBlurOuter1"/>
  </filter>
  <rect id="path-3" y=".29624" x=".74649" height="28" width="28"/>
  <filter id="filter-4" height="135.7%" width="135.7%" y="-14.3%" x="-17.9%" filterUnits="objectBoundingBox">
   <feOffset in="SourceAlpha" result="shadowOffsetOuter1" dx="0" dy="1"/>
   <feGaussianBlur stdDeviation="1.5" result="shadowBlurOuter1" in="shadowOffsetOuter1"/>
   <feColorMatrix type="matrix" values="0 0 0 0 0.266666667   0 0 0 0 0.274509804   0 0 0 0 0.28627451  0 0 0 0.15 0" in="shadowBlurOuter1"/>
  </filter>
  <rect id="path-5" y="0" x="0" height="28" width="28"/>
  <filter id="filter-6" height="135.7%" width="135.7%" y="-14.3%" x="-17.9%" filterUnits="objectBoundingBox">
   <feOffset in="SourceAlpha" result="shadowOffsetOuter1" dx="0" dy="1"/>
   <feGaussianBlur stdDeviation="1.5" result="shadowBlurOuter1" in="shadowOffsetOuter1"/>
   <feColorMatrix type="matrix" values="0 0 0 0 0.266666667   0 0 0 0 0.274509804   0 0 0 0 0.28627451  0 0 0 0.15 0" in="shadowBlurOuter1"/>
  </filter>
  <rect id="path-7" y="0" x="0" height="14" width="60"/>
  <filter id="filter-8" height="150%" width="111.7%" y="-17.9%" x="-5.8%" filterUnits="objectBoundingBox">
   <feOffset in="SourceAlpha" result="shadowOffsetOuter1" dx="0" dy="1"/>
   <feGaussianBlur stdDeviation="1" result="shadowBlurOuter1" in="shadowOffsetOuter1"/>
   <feColorMatrix type="matrix" values="0 0 0 0 0.266666667   0 0 0 0 0.274509804   0 0 0 0 0.28627451  0 0 0 0.15 0" in="shadowBlurOuter1"/>
  </filter>
  <rect id="path-9" y="0" x="0" height="58" width="72"/>
  <filter id="filter-10" height="120.7%" width="116.7%" y="-10.3%" x="-8.3%" filterUnits="objectBoundingBox">
   <feOffset in="SourceAlpha" result="shadowOffsetOuter1" dx="0" dy="0"/>
   <feGaussianBlur stdDeviation="2" result="shadowBlurOuter1" in="shadowOffsetOuter1"/>
   <feColorMatrix type="matrix" values="0 0 0 0 0.266666667   0 0 0 0 0.274509804   0 0 0 0 0.28627451  0 0 0 0.165449502 0" in="shadowBlurOuter1"/>
  </filter>
  <rect id="path-11" y="0" x="0" height="58" width="72"/>
  <filter id="filter-12" height="120.7%" width="116.7%" y="-10.3%" x="-8.3%" filterUnits="objectBoundingBox">
   <feOffset in="SourceAlpha" result="shadowOffsetOuter1" dx="0" dy="0"/>
   <feGaussianBlur stdDeviation="2" result="shadowBlurOuter1" in="shadowOffsetOuter1"/>
   <feComposite operator="out" result="shadowBlurOuter1" in2="SourceAlpha" in="shadowBlurOuter1"/>
   <feColorMatrix type="matrix" values="0 0 0 0 0.266666667   0 0 0 0 0.274509804   0 0 0 0 0.28627451  0 0 0 0.165449502 0" in="shadowBlurOuter1"/>
  </filter>
  <rect id="path-13" y=".29624" x=".74649" height="28" width="28"/>
  <filter id="filter-14" height="135.7%" width="135.7%" y="-14.3%" x="-17.9%" filterUnits="objectBoundingBox">
   <feOffset in="SourceAlpha" result="shadowOffsetOuter1" dx="0" dy="1"/>
   <feGaussianBlur stdDeviation="1.5" result="shadowBlurOuter1" in="shadowOffsetOuter1"/>
   <feColorMatrix type="matrix" values="0 0 0 0 0.266666667   0 0 0 0 0.274509804   0 0 0 0 0.28627451  0 0 0 0.15 0" in="shadowBlurOuter1"/>
  </filter>
  <rect id="path-15" y="0" x="0" height="28" width="28"/>
  <filter id="filter-16" height="135.7%" width="135.7%" y="-14.3%" x="-17.9%" filterUnits="objectBoundingBox">
   <feOffset in="SourceAlpha" result="shadowOffsetOuter1" dx="0" dy="1"/>
   <feGaussianBlur stdDeviation="1.5" result="shadowBlurOuter1" in="shadowOffsetOuter1"/>
   <feColorMatrix type="matrix" values="0 0 0 0 0.266666667   0 0 0 0 0.274509804   0 0 0 0 0.28627451  0 0 0 0.15 0" in="shadowBlurOuter1"/>
  </filter>
  <rect id="path-17" y="0" x="0" height="14" width="60"/>
  <filter id="filter-18" height="150%" width="111.7%" y="-17.9%" x="-5.8%" filterUnits="objectBoundingBox">
   <feOffset in="SourceAlpha" result="shadowOffsetOuter1" dx="0" dy="1"/>
   <feGaussianBlur stdDeviation="1" result="shadowBlurOuter1" in="shadowOffsetOuter1"/>
   <feColorMatrix type="matrix" values="0 0 0 0 0.266666667   0 0 0 0 0.274509804   0 0 0 0 0.28627451  0 0 0 0.15 0" in="shadowBlurOuter1"/>
  </filter>
  <rect id="path-19" y="0" x="0" height="58" width="72"/>
  <filter id="filter-20" height="120.7%" width="116.7%" y="-10.3%" x="-8.3%" filterUnits="objectBoundingBox">
   <feOffset in="SourceAlpha" result="shadowOffsetOuter1" dx="0" dy="0"/>
   <feGaussianBlur stdDeviation="2" result="shadowBlurOuter1" in="shadowOffsetOuter1"/>
   <feComposite operator="out" result="shadowBlurOuter1" in2="SourceAlpha" in="shadowBlurOuter1"/>
   <feColorMatrix type="matrix" values="0 0 0 0 0.266666667   0 0 0 0 0.274509804   0 0 0 0 0.28627451  0 0 0 0.165449502 0" in="shadowBlurOuter1"/>
  </filter>
  <circle id="path-21" cy="56" cx="56" r="56"/>
  <path id="path-23" d="m56 112c30.928 0 56-25.072 56-56s-25.072-56-56-56-56 25.072-56 56 25.072 56 56 56z"/>
  <mask id="mask-24" maskContentUnits="userSpaceOnUse" height="112" width="112" y="0" x="0" maskUnits="objectBoundingBox" fill="white">
   <use xlink:href="#path-23"/>
  </mask>
  <path id="path-25" d="m56 112c30.928 0 56-25.072 56-56s-25.072-56-56-56-56 25.072-56 56 25.072 56 56 56z"/>
  <mask id="mask-26" maskContentUnits="userSpaceOnUse" height="112" width="112" y="0" x="0" maskUnits="objectBoundingBox" fill="white">
   <use xlink:href="#path-25"/>
  </mask>
  <path id="path-27" d="m56.004 112c30.928 0 55.996-25.072 55.996-56s-25.068-56-55.996-56-56 25.072-56 56c0.000119 30.928 25.072 56 56 56z"/>
  <mask id="mask-28" maskContentUnits="userSpaceOnUse" height="112" width="112" y="0" x="0" maskUnits="objectBoundingBox" fill="white">
   <use xlink:href="#path-27"/>
  </mask>
 </defs>
 <g id="illustration---in-use" fill-rule="evenodd" fill="none">
  <g id="Card" transform="translate(96 6)">
   <g id="Rectangle-4">
    <use filter="url(#filter-2)" xlink:href="#path-1" fill="black"/>
    <use xlink:href="#path-1" fill-rule="evenodd" fill="#F1F1F1"/>
   </g>
   <g id="Pie" style="mix-blend-mode:luminosity" transform="translate(5.2535 24.704)">
    <g id="Rectangle-4" transform="translate(14.746 14.296) rotate(90) translate(-14.746 -14.296)">
     <use filter="url(#filter-4)" xlink:href="#path-3" fill="black"/>
     <use xlink:href="#path-3" fill-rule="evenodd" fill="#FFFFFF"/>
    </g>
    <path id="Combined-Shape" fill="#3B92ED" d="m9.6 21.453l5.557-7.457v-8.996c4.918 0.1967 8.843 4.1492 8.843 8.996 0 4.973-4.131 9.004-9.227 9.004-1.917 0-3.698-0.571-5.173-1.547z"/>
    <path id="Combined-Shape" fill="#E5E5E5" d="m10.022 21.195c-1.9847-1.209-3.4547-3.153-4.0132-5.445l9.9912-2.06-5.978 7.505z"/>
    <path id="Combined-Shape" fill="#B6DAFF" d="m6.2346 15.498c-0.1535-0.626-0.2346-1.278-0.2346-1.948 0-4.722 4.029-8.55 9-8.55 0.151 0 0.301 0.0035 0.45 0.0105v8.7005l-9.2154 1.787z"/>
    <polyline id="Path-3" stroke="#fff" points="15.45 5 15.45 14.066 9.6 21.5"/>
    <path id="Path-4" opacity="0.9" stroke="#fff" stroke-width=".7" d="m15.375 13.69l-10.128 2.106"/>
   </g>
   <g id="bar" style="mix-blend-mode:luminosity" transform="translate(38 25)">
    <g id="Rectangle-4">
     <use filter="url(#filter-6)" xlink:href="#path-5" fill="black"/>
     <use xlink:href="#path-5" fill-rule="evenodd" fill="#FFFFFF"/>
    </g>
    <rect id="Rectangle-142" height="13" width="2" y="10" x="9" fill="#3D88D7"/>
    <rect id="Rectangle-142" height="18" width="2" y="5" x="5" fill="#3D88D7"/>
    <rect id="Rectangle-142" height="9" width="2" y="14" x="13" fill="#86BBF4"/>
    <rect id="Rectangle-142" height="9" width="2" y="14" x="17" fill="#B6DAFF"/>
    <rect id="Rectangle-142" height="7" width="2" y="16" x="21" fill="#B6DAFF"/>
   </g>
   <g id="text-box" transform="translate(6 6)">
    <g id="Rectangle-4">
     <use filter="url(#filter-8)" xlink:href="#path-7" fill="black"/>
     <use xlink:href="#path-7" fill-rule="evenodd" fill="#FFFFFF"/>
    </g>
    <rect id="Rectangle-9" height="2" width="18" y="3" x="3" fill="#D3D3D3"/>
    <rect id="Rectangle-9" height="2" width="53" y="7" x="3" fill="#EAEAEA"/>
    <rect id="Rectangle-9-Copy" height="2" width="39" y="10" x="3" fill="#EAEAEA"/>
   </g>
  </g>
  <g id="Flat" transform="translate(6 6)">
   <g id="Rectangle-4">
    <use filter="url(#filter-10)" xlink:href="#path-9" fill="black"/>
    <use xlink:href="#path-9" fill-rule="evenodd" fill="#FFFFFF"/>
   </g>
   <g id="Pie" style="mix-blend-mode:luminosity" transform="translate(5.2535 24.704)">
    <rect id="Rectangle-4" transform="translate(14.746 14.296) rotate(90) translate(-14.746 -14.296)" height="28" width="28" y=".29624" x=".74649" fill="#fff"/>
    <path id="Combined-Shape" fill="#3B92ED" d="m9.6 21.453l5.557-7.457v-8.996c4.918 0.1967 8.843 4.1492 8.843 8.996 0 4.973-4.131 9.004-9.227 9.004-1.917 0-3.698-0.571-5.173-1.547z"/>
    <path id="Combined-Shape" fill="#E5E5E5" d="m10.022 21.195c-1.9847-1.209-3.4547-3.153-4.0132-5.445l9.9912-2.06-5.978 7.505z"/>
    <path id="Combined-Shape" fill="#B6DAFF" d="m6.2346 15.498c-0.1535-0.626-0.2346-1.278-0.2346-1.948 0-4.722 4.029-8.55 9-8.55 0.151 0 0.301 0.0035 0.45 0.0105v8.7005l-9.2154 1.787z"/>
    <polyline id="Path-3" stroke="#fff" points="15.45 5 15.45 14.066 9.6 21.5"/>
    <path id="Path-4" opacity="0.9" stroke="#fff" stroke-width=".7" d="m15.375 13.69l-10.128 2.106"/>
   </g>
   <g id="bar" style="mix-blend-mode:luminosity" transform="translate(38 25)">
    <rect id="Rectangle-4" height="28" width="28" y="0" x="0" fill="#fff"/>
    <rect id="Rectangle-142" height="13" width="2" y="10" x="9" fill="#3D88D7"/>
    <rect id="Rectangle-142" height="18" width="2" y="5" x="5" fill="#3D88D7"/>
    <rect id="Rectangle-142" height="9" width="2" y="14" x="13" fill="#86BBF4"/>
    <rect id="Rectangle-142" height="9" width="2" y="14" x="17" fill="#B6DAFF"/>
    <rect id="Rectangle-142" height="7" width="2" y="16" x="21" fill="#B6DAFF"/>
   </g>
   <g id="text-box" transform="translate(6 6)">
    <rect id="Rectangle-4" height="14" width="60" y="0" x="0" fill="#fff"/>
    <rect id="Rectangle-9" height="2" width="18" y="3" x="3" fill="#D3D3D3"/>
    <rect id="Rectangle-9" height="2" width="53" y="7" x="3" fill="#EAEAEA"/>
    <rect id="Rectangle-9-Copy" height="2" width="39" y="10" x="3" fill="#EAEAEA"/>
   </g>
  </g>
  <g id="Card-Copy" transform="translate(276 6)">
   <g id="Rectangle-4">
    <use filter="url(#filter-12)" xlink:href="#path-11" fill="black"/>
    <rect stroke-linejoin="square" fill-rule="evenodd" height="57" width="71" stroke="#3B92ED" y=".5" x=".5" fill="#F1F1F1"/>
   </g>
   <g id="Pie" style="mix-blend-mode:luminosity" transform="translate(5.2535 24.704)">
    <g id="Rectangle-4" transform="translate(14.746 14.296) rotate(90) translate(-14.746 -14.296)">
     <use filter="url(#filter-14)" xlink:href="#path-13" fill="black"/>
     <use xlink:href="#path-13" fill-rule="evenodd" fill="#FFFFFF"/>
    </g>
    <path id="Combined-Shape" fill="#3B92ED" d="m9.6 21.453l5.557-7.457v-8.996c4.918 0.1967 8.843 4.1492 8.843 8.996 0 4.973-4.131 9.004-9.227 9.004-1.917 0-3.698-0.571-5.173-1.547z"/>
    <path id="Combined-Shape" fill="#E5E5E5" d="m10.022 21.195c-1.9847-1.209-3.4547-3.153-4.0132-5.445l9.9912-2.06-5.978 7.505z"/>
    <path id="Combined-Shape" fill="#B6DAFF" d="m6.2346 15.498c-0.1535-0.626-0.2346-1.278-0.2346-1.948 0-4.722 4.029-8.55 9-8.55 0.151 0 0.301 0.0035 0.45 0.0105v8.7005l-9.2154 1.787z"/>
    <polyline id="Path-3" stroke="#fff" points="15.45 5 15.45 14.066 9.6 21.5"/>
    <path id="Path-4" opacity="0.9" stroke="#fff" stroke-width=".7" d="m15.375 13.69l-10.128 2.106"/>
   </g>
   <g id="bar" style="mix-blend-mode:luminosity" transform="translate(38 25)">
    <g id="Rectangle-4">
     <use filter="url(#filter-16)" xlink:href="#path-15" fill="black"/>
     <use xlink:href="#path-15" fill-rule="evenodd" fill="#FFFFFF"/>
    </g>
    <rect id="Rectangle-142" height="13" width="2" y="10" x="9" fill="#3D88D7"/>
    <rect id="Rectangle-142" height="18" width="2" y="5" x="5" fill="#3D88D7"/>
    <rect id="Rectangle-142" height="9" width="2" y="14" x="13" fill="#86BBF4"/>
    <rect id="Rectangle-142" height="9" width="2" y="14" x="17" fill="#B6DAFF"/>
    <rect id="Rectangle-142" height="7" width="2" y="16" x="21" fill="#B6DAFF"/>
   </g>
   <g id="text-box" transform="translate(6 6)">
    <g id="Rectangle-4">
     <use filter="url(#filter-18)" xlink:href="#path-17" fill="black"/>
     <use xlink:href="#path-17" fill-rule="evenodd" fill="#FFFFFF"/>
    </g>
    <rect id="Rectangle-9" height="2" width="18" y="3" x="3" fill="#D3D3D3"/>
    <rect id="Rectangle-9" height="2" width="53" y="7" x="3" fill="#EAEAEA"/>
    <rect id="Rectangle-9-Copy" height="2" width="39" y="10" x="3" fill="#EAEAEA"/>
   </g>
  </g>
  <g id="Flat-Copy" transform="translate(186 6)">
   <g id="Rectangle-4">
    <use filter="url(#filter-20)" xlink:href="#path-19" fill="black"/>
    <rect stroke-linejoin="square" fill-rule="evenodd" height="57" width="71" stroke="#3B92ED" y=".5" x=".5" fill="#fff"/>
   </g>
   <g id="Pie" style="mix-blend-mode:luminosity" transform="translate(5.2535 24.704)">
    <rect id="Rectangle-4" transform="translate(14.746 14.296) rotate(90) translate(-14.746 -14.296)" height="28" width="28" y=".29624" x=".74649" fill="#fff"/>
    <path id="Combined-Shape" fill="#3B92ED" d="m9.6 21.453l5.557-7.457v-8.996c4.918 0.1967 8.843 4.1492 8.843 8.996 0 4.973-4.131 9.004-9.227 9.004-1.917 0-3.698-0.571-5.173-1.547z"/>
    <path id="Combined-Shape" fill="#E5E5E5" d="m10.022 21.195c-1.9847-1.209-3.4547-3.153-4.0132-5.445l9.9912-2.06-5.978 7.505z"/>
    <path id="Combined-Shape" fill="#B6DAFF" d="m6.2346 15.498c-0.1535-0.626-0.2346-1.278-0.2346-1.948 0-4.722 4.029-8.55 9-8.55 0.151 0 0.301 0.0035 0.45 0.0105v8.7005l-9.2154 1.787z"/>
    <polyline id="Path-3" stroke="#fff" points="15.45 5 15.45 14.066 9.6 21.5"/>
    <path id="Path-4" opacity="0.9" stroke="#fff" stroke-width=".7" d="m15.375 13.69l-10.128 2.106"/>
   </g>
   <g id="bar" style="mix-blend-mode:luminosity" transform="translate(38 25)">
    <rect id="Rectangle-4" height="28" width="28" y="0" x="0" fill="#fff"/>
    <rect id="Rectangle-142" height="13" width="2" y="10" x="9" fill="#3D88D7"/>
    <rect id="Rectangle-142" height="18" width="2" y="5" x="5" fill="#3D88D7"/>
    <rect id="Rectangle-142" height="9" width="2" y="14" x="13" fill="#86BBF4"/>
    <rect id="Rectangle-142" height="9" width="2" y="14" x="17" fill="#B6DAFF"/>
    <rect id="Rectangle-142" height="7" width="2" y="16" x="21" fill="#B6DAFF"/>
   </g>
   <g id="text-box" transform="translate(6 6)">
    <rect id="Rectangle-4" height="14" width="60" y="0" x="0" fill="#fff"/>
    <rect id="Rectangle-9" height="2" width="18" y="3" x="3" fill="#D3D3D3"/>
    <rect id="Rectangle-9" height="2" width="53" y="7" x="3" fill="#EAEAEA"/>
    <rect id="Rectangle-9-Copy" height="2" width="39" y="10" x="3" fill="#EAEAEA"/>
   </g>
  </g>
  <g id="Group-2" transform="translate(6 80)">
   <g id="Group-11" opacity="0" style="mix-blend-mode:luminosity" fill="#fff">
    <rect id="Rectangle-4" y="112" x="260" height="234" width="252"/>
    <rect id="Rectangle-4" y="112" x="0" height="234" width="250"/>
    <rect id="Rectangle-4-Copy" y="0" x="0" height="102" width="512"/>
   </g>
   <g id="Pie" transform="translate(78 192)">
    <g id="3-Slices-Pie-Chart" stroke-width="112" transform="translate(56 56) scale(1 -1) translate(-56 -56)">
     <mask id="mask-22" fill="white">
      <use xlink:href="#path-21"/>
     </mask>
     <g id="#161032:55%" mask="url(#mask-22)" stroke="#787A7C" stroke-dasharray="193.6,560">
      <use xlink:href="#path-23" mask="url(#mask-24)"/>
     </g>
     <g id="#FAFF81:30%" mask="url(#mask-22)" transform="translate(56 56) scale(1 -1) rotate(180) translate(-56 -56)" stroke="#B5B7B8" stroke-dasharray="105.6,560">
      <use xlink:href="#path-25" mask="url(#mask-26)"/>
     </g>
     <g id="#FFC53A:15%" mask="url(#mask-22)" transform="translate(56.004 56) scale(1 -1) rotate(72) translate(-56.004 -56)" stroke="#E7E8EA" stroke-dasharray="52.8,560">
      <use xlink:href="#path-27" mask="url(#mask-28)"/>
     </g>
    </g>
    <polyline id="Path-10" stroke="#fff" stroke-width="2" points="56.51 0.011932 56.51 54.857 3 72"/>
    <path id="Path-11" stroke="#fff" stroke-width="2" d="m39 108.65l17.488-53.65"/>
   </g>
   <g id="Group" transform="translate(324 191)">
    <rect id="Rectangle-142" height="78" width="18" y="41" x="33" fill="#787A7C"/>
    <rect id="Rectangle-142" height="120" width="18" y="0" x="0" fill="#787A7C"/>
    <rect id="Rectangle-142" height="73" width="18" y="47" x="67" fill="#B5B7B8"/>
    <rect id="Rectangle-142" height="61" width="18" y="59" x="100" fill="#DFE0E1"/>
    <rect id="Rectangle-142" height="40" width="18" y="80" x="132" fill="#DFE0E1"/>
   </g>
  </g>
  <g id="Group-19-Copy-9" transform="translate(480 43)">
   <rect id="Rectangle-146-Copy-7" height="7" width="27" y="0" x="0" fill="#E69912"/>
   <path id="Stroke-3-Copy" stroke="#EBEBEB" d="m0 13.5h27"/>
   <path id="Stroke-5-Copy" stroke="#EBEBEB" d="m0 20.5h27"/>
   <path id="Stroke-1-Copy" stroke="#CA850A" d="m0 6.5h27"/>
   <path id="Line-2" stroke="#EBEBEB" stroke-linecap="square" d="m8.5 7.5v19"/>
   <path id="Line-2-Copy-2" stroke="#CA850A" stroke-linecap="square" d="m8.5 0.5v5"/>
   <path id="Line-2-Copy-3" stroke="#CA850A" stroke-linecap="square" d="m18.5 0.5v5"/>
   <path id="Line-2-Copy" stroke="#EBEBEB" stroke-linecap="square" d="m18.5 7.5v19"/>
  </g>
  <g id="Group-19-Copy-10" transform="translate(450 43)">
   <rect id="Rectangle-146-Copy-7" height="7" width="27" y="0" x="0" fill="#38AE6F"/>
   <path id="Stroke-3-Copy" stroke="#EBEBEB" d="m0 13.5h27"/>
   <path id="Stroke-5-Copy" stroke="#EBEBEB" d="m0 20.5h27"/>
   <path id="Stroke-1-Copy" stroke="#29965D" d="m0 6.5h27"/>
   <path id="Line-2" stroke="#EBEBEB" stroke-linecap="square" d="m8.5 7.5v19"/>
   <path id="Line-2-Copy-2" stroke="#29965D" stroke-linecap="square" d="m8.5 0.5v5"/>
   <path id="Line-2-Copy-3" stroke="#29965D" stroke-linecap="square" d="m18.5 0.5v5"/>
   <path id="Line-2-Copy" stroke="#EBEBEB" stroke-linecap="square" d="m18.5 7.5v19"/>
  </g>
  <g id="Group-19-Copy-11" transform="translate(420 43)">
   <rect id="Rectangle-146-Copy-7" height="7" width="27" y="0" x="0" fill="#193B67"/>
   <path id="Stroke-3-Copy" stroke="#EBEBEB" d="m0 13.5h27"/>
   <path id="Stroke-5-Copy" stroke="#EBEBEB" d="m0 20.5h27"/>
   <path id="Stroke-1-Copy" stroke="#50698B" d="m0 6.5h27"/>
   <path id="Line-2" stroke="#EBEBEB" d="m8.5 7v20"/>
   <path id="Line-2-Copy-2" stroke="#50698B" d="m8.5 0v6"/>
   <path id="Line-2-Copy-3" stroke="#50698B" d="m18.5 0v6"/>
   <path id="Line-2-Copy" stroke="#EBEBEB" d="m18.5 7v20"/>
  </g>
  <g id="Group-19-Copy-12" transform="translate(390 43)">
   <rect id="Rectangle-146-Copy-7" height="6" width="27" y="0" x="0" fill="#1C8DD4"/>
   <path id="Stroke-3-Copy" stroke="#EBEBEB" d="m0 14h27"/>
   <path id="Stroke-5-Copy" stroke="#EBEBEB" d="m0 21h27"/>
   <path id="Stroke-1-Copy" stroke="#187AB8" d="m0 6.5h27"/>
   <path id="Line-2" stroke="#EBEBEB" stroke-linecap="square" d="m9 8v19"/>
   <path id="Line-2-Copy-2" stroke="#187AB8" stroke-linecap="square" d="m9 1v5"/>
   <path id="Line-2-Copy-3" stroke="#187AB8" stroke-linecap="square" d="m19 1v5"/>
   <path id="Line-2-Copy" stroke="#EBEBEB" stroke-linecap="square" d="m19 8v19"/>
  </g>
  <g id="Group-19-Copy-13" transform="translate(360 43)">
   <rect id="Rectangle-146-Copy-7" height="7" width="27" y="0" x="0" fill="#F5F5F5"/>
   <path id="Stroke-3-Copy" stroke="#EBEBEB" d="m0 13.5h27"/>
   <path id="Stroke-5-Copy" stroke="#EBEBEB" d="m0 20.5h27"/>
   <path id="Stroke-1-Copy" stroke="#444649" d="m0 6.5h27" stroke-opacity=".08"/>
   <path id="Line-2" stroke="#EBEBEB" stroke-linecap="square" d="m8.5 7.5v19"/>
   <path id="Line-2-Copy-2" stroke="#444649" stroke-linecap="square" d="m8.5 0.5v5" stroke-opacity=".08"/>
   <path id="Line-2-Copy-3" stroke="#444649" stroke-linecap="square" d="m18.5 0.5v5" stroke-opacity=".08"/>
   <path id="Line-2-Copy" stroke="#EBEBEB" stroke-linecap="square" d="m18.5 7.5v19"/>
  </g>
  <g id="Group-21-Copy-4" transform="translate(361 11)">
   <path id="Stroke-1" stroke="#ABABAB" d="m0 1.5h25"/>
   <path id="Stroke-3" stroke="#EBEBEB" d="m0 8.5h25"/>
   <path id="Stroke-5" stroke="#EBEBEB" d="m0 15.5h25"/>
  </g>
  <g id="Group-21-Copy-5" transform="translate(391 11)">
   <path id="Stroke-1" stroke="#1C8DD4" d="m0 1.5h25"/>
   <path id="Stroke-3" stroke="#EBEBEB" d="m0 8.5h25"/>
   <path id="Stroke-5" stroke="#EBEBEB" d="m0 15.5h25"/>
  </g>
  <g id="Group-21-Copy-6" transform="translate(421 11)">
   <path id="Stroke-1" stroke="#193B67" d="m0 1.5h25"/>
   <path id="Stroke-3" stroke="#EBEBEB" d="m0 8.5h25"/>
   <path id="Stroke-5" stroke="#EBEBEB" d="m0 15.5h25"/>
  </g>
  <g id="Group-21-Copy-7" transform="translate(451 11)">
   <path id="Stroke-1" stroke="#38AE6F" d="m0 1.5h25"/>
   <path id="Stroke-3" stroke="#EBEBEB" d="m0 8.5h25"/>
   <path id="Stroke-5" stroke="#EBEBEB" d="m0 15.5h25"/>
  </g>
  <g id="Group-21-Copy-8" transform="translate(481 11)">
   <path id="Stroke-1" stroke="#E69912" d="m0 1.5h25"/>
   <path id="Stroke-3" stroke="#EBEBEB" d="m0 8.5h25"/>
   <path id="Stroke-5" stroke="#EBEBEB" d="m0 15.5h25"/>
  </g>
 </g>
</svg>
