<?xml version="1.0" encoding="UTF-8" standalone="no"?>
<svg width="353px" height="100px" viewBox="0 0 353 100" version="1.1" xmlns="http://www.w3.org/2000/svg" xmlns:xlink="http://www.w3.org/1999/xlink">
    <!-- Generator: Sketch 40 (33762) - http://www.bohemiancoding.com/sketch -->
    <title>Number Format_Calculation</title>
    <desc>Created with Sketch.</desc>
    <defs></defs>
    <g id="Page-1" stroke="none" stroke-width="1" fill="none" fill-rule="evenodd">
        <g id="Number-Format_Calculation">
            <text id="left-top-of-each-ico" font-family=".AppleSystemUIFont" font-size="9" font-weight="normal" fill="#444649">
                <tspan x="0" y="11">left top of each icon(0+30x, 0+30y), each icon 18*18px; x= #column, y=#row</tspan>
            </text>
            <g id="Group-9-Copy" transform="translate(0.000000, 60.000000)">
                <g id="Group-3-Copy">
                    <rect id="Rectangle-Copy" fill="#C2FF6F" opacity="0" x="0" y="0" width="18" height="18"></rect>
                    <path d="M4,11 C4.11975665,12.423314 4.55124349,13.5735204 5.30571041,14.2893289 C6.06017733,15.0051374 7.10803233,15.4099739 8.44930685,15.5038504 L8.44930685,17 L9.50914794,17 L9.50914794,15.5038504 C10.4073228,15.4451776 11.1438152,15.2691617 11.7186472,14.9757976 C12.2934791,14.6824334 12.7515414,14.3480033 13.0928479,13.9724972 C13.4341543,13.5969912 14,12.8323975 14,11.8426843 C14,10.7227314 13.760489,10.0883774 13.5329514,9.71287129 C13.3054137,9.33736519 12.9521369,8.97653272 12.4731103,8.63036304 C11.9940837,8.28419336 11.311481,7.99376722 10.4252818,7.75907591 C10.2576224,7.71213765 10.0989473,7.67106728 9.94925144,7.63586359 C9.79955562,7.60065989 9.65285592,7.56545672 9.49747172,7.53025303 L9.49747172,4.34769234 C9.91632056,4.41474147 10.2636096,4.57902293 10.5510256,4.90759076 C10.8384416,5.23615859 10.9701717,5.54221406 10.9821474,6 L13.5329514,6 C13.4970244,5.40139928 13.3832575,4.96626552 13.1557198,4.52035204 C12.9281822,4.07443855 12.6347828,3.70187168 12.2755128,3.40264026 C11.9162428,3.10340884 11.5000947,2.86872106 11.0270559,2.69856986 C10.5540172,2.52841866 10.0480529,2.41400836 9.49747172,2.35533553 L9.49747172,1 L8.49690989,1 L8.49690989,2.35533553 C7.91040191,2.39053923 7.38946828,2.49321514 6.88649034,2.66336634 C6.38351239,2.83351754 5.94041942,3.07407252 5.55719813,3.3850385 C5.17397684,3.69600449 4.86560808,4.08030574 4.6320826,4.5379538 C4.39855713,4.99560185 4.28179614,5.52364937 4.28179614,6.12211221 C4.28179614,6.70884048 4.38358777,7.19875124 4.58717408,7.59185919 C4.79076039,7.98496713 5.06320269,8.31353003 5.40450916,8.57755776 C5.74581562,8.84158548 6.13202504,9.05280449 6.56314899,9.21122112 C6.99427294,9.36963776 7.43137817,9.50751683 7.87447779,9.62486249 C7.99423444,9.64833162 8.10500769,9.67473399 8.20680084,9.70407041 C8.308594,9.73340682 8.38942853,9.7598092 8.49690989,9.78327833 L8.49690989,13.5 C7.89842625,13.4307697 7.43737005,13.1100129 7.06612442,12.7227723 C6.69487879,12.3355316 6.5208649,11.7075055 6.53284056,11 L4,11 Z M9.49747172,10.0461543 C10.1199994,10.2387023 10.612284,10.452307 10.9011739,10.6869748 C11.1900638,10.9216427 11.3345066,11.2736391 11.3345066,11.7429748 C11.3345066,12.0317968 11.2755503,12.2815037 11.1576361,12.492103 C11.0397219,12.7027024 10.8893834,12.8802049 10.7066164,13.0246159 C10.5238493,13.1690268 10.3175025,13.280342 10.0875697,13.3585646 C9.85763691,13.4367872 9.63655102,13.487932 9.49747172,13.5 L9.49747172,10.0461543 Z M8.49690989,7.29005132 C7.81478117,7.15767459 7.40798313,6.98318061 7.16036322,6.76656414 C6.91274331,6.54994767 6.78893521,6.24307894 6.78893521,5.84594875 C6.78893521,5.59322954 6.83315239,5.37360781 6.92158807,5.18707696 C7.01002376,5.00054611 7.13088404,4.84410323 7.28417256,4.71774362 C7.43746108,4.59138402 7.60843417,4.49811999 7.79709695,4.43794875 C7.98575974,4.37777751 8.18031533,4.34769234 8.49690989,4.34769234 L8.49690989,7.29005132 Z" id="$" fill="#444649"></path>
                </g>
                <g id="Group-3" transform="translate(30.000000, 0.000000)">
                    <rect id="Rectangle-Copy" fill="#C2FF6F" opacity="0" x="0" y="0" width="18" height="18"></rect>
                    <path d="M12,2 L4.00427246,16 L6,16 L14,2 L12,2 Z M3.5,5.5625 C3.5,5.42083262 3.50769223,5.25833425 3.52307692,5.075 C3.53846162,4.89166575 3.58205092,4.72083413 3.65384615,4.5625 C3.72564138,4.40416588 3.83076854,4.27083388 3.96923077,4.1625 C4.107693,4.05416613 4.29999877,4 4.54615385,4 C4.771796,4 4.94871731,4.05833275 5.07692308,4.175 C5.20512885,4.29166725 5.29999969,4.4333325 5.36153846,4.6 C5.42307723,4.7666675 5.46153838,4.93958244 5.47692308,5.11875 C5.49230777,5.29791756 5.5,5.44999937 5.5,5.575 C5.5,5.708334 5.49230777,5.85624919 5.47692308,6.01875 C5.46153838,6.18125081 5.42051315,6.33541594 5.35384615,6.48125 C5.28717915,6.62708406 5.18461608,6.7499995 5.04615385,6.85 C4.90769162,6.9500005 4.720514,7 4.48461538,7 C4.23846031,7 4.04871862,6.9500005 3.91538462,6.85 C3.78205062,6.7499995 3.68461569,6.62708406 3.62307692,6.48125 C3.56153815,6.33541594 3.52564108,6.1791675 3.51538462,6.0125 C3.50512815,5.8458325 3.5,5.695834 3.5,5.5625 L3.5,5.5625 Z M2.12724551,6.92692308 C2.21207627,7.35171153 2.35179543,7.71666514 2.54640719,8.02179487 C2.74101894,8.3269246 2.99550741,8.56623845 3.30988024,8.73974359 C3.62425307,8.91324873 4.01097575,9 4.47005988,9 C4.90918383,9 5.28842156,8.91624015 5.60778443,8.74871795 C5.92714731,8.58119574 6.18912073,8.34786474 6.39371257,8.04871795 C6.59830442,7.74957115 6.7504985,7.39359181 6.8502994,6.98076923 C6.9501003,6.56794665 7,6.11624177 7,5.62564103 C7,5.13504028 6.96008024,4.66837828 6.88023952,4.22564103 C6.8003988,3.78290377 6.66317463,3.39701019 6.46856287,3.06794872 C6.27395112,2.73888724 6.02195763,2.47863344 5.71257485,2.28717949 C5.40319207,2.09572554 5.0139744,2 4.54491018,2 C4.10578623,2 3.7265485,2.09273412 3.40718563,2.27820513 C3.08782275,2.46367614 2.82335434,2.7179471 2.61377246,3.04102564 C2.40419057,3.36410418 2.2495015,3.74102349 2.1497006,4.17179487 C2.0498997,4.60256626 2,5.06324541 2,5.55384615 C2,6.0444469 2.04241475,6.50213463 2.12724551,6.92692308 Z M12.5,12.5625 C12.5,12.4208326 12.5076922,12.2583343 12.5230769,12.075 C12.5384616,11.8916658 12.5820509,11.7208341 12.6538462,11.5625 C12.7256414,11.4041659 12.8307685,11.2708339 12.9692308,11.1625 C13.107693,11.0541661 13.2999988,11 13.5461538,11 C13.771796,11 13.9487173,11.0583327 14.0769231,11.175 C14.2051288,11.2916672 14.2999997,11.4333325 14.3615385,11.6 C14.4230772,11.7666675 14.4615384,11.9395824 14.4769231,12.11875 C14.4923078,12.2979176 14.5,12.4499994 14.5,12.575 C14.5,12.708334 14.4923078,12.8562492 14.4769231,13.01875 C14.4615384,13.1812508 14.4205132,13.3354159 14.3538462,13.48125 C14.2871792,13.6270841 14.1846161,13.7499995 14.0461538,13.85 C13.9076916,13.9500005 13.720514,14 13.4846154,14 C13.2384603,14 13.0487186,13.9500005 12.9153846,13.85 C12.7820506,13.7499995 12.6846157,13.6270841 12.6230769,13.48125 C12.5615382,13.3354159 12.5256411,13.1791675 12.5153846,13.0125 C12.5051282,12.8458325 12.5,12.695834 12.5,12.5625 L12.5,12.5625 Z M11.1272455,13.9269231 C11.2120763,14.3517115 11.3517954,14.7166651 11.5464072,15.0217949 C11.7410189,15.3269246 11.9955074,15.5662384 12.3098802,15.7397436 C12.6242531,15.9132487 13.0109757,16 13.4700599,16 C13.9091838,16 14.2884216,15.9162402 14.6077844,15.7487179 C14.9271473,15.5811957 15.1891207,15.3478647 15.3937126,15.0487179 C15.5983044,14.7495712 15.7504985,14.3935918 15.8502994,13.9807692 C15.9501003,13.5679467 16,13.1162418 16,12.625641 C16,12.1350403 15.9600802,11.6683783 15.8802395,11.225641 C15.8003988,10.7829038 15.6631746,10.3970102 15.4685629,10.0679487 C15.2739511,9.73888724 15.0219576,9.47863344 14.7125749,9.28717949 C14.4031921,9.09572554 14.0139744,9 13.5449102,9 C13.1057862,9 12.7265485,9.09273412 12.4071856,9.27820513 C12.0878228,9.46367614 11.8233543,9.7179471 11.6137725,10.0410256 C11.4041906,10.3641042 11.2495015,10.7410235 11.1497006,11.1717949 C11.0498997,11.6025663 11,12.0632454 11,12.5538462 C11,13.0444469 11.0424147,13.5021346 11.1272455,13.9269231 Z" id="%" fill="#444649"></path>
                </g>
                <g id="Group-3-Copy-2" transform="translate(60.000000, 0.000000)">
                    <rect id="Rectangle-Copy" fill="#C2FF6F" opacity="0" x="0" y="0" width="18" height="18"></rect>
                    <path d="M7,14.5 C7,15.0786158 7,15.6777597 7,16 C8.65685425,16 10,14.6568542 10,13 C9.70947663,13 9.09656069,13 8.49999985,13 C8.5,13.8284271 7.82842713,14.5 7,14.5 Z M7,10 L10,10 L10,13 L7,13 L7,10 Z" id="Combined-Shape" fill="#444649"></path>
                </g>
                <g id="Group-3-Copy-3" transform="translate(90.000000, 0.000000)">
                    <rect id="Rectangle-Copy" fill="#C2FF6F" opacity="0" x="0" y="0" width="18" height="18"></rect>
                    <g id="Group" transform="translate(2.000000, 1.000000)" fill="#444649">
                        <polygon id="Path" points="6 5 6 7 8 7 8 5"></polygon>
                        <path d="M10.5,3.5625 C10.5,3.42083262 10.5076922,3.25833425 10.5230769,3.075 C10.5384616,2.89166575 10.5820509,2.72083413 10.6538462,2.5625 C10.7256414,2.40416588 10.8307685,2.27083388 10.9692308,2.1625 C11.107693,2.05416613 11.2999988,2 11.5461538,2 C11.771796,2 11.9487173,2.05833275 12.0769231,2.175 C12.2051288,2.29166725 12.2999997,2.4333325 12.3615385,2.6 C12.4230772,2.7666675 12.4615384,2.93958244 12.4769231,3.11875 C12.4923078,3.29791756 12.5,3.44999937 12.5,3.575 C12.5,3.708334 12.4923078,3.85624919 12.4769231,4.01875 C12.4615384,4.18125081 12.4205132,4.33541594 12.3538462,4.48125 C12.2871792,4.62708406 12.1846161,4.7499995 12.0461538,4.85 C11.9076916,4.9500005 11.720514,5 11.4846154,5 C11.2384603,5 11.0487186,4.9500005 10.9153846,4.85 C10.7820506,4.7499995 10.6846157,4.62708406 10.6230769,4.48125 C10.5615382,4.33541594 10.5256411,4.1791675 10.5153846,4.0125 C10.5051282,3.8458325 10.5,3.695834 10.5,3.5625 L10.5,3.5625 Z M9.12724551,4.92692308 C9.21207627,5.35171153 9.35179543,5.71666514 9.54640719,6.02179487 C9.74101894,6.3269246 9.99550741,6.56623845 10.3098802,6.73974359 C10.6242531,6.91324873 11.0109757,7 11.4700599,7 C11.9091838,7 12.2884216,6.91624015 12.6077844,6.74871795 C12.9271473,6.58119574 13.1891207,6.34786474 13.3937126,6.04871795 C13.5983044,5.74957115 13.7504985,5.39359181 13.8502994,4.98076923 C13.9501003,4.56794665 14,4.11624177 14,3.62564103 C14,3.13504028 13.9600802,2.66837828 13.8802395,2.22564103 C13.8003988,1.78290377 13.6631746,1.39701019 13.4685629,1.06794872 C13.2739511,0.738887244 13.0219576,0.478633436 12.7125749,0.287179487 C12.4031921,0.0957255385 12.0139744,0 11.5449102,0 C11.1057862,0 10.7265485,0.0927341154 10.4071856,0.278205128 C10.0878228,0.463676141 9.82335434,0.717947103 9.61377246,1.04102564 C9.40419057,1.36410418 9.2495015,1.74102349 9.1497006,2.17179487 C9.0498997,2.60256626 9,3.06324541 9,3.55384615 C9,4.0444469 9.04241475,4.50213463 9.12724551,4.92692308 Z" id=".0"></path>
                        <path d="M4.5,11.5625 C4.5,11.4208326 4.50769223,11.2583343 4.52307692,11.075 C4.53846162,10.8916658 4.58205092,10.7208341 4.65384615,10.5625 C4.72564138,10.4041659 4.83076854,10.2708339 4.96923077,10.1625 C5.107693,10.0541661 5.29999877,10 5.54615385,10 C5.771796,10 5.94871731,10.0583328 6.07692308,10.175 C6.20512885,10.2916672 6.29999969,10.4333325 6.36153846,10.6 C6.42307723,10.7666675 6.46153838,10.9395824 6.47692308,11.11875 C6.49230777,11.2979176 6.5,11.4499994 6.5,11.575 C6.5,11.708334 6.49230777,11.8562492 6.47692308,12.01875 C6.46153838,12.1812508 6.42051315,12.3354159 6.35384615,12.48125 C6.28717915,12.6270841 6.18461608,12.7499995 6.04615385,12.85 C5.90769162,12.9500005 5.720514,13 5.48461538,13 C5.23846031,13 5.04871862,12.9500005 4.91538462,12.85 C4.78205062,12.7499995 4.68461569,12.6270841 4.62307692,12.48125 C4.56153815,12.3354159 4.52564108,12.1791675 4.51538462,12.0125 C4.50512815,11.8458325 4.5,11.695834 4.5,11.5625 L4.5,11.5625 Z M3.12724551,12.9269231 C3.21207627,13.3517115 3.35179543,13.7166651 3.54640719,14.0217949 C3.74101894,14.3269246 3.99550741,14.5662384 4.30988024,14.7397436 C4.62425307,14.9132487 5.01097575,15 5.47005988,15 C5.90918383,15 6.28842156,14.9162402 6.60778443,14.7487179 C6.92714731,14.5811957 7.18912073,14.3478647 7.39371257,14.0487179 C7.59830442,13.7495712 7.7504985,13.3935918 7.8502994,12.9807692 C7.9501003,12.5679467 8,12.1162418 8,11.625641 C8,11.1350403 7.96008024,10.6683783 7.88023952,10.225641 C7.8003988,9.78290377 7.66317463,9.39701019 7.46856287,9.06794872 C7.27395112,8.73888724 7.02195763,8.47863344 6.71257485,8.28717949 C6.40319207,8.09572554 6.0139744,8 5.54491018,8 C5.10578623,8 4.7265485,8.09273412 4.40718563,8.27820513 C4.08782275,8.46367614 3.82335434,8.7179471 3.61377246,9.04102564 C3.40419057,9.36410418 3.2495015,9.74102349 3.1497006,10.1717949 C3.0498997,10.6025663 3,11.0632454 3,11.5538462 C3,12.0444469 3.04241475,12.5021346 3.12724551,12.9269231 Z" id=".0-copy-2"></path>
                        <path d="M10.5,11.5625 C10.5,11.4208326 10.5076922,11.2583343 10.5230769,11.075 C10.5384616,10.8916658 10.5820509,10.7208341 10.6538462,10.5625 C10.7256414,10.4041659 10.8307685,10.2708339 10.9692308,10.1625 C11.107693,10.0541661 11.2999988,10 11.5461538,10 C11.771796,10 11.9487173,10.0583328 12.0769231,10.175 C12.2051288,10.2916672 12.2999997,10.4333325 12.3615385,10.6 C12.4230772,10.7666675 12.4615384,10.9395824 12.4769231,11.11875 C12.4923078,11.2979176 12.5,11.4499994 12.5,11.575 C12.5,11.708334 12.4923078,11.8562492 12.4769231,12.01875 C12.4615384,12.1812508 12.4205132,12.3354159 12.3538462,12.48125 C12.2871792,12.6270841 12.1846161,12.7499995 12.0461538,12.85 C11.9076916,12.9500005 11.720514,13 11.4846154,13 C11.2384603,13 11.0487186,12.9500005 10.9153846,12.85 C10.7820506,12.7499995 10.6846157,12.6270841 10.6230769,12.48125 C10.5615382,12.3354159 10.5256411,12.1791675 10.5153846,12.0125 C10.5051282,11.8458325 10.5,11.695834 10.5,11.5625 L10.5,11.5625 Z M9.12724551,12.9269231 C9.21207627,13.3517115 9.35179543,13.7166651 9.54640719,14.0217949 C9.74101894,14.3269246 9.99550741,14.5662384 10.3098802,14.7397436 C10.6242531,14.9132487 11.0109757,15 11.4700599,15 C11.9091838,15 12.2884216,14.9162402 12.6077844,14.7487179 C12.9271473,14.5811957 13.1891207,14.3478647 13.3937126,14.0487179 C13.5983044,13.7495712 13.7504985,13.3935918 13.8502994,12.9807692 C13.9501003,12.5679467 14,12.1162418 14,11.625641 C14,11.1350403 13.9600802,10.6683783 13.8802395,10.225641 C13.8003988,9.78290377 13.6631746,9.39701019 13.4685629,9.06794872 C13.2739511,8.73888724 13.0219576,8.47863344 12.7125749,8.28717949 C12.4031921,8.09572554 12.0139744,8 11.5449102,8 C11.1057862,8 10.7265485,8.09273412 10.4071856,8.27820513 C10.0878228,8.46367614 9.82335434,8.7179471 9.61377246,9.04102564 C9.40419057,9.36410418 9.2495015,9.74102349 9.1497006,10.1717949 C9.0498997,10.6025663 9,11.0632454 9,11.5538462 C9,12.0444469 9.04241475,12.5021346 9.12724551,12.9269231 Z" id=".0-copy-3"></path>
                        <polygon id=".0-copy" points="0 13 0 15 2 15 2 13"></polygon>
                        <polygon id="Path-2" transform="translate(2.500000, 3.500000) scale(-1, 1) translate(-2.500000, -3.500000) " points="5 3.5 0 0 0 1.5 3 3.5 0 5.5 0 7"></polygon>
                    </g>
                </g>
                <g id="Group-3-Copy-4" transform="translate(120.000000, 0.000000)">
                    <rect id="Rectangle-Copy" fill="#C2FF6F" opacity="0" x="0" y="0" width="18" height="18"></rect>
                    <g id="Group" transform="translate(2.000000, 1.000000)" fill="#444649">
                        <polygon id="Path" points="6 13 6 15 8 15 8 13"></polygon>
                        <path d="M10.5,11.5625 C10.5,11.4208326 10.5076922,11.2583343 10.5230769,11.075 C10.5384616,10.8916658 10.5820509,10.7208341 10.6538462,10.5625 C10.7256414,10.4041659 10.8307685,10.2708339 10.9692308,10.1625 C11.107693,10.0541661 11.2999988,10 11.5461538,10 C11.771796,10 11.9487173,10.0583328 12.0769231,10.175 C12.2051288,10.2916672 12.2999997,10.4333325 12.3615385,10.6 C12.4230772,10.7666675 12.4615384,10.9395824 12.4769231,11.11875 C12.4923078,11.2979176 12.5,11.4499994 12.5,11.575 C12.5,11.708334 12.4923078,11.8562492 12.4769231,12.01875 C12.4615384,12.1812508 12.4205132,12.3354159 12.3538462,12.48125 C12.2871792,12.6270841 12.1846161,12.7499995 12.0461538,12.85 C11.9076916,12.9500005 11.720514,13 11.4846154,13 C11.2384603,13 11.0487186,12.9500005 10.9153846,12.85 C10.7820506,12.7499995 10.6846157,12.6270841 10.6230769,12.48125 C10.5615382,12.3354159 10.5256411,12.1791675 10.5153846,12.0125 C10.5051282,11.8458325 10.5,11.695834 10.5,11.5625 L10.5,11.5625 Z M9.12724551,12.9269231 C9.21207627,13.3517115 9.35179543,13.7166651 9.54640719,14.0217949 C9.74101894,14.3269246 9.99550741,14.5662384 10.3098802,14.7397436 C10.6242531,14.9132487 11.0109757,15 11.4700599,15 C11.9091838,15 12.2884216,14.9162402 12.6077844,14.7487179 C12.9271473,14.5811957 13.1891207,14.3478647 13.3937126,14.0487179 C13.5983044,13.7495712 13.7504985,13.3935918 13.8502994,12.9807692 C13.9501003,12.5679467 14,12.1162418 14,11.625641 C14,11.1350403 13.9600802,10.6683783 13.8802395,10.225641 C13.8003988,9.78290377 13.6631746,9.39701019 13.4685629,9.06794872 C13.2739511,8.73888724 13.0219576,8.47863344 12.7125749,8.28717949 C12.4031921,8.09572554 12.0139744,8 11.5449102,8 C11.1057862,8 10.7265485,8.09273412 10.4071856,8.27820513 C10.0878228,8.46367614 9.82335434,8.7179471 9.61377246,9.04102564 C9.40419057,9.36410418 9.2495015,9.74102349 9.1497006,10.1717949 C9.0498997,10.6025663 9,11.0632454 9,11.5538462 C9,12.0444469 9.04241475,12.5021346 9.12724551,12.9269231 Z" id=".0"></path>
                        <path d="M4.5,3.5625 C4.5,3.42083262 4.50769223,3.25833425 4.52307692,3.075 C4.53846162,2.89166575 4.58205092,2.72083413 4.65384615,2.5625 C4.72564138,2.40416588 4.83076854,2.27083388 4.96923077,2.1625 C5.107693,2.05416613 5.29999877,2 5.54615385,2 C5.771796,2 5.94871731,2.05833275 6.07692308,2.175 C6.20512885,2.29166725 6.29999969,2.4333325 6.36153846,2.6 C6.42307723,2.7666675 6.46153838,2.93958244 6.47692308,3.11875 C6.49230777,3.29791756 6.5,3.44999937 6.5,3.575 C6.5,3.708334 6.49230777,3.85624919 6.47692308,4.01875 C6.46153838,4.18125081 6.42051315,4.33541594 6.35384615,4.48125 C6.28717915,4.62708406 6.18461608,4.7499995 6.04615385,4.85 C5.90769162,4.9500005 5.720514,5 5.48461538,5 C5.23846031,5 5.04871862,4.9500005 4.91538462,4.85 C4.78205062,4.7499995 4.68461569,4.62708406 4.62307692,4.48125 C4.56153815,4.33541594 4.52564108,4.1791675 4.51538462,4.0125 C4.50512815,3.8458325 4.5,3.695834 4.5,3.5625 L4.5,3.5625 Z M3.12724551,4.92692308 C3.21207627,5.35171153 3.35179543,5.71666514 3.54640719,6.02179487 C3.74101894,6.3269246 3.99550741,6.56623845 4.30988024,6.73974359 C4.62425307,6.91324873 5.01097575,7 5.47005988,7 C5.90918383,7 6.28842156,6.91624015 6.60778443,6.74871795 C6.92714731,6.58119574 7.18912073,6.34786474 7.39371257,6.04871795 C7.59830442,5.74957115 7.7504985,5.39359181 7.8502994,4.98076923 C7.9501003,4.56794665 8,4.11624177 8,3.62564103 C8,3.13504028 7.96008024,2.66837828 7.88023952,2.22564103 C7.8003988,1.78290377 7.66317463,1.39701019 7.46856287,1.06794872 C7.27395112,0.738887244 7.02195763,0.478633436 6.71257485,0.287179487 C6.40319207,0.0957255385 6.0139744,0 5.54491018,0 C5.10578623,0 4.7265485,0.0927341154 4.40718563,0.278205128 C4.08782275,0.463676141 3.82335434,0.717947103 3.61377246,1.04102564 C3.40419057,1.36410418 3.2495015,1.74102349 3.1497006,2.17179487 C3.0498997,2.60256626 3,3.06324541 3,3.55384615 C3,4.0444469 3.04241475,4.50213463 3.12724551,4.92692308 Z" id=".0-copy-2"></path>
                        <path d="M10.5,3.5625 C10.5,3.42083262 10.5076922,3.25833425 10.5230769,3.075 C10.5384616,2.89166575 10.5820509,2.72083413 10.6538462,2.5625 C10.7256414,2.40416588 10.8307685,2.27083388 10.9692308,2.1625 C11.107693,2.05416613 11.2999988,2 11.5461538,2 C11.771796,2 11.9487173,2.05833275 12.0769231,2.175 C12.2051288,2.29166725 12.2999997,2.4333325 12.3615385,2.6 C12.4230772,2.7666675 12.4615384,2.93958244 12.4769231,3.11875 C12.4923078,3.29791756 12.5,3.44999937 12.5,3.575 C12.5,3.708334 12.4923078,3.85624919 12.4769231,4.01875 C12.4615384,4.18125081 12.4205132,4.33541594 12.3538462,4.48125 C12.2871792,4.62708406 12.1846161,4.7499995 12.0461538,4.85 C11.9076916,4.9500005 11.720514,5 11.4846154,5 C11.2384603,5 11.0487186,4.9500005 10.9153846,4.85 C10.7820506,4.7499995 10.6846157,4.62708406 10.6230769,4.48125 C10.5615382,4.33541594 10.5256411,4.1791675 10.5153846,4.0125 C10.5051282,3.8458325 10.5,3.695834 10.5,3.5625 L10.5,3.5625 Z M9.12724551,4.92692308 C9.21207627,5.35171153 9.35179543,5.71666514 9.54640719,6.02179487 C9.74101894,6.3269246 9.99550741,6.56623845 10.3098802,6.73974359 C10.6242531,6.91324873 11.0109757,7 11.4700599,7 C11.9091838,7 12.2884216,6.91624015 12.6077844,6.74871795 C12.9271473,6.58119574 13.1891207,6.34786474 13.3937126,6.04871795 C13.5983044,5.74957115 13.7504985,5.39359181 13.8502994,4.98076923 C13.9501003,4.56794665 14,4.11624177 14,3.62564103 C14,3.13504028 13.9600802,2.66837828 13.8802395,2.22564103 C13.8003988,1.78290377 13.6631746,1.39701019 13.4685629,1.06794872 C13.2739511,0.738887244 13.0219576,0.478633436 12.7125749,0.287179487 C12.4031921,0.0957255385 12.0139744,0 11.5449102,0 C11.1057862,0 10.7265485,0.0927341154 10.4071856,0.278205128 C10.0878228,0.463676141 9.82335434,0.717947103 9.61377246,1.04102564 C9.40419057,1.36410418 9.2495015,1.74102349 9.1497006,2.17179487 C9.0498997,2.60256626 9,3.06324541 9,3.55384615 C9,4.0444469 9.04241475,4.50213463 9.12724551,4.92692308 Z" id=".0-copy-3"></path>
                        <polygon id=".0-copy" points="0 5 0 7 2 7 2 5"></polygon>
                        <polygon id="Path-2" points="5 11.5 0 8 0 9.5 3 11.5 0 13.5 0 15"></polygon>
                    </g>
                </g>
            </g>
            <g id="Group-9-Copy-2" opacity="0.7" transform="translate(0.000000, 30.000000)">
                <g id="Group-3-Copy">
                    <rect id="Rectangle-Copy" fill="#C2FF6F" opacity="0" x="0" y="0" width="18" height="18"></rect>
                    <path d="M4,11 C4.11975665,12.423314 4.55124349,13.5735204 5.30571041,14.2893289 C6.06017733,15.0051374 7.10803233,15.4099739 8.44930685,15.5038504 L8.44930685,17 L9.50914794,17 L9.50914794,15.5038504 C10.4073228,15.4451776 11.1438152,15.2691617 11.7186472,14.9757976 C12.2934791,14.6824334 12.7515414,14.3480033 13.0928479,13.9724972 C13.4341543,13.5969912 14,12.8323975 14,11.8426843 C14,10.7227314 13.760489,10.0883774 13.5329514,9.71287129 C13.3054137,9.33736519 12.9521369,8.97653272 12.4731103,8.63036304 C11.9940837,8.28419336 11.311481,7.99376722 10.4252818,7.75907591 C10.2576224,7.71213765 10.0989473,7.67106728 9.94925144,7.63586359 C9.79955562,7.60065989 9.65285592,7.56545672 9.49747172,7.53025303 L9.49747172,4.34769234 C9.91632056,4.41474147 10.2636096,4.57902293 10.5510256,4.90759076 C10.8384416,5.23615859 10.9701717,5.54221406 10.9821474,6 L13.5329514,6 C13.4970244,5.40139928 13.3832575,4.96626552 13.1557198,4.52035204 C12.9281822,4.07443855 12.6347828,3.70187168 12.2755128,3.40264026 C11.9162428,3.10340884 11.5000947,2.86872106 11.0270559,2.69856986 C10.5540172,2.52841866 10.0480529,2.41400836 9.49747172,2.35533553 L9.49747172,1 L8.49690989,1 L8.49690989,2.35533553 C7.91040191,2.39053923 7.38946828,2.49321514 6.88649034,2.66336634 C6.38351239,2.83351754 5.94041942,3.07407252 5.55719813,3.3850385 C5.17397684,3.69600449 4.86560808,4.08030574 4.6320826,4.5379538 C4.39855713,4.99560185 4.28179614,5.52364937 4.28179614,6.12211221 C4.28179614,6.70884048 4.38358777,7.19875124 4.58717408,7.59185919 C4.79076039,7.98496713 5.06320269,8.31353003 5.40450916,8.57755776 C5.74581562,8.84158548 6.13202504,9.05280449 6.56314899,9.21122112 C6.99427294,9.36963776 7.43137817,9.50751683 7.87447779,9.62486249 C7.99423444,9.64833162 8.10500769,9.67473399 8.20680084,9.70407041 C8.308594,9.73340682 8.38942853,9.7598092 8.49690989,9.78327833 L8.49690989,13.5 C7.89842625,13.4307697 7.43737005,13.1100129 7.06612442,12.7227723 C6.69487879,12.3355316 6.5208649,11.7075055 6.53284056,11 L4,11 Z M9.49747172,10.0461543 C10.1199994,10.2387023 10.612284,10.452307 10.9011739,10.6869748 C11.1900638,10.9216427 11.3345066,11.2736391 11.3345066,11.7429748 C11.3345066,12.0317968 11.2755503,12.2815037 11.1576361,12.492103 C11.0397219,12.7027024 10.8893834,12.8802049 10.7066164,13.0246159 C10.5238493,13.1690268 10.3175025,13.280342 10.0875697,13.3585646 C9.85763691,13.4367872 9.63655102,13.487932 9.49747172,13.5 L9.49747172,10.0461543 Z M8.49690989,7.29005132 C7.81478117,7.15767459 7.40798313,6.98318061 7.16036322,6.76656414 C6.91274331,6.54994767 6.78893521,6.24307894 6.78893521,5.84594875 C6.78893521,5.59322954 6.83315239,5.37360781 6.92158807,5.18707696 C7.01002376,5.00054611 7.13088404,4.84410323 7.28417256,4.71774362 C7.43746108,4.59138402 7.60843417,4.49811999 7.79709695,4.43794875 C7.98575974,4.37777751 8.18031533,4.34769234 8.49690989,4.34769234 L8.49690989,7.29005132 Z" id="$" fill="#444649"></path>
                </g>
                <g id="Group-3" transform="translate(30.000000, 0.000000)">
                    <rect id="Rectangle-Copy" fill="#C2FF6F" opacity="0" x="0" y="0" width="18" height="18"></rect>
                    <path d="M12,2 L4.00427246,16 L6,16 L14,2 L12,2 Z M3.5,5.5625 C3.5,5.42083262 3.50769223,5.25833425 3.52307692,5.075 C3.53846162,4.89166575 3.58205092,4.72083413 3.65384615,4.5625 C3.72564138,4.40416588 3.83076854,4.27083388 3.96923077,4.1625 C4.107693,4.05416613 4.29999877,4 4.54615385,4 C4.771796,4 4.94871731,4.05833275 5.07692308,4.175 C5.20512885,4.29166725 5.29999969,4.4333325 5.36153846,4.6 C5.42307723,4.7666675 5.46153838,4.93958244 5.47692308,5.11875 C5.49230777,5.29791756 5.5,5.44999937 5.5,5.575 C5.5,5.708334 5.49230777,5.85624919 5.47692308,6.01875 C5.46153838,6.18125081 5.42051315,6.33541594 5.35384615,6.48125 C5.28717915,6.62708406 5.18461608,6.7499995 5.04615385,6.85 C4.90769162,6.9500005 4.720514,7 4.48461538,7 C4.23846031,7 4.04871862,6.9500005 3.91538462,6.85 C3.78205062,6.7499995 3.68461569,6.62708406 3.62307692,6.48125 C3.56153815,6.33541594 3.52564108,6.1791675 3.51538462,6.0125 C3.50512815,5.8458325 3.5,5.695834 3.5,5.5625 L3.5,5.5625 Z M2.12724551,6.92692308 C2.21207627,7.35171153 2.35179543,7.71666514 2.54640719,8.02179487 C2.74101894,8.3269246 2.99550741,8.56623845 3.30988024,8.73974359 C3.62425307,8.91324873 4.01097575,9 4.47005988,9 C4.90918383,9 5.28842156,8.91624015 5.60778443,8.74871795 C5.92714731,8.58119574 6.18912073,8.34786474 6.39371257,8.04871795 C6.59830442,7.74957115 6.7504985,7.39359181 6.8502994,6.98076923 C6.9501003,6.56794665 7,6.11624177 7,5.62564103 C7,5.13504028 6.96008024,4.66837828 6.88023952,4.22564103 C6.8003988,3.78290377 6.66317463,3.39701019 6.46856287,3.06794872 C6.27395112,2.73888724 6.02195763,2.47863344 5.71257485,2.28717949 C5.40319207,2.09572554 5.0139744,2 4.54491018,2 C4.10578623,2 3.7265485,2.09273412 3.40718563,2.27820513 C3.08782275,2.46367614 2.82335434,2.7179471 2.61377246,3.04102564 C2.40419057,3.36410418 2.2495015,3.74102349 2.1497006,4.17179487 C2.0498997,4.60256626 2,5.06324541 2,5.55384615 C2,6.0444469 2.04241475,6.50213463 2.12724551,6.92692308 Z M12.5,12.5625 C12.5,12.4208326 12.5076922,12.2583343 12.5230769,12.075 C12.5384616,11.8916658 12.5820509,11.7208341 12.6538462,11.5625 C12.7256414,11.4041659 12.8307685,11.2708339 12.9692308,11.1625 C13.107693,11.0541661 13.2999988,11 13.5461538,11 C13.771796,11 13.9487173,11.0583327 14.0769231,11.175 C14.2051288,11.2916672 14.2999997,11.4333325 14.3615385,11.6 C14.4230772,11.7666675 14.4615384,11.9395824 14.4769231,12.11875 C14.4923078,12.2979176 14.5,12.4499994 14.5,12.575 C14.5,12.708334 14.4923078,12.8562492 14.4769231,13.01875 C14.4615384,13.1812508 14.4205132,13.3354159 14.3538462,13.48125 C14.2871792,13.6270841 14.1846161,13.7499995 14.0461538,13.85 C13.9076916,13.9500005 13.720514,14 13.4846154,14 C13.2384603,14 13.0487186,13.9500005 12.9153846,13.85 C12.7820506,13.7499995 12.6846157,13.6270841 12.6230769,13.48125 C12.5615382,13.3354159 12.5256411,13.1791675 12.5153846,13.0125 C12.5051282,12.8458325 12.5,12.695834 12.5,12.5625 L12.5,12.5625 Z M11.1272455,13.9269231 C11.2120763,14.3517115 11.3517954,14.7166651 11.5464072,15.0217949 C11.7410189,15.3269246 11.9955074,15.5662384 12.3098802,15.7397436 C12.6242531,15.9132487 13.0109757,16 13.4700599,16 C13.9091838,16 14.2884216,15.9162402 14.6077844,15.7487179 C14.9271473,15.5811957 15.1891207,15.3478647 15.3937126,15.0487179 C15.5983044,14.7495712 15.7504985,14.3935918 15.8502994,13.9807692 C15.9501003,13.5679467 16,13.1162418 16,12.625641 C16,12.1350403 15.9600802,11.6683783 15.8802395,11.225641 C15.8003988,10.7829038 15.6631746,10.3970102 15.4685629,10.0679487 C15.2739511,9.73888724 15.0219576,9.47863344 14.7125749,9.28717949 C14.4031921,9.09572554 14.0139744,9 13.5449102,9 C13.1057862,9 12.7265485,9.09273412 12.4071856,9.27820513 C12.0878228,9.46367614 11.8233543,9.7179471 11.6137725,10.0410256 C11.4041906,10.3641042 11.2495015,10.7410235 11.1497006,11.1717949 C11.0498997,11.6025663 11,12.0632454 11,12.5538462 C11,13.0444469 11.0424147,13.5021346 11.1272455,13.9269231 Z" id="%" fill="#444649"></path>
                </g>
                <g id="Group-3-Copy-2" transform="translate(60.000000, 0.000000)">
                    <rect id="Rectangle-Copy" fill="#C2FF6F" opacity="0" x="0" y="0" width="18" height="18"></rect>
                    <path d="M7,14.5 C7,15.0786158 7,15.6777597 7,16 C8.65685425,16 10,14.6568542 10,13 C9.70947663,13 9.09656069,13 8.49999985,13 C8.5,13.8284271 7.82842713,14.5 7,14.5 Z M7,10 L10,10 L10,13 L7,13 L7,10 Z" id="Combined-Shape" fill="#444649"></path>
                </g>
                <g id="Group-3-Copy-3" transform="translate(90.000000, 0.000000)">
                    <rect id="Rectangle-Copy" fill="#C2FF6F" opacity="0" x="0" y="0" width="18" height="18"></rect>
                    <g id="Group" transform="translate(2.000000, 1.000000)" fill="#444649">
                        <polygon id="Path" points="6 5 6 7 8 7 8 5"></polygon>
                        <path d="M10.5,3.5625 C10.5,3.42083262 10.5076922,3.25833425 10.5230769,3.075 C10.5384616,2.89166575 10.5820509,2.72083413 10.6538462,2.5625 C10.7256414,2.40416588 10.8307685,2.27083388 10.9692308,2.1625 C11.107693,2.05416613 11.2999988,2 11.5461538,2 C11.771796,2 11.9487173,2.05833275 12.0769231,2.175 C12.2051288,2.29166725 12.2999997,2.4333325 12.3615385,2.6 C12.4230772,2.7666675 12.4615384,2.93958244 12.4769231,3.11875 C12.4923078,3.29791756 12.5,3.44999937 12.5,3.575 C12.5,3.708334 12.4923078,3.85624919 12.4769231,4.01875 C12.4615384,4.18125081 12.4205132,4.33541594 12.3538462,4.48125 C12.2871792,4.62708406 12.1846161,4.7499995 12.0461538,4.85 C11.9076916,4.9500005 11.720514,5 11.4846154,5 C11.2384603,5 11.0487186,4.9500005 10.9153846,4.85 C10.7820506,4.7499995 10.6846157,4.62708406 10.6230769,4.48125 C10.5615382,4.33541594 10.5256411,4.1791675 10.5153846,4.0125 C10.5051282,3.8458325 10.5,3.695834 10.5,3.5625 L10.5,3.5625 Z M9.12724551,4.92692308 C9.21207627,5.35171153 9.35179543,5.71666514 9.54640719,6.02179487 C9.74101894,6.3269246 9.99550741,6.56623845 10.3098802,6.73974359 C10.6242531,6.91324873 11.0109757,7 11.4700599,7 C11.9091838,7 12.2884216,6.91624015 12.6077844,6.74871795 C12.9271473,6.58119574 13.1891207,6.34786474 13.3937126,6.04871795 C13.5983044,5.74957115 13.7504985,5.39359181 13.8502994,4.98076923 C13.9501003,4.56794665 14,4.11624177 14,3.62564103 C14,3.13504028 13.9600802,2.66837828 13.8802395,2.22564103 C13.8003988,1.78290377 13.6631746,1.39701019 13.4685629,1.06794872 C13.2739511,0.738887244 13.0219576,0.478633436 12.7125749,0.287179487 C12.4031921,0.0957255385 12.0139744,0 11.5449102,0 C11.1057862,0 10.7265485,0.0927341154 10.4071856,0.278205128 C10.0878228,0.463676141 9.82335434,0.717947103 9.61377246,1.04102564 C9.40419057,1.36410418 9.2495015,1.74102349 9.1497006,2.17179487 C9.0498997,2.60256626 9,3.06324541 9,3.55384615 C9,4.0444469 9.04241475,4.50213463 9.12724551,4.92692308 Z" id=".0"></path>
                        <path d="M4.5,11.5625 C4.5,11.4208326 4.50769223,11.2583343 4.52307692,11.075 C4.53846162,10.8916658 4.58205092,10.7208341 4.65384615,10.5625 C4.72564138,10.4041659 4.83076854,10.2708339 4.96923077,10.1625 C5.107693,10.0541661 5.29999877,10 5.54615385,10 C5.771796,10 5.94871731,10.0583328 6.07692308,10.175 C6.20512885,10.2916672 6.29999969,10.4333325 6.36153846,10.6 C6.42307723,10.7666675 6.46153838,10.9395824 6.47692308,11.11875 C6.49230777,11.2979176 6.5,11.4499994 6.5,11.575 C6.5,11.708334 6.49230777,11.8562492 6.47692308,12.01875 C6.46153838,12.1812508 6.42051315,12.3354159 6.35384615,12.48125 C6.28717915,12.6270841 6.18461608,12.7499995 6.04615385,12.85 C5.90769162,12.9500005 5.720514,13 5.48461538,13 C5.23846031,13 5.04871862,12.9500005 4.91538462,12.85 C4.78205062,12.7499995 4.68461569,12.6270841 4.62307692,12.48125 C4.56153815,12.3354159 4.52564108,12.1791675 4.51538462,12.0125 C4.50512815,11.8458325 4.5,11.695834 4.5,11.5625 L4.5,11.5625 Z M3.12724551,12.9269231 C3.21207627,13.3517115 3.35179543,13.7166651 3.54640719,14.0217949 C3.74101894,14.3269246 3.99550741,14.5662384 4.30988024,14.7397436 C4.62425307,14.9132487 5.01097575,15 5.47005988,15 C5.90918383,15 6.28842156,14.9162402 6.60778443,14.7487179 C6.92714731,14.5811957 7.18912073,14.3478647 7.39371257,14.0487179 C7.59830442,13.7495712 7.7504985,13.3935918 7.8502994,12.9807692 C7.9501003,12.5679467 8,12.1162418 8,11.625641 C8,11.1350403 7.96008024,10.6683783 7.88023952,10.225641 C7.8003988,9.78290377 7.66317463,9.39701019 7.46856287,9.06794872 C7.27395112,8.73888724 7.02195763,8.47863344 6.71257485,8.28717949 C6.40319207,8.09572554 6.0139744,8 5.54491018,8 C5.10578623,8 4.7265485,8.09273412 4.40718563,8.27820513 C4.08782275,8.46367614 3.82335434,8.7179471 3.61377246,9.04102564 C3.40419057,9.36410418 3.2495015,9.74102349 3.1497006,10.1717949 C3.0498997,10.6025663 3,11.0632454 3,11.5538462 C3,12.0444469 3.04241475,12.5021346 3.12724551,12.9269231 Z" id=".0-copy-2"></path>
                        <path d="M10.5,11.5625 C10.5,11.4208326 10.5076922,11.2583343 10.5230769,11.075 C10.5384616,10.8916658 10.5820509,10.7208341 10.6538462,10.5625 C10.7256414,10.4041659 10.8307685,10.2708339 10.9692308,10.1625 C11.107693,10.0541661 11.2999988,10 11.5461538,10 C11.771796,10 11.9487173,10.0583328 12.0769231,10.175 C12.2051288,10.2916672 12.2999997,10.4333325 12.3615385,10.6 C12.4230772,10.7666675 12.4615384,10.9395824 12.4769231,11.11875 C12.4923078,11.2979176 12.5,11.4499994 12.5,11.575 C12.5,11.708334 12.4923078,11.8562492 12.4769231,12.01875 C12.4615384,12.1812508 12.4205132,12.3354159 12.3538462,12.48125 C12.2871792,12.6270841 12.1846161,12.7499995 12.0461538,12.85 C11.9076916,12.9500005 11.720514,13 11.4846154,13 C11.2384603,13 11.0487186,12.9500005 10.9153846,12.85 C10.7820506,12.7499995 10.6846157,12.6270841 10.6230769,12.48125 C10.5615382,12.3354159 10.5256411,12.1791675 10.5153846,12.0125 C10.5051282,11.8458325 10.5,11.695834 10.5,11.5625 L10.5,11.5625 Z M9.12724551,12.9269231 C9.21207627,13.3517115 9.35179543,13.7166651 9.54640719,14.0217949 C9.74101894,14.3269246 9.99550741,14.5662384 10.3098802,14.7397436 C10.6242531,14.9132487 11.0109757,15 11.4700599,15 C11.9091838,15 12.2884216,14.9162402 12.6077844,14.7487179 C12.9271473,14.5811957 13.1891207,14.3478647 13.3937126,14.0487179 C13.5983044,13.7495712 13.7504985,13.3935918 13.8502994,12.9807692 C13.9501003,12.5679467 14,12.1162418 14,11.625641 C14,11.1350403 13.9600802,10.6683783 13.8802395,10.225641 C13.8003988,9.78290377 13.6631746,9.39701019 13.4685629,9.06794872 C13.2739511,8.73888724 13.0219576,8.47863344 12.7125749,8.28717949 C12.4031921,8.09572554 12.0139744,8 11.5449102,8 C11.1057862,8 10.7265485,8.09273412 10.4071856,8.27820513 C10.0878228,8.46367614 9.82335434,8.7179471 9.61377246,9.04102564 C9.40419057,9.36410418 9.2495015,9.74102349 9.1497006,10.1717949 C9.0498997,10.6025663 9,11.0632454 9,11.5538462 C9,12.0444469 9.04241475,12.5021346 9.12724551,12.9269231 Z" id=".0-copy-3"></path>
                        <polygon id=".0-copy" points="0 13 0 15 2 15 2 13"></polygon>
                        <polygon id="Path-2" transform="translate(2.500000, 3.500000) scale(-1, 1) translate(-2.500000, -3.500000) " points="5 3.5 0 0 0 1.5 3 3.5 0 5.5 0 7"></polygon>
                    </g>
                </g>
                <g id="Group-3-Copy-4" transform="translate(120.000000, 0.000000)">
                    <rect id="Rectangle-Copy" fill="#C2FF6F" opacity="0" x="0" y="0" width="18" height="18"></rect>
                    <g id="Group" transform="translate(2.000000, 1.000000)" fill="#444649">
                        <polygon id="Path" points="6 13 6 15 8 15 8 13"></polygon>
                        <path d="M10.5,11.5625 C10.5,11.4208326 10.5076922,11.2583343 10.5230769,11.075 C10.5384616,10.8916658 10.5820509,10.7208341 10.6538462,10.5625 C10.7256414,10.4041659 10.8307685,10.2708339 10.9692308,10.1625 C11.107693,10.0541661 11.2999988,10 11.5461538,10 C11.771796,10 11.9487173,10.0583328 12.0769231,10.175 C12.2051288,10.2916672 12.2999997,10.4333325 12.3615385,10.6 C12.4230772,10.7666675 12.4615384,10.9395824 12.4769231,11.11875 C12.4923078,11.2979176 12.5,11.4499994 12.5,11.575 C12.5,11.708334 12.4923078,11.8562492 12.4769231,12.01875 C12.4615384,12.1812508 12.4205132,12.3354159 12.3538462,12.48125 C12.2871792,12.6270841 12.1846161,12.7499995 12.0461538,12.85 C11.9076916,12.9500005 11.720514,13 11.4846154,13 C11.2384603,13 11.0487186,12.9500005 10.9153846,12.85 C10.7820506,12.7499995 10.6846157,12.6270841 10.6230769,12.48125 C10.5615382,12.3354159 10.5256411,12.1791675 10.5153846,12.0125 C10.5051282,11.8458325 10.5,11.695834 10.5,11.5625 L10.5,11.5625 Z M9.12724551,12.9269231 C9.21207627,13.3517115 9.35179543,13.7166651 9.54640719,14.0217949 C9.74101894,14.3269246 9.99550741,14.5662384 10.3098802,14.7397436 C10.6242531,14.9132487 11.0109757,15 11.4700599,15 C11.9091838,15 12.2884216,14.9162402 12.6077844,14.7487179 C12.9271473,14.5811957 13.1891207,14.3478647 13.3937126,14.0487179 C13.5983044,13.7495712 13.7504985,13.3935918 13.8502994,12.9807692 C13.9501003,12.5679467 14,12.1162418 14,11.625641 C14,11.1350403 13.9600802,10.6683783 13.8802395,10.225641 C13.8003988,9.78290377 13.6631746,9.39701019 13.4685629,9.06794872 C13.2739511,8.73888724 13.0219576,8.47863344 12.7125749,8.28717949 C12.4031921,8.09572554 12.0139744,8 11.5449102,8 C11.1057862,8 10.7265485,8.09273412 10.4071856,8.27820513 C10.0878228,8.46367614 9.82335434,8.7179471 9.61377246,9.04102564 C9.40419057,9.36410418 9.2495015,9.74102349 9.1497006,10.1717949 C9.0498997,10.6025663 9,11.0632454 9,11.5538462 C9,12.0444469 9.04241475,12.5021346 9.12724551,12.9269231 Z" id=".0"></path>
                        <path d="M4.5,3.5625 C4.5,3.42083262 4.50769223,3.25833425 4.52307692,3.075 C4.53846162,2.89166575 4.58205092,2.72083413 4.65384615,2.5625 C4.72564138,2.40416588 4.83076854,2.27083388 4.96923077,2.1625 C5.107693,2.05416613 5.29999877,2 5.54615385,2 C5.771796,2 5.94871731,2.05833275 6.07692308,2.175 C6.20512885,2.29166725 6.29999969,2.4333325 6.36153846,2.6 C6.42307723,2.7666675 6.46153838,2.93958244 6.47692308,3.11875 C6.49230777,3.29791756 6.5,3.44999937 6.5,3.575 C6.5,3.708334 6.49230777,3.85624919 6.47692308,4.01875 C6.46153838,4.18125081 6.42051315,4.33541594 6.35384615,4.48125 C6.28717915,4.62708406 6.18461608,4.7499995 6.04615385,4.85 C5.90769162,4.9500005 5.720514,5 5.48461538,5 C5.23846031,5 5.04871862,4.9500005 4.91538462,4.85 C4.78205062,4.7499995 4.68461569,4.62708406 4.62307692,4.48125 C4.56153815,4.33541594 4.52564108,4.1791675 4.51538462,4.0125 C4.50512815,3.8458325 4.5,3.695834 4.5,3.5625 L4.5,3.5625 Z M3.12724551,4.92692308 C3.21207627,5.35171153 3.35179543,5.71666514 3.54640719,6.02179487 C3.74101894,6.3269246 3.99550741,6.56623845 4.30988024,6.73974359 C4.62425307,6.91324873 5.01097575,7 5.47005988,7 C5.90918383,7 6.28842156,6.91624015 6.60778443,6.74871795 C6.92714731,6.58119574 7.18912073,6.34786474 7.39371257,6.04871795 C7.59830442,5.74957115 7.7504985,5.39359181 7.8502994,4.98076923 C7.9501003,4.56794665 8,4.11624177 8,3.62564103 C8,3.13504028 7.96008024,2.66837828 7.88023952,2.22564103 C7.8003988,1.78290377 7.66317463,1.39701019 7.46856287,1.06794872 C7.27395112,0.738887244 7.02195763,0.478633436 6.71257485,0.287179487 C6.40319207,0.0957255385 6.0139744,0 5.54491018,0 C5.10578623,0 4.7265485,0.0927341154 4.40718563,0.278205128 C4.08782275,0.463676141 3.82335434,0.717947103 3.61377246,1.04102564 C3.40419057,1.36410418 3.2495015,1.74102349 3.1497006,2.17179487 C3.0498997,2.60256626 3,3.06324541 3,3.55384615 C3,4.0444469 3.04241475,4.50213463 3.12724551,4.92692308 Z" id=".0-copy-2"></path>
                        <path d="M10.5,3.5625 C10.5,3.42083262 10.5076922,3.25833425 10.5230769,3.075 C10.5384616,2.89166575 10.5820509,2.72083413 10.6538462,2.5625 C10.7256414,2.40416588 10.8307685,2.27083388 10.9692308,2.1625 C11.107693,2.05416613 11.2999988,2 11.5461538,2 C11.771796,2 11.9487173,2.05833275 12.0769231,2.175 C12.2051288,2.29166725 12.2999997,2.4333325 12.3615385,2.6 C12.4230772,2.7666675 12.4615384,2.93958244 12.4769231,3.11875 C12.4923078,3.29791756 12.5,3.44999937 12.5,3.575 C12.5,3.708334 12.4923078,3.85624919 12.4769231,4.01875 C12.4615384,4.18125081 12.4205132,4.33541594 12.3538462,4.48125 C12.2871792,4.62708406 12.1846161,4.7499995 12.0461538,4.85 C11.9076916,4.9500005 11.720514,5 11.4846154,5 C11.2384603,5 11.0487186,4.9500005 10.9153846,4.85 C10.7820506,4.7499995 10.6846157,4.62708406 10.6230769,4.48125 C10.5615382,4.33541594 10.5256411,4.1791675 10.5153846,4.0125 C10.5051282,3.8458325 10.5,3.695834 10.5,3.5625 L10.5,3.5625 Z M9.12724551,4.92692308 C9.21207627,5.35171153 9.35179543,5.71666514 9.54640719,6.02179487 C9.74101894,6.3269246 9.99550741,6.56623845 10.3098802,6.73974359 C10.6242531,6.91324873 11.0109757,7 11.4700599,7 C11.9091838,7 12.2884216,6.91624015 12.6077844,6.74871795 C12.9271473,6.58119574 13.1891207,6.34786474 13.3937126,6.04871795 C13.5983044,5.74957115 13.7504985,5.39359181 13.8502994,4.98076923 C13.9501003,4.56794665 14,4.11624177 14,3.62564103 C14,3.13504028 13.9600802,2.66837828 13.8802395,2.22564103 C13.8003988,1.78290377 13.6631746,1.39701019 13.4685629,1.06794872 C13.2739511,0.738887244 13.0219576,0.478633436 12.7125749,0.287179487 C12.4031921,0.0957255385 12.0139744,0 11.5449102,0 C11.1057862,0 10.7265485,0.0927341154 10.4071856,0.278205128 C10.0878228,0.463676141 9.82335434,0.717947103 9.61377246,1.04102564 C9.40419057,1.36410418 9.2495015,1.74102349 9.1497006,2.17179487 C9.0498997,2.60256626 9,3.06324541 9,3.55384615 C9,4.0444469 9.04241475,4.50213463 9.12724551,4.92692308 Z" id=".0-copy-3"></path>
                        <polygon id=".0-copy" points="0 5 0 7 2 7 2 5"></polygon>
                        <polygon id="Path-2" points="5 11.5 0 8 0 9.5 3 11.5 0 13.5 0 15"></polygon>
                    </g>
                </g>
            </g>
            <g id="Group-10-Copy-2" opacity="0.7" transform="translate(210.000000, 30.000000)">
                <g id="Group-4-Copy"></g>
                <path d="M10.5,9 L15,13.5 L13.5,15 L9,10.5 L4.5,15 L3,13.5 L7.5,9 L3,4.5 L4.5,3 L9,7.5 L13.5,3 L15,4.5 L10.5,9 Z" id="Combined-Shape" fill="#444649"></path>
            </g>
            <g id="Group-10-Copy-4" transform="translate(210.000000, 60.000000)">
                <g id="Group-4-Copy"></g>
                <path d="M10.5,9 L15,13.5 L13.5,15 L9,10.5 L4.5,15 L3,13.5 L7.5,9 L3,4.5 L4.5,3 L9,7.5 L13.5,3 L15,4.5 L10.5,9 Z" id="Combined-Shape" fill="#3B92ED"></path>
            </g>
            <g id="Group-10" opacity="0.7" transform="translate(150.000000, 30.000000)">
                <g id="Group-4-Copy"></g>
                <g id="Group-9" transform="translate(2.000000, 2.000000)" fill="#444649">
                    <path d="M8,6 L14,6 L14,8 L8,8 L8,14 L6,14 L6,8 L0,8 L0,6 L6,6 L6,8.8817842e-16 L8,8.8817842e-16 L8,6 Z" id="Combined-Shape"></path>
                </g>
            </g>
            <g id="Group-10-Copy-5" transform="translate(150.000000, 60.000000)">
                <g id="Group-4-Copy"></g>
                <g id="Group-9" transform="translate(2.000000, 2.000000)" fill="#3B92ED">
                    <path d="M8,6 L14,6 L14,8 L8,8 L8,14 L6,14 L6,8 L0,8 L0,6 L6,6 L6,8.8817842e-16 L8,8.8817842e-16 L8,6 Z" id="Combined-Shape"></path>
                </g>
            </g>
            <g id="Group-10-Copy" opacity="0.7" transform="translate(180.000000, 30.000000)">
                <g id="Group-4-Copy" fill="#C2FF6F" opacity="0">
                    <rect id="Rectangle-2521" x="0" y="0" width="18" height="18"></rect>
                </g>
                <g id="Group-9" transform="translate(2.000000, 8.000000)" fill="#444649">
                    <polygon id="Line" points="14 2 14 0 0 0 0 2"></polygon>
                </g>
            </g>
            <g id="Group-10-Copy-6" transform="translate(180.000000, 60.000000)">
                <g id="Group-4-Copy" fill="#C2FF6F" opacity="0">
                    <rect id="Rectangle-2521" x="0" y="0" width="18" height="18"></rect>
                </g>
                <g id="Group-9" transform="translate(2.000000, 8.000000)" fill="#3B92ED">
                    <polygon id="Line" points="14 2 14 0 0 0 0 2"></polygon>
                </g>
            </g>
            <g id="Group-10-Copy-3" opacity="0.7" transform="translate(240.000000, 30.000000)">
                <g id="Group-4-Copy" fill="#C2FF6F" opacity="0">
                    <rect id="Rectangle-2521" x="0" y="0" width="18" height="18"></rect>
                </g>
                <g id="Group-11" transform="translate(2.000000, 3.000000)" fill="#444649">
                    <polygon id="Line" points="13 7 13 5 0 5 0 7"></polygon>
                    <circle id="Oval" cx="6.5" cy="1.5" r="1.5"></circle>
                    <circle id="Oval-Copy" cx="6.5" cy="10.5" r="1.5"></circle>
                </g>
            </g>
            <g id="Group-10-Copy-7" transform="translate(240.000000, 60.000000)">
                <g id="Group-4-Copy" fill="#C2FF6F" opacity="0">
                    <rect id="Rectangle-2521" x="0" y="0" width="18" height="18"></rect>
                </g>
                <g id="Group-11" transform="translate(2.000000, 3.000000)" fill="#3B92ED">
                    <polygon id="Line" points="13 7 13 5 0 5 0 7"></polygon>
                    <circle id="Oval" cx="6.5" cy="1.5" r="1.5"></circle>
                    <circle id="Oval-Copy" cx="6.5" cy="10.5" r="1.5"></circle>
                </g>
            </g>
            <g id="Group-3" opacity="0.7" transform="translate(270.000000, 30.000000)">
                <rect id="Rectangle-Copy" fill="#C2FF6F" opacity="0" x="0" y="0" width="18" height="18"></rect>
                <path d="M12,2 L4.00427246,16 L6,16 L14,2 L12,2 Z M3.5,5.5625 C3.5,5.42083262 3.50769223,5.25833425 3.52307692,5.075 C3.53846162,4.89166575 3.58205092,4.72083413 3.65384615,4.5625 C3.72564138,4.40416588 3.83076854,4.27083388 3.96923077,4.1625 C4.107693,4.05416613 4.29999877,4 4.54615385,4 C4.771796,4 4.94871731,4.05833275 5.07692308,4.175 C5.20512885,4.29166725 5.29999969,4.4333325 5.36153846,4.6 C5.42307723,4.7666675 5.46153838,4.93958244 5.47692308,5.11875 C5.49230777,5.29791756 5.5,5.44999937 5.5,5.575 C5.5,5.708334 5.49230777,5.85624919 5.47692308,6.01875 C5.46153838,6.18125081 5.42051315,6.33541594 5.35384615,6.48125 C5.28717915,6.62708406 5.18461608,6.7499995 5.04615385,6.85 C4.90769162,6.9500005 4.720514,7 4.48461538,7 C4.23846031,7 4.04871862,6.9500005 3.91538462,6.85 C3.78205062,6.7499995 3.68461569,6.62708406 3.62307692,6.48125 C3.56153815,6.33541594 3.52564108,6.1791675 3.51538462,6.0125 C3.50512815,5.8458325 3.5,5.695834 3.5,5.5625 L3.5,5.5625 Z M2.12724551,6.92692308 C2.21207627,7.35171153 2.35179543,7.71666514 2.54640719,8.02179487 C2.74101894,8.3269246 2.99550741,8.56623845 3.30988024,8.73974359 C3.62425307,8.91324873 4.01097575,9 4.47005988,9 C4.90918383,9 5.28842156,8.91624015 5.60778443,8.74871795 C5.92714731,8.58119574 6.18912073,8.34786474 6.39371257,8.04871795 C6.59830442,7.74957115 6.7504985,7.39359181 6.8502994,6.98076923 C6.9501003,6.56794665 7,6.11624177 7,5.62564103 C7,5.13504028 6.96008024,4.66837828 6.88023952,4.22564103 C6.8003988,3.78290377 6.66317463,3.39701019 6.46856287,3.06794872 C6.27395112,2.73888724 6.02195763,2.47863344 5.71257485,2.28717949 C5.40319207,2.09572554 5.0139744,2 4.54491018,2 C4.10578623,2 3.7265485,2.09273412 3.40718563,2.27820513 C3.08782275,2.46367614 2.82335434,2.7179471 2.61377246,3.04102564 C2.40419057,3.36410418 2.2495015,3.74102349 2.1497006,4.17179487 C2.0498997,4.60256626 2,5.06324541 2,5.55384615 C2,6.0444469 2.04241475,6.50213463 2.12724551,6.92692308 Z M12.5,12.5625 C12.5,12.4208326 12.5076922,12.2583343 12.5230769,12.075 C12.5384616,11.8916658 12.5820509,11.7208341 12.6538462,11.5625 C12.7256414,11.4041659 12.8307685,11.2708339 12.9692308,11.1625 C13.107693,11.0541661 13.2999988,11 13.5461538,11 C13.771796,11 13.9487173,11.0583327 14.0769231,11.175 C14.2051288,11.2916672 14.2999997,11.4333325 14.3615385,11.6 C14.4230772,11.7666675 14.4615384,11.9395824 14.4769231,12.11875 C14.4923078,12.2979176 14.5,12.4499994 14.5,12.575 C14.5,12.708334 14.4923078,12.8562492 14.4769231,13.01875 C14.4615384,13.1812508 14.4205132,13.3354159 14.3538462,13.48125 C14.2871792,13.6270841 14.1846161,13.7499995 14.0461538,13.85 C13.9076916,13.9500005 13.720514,14 13.4846154,14 C13.2384603,14 13.0487186,13.9500005 12.9153846,13.85 C12.7820506,13.7499995 12.6846157,13.6270841 12.6230769,13.48125 C12.5615382,13.3354159 12.5256411,13.1791675 12.5153846,13.0125 C12.5051282,12.8458325 12.5,12.695834 12.5,12.5625 L12.5,12.5625 Z M11.1272455,13.9269231 C11.2120763,14.3517115 11.3517954,14.7166651 11.5464072,15.0217949 C11.7410189,15.3269246 11.9955074,15.5662384 12.3098802,15.7397436 C12.6242531,15.9132487 13.0109757,16 13.4700599,16 C13.9091838,16 14.2884216,15.9162402 14.6077844,15.7487179 C14.9271473,15.5811957 15.1891207,15.3478647 15.3937126,15.0487179 C15.5983044,14.7495712 15.7504985,14.3935918 15.8502994,13.9807692 C15.9501003,13.5679467 16,13.1162418 16,12.625641 C16,12.1350403 15.9600802,11.6683783 15.8802395,11.225641 C15.8003988,10.7829038 15.6631746,10.3970102 15.4685629,10.0679487 C15.2739511,9.73888724 15.0219576,9.47863344 14.7125749,9.28717949 C14.4031921,9.09572554 14.0139744,9 13.5449102,9 C13.1057862,9 12.7265485,9.09273412 12.4071856,9.27820513 C12.0878228,9.46367614 11.8233543,9.7179471 11.6137725,10.0410256 C11.4041906,10.3641042 11.2495015,10.7410235 11.1497006,11.1717949 C11.0498997,11.6025663 11,12.0632454 11,12.5538462 C11,13.0444469 11.0424147,13.5021346 11.1272455,13.9269231 Z" id="%" fill="#444649"></path>
            </g>
            <g id="Group-3-Copy-5" transform="translate(270.000000, 60.000000)">
                <rect id="Rectangle-Copy" fill="#C2FF6F" opacity="0" x="0" y="0" width="18" height="18"></rect>
                <path d="M12,2 L4.00427246,16 L6,16 L14,2 L12,2 Z M3.5,5.5625 C3.5,5.42083262 3.50769223,5.25833425 3.52307692,5.075 C3.53846162,4.89166575 3.58205092,4.72083413 3.65384615,4.5625 C3.72564138,4.40416588 3.83076854,4.27083388 3.96923077,4.1625 C4.107693,4.05416613 4.29999877,4 4.54615385,4 C4.771796,4 4.94871731,4.05833275 5.07692308,4.175 C5.20512885,4.29166725 5.29999969,4.4333325 5.36153846,4.6 C5.42307723,4.7666675 5.46153838,4.93958244 5.47692308,5.11875 C5.49230777,5.29791756 5.5,5.44999937 5.5,5.575 C5.5,5.708334 5.49230777,5.85624919 5.47692308,6.01875 C5.46153838,6.18125081 5.42051315,6.33541594 5.35384615,6.48125 C5.28717915,6.62708406 5.18461608,6.7499995 5.04615385,6.85 C4.90769162,6.9500005 4.720514,7 4.48461538,7 C4.23846031,7 4.04871862,6.9500005 3.91538462,6.85 C3.78205062,6.7499995 3.68461569,6.62708406 3.62307692,6.48125 C3.56153815,6.33541594 3.52564108,6.1791675 3.51538462,6.0125 C3.50512815,5.8458325 3.5,5.695834 3.5,5.5625 L3.5,5.5625 Z M2.12724551,6.92692308 C2.21207627,7.35171153 2.35179543,7.71666514 2.54640719,8.02179487 C2.74101894,8.3269246 2.99550741,8.56623845 3.30988024,8.73974359 C3.62425307,8.91324873 4.01097575,9 4.47005988,9 C4.90918383,9 5.28842156,8.91624015 5.60778443,8.74871795 C5.92714731,8.58119574 6.18912073,8.34786474 6.39371257,8.04871795 C6.59830442,7.74957115 6.7504985,7.39359181 6.8502994,6.98076923 C6.9501003,6.56794665 7,6.11624177 7,5.62564103 C7,5.13504028 6.96008024,4.66837828 6.88023952,4.22564103 C6.8003988,3.78290377 6.66317463,3.39701019 6.46856287,3.06794872 C6.27395112,2.73888724 6.02195763,2.47863344 5.71257485,2.28717949 C5.40319207,2.09572554 5.0139744,2 4.54491018,2 C4.10578623,2 3.7265485,2.09273412 3.40718563,2.27820513 C3.08782275,2.46367614 2.82335434,2.7179471 2.61377246,3.04102564 C2.40419057,3.36410418 2.2495015,3.74102349 2.1497006,4.17179487 C2.0498997,4.60256626 2,5.06324541 2,5.55384615 C2,6.0444469 2.04241475,6.50213463 2.12724551,6.92692308 Z M12.5,12.5625 C12.5,12.4208326 12.5076922,12.2583343 12.5230769,12.075 C12.5384616,11.8916658 12.5820509,11.7208341 12.6538462,11.5625 C12.7256414,11.4041659 12.8307685,11.2708339 12.9692308,11.1625 C13.107693,11.0541661 13.2999988,11 13.5461538,11 C13.771796,11 13.9487173,11.0583327 14.0769231,11.175 C14.2051288,11.2916672 14.2999997,11.4333325 14.3615385,11.6 C14.4230772,11.7666675 14.4615384,11.9395824 14.4769231,12.11875 C14.4923078,12.2979176 14.5,12.4499994 14.5,12.575 C14.5,12.708334 14.4923078,12.8562492 14.4769231,13.01875 C14.4615384,13.1812508 14.4205132,13.3354159 14.3538462,13.48125 C14.2871792,13.6270841 14.1846161,13.7499995 14.0461538,13.85 C13.9076916,13.9500005 13.720514,14 13.4846154,14 C13.2384603,14 13.0487186,13.9500005 12.9153846,13.85 C12.7820506,13.7499995 12.6846157,13.6270841 12.6230769,13.48125 C12.5615382,13.3354159 12.5256411,13.1791675 12.5153846,13.0125 C12.5051282,12.8458325 12.5,12.695834 12.5,12.5625 L12.5,12.5625 Z M11.1272455,13.9269231 C11.2120763,14.3517115 11.3517954,14.7166651 11.5464072,15.0217949 C11.7410189,15.3269246 11.9955074,15.5662384 12.3098802,15.7397436 C12.6242531,15.9132487 13.0109757,16 13.4700599,16 C13.9091838,16 14.2884216,15.9162402 14.6077844,15.7487179 C14.9271473,15.5811957 15.1891207,15.3478647 15.3937126,15.0487179 C15.5983044,14.7495712 15.7504985,14.3935918 15.8502994,13.9807692 C15.9501003,13.5679467 16,13.1162418 16,12.625641 C16,12.1350403 15.9600802,11.6683783 15.8802395,11.225641 C15.8003988,10.7829038 15.6631746,10.3970102 15.4685629,10.0679487 C15.2739511,9.73888724 15.0219576,9.47863344 14.7125749,9.28717949 C14.4031921,9.09572554 14.0139744,9 13.5449102,9 C13.1057862,9 12.7265485,9.09273412 12.4071856,9.27820513 C12.0878228,9.46367614 11.8233543,9.7179471 11.6137725,10.0410256 C11.4041906,10.3641042 11.2495015,10.7410235 11.1497006,11.1717949 C11.0498997,11.6025663 11,12.0632454 11,12.5538462 C11,13.0444469 11.0424147,13.5021346 11.1272455,13.9269231 Z" id="%" fill="#3B92ED"></path>
            </g>
        </g>
    </g>
</svg>