<?xml version="1.0" encoding="UTF-8"?>
<svg width="180px" height="48px" viewBox="0 0 180 48" version="1.1" xmlns="http://www.w3.org/2000/svg" xmlns:xlink="http://www.w3.org/1999/xlink">
    <!-- Generator: Sketch 49.3 (51167) - http://www.bohemiancoding.com/sketch -->
    <title>Artboard Copy</title>
    <desc>Created with Sketch.</desc>
    <defs></defs>
    <g id="Artboard-Copy" stroke="none" stroke-width="1" fill="none" fill-rule="evenodd">
        <text id="(0,20)-(30,20),-each" font-family="Helvetica" font-size="9" font-weight="normal" fill="#444649">
            <tspan x="37" y="10">(0,20) (30,20), each icon 20*20</tspan>
        </text>
        <text id="In-TOC" font-family=".AppleSystemUIFont" font-size="9" font-weight="normal" fill="#444649">
            <tspan x="3" y="10">In TOC</tspan>
        </text>
        <g id="Portrait" transform="translate(0.000000, 20.000000)">
            <g id="Group-8" transform="translate(2.000000, 1.000000)">
                <rect id="Rectangle-4" stroke="#444649" x="0.5" y="0.5" width="15" height="17"></rect>
                <g id="Group-68-Copy-2" transform="translate(8.000000, 9.000000) scale(-1, 1) translate(-8.000000, -9.000000) translate(3.000000, 4.000000)" fill="#444649" fill-rule="nonzero">
                    <polygon id="Line" points="10 1 10 0 0 0 0 1"></polygon>
                    <polygon id="Line-Copy-19" points="0 7 10 7 10 6 0 6"></polygon>
                    <polygon id="Line-Copy-16" points="0 4 10 4 10 3 0 3"></polygon>
                    <polygon id="Line-Copy-24" points="2 10 10 10 10 9 2 9"></polygon>
                </g>
            </g>
        </g>
        <g id="Landscape" transform="translate(30.000000, 20.000000)">
            <g id="Group-8" transform="translate(1.000000, 2.000000)">
                <rect id="Rectangle-4" stroke="#444649" x="0.5" y="0.5" width="17" height="15"></rect>
                <g id="Group-68-Copy-2" transform="translate(9.000000, 8.000000) scale(-1, 1) translate(-9.000000, -8.000000) translate(3.000000, 3.000000)" fill="#444649" fill-rule="nonzero">
                    <polygon id="Line" points="0 1 12 1 12 0 0 0"></polygon>
                    <polygon id="Line-Copy-19" points="0 7 12 7 12 6 0 6"></polygon>
                    <polygon id="Line-Copy-16" points="0 4 12 4 12 3 0 3"></polygon>
                    <polygon id="Line-Copy-24" points="4 10 12 10 12 9 4 9"></polygon>
                </g>
            </g>
        </g>
    </g>
</svg>