<?xml version="1.0" encoding="UTF-8"?>
<svg width="30px" height="30px" viewBox="0 0 30 30" version="1.1" xmlns="http://www.w3.org/2000/svg" xmlns:xlink="http://www.w3.org/1999/xlink">
    <!-- Generator: Sketch 42 (36781) - http://www.bohemiancoding.com/sketch -->
    <title>Generic Icons</title>
    <desc>Created with Sketch.</desc>

    <g id="Dossier-Editor-Designer-Use" stroke="none" stroke-width="1" fill="none" fill-rule="evenodd">
        <g id="Generic-Icons">
            <g id="search-A" transform="translate(6.000000, 6.000000)">
                <g id="search">
                    <rect id="Rectangle-2961-Copy-12" fill="#00FFA0" opacity="0" x="0" y="0" width="18" height="18"></rect>
                    <path d="M11.7826795,11.0826501 L15,14.2999705 L14.2999705,15 L11.0826501,11.7826795 C10.2293417,12.4809645 9.13857394,12.8999116 7.94995581,12.8999116 C5.2161707,12.8999116 3,10.6837409 3,7.94995581 C3,5.2161707 5.2161707,3 7.94995581,3 C10.6837409,3 12.8999116,5.2161707 12.8999116,7.94995581 C12.8999116,9.13857394 12.4809645,10.2293417 11.7826795,11.0826501 Z M7.94995581,11.9099204 C10.1369839,11.9099204 11.9099204,10.1369839 11.9099204,7.94995581 C11.9099204,5.76292772 10.1369839,3.98999116 7.94995581,3.98999116 C5.76292772,3.98999116 3.98999116,5.76292772 3.98999116,7.94995581 C3.98999116,10.1369839 5.76292772,11.9099204 7.94995581,11.9099204 Z" id="Icon---Search" fill="#2F3133"></path>
                </g>
            </g>
        </g>
    </g>
</svg>