<?xml version="1.0" encoding="UTF-8"?>
<svg width="346px" height="151px" viewBox="0 0 346 151" version="1.1" xmlns="http://www.w3.org/2000/svg" xmlns:xlink="http://www.w3.org/1999/xlink">
    <!-- Generator: Sketch 45.2 (43514) - http://www.bohemiancoding.com/sketch -->
    <title>tabs</title>
    <desc>Created with Sketch.</desc>
    <defs>
        <rect id="path-1" x="0" y="0" width="16" height="14"></rect>
        <rect id="path-2" x="1" y="2" width="16" height="14"></rect>
        <rect id="path-3" x="0" y="0" width="16" height="14"></rect>
        <rect id="path-4" x="1" y="2" width="16" height="14"></rect>
        <rect id="path-5" x="1" y="2" width="16" height="14"></rect>
        <rect id="path-6" x="1" y="2" width="16" height="14"></rect>
    </defs>
    <g id="Dossier-Editor-Designer-Use" stroke="none" stroke-width="1" fill="none" fill-rule="evenodd">
        <g id="tabs">
            <g id="Group-7" transform="translate(32.000000, 30.000000)">
                <rect id="Rectangle-15-Copy-6" fill="#FF4901" opacity="0" x="0" y="0" width="18" height="18"></rect>
                <g id="Group-34-Copy-7" transform="translate(1.000000, 2.000000)">
                    <g id="Rectangle-2-Copy-2">
                        <use fill="#FFFFFF" fill-rule="evenodd" xlink:href="#path-1"></use>
                        <rect stroke="#3B92ED" stroke-width="1" x="0.5" y="0.5" width="15" height="13"></rect>
                    </g>
                    <rect id="Rectangle-2-Copy-4" fill="#3B92ED" x="1" y="11" width="15" height="3"></rect>
                </g>
            </g>
            <g id="Group-2" transform="translate(71.000000, 39.000000) scale(1, -1) translate(-71.000000, -39.000000) translate(62.000000, 30.000000)">
                <g id="Group-34-Copy-9" transform="translate(1.000000, 2.000000)"></g>
                <g id="Group-8">
                    <rect id="Rectangle-15-Copy-2" fill="#FF4901" opacity="0" x="0" y="0" width="18" height="18"></rect>
                    <g id="Rectangle-2-Copy-2">
                        <use fill="#FFFFFF" fill-rule="evenodd" xlink:href="#path-2"></use>
                        <rect stroke="#3B92ED" stroke-width="1" x="1.5" y="2.5" width="15" height="13"></rect>
                    </g>
                    <rect id="Rectangle-2-Copy-4" fill="#3B92ED" x="2" y="13" width="15" height="3"></rect>
                </g>
            </g>
            <g id="Group-34-Copy-8" transform="translate(31.000000, 62.000000)"></g>
            <g id="Group-11" transform="translate(62.000000, 60.000000)">
                <g id="Group-3">
                    <rect id="Rectangle-15-Copy-4" fill="#FF4901" opacity="0" x="0" y="0" width="18" height="18"></rect>
                    <g id="Group-34-Copy-10" transform="translate(9.000000, 9.000000) scale(1, -1) translate(-9.000000, -9.000000) translate(1.000000, 2.000000)">
                        <g id="Rectangle-2-Copy-2">
                            <use fill="#FFFFFF" fill-rule="evenodd" xlink:href="#path-3"></use>
                            <rect stroke="#AEAEAE" stroke-width="1" x="0.5" y="0.5" width="15" height="13"></rect>
                        </g>
                        <rect id="Rectangle-2-Copy-4" fill="#AEAEAE" x="0" y="11" width="16" height="3"></rect>
                    </g>
                </g>
            </g>
            <g id="Group-6" transform="translate(2.000000, 30.000000)">
                <rect id="Rectangle-15-Copy-5" fill="#FF4901" opacity="0" x="0" y="0" width="18" height="18"></rect>
                <g id="Rectangle-2">
                    <use fill="#FFFFFF" fill-rule="evenodd" xlink:href="#path-4"></use>
                    <rect stroke="#3B92ED" stroke-width="1" x="1.5" y="2.5" width="15" height="13"></rect>
                </g>
                <rect id="Rectangle-2" fill="#3B92ED" x="1" y="2" width="5" height="14"></rect>
            </g>
            <g id="Group" transform="translate(1.000000, 62.000000)"></g>
            <g id="Group-4" transform="translate(0.000000, 90.000000)">
                <rect id="Rectangle-5-Copy-15" fill="#9F795C" opacity="0" x="0" y="0" width="23" height="18"></rect>
                <g id="cm-dropdown" transform="translate(8.000000, 7.000000)" fill-opacity="0.9" fill-rule="nonzero" fill="#333333">
                    <polygon id="Path-2507" points="0 0.710694891 3.67447016 4.65162534 3.99928998 5 4.32371782 4.6512032 8 0.69878205 7.35035922 0 3.67407705 3.95242115 4.3233247 3.95199901 0.64885454 0.0110685668"></polygon>
                </g>
            </g>
            <g id="Group-5" transform="translate(0.000000, 119.000000)">
                <rect id="Rectangle-5-Copy-16" fill="#9F795C" opacity="0" x="0" y="0" width="23" height="18"></rect>
                <g id="cm-dropdown" transform="translate(12.000000, 9.500000) scale(1, -1) translate(-12.000000, -9.500000) translate(8.000000, 7.000000)" fill-opacity="0.9" fill-rule="nonzero" fill="#333333">
                    <polygon id="Path-2507" points="0 0.710694891 3.67447016 4.65162534 3.99928998 5 4.32371782 4.6512032 8 0.69878205 7.35035922 0 3.67407705 3.95242115 4.3233247 3.95199901 0.64885454 0.0110685668"></polygon>
                </g>
            </g>
            <text id="Left-top:-(0,-30).-P" font-family="AvenirNext-Medium, Avenir Next" font-size="11" font-weight="400" fill="#5E5F60">
                <tspan x="1.4975" y="10">Left top: (0, 30). Padding between icons=30. </tspan>
            </text>
            <g id="Group-9" transform="translate(2.000000, 60.000000)">
                <rect id="Rectangle-15-Copy" fill="#FF4901" opacity="0" x="0" y="0" width="18" height="18"></rect>
                <g id="Rectangle-2-Copy-5">
                    <use fill="#FFFFFF" fill-rule="evenodd" xlink:href="#path-5"></use>
                    <rect stroke="#AEAEAE" stroke-width="1" x="1.5" y="2.5" width="15" height="13"></rect>
                </g>
                <rect id="Rectangle-2-Copy-6" fill="#AEAEAE" x="1" y="2" width="5" height="14"></rect>
            </g>
            <g id="Group-10" transform="translate(32.000000, 60.000000)">
                <rect id="Rectangle-15-Copy-3" fill="#FF4901" opacity="0" x="0" y="0" width="18" height="18"></rect>
                <g id="Rectangle-2-Copy-2">
                    <use fill="#FFFFFF" fill-rule="evenodd" xlink:href="#path-6"></use>
                    <rect stroke="#AEAEAE" stroke-width="1" x="1.5" y="2.5" width="15" height="13"></rect>
                </g>
                <rect id="Rectangle-2-Copy-4" fill="#AEAEAE" x="1" y="13" width="16" height="3"></rect>
            </g>
            <text id="18*18" font-family="AvenirNext-Medium, Avenir Next" font-size="11" font-weight="400" fill="#5E5F60">
                <tspan x="-1.587" y="22">18*18</tspan>
            </text>
            <text id="23*18" font-family="AvenirNext-Medium, Avenir Next" font-size="11" font-weight="400" fill="#5E5F60">
                <tspan x="0.413" y="88">23*18</tspan>
            </text>
            <rect id="Rectangle-5-Copy-2" fill="#00FFA0" opacity="0" x="90" y="60" width="18" height="18"></rect>
            <rect id="Rectangle-5-Copy-3" fill="#00FFA0" opacity="0" x="90" y="30" width="18" height="18"></rect>
            <g id="add" opacity="0.7" transform="translate(95.000000, 64.500000)" fill="#444649">
                <path d="M4,4.5 L0.509665847,4.5 C0.222473145,4.5 0,4.72385763 0,5 C0,5.26806641 0.228185172,5.5 0.509665847,5.5 L4,5.5 L4,8.99033415 C4,9.27752686 4.22385763,9.5 4.5,9.5 C4.76806641,9.5 5,9.27181483 5,8.99033415 L5,5.5 L8.49033415,5.5 C8.77752686,5.5 9,5.27614237 9,5 C9,4.73193359 8.77181483,4.5 8.49033415,4.5 L5,4.5 L5,1.00966585 C5,0.722473145 4.77614237,0.5 4.5,0.5 C4.23193359,0.5 4,0.728185172 4,1.00966585 L4,4.5 Z"></path>
            </g>
            <g id="add" transform="translate(95.000000, 34.500000)" fill="#444649">
                <path d="M4,4.5 L0.509665847,4.5 C0.222473145,4.5 0,4.72385763 0,5 C0,5.26806641 0.228185172,5.5 0.509665847,5.5 L4,5.5 L4,8.99033415 C4,9.27752686 4.22385763,9.5 4.5,9.5 C4.76806641,9.5 5,9.27181483 5,8.99033415 L5,5.5 L8.49033415,5.5 C8.77752686,5.5 9,5.27614237 9,5 C9,4.73193359 8.77181483,4.5 8.49033415,4.5 L5,4.5 L5,1.00966585 C5,0.722473145 4.77614237,0.5 4.5,0.5 C4.23193359,0.5 4,0.728185172 4,1.00966585 L4,4.5 Z"></path>
            </g>
            <g id="Group-12" transform="translate(120.000000, 30.000000)" fill-opacity="0.9" fill-rule="nonzero" fill="#333333">
                <polygon id="Path-2507" transform="translate(9.000000, 9.000000) rotate(90.000000) translate(-9.000000, -9.000000) " points="4 6.85283387 8.59308771 11.5819504 8.99911248 12 9.40464728 11.5814438 14 6.83853846 13.187949 6 8.59259631 10.7429054 9.40415588 10.7423988 4.81106817 6.01328228"></polygon>
            </g>
            <g id="Group-13" transform="translate(150.000000, 30.000000)" fill-opacity="0.9" fill-rule="nonzero" fill="#333333">
                <polygon id="Path-2507-Copy" transform="translate(9.000000, 9.000000) scale(-1, 1) rotate(90.000000) translate(-9.000000, -9.000000) " points="4 6.85283387 8.59308771 11.5819504 8.99911248 12 9.40464728 11.5814438 14 6.83853846 13.187949 6 8.59259631 10.7429054 9.40415588 10.7423988 4.81106817 6.01328228"></polygon>
            </g>
        </g>
    </g>
</svg>