<?xml version="1.0" encoding="UTF-8"?>
<svg width="293px" height="190px" viewBox="0 0 293 190" version="1.1" xmlns="http://www.w3.org/2000/svg" xmlns:xlink="http://www.w3.org/1999/xlink">
    <!-- Generator: Sketch 46.2 (44496) - http://www.bohemiancoding.com/sketch -->
    <title>Artboard</title>
    <desc>Created with Sketch.</desc>
    <defs></defs>
    <g id="Dossier-Editor-Designer-Use" stroke="none" stroke-width="1" fill="none" fill-rule="evenodd">
        <g id="Artboard">
            <text id="(0,20)-(30,20),-each" font-family="SFUIDisplay-Semibold, SF UI Display" font-size="9" font-weight="500" fill="#444649">
                <tspan x="33" y="10">(0,20) (30,20), each icon 20*12</tspan>
            </text>
            <text id="In-TOC" font-family="SFUIDisplay-Regular, SF UI Display" font-size="9" font-weight="normal" fill="#444649">
                <tspan x="3" y="10">In TOC</tspan>
            </text>
            <text id="Configuration-mode-" font-family="SFUIDisplay-Regular, SF UI Display" font-size="9" font-weight="normal" fill="#444649">
                <tspan x="0" y="52">Configuration mode- On canvas (first image is white) (0,60) (30,60)</tspan>
            </text>
            <text id="Design-run-time-on-c" font-family="SFUIDisplay-Regular, SF UI Display" font-size="9" font-weight="normal" fill="#444649">
                <tspan x="0" y="92">Design-run time on canvas (0,110) (30,110)</tspan>
            </text>
            <text id="In-tab-bar-(0,154)-（" font-family="SFUIDisplay-Regular, SF UI Display" font-size="9" font-weight="normal" fill="#444649">
                <tspan x="0" y="147">In tab bar (0,154) </tspan>
                <tspan x="68.1020508" y="147" font-family="PingFangSC-Regular, PingFang SC">（20，154）</tspan>
            </text>
            <g id="Group" transform="translate(30.000000, 20.000000)">
                <g id="Group-23" transform="translate(10.500000, 5.500000) scale(-1, 1) translate(-10.500000, -5.500000) translate(4.000000, 2.000000)" fill="#010101">
                    <path d="M10.5,1 C10,1 9.5,1.2 9,1.5 L9.7,2.2 C9.9,2.1 10.2,2 10.5,2 C11.4,2 12,2.7 12,3.5 C12,4.3 11.3,5 10.5,5 C10.2,5 10,4.9 9.7,4.8 L9,5.5 C9.4,5.8 9.9,6 10.5,6 C11.9,6 13,4.9 13,3.5 C13,2.1 11.9,1 10.5,1 Z" id="Shape"></path>
                    <path d="M9,3.83211679 L9,3.52554745 C9,3.52554745 9,3.52554745 9,3.42335766 C9,3.32116788 8.88607595,3.2189781 8.88607595,3.2189781 L5.46835443,0.153284672 C5.24050633,-0.0510948905 4.89873418,-0.0510948905 4.67088608,0.153284672 C4.44303797,0.357664234 4.44303797,0.664233577 4.67088608,0.868613139 L7.06329114,3.01459854 L0.569620253,3.01459854 C0.341772152,3.01459854 0,3.2189781 0,3.52554745 C0,3.83211679 0.227848101,4.03649635 0.569620253,4.03649635 L7.06329114,4.03649635 L4.67088608,6.18248175 C4.44303797,6.38686131 4.44303797,6.69343066 4.67088608,6.89781022 C4.78481013,7 4.89873418,7 5.12658228,7 C5.24050633,7 5.46835443,7 5.58227848,6.89781022 L9,3.83211679 C8.88607595,3.93430657 8.88607595,3.93430657 9,3.83211679 L9,3.83211679 L9,3.83211679 Z" id="Shape"></path>
                </g>
                <rect id="Rectangle-15-Copy" fill="#9F795C" opacity="0" x="0" y="0" width="20" height="12"></rect>
            </g>
            <g id="Group-2" transform="translate(0.000000, 20.000000)">
                <g id="Group-18" transform="translate(3.000000, 1.000000)" fill="#010101">
                    <path d="M14,4.83211679 L14,4.52554745 C14,4.52554745 14,4.52554745 14,4.42335766 C14,4.32116788 13.8988764,4.2189781 13.8988764,4.2189781 L10.8651685,1.15328467 C10.6629213,0.948905109 10.3595506,0.948905109 10.1573034,1.15328467 C9.95505618,1.35766423 9.95505618,1.66423358 10.1573034,1.86861314 L12.2808989,4.01459854 L5.50561798,4.01459854 C5.20224719,4.01459854 5,4.2189781 5,4.52554745 C5,4.83211679 5.20224719,5.03649635 5.50561798,5.03649635 L12.2808989,5.03649635 L10.1573034,7.18248175 C9.95505618,7.38686131 9.95505618,7.69343066 10.1573034,7.89781022 C10.258427,8 10.3595506,8 10.5617978,8 C10.6629213,8 10.8651685,8 10.9662921,7.89781022 L14,4.83211679 C14,4.93430657 14,4.93430657 14,4.83211679 L14,4.83211679 L14,4.83211679 Z" id="Shape"></path>
                    <path d="M8.24222548,2 C7.43496414,0.794014257 6.06020805,0 4.5,0 C2.01471863,0 0,2.01471863 0,4.5 C0,6.98528137 2.01471863,9 4.5,9 C6.06020805,9 7.43496414,8.20598574 8.24222548,7 L6.94949137,7 C6.31822282,7.61859351 5.45365254,8 4.5,8 C2.56700338,8 1,6.43299662 1,4.5 C1,2.56700338 2.56700338,1 4.5,1 C5.45365254,1 6.31822282,1.38140649 6.94949137,2 L8.24222548,2 Z" id="Combined-Shape"></path>
                </g>
                <rect id="Rectangle-15" fill="#9F795C" opacity="0" x="0" y="0" width="20" height="12"></rect>
            </g>
            <g id="Group-3" transform="translate(0.000000, 60.000000)">
                <g id="Group-19" transform="translate(2.000000, 0.000000)" fill="#FFFFFF">
                    <path d="M17.85,6.05 L17.85,5.6 C17.85,5.6 17.85,5.6 17.85,5.45 C17.85,5.3 17.7,5.15 17.7,5.15 L13.2,0.65 C12.9,0.35 12.45,0.35 12.15,0.65 C11.85,0.95 11.85,1.4 12.15,1.7 L15.3,4.85 L5.25,4.85 C4.8,4.85 4.5,5.15 4.5,5.6 C4.5,6.05 4.8,6.35 5.25,6.35 L15.3,6.35 L12.15,9.5 C11.85,9.8 11.85,10.25 12.15,10.55 C12.3,10.7 12.45,10.7 12.75,10.7 C12.9,10.7 13.2,10.7 13.35,10.55 L17.85,6.05 C17.85,6.2 17.85,6.2 17.85,6.05 L17.85,6.05 L17.85,6.05 Z" id="Shape"></path>
                    <path d="M7.5,8.75 C6.9,9.2 6.15,9.5 5.25,9.5 C3.15,9.5 1.5,7.85 1.5,5.75 C1.5,3.65 3.15,2 5.25,2 C6,2 6.75,2.3 7.35,2.75 L9.45,2.75 C8.55,1.4 7.05,0.5 5.25,0.5 C2.4,0.5 0,2.9 0,5.75 C0,8.6 2.4,11 5.25,11 C7.05,11 8.55,10.1 9.6,8.75 L7.5,8.75 Z" id="Shape"></path>
                </g>
                <rect id="Rectangle-14" fill="#9F795C" opacity="0" x="0" y="0" width="20" height="12"></rect>
            </g>
            <g id="Group-4" transform="translate(30.000000, 60.000000)">
                <g id="Group-23" transform="translate(10.500000, 5.500000) scale(-1, 1) translate(-10.500000, -5.500000) translate(1.000000, 0.000000)" fill="#3B92ED">
                    <g id="Group-25">
                        <path d="M15.25,2 C14.5,2 13.75,2.3 13,2.75 L14.05,3.8 C14.35,3.65 14.8,3.5 15.25,3.5 C16.6,3.5 17.5,4.55 17.5,5.75 C17.5,6.95 16.45,8 15.25,8 C14.8,8 14.5,7.85 14.05,7.7 L13,8.75 C13.6,9.2 14.35,9.5 15.25,9.5 C17.35,9.5 19,7.85 19,5.75 C19,3.65 17.35,2 15.25,2 Z" id="Shape"></path>
                        <path d="M14,6.125 L14,5.675 C14,5.675 14,5.675 14,5.525 C14,5.375 13.85,5.225 13.85,5.225 L9.35,0.725 C9.05,0.425 8.6,0.425 8.3,0.725 C8,1.025 8,1.475 8.3,1.775 L11.45,4.925 L1.4,4.925 C0.95,4.925 0.65,5.225 0.65,5.675 C0.65,6.125 0.95,6.425 1.4,6.425 L11.45,6.425 L8.3,9.575 C8,9.875 8,10.325 8.3,10.625 C8.45,10.775 8.6,10.775 8.9,10.775 C9.05,10.775 9.35,10.775 9.5,10.625 L14,6.125 C14,6.275 14,6.275 14,6.125 L14,6.125 L14,6.125 Z" id="Shape"></path>
                    </g>
                </g>
                <rect id="Rectangle-14-Copy" fill="#9F795C" opacity="0" x="0" y="0" width="20" height="12"></rect>
            </g>
            <path d="M74.2433763,113.797468 C73.1753658,112.734177 71.446206,112.734177 70.3781956,113.797468 L68.8016087,115.367089 C67.7844559,116.379747 67.7844559,118.101266 68.8016087,119.164557 C69.0558969,119.417722 69.462758,119.417722 69.7170462,119.164557 C69.9713344,118.911392 69.9713344,118.556962 69.7170462,118.303797 C69.1576122,117.696203 69.1576122,116.78481 69.7170462,116.227848 L71.2936331,114.658228 C71.8530671,114.101266 72.7685047,114.101266 73.3279387,114.658228 C73.8873728,115.265823 73.8873728,116.177215 73.3279387,116.734177 L72.6159318,117.493671 C72.7685047,118 72.87022,118.506329 72.8193623,119.012658 L74.1925186,117.64557 C75.2605291,116.582278 75.2605291,114.860759 74.2433763,113.797468 L74.2433763,113.797468 Z M70.2764803,116.835443 C70.0730497,117.037975 70.0730497,117.443038 70.2764803,117.696203 C70.886772,118.253165 70.886772,119.21519 70.2764803,119.772152 L68.750751,121.291139 C68.191317,121.848101 67.2758794,121.848101 66.6655877,121.291139 C66.1061537,120.734177 66.1061537,119.822785 66.6655877,119.265823 L67.4284524,118.506329 C67.2250218,118 67.1741642,117.493671 67.2250218,116.936709 L65.8010078,118.35443 C64.7329974,119.417722 64.7329974,121.139241 65.8010078,122.202532 C66.8690183,123.265823 68.5981781,123.265823 69.6153309,122.202532 L71.1919178,120.632911 C72.2599283,119.56962 72.2599283,117.898734 71.1919178,116.835443 C70.9376296,116.582278 70.5307685,116.582278 70.2764803,116.835443 Z" id="Shape" fill="#1472D6"></path>
            <g id="Group-18" opacity="0.918318563" transform="translate(3.000000, 114.000000)" fill="#1472D6">
                <path d="M14,4.83211679 L14,4.52554745 C14,4.52554745 14,4.52554745 14,4.42335766 C14,4.32116788 13.8988764,4.2189781 13.8988764,4.2189781 L10.8651685,1.15328467 C10.6629213,0.948905109 10.3595506,0.948905109 10.1573034,1.15328467 C9.95505618,1.35766423 9.95505618,1.66423358 10.1573034,1.86861314 L12.2808989,4.01459854 L5.50561798,4.01459854 C5.20224719,4.01459854 5,4.2189781 5,4.52554745 C5,4.83211679 5.20224719,5.03649635 5.50561798,5.03649635 L12.2808989,5.03649635 L10.1573034,7.18248175 C9.95505618,7.38686131 9.95505618,7.69343066 10.1573034,7.89781022 C10.258427,8 10.3595506,8 10.5617978,8 C10.6629213,8 10.8651685,8 10.9662921,7.89781022 L14,4.83211679 C14,4.93430657 14,4.93430657 14,4.83211679 L14,4.83211679 L14,4.83211679 Z" id="Shape"></path>
                <path d="M8.24222548,2 C7.43496414,0.794014257 6.06020805,0 4.5,0 C2.01471863,0 0,2.01471863 0,4.5 C0,6.98528137 2.01471863,9 4.5,9 C6.06020805,9 7.43496414,8.20598574 8.24222548,7 L6.94949137,7 C6.31822282,7.61859351 5.45365254,8 4.5,8 C2.56700338,8 1,6.43299662 1,4.5 C1,2.56700338 2.56700338,1 4.5,1 C5.45365254,1 6.31822282,1.38140649 6.94949137,2 L8.24222548,2 Z" id="Combined-Shape"></path>
            </g>
            <path d="M36.84375,121.955556 C36.7125,121.911111 36.625,121.733333 36.625,121.6 L36.625,117.733333 L34.13125,115.111111 C34.04375,115.022222 34,114.933333 34,114.8 L34,114.4 C34,114.177778 34.175,114 34.39375,114 L40.5625,114 C40.825,114 41,114.177778 41,114.4 L41,114.8 C41,114.933333 40.95625,115.022222 40.86875,115.111111 L38.375,117.733333 L38.375,120.355556 C38.375,120.488889 38.33125,120.622222 38.24375,120.755556 L37.325,121.911111 C37.2375,121.955556 37.15,122 37.01875,122 C36.975,122 36.8875,122 36.84375,121.955556 Z" id="Shape" fill="#1471D5" opacity="0.9"></path>
            <polygon id="Path" fill="#2B7FD9" points="45.15 118.05 43.5 119.7 41.8 118 41 118.85 42.7 120.55 41 122.2 41.8 123 43.5 121.3 45.2 123 46 122.2 44.3 120.5 45.95 118.85"></polygon>
            <g id="Group-5" transform="translate(0.000000, 154.000000)">
                <rect id="Rectangle-16" fill="#01FFAE" opacity="0" x="0" y="0" width="14" height="8"></rect>
                <g id="Group-23" transform="translate(7.000000, 4.500000) scale(-1, 1) translate(-7.000000, -4.500000) translate(2.000000, 1.000000)" fill="#010101">
                    <path d="M7.5,1 C7,1 6.5,1.2 6,1.5 L6.7,2.2 C6.9,2.1 7.2,2 7.5,2 C8.4,2 9,2.7 9,3.5 C9,4.3 8.3,5 7.5,5 C7.2,5 7,4.9 6.7,4.8 L6,5.5 C6.4,5.8 6.9,6 7.5,6 C8.9,6 10,4.9 10,3.5 C10,2.1 8.9,1 7.5,1 Z" id="Shape"></path>
                    <path d="M4.29289322,3 L2.59693685,1.30404363 C2.40167471,1.10878149 2.40167471,0.792198998 2.59693685,0.596936853 C2.792199,0.401674707 3.10878149,0.401674707 3.30404363,0.596936853 L5.85355339,3.14644661 C5.95118446,3.24407768 6,3.37203884 6,3.5 C6,3.62796116 5.95118446,3.75592232 5.85355339,3.85355339 L3.30404363,6.40306315 C3.10878149,6.59832529 2.792199,6.59832529 2.59693685,6.40306315 C2.40167471,6.207801 2.40167471,5.89121851 2.59693685,5.69595637 L4.29289322,4 L0.5,4 C0.223857625,4 -4.4408921e-16,3.77614237 -4.4408921e-16,3.5 C-4.4408921e-16,3.22385763 0.223857625,3 0.5,3 L4.29289322,3 Z" id="Combined-Shape" fill-rule="nonzero"></path>
                </g>
            </g>
            <rect id="Rectangle-16" opacity="0.36180933" x="20" y="154" width="14" height="8"></rect>
            <g id="Group-2-Copy-7" transform="translate(22.000000, 155.000000)" fill="#010101">
                <g id="Group-18">
                    <path d="M10,3.45151199 L10,3.23253389 C10,3.23253389 10,3.23253389 10,3.15954119 C10,3.08654849 9.92776886,3.01355579 9.92776886,3.01355579 L7.76083467,0.823774765 C7.61637239,0.677789364 7.39967897,0.677789364 7.25521669,0.823774765 C7.11075441,0.969760167 7.11075441,1.18873827 7.25521669,1.33472367 L8.77207063,2.86757039 L3.93258427,2.86757039 C3.71589085,2.86757039 3.57142857,3.01355579 3.57142857,3.23253389 C3.57142857,3.45151199 3.71589085,3.59749739 3.93258427,3.59749739 L8.77207063,3.59749739 L7.25521669,5.13034411 C7.11075441,5.27632951 7.11075441,5.49530761 7.25521669,5.64129301 C7.32744783,5.71428571 7.39967897,5.71428571 7.54414125,5.71428571 C7.61637239,5.71428571 7.76083467,5.71428571 7.83306581,5.64129301 L10,3.45151199 C10,3.52450469 10,3.52450469 10,3.45151199 L10,3.45151199 L10,3.45151199 Z" id="Shape"></path>
                    <path d="M5.88730392,1.42857143 C5.31068867,0.567153041 4.32872004,0 3.21428571,0 C1.43908473,0 0,1.43908473 0,3.21428571 C0,4.9894867 1.43908473,6.42857143 3.21428571,6.42857143 C4.32872004,6.42857143 5.31068867,5.86141839 5.88730392,5 L4.96392241,5 C4.5130163,5.44185251 3.8954661,5.71428571 3.21428571,5.71428571 C1.83357384,5.71428571 0.714285714,4.59499759 0.714285714,3.21428571 C0.714285714,1.83357384 1.83357384,0.714285714 3.21428571,0.714285714 C3.8954661,0.714285714 4.5130163,0.986718921 4.96392241,1.42857143 L5.88730392,1.42857143 Z" id="Combined-Shape"></path>
                </g>
            </g>
            <path d="M102.494195,119.086911 C102.718237,119.086911 102.926679,118.905229 102.95716,118.683227 C102.95716,118.683227 103,118.371224 103,118.00018 C103,117.629136 102.95716,117.317133 102.95716,117.317133 C102.926559,117.095011 102.718237,116.913449 102.494195,116.913449 L101.336423,116.913449 C101.112261,116.913449 100.879459,116.770528 100.819218,116.595926 C100.758978,116.421324 100.676057,115.861159 100.834578,115.702757 L101.652987,114.884349 C101.811388,114.725827 101.823628,114.455345 101.680107,114.283143 L100.717217,113.320013 C100.545015,113.176372 100.274653,113.188612 100.116011,113.347133 L99.297603,114.165542 C99.1392014,114.324063 98.8750788,114.387904 98.7110371,114.307503 C98.5468755,114.227102 98.0869109,113.887979 98.0869109,113.663817 L98.0869109,112.506045 C98.0869109,112.281883 97.9052291,112.073561 97.6832268,112.04296 C97.6832268,112.04296 97.3712237,112 97.00018,112 C96.6291363,112 96.3171332,112.04296 96.3171332,112.04296 C96.095011,112.073441 95.9133291,112.281883 95.9133291,112.506045 L95.9133291,113.663817 C95.9133291,113.887979 95.7705277,114.120661 95.595806,114.181022 C95.4210842,114.241262 94.8610386,114.324183 94.702517,114.165662 L93.8841088,113.347253 C93.7255873,113.188732 93.4551046,113.176492 93.2830228,113.320013 L92.3200132,114.283023 C92.1763718,114.455225 92.1886119,114.725707 92.3471335,114.884229 L93.1654217,115.702637 C93.3239432,115.861159 93.3879039,116.125161 93.3073831,116.289203 C93.2268623,116.453245 92.8878589,116.913329 92.6636966,116.913329 L91.5060451,116.913329 C91.2818828,116.913329 91.0735607,117.095011 91.0429604,117.317013 C91.0429604,117.317013 91,117.629016 91,118.00006 C91,118.371224 91.0429604,118.683107 91.0429604,118.683107 C91.0734407,118.905229 91.2818828,119.086791 91.5060451,119.086791 L92.6638166,119.086791 C92.8879789,119.086791 93.1206612,119.229592 93.1809018,119.404314 C93.2411424,119.578916 93.3240632,120.138961 93.1655417,120.297483 L92.3472535,121.115771 C92.1887319,121.274293 92.1764918,121.544775 92.3201332,121.716977 L93.2830228,122.680107 C93.4552246,122.823628 93.7255873,122.811508 93.8841088,122.652987 L94.702517,121.834578 C94.8610386,121.676177 95.1250413,121.612216 95.2892029,121.692617 C95.4533645,121.773018 95.9133291,122.112141 95.9133291,122.336303 L95.9133291,123.494075 C95.9133291,123.718117 96.095011,123.926559 96.3171332,123.95704 C96.3171332,123.95704 96.6290163,123.99988 97.00018,123.99988 C97.3713437,123.99988 97.6832268,123.95704 97.6832268,123.95704 C97.9053491,123.926439 98.0869109,123.718117 98.0869109,123.494075 L98.0869109,122.336303 C98.0869109,122.112141 98.2297123,121.879339 98.404434,121.819098 C98.5791558,121.758858 99.1392014,121.676057 99.297723,121.834458 L100.116011,122.652867 C100.274533,122.811268 100.545015,122.823508 100.717217,122.679987 L101.680107,121.717217 C101.823628,121.545015 101.811508,121.274653 101.652867,121.116011 L100.834578,120.297723 C100.676057,120.139201 100.612096,119.875199 100.692617,119.711037 C100.773018,119.546875 101.112141,119.086911 101.336303,119.086911 L102.494195,119.086911 Z M97.00006,120.196322 C95.7870879,120.196322 94.803798,119.213152 94.803798,118.00006 C94.803798,116.787208 95.7870879,115.803798 97.00006,115.803798 C98.2130321,115.803798 99.196322,116.787088 99.196322,118.00006 C99.196322,119.213032 98.2130321,120.196322 97.00006,120.196322 Z" id="Shape" fill="#FFFFFF" fill-rule="nonzero"></path>
        </g>
        <g id="Group-8-Copy" transform="translate(16.000000, -230.000000)"></g>
    </g>
</svg>