<?xml version="1.0" encoding="UTF-8"?>
<svg width="75px" height="586px" viewBox="0 0 75 586" version="1.1" xmlns="http://www.w3.org/2000/svg" xmlns:xlink="http://www.w3.org/1999/xlink">
    <!-- Generator: Sketch 51.2 (57519) - http://www.bohemiancoding.com/sketch -->
    <title>Artboard</title>
    <desc>Created with Sketch.</desc>
    <defs></defs>
    <g id="Artboard" stroke="none" stroke-width="1" fill="none" fill-rule="evenodd">
        <g id="Tropical-Jungle--" transform="translate(0.000000, 286.000000)">
            <rect id="Rectangle-Copy-70" fill="#E35952" x="0" y="0" width="15" height="12"></rect>
            <rect id="Rectangle-Copy-71" fill="#F29463" x="15" y="0" width="15" height="12"></rect>
            <rect id="Rectangle-Copy-72" fill="#F8D47D" x="30" y="0" width="15" height="12"></rect>
            <rect id="Rectangle-Copy-73" fill="#DAE185" x="45" y="0" width="15" height="12"></rect>
            <rect id="Rectangle-Copy-74" fill="#92C36E" x="60" y="0" width="15" height="12"></rect>
        </g>
        <g id="Orange-and-Teal--" transform="translate(0.000000, 308.000000)">
            <rect id="Rectangle-Copy-70" fill="#F27B44" x="0" y="0" width="15" height="12"></rect>
            <rect id="Rectangle-Copy-71" fill="#FAB689" x="15" y="0" width="15" height="12"></rect>
            <rect id="Rectangle-Copy-72" fill="#E0E0E0" x="30" y="0" width="15" height="12"></rect>
            <rect id="Rectangle-Copy-73" fill="#7DD6CC" x="45" y="0" width="15" height="12"></rect>
            <rect id="Rectangle-Copy-74" fill="#3AA395" x="60" y="0" width="15" height="12"></rect>
        </g>
        <g id="Wild-Berry--Wild-Berry--Wild-Berry--" transform="translate(0.000000, 330.000000)">
            <rect id="Rectangle-Copy-70" fill="#F8DFA2" x="0" y="0" width="15" height="12"></rect>
            <rect id="Rectangle-Copy-71" fill="#ED9479" x="15" y="0" width="15" height="12"></rect>
            <rect id="Rectangle-Copy-72" fill="#C6597E" x="30" y="0" width="15" height="12"></rect>
            <rect id="Rectangle-Copy-73" fill="#8A5B9F" x="45" y="0" width="15" height="12"></rect>
            <rect id="Rectangle-Copy-74" fill="#4822A2" x="60" y="0" width="15" height="12"></rect>
        </g>
        <g id="Traffic-Lights--" transform="translate(0.000000, 352.000000)">
            <rect id="Rectangle-Copy-70" fill="#E56058" x="0" y="0" width="25" height="12"></rect>
            <rect id="Rectangle-Copy-73" fill="#F6DB7F" x="25" y="0" width="25" height="12"></rect>
            <rect id="Rectangle-Copy-74" fill="#92C36E" x="50" y="0" width="25" height="12"></rect>
        </g>
        <g id="Temperature" transform="translate(0.000000, 374.000000)">
            <rect id="Rectangle-Copy-70" fill="#CA1B30" x="0" y="0" width="25" height="12"></rect>
            <rect id="Rectangle-Copy-73" fill="#DDDDDD" x="25" y="0" width="25" height="12"></rect>
            <rect id="Rectangle-Copy-74" fill="#5086C2" x="50" y="0" width="25" height="12"></rect>
        </g>
        <g id="Marine-Blue--" transform="translate(0.000000, 22.000000)">
            <rect id="Rectangle-Copy-38" fill="#BCCEDE" x="0" y="0" width="15" height="12"></rect>
            <rect id="Rectangle-Copy-39" fill="#8DBAD7" x="15" y="0" width="15" height="12"></rect>
            <rect id="Rectangle-Copy-40" fill="#3F7DC0" x="30" y="0" width="15" height="12"></rect>
            <rect id="Rectangle-Copy-41" fill="#1F589D" x="45" y="0" width="15" height="12"></rect>
            <rect id="Rectangle-Copy-42" fill="#16397C" x="60" y="0" width="15" height="12"></rect>
        </g>
        <g id="Business-Blue--">
            <rect id="Rectangle-Copy-38" fill="#D2E0E8" x="0" y="0" width="15" height="12"></rect>
            <rect id="Rectangle-Copy-39" fill="#A9C6E2" x="15" y="0" width="15" height="12"></rect>
            <rect id="Rectangle-Copy-40" fill="#7DA6D2" x="30" y="0" width="15" height="12"></rect>
            <rect id="Rectangle-Copy-41" fill="#558DCC" x="45" y="0" width="15" height="12"></rect>
            <rect id="Rectangle-Copy-42" fill="#2E78BB" x="60" y="0" width="15" height="12"></rect>
        </g>
        <g id="Emerald" transform="translate(0.000000, 88.000000)">
            <rect id="Rectangle-Copy-48" fill="#D7F2C3" x="0" y="0" width="15" height="12"></rect>
            <rect id="Rectangle-Copy-49" fill="#A9E5AE" x="15" y="0" width="15" height="12"></rect>
            <rect id="Rectangle-Copy-50" fill="#6DD483" x="30" y="0" width="15" height="12"></rect>
            <rect id="Rectangle-Copy-51" fill="#35B27A" x="45" y="0" width="15" height="12"></rect>
            <rect id="Rectangle-Copy-52" fill="#009273" x="60" y="0" width="15" height="12"></rect>
        </g>
        <g id="Business-Teal--Business-Teal--Business-Teal--" transform="translate(0.000000, 44.000000)">
            <rect id="Rectangle-Copy-48" fill="#C1D5D2" x="0" y="0" width="15" height="12"></rect>
            <rect id="Rectangle-Copy-49" fill="#77A4AF" x="15" y="0" width="15" height="12"></rect>
            <rect id="Rectangle-Copy-50" fill="#488097" x="30" y="0" width="15" height="12"></rect>
            <rect id="Rectangle-Copy-51" fill="#1A5980" x="45" y="0" width="15" height="12"></rect>
            <rect id="Rectangle-Copy-52" fill="#2B4864" x="60" y="0" width="15" height="12"></rect>
        </g>
        <g id="Aquamarine" transform="translate(0.000000, 66.000000)">
            <rect id="Rectangle-Copy-48" fill="#D5E2DD" x="0" y="0" width="15" height="12"></rect>
            <rect id="Rectangle-Copy-49" fill="#94C4BC" x="15" y="0" width="15" height="12"></rect>
            <rect id="Rectangle-Copy-50" fill="#3DB3B9" x="30" y="0" width="15" height="12"></rect>
            <rect id="Rectangle-Copy-51" fill="#2293A9" x="45" y="0" width="15" height="12"></rect>
            <rect id="Rectangle-Copy-52" fill="#1A6E8C" x="60" y="0" width="15" height="12"></rect>
        </g>
        <g id="Tangerine" transform="translate(0.000000, 132.000000)">
            <rect id="Rectangle-Copy-70" fill="#F7DEA5" x="0" y="0" width="15" height="12"></rect>
            <rect id="Rectangle-Copy-71" fill="#F9C27E" x="15" y="0" width="15" height="12"></rect>
            <rect id="Rectangle-Copy-72" fill="#FBA555" x="30" y="0" width="15" height="12"></rect>
            <rect id="Rectangle-Copy-73" fill="#F1842F" x="45" y="0" width="15" height="12"></rect>
            <rect id="Rectangle-Copy-74" fill="#E8650A" x="60" y="0" width="15" height="12"></rect>
        </g>
        <g id="Honey" transform="translate(0.000000, 154.000000)">
            <rect id="Rectangle-Copy-70" fill="#FFF0B1" x="0" y="0" width="15" height="12"></rect>
            <rect id="Rectangle-Copy-71" fill="#FBDC8C" x="15" y="0" width="15" height="12"></rect>
            <rect id="Rectangle-Copy-72" fill="#F6C763" x="30" y="0" width="15" height="12"></rect>
            <rect id="Rectangle-Copy-73" fill="#F0AE34" x="45" y="0" width="15" height="12"></rect>
            <rect id="Rectangle-Copy-74" fill="#F19600" x="60" y="0" width="15" height="12"></rect>
        </g>
        <g id="Raspberry" transform="translate(0.000000, 220.000000)">
            <rect id="Rectangle-Copy-70" fill="#FADBAD" x="0" y="0" width="15" height="12"></rect>
            <rect id="Rectangle-Copy-71" fill="#F09D89" x="15" y="0" width="15" height="12"></rect>
            <rect id="Rectangle-Copy-72" fill="#F56262" x="30" y="0" width="15" height="12"></rect>
            <rect id="Rectangle-Copy-73" fill="#E73051" x="45" y="0" width="15" height="12"></rect>
            <rect id="Rectangle-Copy-74" fill="#C20F52" x="60" y="0" width="15" height="12"></rect>
        </g>
        <g id="Business-Red" transform="translate(0.000000, 198.000000)">
            <rect id="Rectangle-Copy-70" fill="#F3DFD8" x="0" y="0" width="15" height="12"></rect>
            <rect id="Rectangle-Copy-71" fill="#EEAEA8" x="15" y="0" width="15" height="12"></rect>
            <rect id="Rectangle-Copy-72" fill="#E87C77" x="30" y="0" width="15" height="12"></rect>
            <rect id="Rectangle-Copy-73" fill="#E34A46" x="45" y="0" width="15" height="12"></rect>
            <rect id="Rectangle-Copy-74" fill="#C80C08" x="60" y="0" width="15" height="12"></rect>
        </g>
        <g id="Gray" transform="translate(0.000000, 264.000000)">
            <rect id="Rectangle-Copy-70" fill="#DDE0E3" x="0" y="0" width="15" height="12"></rect>
            <rect id="Rectangle-Copy-71" fill="#C1C7CB" x="15" y="0" width="15" height="12"></rect>
            <rect id="Rectangle-Copy-72" fill="#A3AAB1" x="30" y="0" width="15" height="12"></rect>
            <rect id="Rectangle-Copy-73" fill="#7F848A" x="45" y="0" width="15" height="12"></rect>
            <rect id="Rectangle-Copy-74" fill="#5C5F61" x="60" y="0" width="15" height="12"></rect>
        </g>
        <g id="Sunflower" transform="translate(0.000000, 176.000000)">
            <rect id="Rectangle-Copy-38" fill="#FAFFC2" x="0" y="0" width="15" height="12"></rect>
            <rect id="Rectangle-Copy-39" fill="#F7F670" x="15" y="0" width="15" height="12"></rect>
            <rect id="Rectangle-Copy-40" fill="#ECE414" x="30" y="0" width="15" height="12"></rect>
            <rect id="Rectangle-Copy-41" fill="#F8D90B" x="45" y="0" width="15" height="12"></rect>
            <rect id="Rectangle-Copy-42" fill="#FBC300" x="60" y="0" width="15" height="12"></rect>
        </g>
        <g id="Yellow-to-Green" transform="translate(0.000000, 110.000000)">
            <rect id="Rectangle-Copy-48" fill="#F0D900" x="0" y="0" width="15" height="12"></rect>
            <rect id="Rectangle-Copy-49" fill="#C3C500" x="15" y="0" width="15" height="12"></rect>
            <rect id="Rectangle-Copy-50" fill="#8AC153" x="30" y="0" width="15" height="12"></rect>
            <rect id="Rectangle-Copy-51" fill="#4FB24A" x="45" y="0" width="15" height="12"></rect>
            <rect id="Rectangle-Copy-52" fill="#589867" x="60" y="0" width="15" height="12"></rect>
        </g>
        <g id="Lavender" transform="translate(0.000000, 242.000000)">
            <rect id="Rectangle-Copy-70" fill="#FADDD6" x="0" y="0" width="15" height="12"></rect>
            <rect id="Rectangle-Copy-71" fill="#EDC1D3" x="15" y="0" width="15" height="12"></rect>
            <rect id="Rectangle-Copy-72" fill="#BB8FC3" x="30" y="0" width="15" height="12"></rect>
            <rect id="Rectangle-Copy-73" fill="#7A53AB" x="45" y="0" width="15" height="12"></rect>
            <rect id="Rectangle-Copy-74" fill="#484C97" x="60" y="0" width="15" height="12"></rect>
        </g>
        <g id="Group-6-Copy-21" transform="translate(0.000000, 418.000000)">
            <rect id="Rectangle-Copy-70" fill="#DADEE1" x="0" y="0" width="15" height="12"></rect>
            <rect id="Rectangle-Copy-71" fill="#B9C0C5" x="15" y="0" width="15" height="12"></rect>
            <rect id="Rectangle-Copy-72" fill="#969FA6" x="30" y="0" width="15" height="12"></rect>
            <rect id="Rectangle-Copy-73" fill="#6C7278" x="45" y="0" width="15" height="12"></rect>
            <rect id="Rectangle-Copy-74" fill="#434649" x="60" y="0" width="15" height="12"></rect>
        </g>
        <g id="Group-6-Copy-23" transform="translate(0.000000, 440.000000)">
            <rect id="Rectangle-Copy-70" fill="#F27B44" x="0" y="0" width="15" height="12"></rect>
            <rect id="Rectangle-Copy-71" fill="#FAB689" x="15" y="0" width="15" height="12"></rect>
            <rect id="Rectangle-Copy-72" fill="#E0E0E0" x="30" y="0" width="15" height="12"></rect>
            <rect id="Rectangle-Copy-73" fill="#7DD6CC" x="45" y="0" width="15" height="12"></rect>
            <rect id="Rectangle-Copy-74" fill="#3AA395" x="60" y="0" width="15" height="12"></rect>
        </g>
        <g id="Group-6-Copy-22" transform="translate(0.000000, 396.000000)">
            <rect id="Rectangle-Copy-70" fill="#F29426" x="0" y="0" width="15" height="12"></rect>
            <rect id="Rectangle-Copy-71" fill="#F8C362" x="15" y="0" width="15" height="12"></rect>
            <rect id="Rectangle-Copy-72" fill="#DFDFDF" x="30" y="0" width="15" height="12"></rect>
            <rect id="Rectangle-Copy-73" fill="#9B78CE" x="45" y="0" width="15" height="12"></rect>
            <rect id="Rectangle-Copy-74" fill="#5226A7" x="60" y="0" width="15" height="12"></rect>
        </g>
    </g>
</svg>