<?xml version="1.0" encoding="UTF-8" standalone="no"?>
<svg width="16px" height="16px" viewBox="0 0 16 16" version="1.1" xmlns="http://www.w3.org/2000/svg" xmlns:xlink="http://www.w3.org/1999/xlink">
    <!-- Generator: Sketch 41.2 (35397) - http://www.bohemiancoding.com/sketch -->
    <title>bt_info </title>
    <desc>Created with Sketch.</desc>
    <defs></defs>
    <g id="Page-1" stroke="none" stroke-width="1" fill="none" fill-rule="evenodd">
        <g id="bt_info-" fill="#FFFFFF">
            <path d="M9.29223529,11.4440327 L6.58823529,11.4440327 L6.58823529,10.8878301 L6.80376471,10.8708899 C6.88376471,10.8643021 6.96376471,10.855832 7.04376471,10.8454797 C7.10964706,10.8370096 7.16705882,10.8238339 7.21505882,10.8059526 C7.248,10.7946591 7.27341176,10.7796012 7.29411765,10.762661 L7.29411765,7.20992883 C7.29411765,7.18357744 7.29317647,7.16099053 7.29035294,7.14216811 C7.23858824,7.10828775 7.17552941,7.07346627 7.10117647,7.03770366 C7.02211765,6.9991177 6.93741176,6.96429622 6.848,6.93323922 L6.69176471,6.87677195 L6.69176471,6.47867772 L6.85458824,6.42503382 L8.33035294,5.95635551 L8.62776471,5.95635551 L8.62776471,6.19163579 L8.62305882,10.7890124 C8.62494118,10.801247 8.62305882,10.7974825 8.61364706,10.7927769 C8.63341176,10.8050115 8.65882353,10.8153638 8.69176471,10.8238339 C8.74070588,10.8341862 8.79529412,10.8407741 8.85458824,10.8435974 C8.93929412,10.8473619 9.02211765,10.8577143 9.10305882,10.8746544 L9.29223529,10.9122993 L9.29223529,11.4440327 Z M7.35058824,3.98658902 C7.50305882,3.83977413 7.69505882,3.76448444 7.91435294,3.76448444 C8.13364706,3.76448444 8.32564706,3.83977413 8.47811765,3.98658902 C8.63152941,4.13622728 8.71058824,4.32821599 8.71058824,4.55032057 C8.71058824,4.77148403 8.63247059,4.96535498 8.48094118,5.11687548 C8.32847059,5.26839598 8.13552941,5.34650903 7.91435294,5.34650903 C7.69882353,5.34650903 7.50776471,5.26651373 7.35247059,5.11122875 C7.19811765,4.95688489 7.11811765,4.7658373 7.11811765,4.55032057 C7.11811765,4.32821599 7.19623529,4.13622728 7.35058824,3.98658902 L7.35058824,3.98658902 Z M8,0 C3.58211765,0 0,3.58190695 0,7.99952944 C0,12.4180931 3.58211765,16 8,16 C12.4178824,16 16,12.4180931 16,7.99952944 C16,3.58190695 12.4178824,0 8,0 L8,0 Z" id="bt_info"></path>
        </g>
    </g>
</svg>