<?xml version="1.0" encoding="UTF-8"?>
<svg width="12px" height="16px" viewBox="0 0 12 16" version="1.1" xmlns="http://www.w3.org/2000/svg" xmlns:xlink="http://www.w3.org/1999/xlink">
    <!-- Generator: Sketch 48.1 (47250) - http://www.bohemiancoding.com/sketch -->
    <title>ACL_Modify</title>
    <desc>Created with Sketch.</desc>
    <defs></defs>
    <g id="Page-1" stroke="none" stroke-width="1" fill="none" fill-rule="evenodd">
        <g id="ACL_View" transform="translate(-3.000000, -1.000000)">
            <g id="ACL_Modify"></g>
            <g id="view" transform="translate(3.000000, 1.000000)" fill="#444649">
                <path d="M2,4 L2,5 C2,7.2 3.8,8.03540039 6,8.03540039 C8.2,8.03540039 10,7.2 10,5 L10,4 C10,1.8 8.2,0 6,0 C3.8,0 2,1.8 2,4 Z M6,2 C7.103,2 8,2.897 8,4 L8,5 C8,6.103 7.103,7 6,7 C4.897,7 4,6.103 4,5 L4,4 C4,2.897 4.897,2 6,2" id="Fill-1"></path>
                <path d="M1.002,5 L10.998,5 C11.551,5 12,5.445 12,5.996 L12,15.004 C12,15.554 11.544,16 10.998,16 L1.002,16 C0.449,16 0,15.555 0,15.004 L0,5.996 C0,5.446 0.456,5 1.002,5 Z M2.122,10.271 C1.96,10.43 1.96,10.691 2.122,10.851 C2.721,11.441 4.226,12.722 5.988,12.722 C7.751,12.722 9.256,11.441 9.855,10.851 C10.017,10.692 10.017,10.43 9.855,10.271 C9.256,9.681 7.751,8.401 5.988,8.401 C4.226,8.401 2.721,9.681 2.122,10.271 Z M4.455,10.562 C4.455,9.71 5.141,9.02 5.988,9.02 C6.836,9.02 7.523,9.71 7.523,10.562 C7.523,11.412 6.836,12.102 5.988,12.102 C5.141,12.102 4.455,11.412 4.455,10.562 Z M5.169,10.549 C5.169,10.991 5.526,11.349 5.966,11.349 C6.406,11.349 6.762,10.991 6.762,10.549 C6.762,10.107 6.406,9.749 5.966,9.749 C5.526,9.749 5.169,10.107 5.169,10.549 Z" id="Combined-Shape"></path>
            </g>
        </g>
    </g>
</svg>