<?xml version="1.0" encoding="UTF-8" standalone="no"?>
<svg width="217px" height="469px" viewBox="0 0 217 469" version="1.1" xmlns="http://www.w3.org/2000/svg" xmlns:xlink="http://www.w3.org/1999/xlink">
    <!-- Generator: Sketch 40.1 (33804) - http://www.bohemiancoding.com/sketch -->
    <title>Artboard</title>
    <desc>Created with Sketch.</desc>
    <defs>
        <polygon id="path-1" points="0.0735616438 0.878458333 0.0735616438 19.2705 25.2770068 19.2705 25.2770068 0.878458333 0.0735616438 0.878458333"></polygon>
        <polygon id="path-3" points="0.077239726 25.3025 132.629192 25.3025 132.629192 0.747958333 0.077239726 0.747958333 0.077239726 25.3025"></polygon>
        <path d="M17,8.5 C17,3.80557993 13.1944164,0 8.5,0 C3.80557993,0 0,3.80557993 0,8.5 C0,13.1944164 3.80557993,17 8.5,17 C13.1944164,17 17,13.1944164 17,8.5 Z" id="path-5"></path>
        <mask id="mask-6" maskContentUnits="userSpaceOnUse" maskUnits="objectBoundingBox" x="-1" y="-1" width="19" height="19">
            <rect x="-1" y="-1" width="19" height="19" fill="white"></rect>
            <use xlink:href="#path-5" fill="black"></use>
        </mask>
        <polygon id="path-7" points="0 3 10 5.43751812 10 18 0 16"></polygon>
        <mask id="mask-8" maskContentUnits="userSpaceOnUse" maskUnits="objectBoundingBox" x="0" y="0" width="10" height="15" fill="white">
            <use xlink:href="#path-7"></use>
        </mask>
        <polygon id="path-9" points="9 3 19 5.43751812 19 18 9 16"></polygon>
        <mask id="mask-10" maskContentUnits="userSpaceOnUse" maskUnits="objectBoundingBox" x="0" y="0" width="10" height="15" fill="white">
            <use xlink:href="#path-9"></use>
        </mask>
        <polygon id="path-11" points="4 0 10 4.86627567 10 18 4 13"></polygon>
        <mask id="mask-12" maskContentUnits="userSpaceOnUse" maskUnits="objectBoundingBox" x="0" y="0" width="6" height="18" fill="white">
            <use xlink:href="#path-11"></use>
        </mask>
        <polygon id="path-13" points="9 0 15 5.86627567 15 18 9 12"></polygon>
        <mask id="mask-14" maskContentUnits="userSpaceOnUse" maskUnits="objectBoundingBox" x="0" y="0" width="6" height="18" fill="white">
            <use xlink:href="#path-13"></use>
        </mask>
        <path d="M13.2411714,13.007703 C11.8745387,12.1828856 11,10.9180401 11,9.5 C11,7.01471863 13.6862915,5 17,5 C20.3137085,5 23,7.01471863 23,9.5 C23,11.9852814 20.3137085,14 17,14 C16.5193098,14 16.0518222,13.9576048 15.6038218,13.877528 L13.4647316,15.5039577 L13.2411714,13.007703 Z" id="path-15"></path>
        <mask id="mask-16" maskContentUnits="userSpaceOnUse" maskUnits="objectBoundingBox" x="-1" y="-1" width="14" height="12.5039577">
            <rect x="10" y="4" width="14" height="12.5039577" fill="white"></rect>
            <use xlink:href="#path-15" fill="black"></use>
        </mask>
        <path d="M3.06459773,9.93559059 C1.20623456,8.93455949 0,7.32058118 0,5.5 C0,2.46243388 3.35786438,8.8817842e-16 7.5,8.8817842e-16 C11.6421356,8.8817842e-16 15,2.46243388 15,5.5 C15,8.53756612 11.6421356,11 7.5,11 C6.86773088,11 6.25373525,10.9426254 5.66716631,10.8345885 L3.30589956,12.6299471 L3.06459773,9.93559059 Z" id="path-17"></path>
        <mask id="mask-18" maskContentUnits="userSpaceOnUse" maskUnits="objectBoundingBox" x="-1" y="-1" width="17" height="14.6299471">
            <rect x="-1" y="-1" width="17" height="14.6299471" fill="white"></rect>
            <use xlink:href="#path-17" fill="black"></use>
        </mask>
        <path d="M18.20086,0 L1.799143,0 C0.8071429,0 0,0.8149 0,1.81644 L0,13.183558 C0,14.1850962 0.8071429,15 1.799143,15 L18.20086,15 C19.19286,15 20,14.1850962 20,13.183558 L20,1.81644 C20,0.8149 19.19286,0 18.20086,0 L18.20086,0 Z M18.88889,12.836229 C18.88889,13.477833 18.36956,14 17.73145,14 L2.268552,14 C1.630438,14 1.111111,13.477833 1.111111,12.836229 L1.111111,2.16377 C1.111111,1.52217 1.630438,1 2.268552,1 L17.73145,1 C18.36956,1 18.88889,1.52217 18.88889,2.16377 L18.88889,12.836229 L18.88889,12.836229 Z" id="path-19"></path>
    </defs>
    <g id="Page-1" stroke="none" stroke-width="1" fill="none" fill-rule="evenodd">
        <g id="Artboard">
            <g id="Logo_MicroStrategy">
                <g id="Group-3" transform="translate(0.000000, 3.625000)">
                    <mask id="mask-2" fill="white">
                        <use xlink:href="#path-1"></use>
                    </mask>
                    <g id="Clip-2"></g>
                    <polyline id="Fill-1" fill="#FFFFFF" mask="url(#mask-2)" points="3.03196575 0.878458333 9.99089726 0.878458333 12.5716849 10.5439167 12.7322945 10.5439167 12.7825616 10.22975 12.8377329 9.92041667 12.888 9.60745833 12.9407192 9.2945 12.9958904 8.98395833 13.0461575 8.69879167 13.1246233 8.38704167 13.2067671 8.09945833 15.3130822 0.878458333 22.2192945 0.878458333 25.2770068 19.2705 18.7398288 19.2705 17.8178562 9.19058333 17.6842192 9.19058333 17.6339521 9.42620833 17.5812329 9.65820833 17.5285137 9.89141667 17.4745685 10.1294583 17.4488219 10.3336667 17.3679041 10.5680833 17.3151849 10.8025 17.2391712 11.0103333 14.5480411 19.2705 10.5695822 19.2705 8.17024658 11.4779583 8.09178082 11.1952083 8.01208904 10.9052083 7.95936986 10.6236667 7.90542466 10.3336667 7.85393151 10.0497083 7.80366438 9.76454167 7.77791781 9.479375 7.7460411 9.19058333 7.50941781 9.19058333 7.48734932 9.45279167 7.48734932 9.73675 7.45915068 10.023125 7.43217808 10.3070833 7.40643151 10.5680833 7.38068493 10.8556667 7.38068493 11.1408333 7.35371233 11.3994167 6.56415068 19.2705 0 19.2705 3.03196575 0.878458333"></polyline>
                </g>
                <polyline id="Fill-4" fill="#FFFFFF" points="37.7959726 16.1940833 37.8486918 15.98625 37.8756644 15.7784167 37.9541301 15.59475 38.0338219 15.4400833 38.1404863 15.286625 38.2422466 15.127125 38.3771096 15.00025 38.5095205 14.8709583 38.6664521 14.7658333 38.8246096 14.6872917 39.0072877 14.6099583 39.1924178 14.558 39.378774 14.5084583 39.5896507 14.4806667 40.142589 14.4806667 40.3007466 14.5302083 40.4576781 14.558 40.6195137 14.6099583 40.7752192 14.6607083 40.9333767 14.713875 41.0670137 14.79 41.2227192 14.8709583 41.3563562 14.9736667 41.5120616 15.0522083 41.6469247 15.1549167 41.9080685 15.3349583 42.1704384 15.5452083 42.1704384 10.2962083 41.6726712 10.1657083 41.17 10.0364167 40.6697808 9.90591667 40.1695616 9.82979167 39.6668904 9.75125 39.1396986 9.67270833 38.6664521 9.646125 37.770226 9.646125 37.4269384 9.67270833 37.0591301 9.725875 36.740363 9.77783333 36.3970753 9.85395833 36.0574658 9.93370833 35.7399247 10.063 35.4248356 10.1657083 35.1330411 10.2962083 34.8461507 10.4532917 34.5543562 10.6091667 34.2662397 10.7904167 34.0283904 10.99825 33.7635685 11.1807083 33.5257192 11.3873333 33.2903219 11.6205417 33.0500205 11.8803333 32.8415959 12.118375 32.6576918 12.37575 32.4701096 12.6355417 32.3144041 12.894125 32.1574726 13.1805 32.0238356 13.4934583 31.8644521 13.8027917 31.7590137 14.090375 31.6805479 14.344125 31.6805479 9.93370833 25.2770068 9.93370833 25.2770068 22.8955 31.6805479 22.8955 31.6805479 18.7146667 31.7859863 19.0517917 31.9171712 19.3623333 32.0520342 19.6475 32.2089658 19.9616667 32.3658973 20.2190417 32.5522534 20.506625 32.7361575 20.767625 32.9740068 21.0020417 33.1836575 21.2340417 33.4190548 21.4442917 33.6851027 21.6750833 33.9486986 21.8563333 34.2110685 22.036375 34.501637 22.1934583 34.7909795 22.348125 35.082774 22.5088333 35.396637 22.638125 35.7399247 22.7408333 36.0574658 22.8423333 36.4265 22.9220833 36.7685616 22.9982083 37.1375959 23.080375 37.5066301 23.1069583 37.8756644 23.1552917 38.2704452 23.1552917 38.6664521 23.1830833 38.8773288 23.1552917 39.3003082 23.1552917 39.5099589 23.131125 39.9317123 23.080375 40.3277192 22.9982083 40.7225 22.8955 41.1160548 22.7927917 41.5120616 22.688875 41.8798699 22.558375 42.1704384 17.2598333 41.8798699 17.4422917 41.5917534 17.62475 41.302411 17.780625 41.0130685 17.9352917 40.8536849 18.0114167 40.6955274 18.0621667 40.5373699 18.11775 40.3779863 18.1697083 40.2222808 18.193875 40.0371507 18.2180417 39.8777671 18.244625 39.4842123 18.244625 39.3003082 18.2180417 39.112726 18.1697083 38.9570205 18.0899583 38.800089 18.0114167 38.6394795 17.9352917 38.4825479 17.831375 38.351363 17.700875 38.2422466 17.5691667 38.1404863 17.4422917 38.0080753 17.287625 37.9283836 17.1305417 37.8756644 16.946875 37.8486918 16.7668333 37.7959726 16.5855833 37.7959726 16.1940833"></polyline>
                <g id="Group-8" transform="translate(42.910959, 3.625000)">
                    <mask id="mask-4" fill="white">
                        <use xlink:href="#path-3"></use>
                    </mask>
                    <g id="Clip-6"></g>
                    <polyline id="Fill-5" fill="#FFFFFF" mask="url(#mask-4)" points="122.142979 6.12625 122.770705 11.1952083 122.828329 13.166 123.009781 13.166 123.646089 11.1952083 125.909336 6.12625 132.629192 6.12625 121.2725 24.389 114.525671 24.389 119.005575 17.7673333 115.262514 6.12625 122.142979 6.12625"></polyline>
                    <path d="M108.673842,12.256125 L108.673842,12.441 L108.645644,12.62225 L108.619897,12.8059167 L108.568404,12.98475 L108.487486,13.166 L108.435993,13.321875 L108.355075,13.4801667 L108.248411,13.6348333 L108.145425,13.7653333 L108.03876,13.894625 L107.906349,14.0239167 L107.777616,14.1278333 L107.642753,14.206375 L107.485822,14.2849167 L107.305596,14.36225 L107.14376,14.3864167 L106.93411,14.4117917 L106.745301,14.4371667 L106.536877,14.4117917 L106.354199,14.3864167 L106.164164,14.36225 L106.010911,14.3102917 L105.855205,14.2305417 L105.720342,14.1278333 L105.61613,14.0239167 L105.510692,13.92 L105.402801,13.7882917 L105.352534,13.662625 L105.27039,13.5055417 L105.247096,13.3496667 L105.220123,13.166 L105.193151,12.98475 L105.220123,12.8059167 L105.27039,12.4132083 L105.324336,12.2295417 L105.402801,12.0482917 L105.481267,11.8924167 L105.563411,11.7099583 L105.667623,11.5842917 L105.802486,11.4272083 L105.933671,11.2955 L106.06363,11.165 L106.219336,11.0622917 L106.379945,10.9849583 L106.536877,10.9052083 L106.724459,10.8302917 L106.908363,10.7747083 L107.092267,10.7747083 L107.276171,10.7505417 L107.485822,10.7747083 L107.642753,10.8025 L107.802137,10.8556667 L107.962747,10.9052083 L108.093932,10.9849583 L108.221438,11.088875 L108.330555,11.1952083 L108.409021,11.3232917 L108.487486,11.4779583 L108.568404,11.60725 L108.619897,11.7655417 L108.645644,11.9202083 L108.673842,12.1026667 L108.673842,12.256125 L108.673842,12.256125 Z M93.3313356,10.8834583 L93.3313356,11.2459583 L90.038226,11.2459583 L90.0651986,11.0622917 L90.1179178,10.8834583 L90.1681849,10.6985833 L90.2233562,10.5439167 L90.3263425,10.385625 L90.4035822,10.22975 L90.5102466,10.0750833 L90.616911,9.97116667 L90.7480959,9.84308333 L90.8817329,9.73675 L91.0104658,9.63404167 L91.1686233,9.5555 L91.3280068,9.479375 L91.514363,9.42620833 L91.6982671,9.40083333 L92.0905959,9.40083333 L92.2512055,9.42620833 L92.410589,9.479375 L92.5675205,9.5555 L92.6987055,9.63404167 L92.8311164,9.73675 L92.9390068,9.84308333 L93.0432192,9.97116667 L93.1204589,10.1016667 L93.2013767,10.22975 L93.2528699,10.385625 L93.305589,10.5439167 L93.3313356,10.7251667 L93.3313356,10.8834583 L93.3313356,10.8834583 Z M68.6072671,12.4905417 L68.6072671,12.6717917 L68.555774,12.8554583 L68.5275753,13.0632917 L68.4515616,13.2179583 L68.3976164,13.4028333 L68.3203767,13.5804583 L68.2137123,13.7375417 L68.1119521,13.894625 L67.977089,14.0239167 L67.841,14.155625 L67.7122671,14.2849167 L67.5541096,14.3864167 L67.3984041,14.4649583 L67.2108219,14.5447083 L67.0011712,14.568875 L66.9214795,14.5930417 L66.7878425,14.619625 L66.3697671,14.619625 L66.183411,14.5930417 L66.0779726,14.568875 L66.0007329,14.5447083 L65.9210411,14.5193333 L65.8413493,14.4649583 L65.7874041,14.4371667 L65.7101644,14.3864167 L65.6574452,14.3356667 L65.6035,14.3102917 L65.4992877,14.181 L65.4171438,14.075875 L65.3411301,13.92 L65.288411,13.7653333 L65.2356918,13.6094583 L65.2087192,13.4511667 L65.1805205,13.2977083 L65.1805205,13.1140417 L65.2087192,12.908625 L65.2356918,12.72375 L65.2614384,12.5425 L65.3153836,12.3878333 L65.3901712,12.2041667 L65.4465685,12.0482917 L65.5507808,11.8924167 L65.6574452,11.734125 L65.7628836,11.60725 L65.8683219,11.4779583 L66.0007329,11.37525 L66.1306918,11.2459583 L66.318274,11.165 L66.4727534,11.088875 L66.634589,11.0103333 L66.8160411,10.9849583 L66.9214795,10.958375 L67.0011712,10.958375 L67.1581027,10.933 L67.3432329,10.958375 L67.525911,10.9849583 L67.6840685,11.0103333 L67.841,11.088875 L67.977089,11.1408333 L68.1327945,11.2169583 L68.2406849,11.3232917 L68.3203767,11.4537917 L68.423363,11.5540833 L68.4760822,11.6845833 L68.555774,11.842875 L68.5827466,11.9975417 L68.6072671,12.1534167 L68.6354658,12.3105 L68.6072671,12.4905417 L68.6072671,12.4905417 Z M19.688774,13.0367083 L19.6605753,13.2179583 L19.6348288,13.4028333 L19.5588151,13.5575 L19.5048699,13.7109583 L19.3994315,13.8668333 L19.2927671,13.99975 L19.1861027,14.1278333 L19.0536918,14.2305417 L18.9249589,14.3356667 L18.7668014,14.4117917 L18.6074178,14.49275 L18.4504863,14.5447083 L18.2923288,14.5930417 L18.1059726,14.619625 L17.7369384,14.619625 L17.5542603,14.5930417 L17.3948767,14.5447083 L17.2367192,14.49275 L17.051589,14.4117917 L16.9204041,14.3356667 L16.7892192,14.2305417 L16.6568082,14.1278333 L16.5513699,13.99975 L16.4459315,13.8668333 L16.3404932,13.7109583 L16.287774,13.5575 L16.2350548,13.4028333 L16.1811096,13.2179583 L16.156589,13.0367083 L16.156589,12.6488333 L16.1811096,12.4651667 L16.2117603,12.2839167 L16.2620274,12.1026667 L16.3404932,11.9455833 L16.421411,11.792125 L16.5243973,11.632625 L16.6322877,11.502125 L16.7646986,11.3994167 L16.8934315,11.270125 L17.0270685,11.165 L17.184,11.088875 L17.3703562,11.0357083 L17.5542603,10.9849583 L17.7369384,10.958375 L17.9220685,10.933 L18.1059726,10.958375 L18.3156233,10.9849583 L18.4762329,11.0357083 L18.6343904,11.088875 L18.7913219,11.165 L18.9507055,11.270125 L19.0818904,11.3994167 L19.2155274,11.502125 L19.3185137,11.632625 L19.4251781,11.792125 L19.5048699,11.9455833 L19.5833356,12.1026667 L19.6348288,12.2839167 L19.6605753,12.4651667 L19.688774,12.6488333 L19.7145205,12.8276667 L19.688774,13.0367083 L19.688774,13.0367083 Z M109.462178,6.12625 L109.332219,7.97258333 L109.17161,7.97258333 L109.042877,7.710375 L108.910466,7.478375 L108.74863,7.26933333 L108.591699,7.0615 L108.409021,6.88145833 L108.221438,6.69779167 L108.015466,6.54070833 L107.802137,6.38845833 L107.593712,6.25795833 L107.357089,6.15283333 L107.092267,6.04770833 L106.93411,5.99575 L106.85074,5.97158333 L106.563849,5.89304167 L106.274507,5.86525 L105.98639,5.84108333 L105.667623,5.81570833 L105.324336,5.84108333 L105.009247,5.86525 L104.691705,5.91841667 L104.37539,5.97158333 L104.061527,6.07429167 L103.743986,6.17820833 L103.453418,6.28091667 L103.165301,6.438 L102.873507,6.59266667 L102.609911,6.74854167 L102.347541,6.934625 L102.083945,7.11466667 L101.820349,7.3225 L101.581274,7.529125 L101.348329,7.76233333 L101.135,7.99554167 L100.924123,8.25533333 L100.712021,8.493375 L100.524438,8.77491667 L100.344212,9.03591667 L100.157856,9.2945 L99.9739521,9.58329167 L99.8145685,9.89141667 L99.6870616,10.1777917 L99.5521986,10.465375 L99.4234658,10.7747083 L99.3155753,11.0622917 L99.212589,11.3631667 L99.212589,11.3232917 L99.1574178,10.933 L99.0814041,10.5680833 L98.9992603,10.22975 L98.8656233,9.89141667 L98.7332123,9.5555 L98.6044795,9.24254167 L98.4181233,8.93320833 L98.2084726,8.645625 L98.0245685,8.38704167 L97.7867192,8.12604167 L97.5500959,7.86745833 L97.287726,7.63425 L97.0241301,7.42520833 L96.7323356,7.21616667 L96.4184726,7.036125 L96.0997055,6.85366667 L95.7576438,6.69779167 L95.4131301,6.56608333 L95.0735205,6.438 L94.7020342,6.3365 L94.3109315,6.22895833 L93.9112466,6.15283333 L93.5152397,6.100875 L93.0947123,6.04770833 L92.6741849,6.021125 L91.6982671,6.021125 L91.4591918,6.04770833 L91.065637,6.100875 L90.6990548,6.12625 L90.3263425,6.20479167 L89.9597603,6.28091667 L89.5613014,6.41141667 L89.2204658,6.51654167 L88.8514315,6.64583333 L88.5081438,6.77391667 L88.1660822,6.934625 L87.8240205,7.08808333 L87.5077055,7.26933333 L87.1889384,7.478375 L86.8995959,7.685 L86.6102534,7.89404167 L86.2963904,8.12604167 L86.0291164,8.38704167 L85.5006986,8.90783333 L85.2665274,9.19058333 L85.0985616,9.42016667 L85.5828425,6.38845833 L83.4495548,6.49116667 L84.1336781,2.15204167 L77.7043904,2.15204167 L77.016589,6.49116667 L75.6581507,6.39933333 L75.674089,6.30870833 L69.4274795,6.30870833 L69.3723082,7.83966667 L69.2398973,7.83966667 L69.0841918,7.60525 L68.9235822,7.40104167 L68.7654247,7.21616667 L68.5827466,7.036125 L68.3976164,6.85366667 L68.2137123,6.72195833 L68.0040616,6.59266667 L67.7637603,6.46458333 L67.5541096,6.361875 L67.3162603,6.25795833 L67.0526644,6.17820833 L66.9214795,6.15283333 L66.8160411,6.12625 L66.5242466,6.07429167 L66.2618767,6.04770833 L65.9713082,6.021125 L65.3411301,6.021125 L64.9978425,6.04770833 L64.6803014,6.100875 L64.3394658,6.17820833 L64.0452192,6.25795833 L63.7313562,6.38845833 L63.4150411,6.49116667 L63.1256986,6.61804167 L62.8363562,6.77391667 L62.5727603,6.95275 L62.2834178,7.13883333 L62.0418904,7.3225 L61.7819726,7.529125 L61.5441233,7.73816667 L61.3320205,7.97258333 L61.0978493,8.20579167 L60.861226,8.46558333 L60.6748699,8.725375 L60.4639932,8.98395833 L60.280089,9.24254167 L60.1231575,9.52891667 L59.9368014,9.81408333 L59.8043904,10.1016667 L59.6486849,10.4122083 L59.5125959,10.6985833 L59.383863,11.0103333 L59.3139795,11.1746667 L60.1231575,6.15283333 L59.7259247,6.12625 L59.3581164,6.15283333 L59.0160548,6.17820833 L58.6715411,6.20479167 L58.3564521,6.25795833 L58.041363,6.30870833 L57.7483425,6.41141667 L57.4565479,6.51654167 L57.326589,6.56608333 L57.1941781,6.61804167 L57.0629932,6.69779167 L56.9318082,6.77391667 L56.7736507,6.85366667 L56.6682123,6.934625 L56.5358014,7.036125 L56.4058425,7.13883333 L56.1385685,7.347875 L55.8774247,7.60525 L55.6138288,7.86745833 L55.3514589,8.17920833 L55.1920753,8.17920833 L55.6432534,6.438 L49.2617808,6.438 L49.2568767,6.46820833 L47.0733219,6.56608333 L47.7856438,2.20520833 L41.3539041,2.20520833 L40.6403562,6.56608333 L39.0894315,6.46458333 L38.4911301,10.313125 L38.4813219,10.2853333 L38.3758836,10.1294583 L38.2434726,9.94458333 L38.1380342,9.76454167 L38.0068493,9.58329167 L37.8486918,9.45279167 L37.7199589,9.2945 L37.5323767,9.16641667 L37.3484726,9.03591667 L37.1903151,8.877625 L37.0051849,8.77491667 L36.7930822,8.67220833 L36.6104041,8.57070833 L36.3983014,8.46558333 L36.1604521,8.36166667 L35.9495753,8.25533333 L35.7141781,8.17920833 L35.4763288,8.09945833 L35.2409315,8.02575 L34.9761096,7.94479167 L34.7137397,7.89404167 L33.2388288,7.55570833 L33.0524726,7.50375 L32.8415959,7.453 L32.7079589,7.42520833 L32.6307192,7.40104167 L32.4995342,7.37325 L32.4186164,7.3225 L32.310726,7.26933333 L32.2334863,7.21616667 L32.1574726,7.13883333 L32.1047534,7.0615 L32.0508082,6.98416667 L32.0226096,6.905625 L32.0226096,6.67120833 L32.0508082,6.51654167 L32.1047534,6.41141667 L32.1574726,6.28091667 L32.2334863,6.17820833 L32.3413767,6.100875 L32.444363,6.021125 L32.5498014,5.94620833 L32.6576918,5.86525 L32.7864247,5.84108333 L32.893089,5.79033333 L33.0255,5.76375 L33.157911,5.71058333 L33.4202808,5.68520833 L33.9229521,5.68520833 L34.1853219,5.71058333 L34.4489178,5.73595833 L34.7137397,5.79033333 L34.949137,5.84108333 L35.1833082,5.91841667 L35.4236096,5.99575 L35.6626849,6.07429167 L35.8968562,6.17820833 L36.1101849,6.28091667 L36.3186096,6.41141667 L36.5576849,6.51654167 L36.7428151,6.67120833 L36.9524658,6.8005 L37.1633425,6.934625 L37.3484726,7.0615 L39.9292603,2.359875 L39.6423699,2.17983333 L39.3236027,1.997375 L38.9827671,1.81370833 L38.6676781,1.65783333 L38.3231644,1.50316667 L37.9823288,1.37266667 L37.6378151,1.24458333 L37.2945274,1.14066667 L36.9267192,1.06091667 L36.5822055,0.983583333 L36.2131712,0.907458333 L35.845363,0.853083333 L35.4518082,0.799916667 L35.0803219,0.774541667 L34.6855411,0.747958333 L33.8972055,0.747958333 L33.5269452,0.774541667 L33.1297123,0.8265 L32.7606781,0.878458333 L32.3658973,0.930416667 L31.9993151,1.01016667 L31.6008562,1.08629167 L31.2355,1.19020833 L30.8640137,1.3195 L30.4949795,1.48020833 L30.1529178,1.60708333 L29.7838836,1.76175 L29.4393699,1.94541667 L29.0960822,2.098875 L28.7540205,2.31033333 L28.4389315,2.51695833 L28.1226164,2.74895833 L27.8320479,2.98216667 L27.5132808,3.24316667 L27.253363,3.50295833 L26.9627945,3.76395833 L26.7261712,4.05033333 L26.4883219,4.33429167 L26.2516986,4.64604167 L26.0665685,4.98075 L25.8569178,5.3215 L25.6975342,5.65983333 L25.5148562,6.021125 L25.3824452,6.38845833 L25.2782329,6.77391667 L25.1703425,7.16541667 L25.1163973,7.55570833 L25.0636781,7.8155 L25.0403836,8.07529167 L25.0403836,8.57070833 L25.0636781,8.80029167 L25.0918767,9.03591667 L25.1163973,9.269125 L25.1973151,9.479375 L25.2488082,9.68720833 L25.327274,9.86845833 L25.4057397,10.0497083 L25.5148562,10.2575417 L25.6178425,10.4122083 L25.7490274,10.5946667 L25.8814384,10.7505417 L26.0150753,10.9052083 L26.1462603,11.0357083 L26.3044178,11.1952083 L26.4625753,11.3232917 L26.6452534,11.4537917 L26.8303836,11.5540833 L27.0142877,11.6845833 L27.2006438,11.792125 L27.4127466,11.8924167 L27.6211712,11.96975 L27.8320479,12.0482917 L28.0453767,12.1268333 L28.2550274,12.2041667 L28.4916507,12.2839167 L28.7013014,12.3346667 L28.9391507,12.3878333 L29.2039726,12.441 L30.5219521,12.6717917 L30.7585753,12.72375 L30.9964247,12.778125 L31.1276096,12.8059167 L31.2355,12.8276667 L31.3654589,12.8808333 L31.4708973,12.9327917 L31.5775616,12.98475 L31.6560274,13.0632917 L31.7332671,13.1418333 L31.7859863,13.2179583 L31.8399315,13.321875 L31.8644521,13.427 L31.8644521,13.7109583 L31.8399315,13.7882917 L31.8399315,13.8426667 L31.7859863,13.92 L31.7590137,13.99975 L31.6805479,14.1000417 L31.6008562,14.2305417 L31.4966438,14.3102917 L31.3654589,14.4117917 L31.2600205,14.49275 L31.101863,14.5447083 L30.9694521,14.619625 L30.8112945,14.6764167 L30.653137,14.7259583 L30.5219521,14.7513333 L30.3662466,14.7779167 L30.2326096,14.7779167 L30.073226,14.8032917 L29.6784452,14.8032917 L29.3866507,14.7779167 L29.0960822,14.7259583 L28.8091918,14.6764167 L28.5419178,14.5930417 L28.3101986,14.5193333 L28.0453767,14.4117917 L27.7805548,14.3102917 L27.5427055,14.181 L27.3048562,14.046875 L27.0682329,13.92 L26.8303836,13.7653333 L26.6195068,13.6094583 L26.4123082,13.4511667 L26.1989795,13.2977083 L25.9881027,13.1418333 L25.6975342,12.8554583 L25.6460411,12.9509167 L25.6460411,12.9327917 L25.6178425,12.517125 L25.5920959,12.1268333 L25.5148562,11.734125 L25.462137,11.3486667 L25.3542466,10.9849583 L25.2782329,10.6236667 L25.1163973,10.2853333 L24.9864384,9.94458333 L24.8270548,9.63404167 L24.6443767,9.319875 L24.4580205,9.03591667 L24.2471438,8.77491667 L24.0362671,8.493375 L23.7738973,8.25533333 L23.5385,7.99554167 L23.2724521,7.76233333 L22.9806575,7.55570833 L22.7195137,7.37325 L22.4031986,7.19079167 L22.0868836,7.01195833 L21.7423699,6.85366667 L21.4285068,6.72195833 L21.0839932,6.59266667 L20.7431575,6.46458333 L20.3728973,6.361875 L20.003863,6.28091667 L19.6348288,6.20479167 L19.2400479,6.12625 L18.8452671,6.07429167 L18.4762329,6.04770833 L18.079,6.021125 L17.2624658,6.021125 L16.8676849,6.04770833 L16.4729041,6.07429167 L16.0781233,6.12625 L15.6833425,6.20479167 L15.3118562,6.28091667 L14.9440479,6.361875 L14.6007603,6.46458333 L14.2329521,6.59266667 L13.916637,6.72195833 L13.5463767,6.85366667 L13.2300616,7.01195833 L12.9161986,7.19079167 L12.3326096,7.55570833 L12.0444932,7.76233333 L11.7808973,7.99554167 L11.544274,8.25533333 L11.3076507,8.493375 L11.0698014,8.77491667 L10.9116438,8.97308333 L10.9116438,6.021125 L10.1453767,6.021125 L9.8045411,6.04770833 L9.46125342,6.07429167 L9.14493836,6.12625 L8.85559589,6.17820833 L8.56257534,6.28091667 L8.30143151,6.38845833 L8.17024658,6.438 L8.03906164,6.51654167 L7.90665068,6.56608333 L7.7999863,6.64583333 L7.6700274,6.72195833 L7.56458904,6.82829167 L7.43340411,6.905625 L7.32796575,7.01195833 L7.11586301,7.21616667 L6.87678767,7.453 L6.66713699,7.73816667 L6.4574863,8.051125 L6.30055479,8.051125 L6.4574863,6.30870833 L0.077239726,6.30870833 L0.077239726,19.2705 L6.4574863,19.2705 L6.4574863,13.99975 L6.48323288,13.7109583 L6.53717808,13.4511667 L6.61564384,13.2179583 L6.64261644,13.089875 L6.69288356,12.98475 L6.74560274,12.8554583 L6.79954795,12.7503333 L6.87678767,12.6717917 L6.92950685,12.5690833 L7.00919863,12.4651667 L7.09011644,12.3878333 L7.16980822,12.3105 L7.24704795,12.2295417 L7.35371233,12.1534167 L7.43340411,12.1026667 L7.53761644,12.024125 L7.64182877,11.96975 L7.74726712,11.9202083 L7.85393151,11.8658333 L7.98389041,11.842875 L8.09178082,11.792125 L8.2205137,11.792125 L8.38112329,11.734125 L8.51108219,11.734125 L8.64471918,11.7099583 L9.25282877,11.7099583 L9.3840137,11.734125 L9.5139726,11.7655417 L9.6169589,11.792125 L9.75182192,11.8150833 L9.77266438,11.8271667 L9.75182192,12.1268333 L9.69787671,12.517125 L9.69787671,13.3496667 L9.75182192,13.7375417 L9.8045411,14.1000417 L9.85603425,14.4649583 L10.066911,15.141625 L10.1980959,15.4775417 L10.3587055,15.7905 L10.5438356,16.076875 L10.6995411,16.3874167 L10.9116438,16.6737917 L11.1200685,16.9082083 L11.3591438,17.1667917 L11.5957671,17.4012083 L11.860589,17.6332083 L12.1487055,17.8664167 L12.4123014,18.07425 L12.7040959,18.259125 L13.0191849,18.4391667 L13.3355,18.59625 L13.6542671,18.7509167 L13.9963288,18.8838333 L14.3383904,19.013125 L14.679226,19.1158333 L15.0237397,19.2173333 L15.3903219,19.2970833 L15.7605822,19.3732083 L16.156589,19.455375 L16.5243973,19.4819583 L16.8934315,19.5302917 L17.2906644,19.5302917 L17.6596986,19.5580833 L17.9220685,19.5580833 L18.0508014,19.5302917 L18.4235137,19.5302917 L18.7913219,19.4819583 L19.1861027,19.455375 L19.5588151,19.3732083 L19.9229452,19.2970833 L20.2674589,19.2173333 L20.6389452,19.1158333 L20.9810068,19.013125 L21.3218425,18.8838333 L21.6639041,18.7509167 L21.9826712,18.59625 L22.2977603,18.4391667 L22.6140753,18.259125 L22.8703151,18.096 L23.1424932,18.2313333 L23.5385,18.411375 L23.9320548,18.59625 L24.3525822,18.7509167 L24.7767877,18.908 L25.1973151,19.0372917 L25.6460411,19.1677917 L26.0665685,19.2705 L26.5165205,19.3732083 L26.9627945,19.455375 L27.4348151,19.5302917 L27.8847671,19.6100417 L28.3322671,19.662 L28.7834452,19.7103333 L29.2309452,19.738125 L30.073226,19.738125 L30.4422603,19.7103333 L30.8370411,19.6861667 L31.2060753,19.6354167 L31.5775616,19.5580833 L31.9698904,19.506125 L32.3413767,19.401 L32.7079589,19.3224583 L33.0769932,19.194375 L33.4448014,19.08925 L33.8162877,18.95875 L34.1583493,18.8016667 L34.501637,18.6494167 L34.8436986,18.491125 L35.1833082,18.2845 L35.5033014,18.1020417 L35.8220685,17.8664167 L36.1101849,17.6585833 L36.3983014,17.4277917 L36.6900959,17.1667917 L36.9524658,16.9082083 L37.1903151,16.6484167 L37.4269384,16.3608333 L37.6623356,16.0490833 L37.8744384,15.7373333 L38.0595685,15.4002083 L38.2434726,15.0642917 L38.4016301,14.699375 L38.5340411,14.3356667 L38.6419315,13.9695417 L38.7473699,13.5804583 L38.8246096,13.166 L38.8761027,12.8808333 L38.8761027,12.5956667 L38.9043014,12.3346667 L38.9043014,12.074875 L38.8761027,11.8150833 L38.8761027,11.5842917 L38.8258356,11.3583333 L39.8765411,11.270125 L38.5892123,19.3224583 L45.0185,19.3224583 L46.3082808,11.270125 L48.4722192,11.397 L47.2069589,19.3732083 L53.5590068,19.3732083 L54.3497945,14.4117917 L54.3988356,14.1278333 L54.4797534,13.8426667 L54.5839658,13.5804583 L54.6918562,13.3496667 L54.7445753,13.2179583 L54.7972945,13.1140417 L54.8769863,13.0125417 L54.9554521,12.8808333 L55.0339178,12.778125 L55.1136096,12.6971667 L55.1920753,12.5956667 L55.2717671,12.517125 L55.3772055,12.441 L55.4814178,12.36125 L55.5611096,12.2839167 L55.6665479,12.2295417 L55.7965068,12.1534167 L55.9043973,12.1026667 L56.0098356,12.0482917 L56.1385685,12.024125 L56.2722055,11.96975 L56.4058425,11.9455833 L56.5358014,11.8924167 L56.6682123,11.8658333 L56.8263699,11.8658333 L56.9612329,11.842875 L57.5374658,11.842875 L57.6686507,11.8658333 L57.8010616,11.8924167 L57.9371507,11.9202083 L58.041363,11.9455833 L58.1443493,11.9975417 L58.2755342,12.024125 L58.4582123,12.1534167 L58.6715411,12.256125 L58.8848699,12.3878333 L58.9523014,12.441 L58.9326849,12.5425 L58.8848699,12.8276667 L58.8296986,13.1418333 L58.8015,13.4511667 L58.7757534,13.7375417 L58.7757534,14.3356667 L58.8015,14.6437917 L58.8296986,14.9325833 L58.8542192,15.2189583 L58.9118425,15.5029167 L58.9621096,15.7905 L59.0405753,16.076875 L59.1202671,16.3608333 L59.2257055,16.6218333 L59.3286918,16.881625 L59.4598767,17.142625 L59.5935137,17.3770417 L59.7259247,17.6090417 L59.8889863,17.8434583 L60.0434658,18.07425 L60.2273699,18.259125 L60.411274,18.46575 L60.6233767,18.6494167 L60.8318014,18.8016667 L61.0696507,18.95875 L61.306274,19.08925 L61.5723219,19.194375 L61.8334658,19.2970833 L62.0970616,19.401 L62.3888562,19.455375 L62.6781986,19.506125 L63.0178082,19.5302917 L63.3365753,19.5580833 L63.6761849,19.5302917 L63.9961781,19.5302917 L64.2855205,19.4819583 L64.6006096,19.401 L64.8666575,19.3224583 L65.157226,19.2439167 L65.4171438,19.1158333 L65.6574452,19.013125 L65.9210411,18.8838333 L66.183411,18.723125 L66.4482329,18.5684583 L66.6824041,18.3884167 L66.9214795,18.2059583 L66.9214795,18.1805833 L67.1581027,17.9957083 L67.4241507,17.7915 L67.6583219,17.5546667 L67.8164795,17.5546667 L67.3432329,19.2705 L73.6168151,19.2705 L74.8771712,11.3329583 L76.2515479,11.2169583 L74.958089,19.2705 L81.3922808,19.2705 L82.6832877,11.2169583 L84.0331438,11.3039583 L83.9755205,11.4779583 L83.8443356,11.842875 L83.7364452,12.2041667 L83.6567534,12.5956667 L83.5795137,13.0125417 L83.5255685,13.4028333 L83.4985959,13.8172917 L83.4728493,14.181 L83.4985959,14.5447083 L83.5255685,14.9325833 L83.5795137,15.2697083 L83.6567534,15.5814583 L83.7621918,15.8932083 L83.8700822,16.2061667 L84.0000411,16.490125 L84.1606507,16.7777083 L84.3457808,17.0375 L84.5272329,17.2719167 L84.713589,17.5027083 L84.9502123,17.7395417 L85.1880616,17.9461667 L85.427137,18.1515833 L85.6907329,18.3364583 L85.9800753,18.491125 L86.2436712,18.6494167 L86.5575342,18.8016667 L86.8726233,18.933375 L87.1889384,19.0372917 L87.5077055,19.1412083 L87.8497671,19.2439167 L88.2188014,19.3224583 L88.560863,19.401 L88.9298973,19.455375 L89.3013836,19.506125 L89.6691918,19.5302917 L90.0651986,19.5302917 L90.4317808,19.5580833 L90.7235753,19.5302917 L91.0104658,19.5302917 L91.3010342,19.506125 L91.5903767,19.4819583 L91.6982671,19.4819583 L91.8821712,19.455375 L92.1960342,19.401 L92.4890548,19.3514583 L92.7783973,19.2705 L93.0947123,19.194375 L93.3840548,19.1158333 L93.6758493,19.0372917 L93.9664178,18.933375 L94.2815068,18.8294583 L94.5426507,18.7001667 L94.8368973,18.5684583 L95.1250137,18.4391667 L95.4131301,18.309875 L95.6779521,18.1515833 L95.9415479,17.9957083 L96.2051438,17.7915 L96.4417671,17.6332083 L96.6796164,17.4277917 L96.9419863,17.2465417 L97.152863,17.0109167 L97.3637397,16.8006667 L97.5770685,16.5710833 L97.7585205,16.3366667 L97.9461027,16.076875 L98.1300068,15.8170833 L98.2857123,15.5597083 L98.4463219,15.2697083 L98.5787329,15.0123333 L92.3541918,15.0123333 L92.3014726,15.1138333 L92.2512055,15.2189583 L92.1960342,15.322875 L92.1200205,15.4267917 L92.0403288,15.5029167 L91.961863,15.6068333 L91.8821712,15.6865833 L91.8037055,15.7639167 L91.6982671,15.8170833 L91.6982671,15.8424583 L91.5903767,15.8932083 L91.4873904,15.9439583 L91.3562055,15.9729583 L91.2495411,16.0225 L91.1477808,16.0490833 L90.5384452,16.0490833 L90.4599795,16.0225 L90.3790616,15.9729583 L90.2748493,15.9439583 L90.1951575,15.8932083 L90.1424384,15.866625 L90.0651986,15.8170833 L90.0100274,15.7639167 L89.9597603,15.7131667 L89.9070411,15.6322083 L89.8543219,15.5814583 L89.8016027,15.5029167 L89.7734041,15.4267917 L89.7488836,15.3494583 L89.6961644,15.1935833 L89.6691918,15.0123333 L89.6434452,14.8286667 L89.6434452,14.6437917 L89.6691918,14.4371667 L89.6691918,14.2305417 L89.725589,14.046875 L89.725589,13.8426667 L98.8386507,13.8426667 L98.8386507,14.3864167 L98.8656233,14.699375 L98.9710616,15.2975 L99.0237808,15.5814583 L99.1059247,15.866625 L99.1843904,16.1300417 L99.2886027,16.414 L99.3940411,16.6737917 L99.5289041,16.932375 L99.657637,17.1667917 L99.8145685,17.4012083 L99.9739521,17.6332083 L100.130884,17.8664167 L100.316014,18.07425 L100.524438,18.259125 L100.712021,18.4391667 L100.94987,18.59625 L101.159521,18.7509167 L101.423116,18.8838333 L101.65974,19.013125 L101.950308,19.1158333 L102.21513,19.194375 L102.530219,19.2705 L102.820788,19.3224583 L103.135877,19.3514583 L103.479164,19.3732083 L103.769733,19.3514583 L104.061527,19.3224583 L104.347192,19.2970833 L104.638986,19.2173333 L104.928329,19.1412083 L105.247096,19.0372917 L105.533986,18.95875 L105.825781,18.8016667 L106.088151,18.6735833 L106.379945,18.5152917 L106.61289,18.3364583 L106.880164,18.1515833 L106.93411,18.1020417 L106.985603,18.0500833 L107.092267,17.9461667 L107.198932,17.8192917 L107.327664,17.7141667 L107.408582,17.5824583 L107.512795,17.47975 L107.593712,17.34925 L107.669726,17.2199583 L107.854856,17.2199583 L107.512795,18.5442917 L107.434329,18.8294583 L107.327664,19.1158333 L107.198932,19.3732083 L107.067747,19.662 L106.93411,19.8674167 L106.908363,19.9217917 L106.724459,20.1562083 L106.61289,20.2589167 L106.536877,20.3628333 L106.432664,20.4655417 L106.327226,20.5706667 L106.219336,20.6467917 L106.088151,20.7519167 L105.98639,20.82925 L105.855205,20.909 L105.720342,20.9875417 L105.61613,21.0395 L105.481267,21.0914583 L105.352534,21.1675833 L105.193151,21.2183333 L105.061966,21.2702917 L104.902582,21.2956667 L104.772623,21.32225 L104.614466,21.3500417 L104.456308,21.3742083 L104.294473,21.4044167 L104.139993,21.4044167 L103.848199,21.3742083 L103.558856,21.3742083 L103.244993,21.32225 L102.953199,21.2956667 L102.66263,21.2183333 L102.370836,21.1397917 L102.056973,21.0636667 L101.793377,20.9875417 L101.502808,20.854625 L101.213466,20.7519167 L100.94987,20.6214167 L100.682596,20.4655417 L100.448425,20.3350417 L100.214253,20.1562083 L100.000925,20.0003333 L99.791274,19.8166667 L97.6776027,24.1304167 L98.2857123,24.3648333 L98.630226,24.4663333 L98.9465411,24.595625 L99.2628562,24.6995417 L99.6061438,24.80225 L99.9212329,24.907375 L100.260842,24.9859167 L100.606582,25.0644583 L100.924123,25.1152083 L101.267411,25.19375 L101.611925,25.2457083 L101.950308,25.2722917 L102.296048,25.3230417 L102.66263,25.349625 L103.005918,25.375 L104.192712,25.375 L104.614466,25.349625 L105.033767,25.3230417 L105.481267,25.29525 L105.905473,25.2457083 L106.301479,25.1695833 L106.724459,25.09225 L106.93411,25.0415 L107.14376,24.9859167 L107.538541,24.882 L107.934548,24.7527083 L108.304808,24.6222083 L108.697137,24.4663333 L109.096822,24.30925 L109.435205,24.1304167 L109.809144,23.9225833 L110.123007,23.7377083 L110.462616,23.5057083 L110.780158,23.2725 L111.095247,23.0380833 L111.412788,22.7517083 L111.675158,22.4701667 L111.968178,22.2055417 L112.204801,21.8937917 L112.443877,21.557875 L112.651075,21.1929583 L112.86563,20.854625 L113.047082,20.4655417 L113.204014,20.0740417 L113.364623,19.662 L113.495808,19.2173333 L113.598795,18.7787083 L113.706685,18.309875 L115.656068,6.12625 L109.462178,6.12625 L109.462178,6.12625 Z" id="Fill-7" fill="#FFFFFF" mask="url(#mask-4)"></path>
                </g>
                <path d="M29.5080274,4.99404167 C29.5080274,5.578875 29.0298767,6.05254167 28.4352534,6.05254167 C27.8443082,6.05254167 27.3649315,5.578875 27.3649315,4.99404167 C27.3649315,4.41283333 27.8443082,3.93916667 28.4352534,3.93916667 C29.0298767,3.93916667 29.5080274,4.41283333 29.5080274,4.99404167 L29.5080274,4.99404167 Z M30.3895411,5.67191667 L32.9740068,5.17891667 L30.8112945,4.71129167 L31.9441438,3.364 L29.9690137,3.87995833 L30.3380479,1.9575 L28.9661233,2.842 L28.3347192,0.346791667 L27.7793288,3.20570833 L26.0935411,1.93091667 L26.6464795,3.64554167 L25.0661301,3.364 L26.4110822,4.788625 L24.1417055,5.23208333 L26.4368288,5.723875 L25.5148562,6.73766667 L26.938274,6.637375 L26.2786712,8.555 L27.8614726,6.97208333 L28.3089726,9.51804167 L28.8091918,6.97208333 L30.0205068,8.246875 L29.8868699,6.659125 L31.6278288,7.25966667 L30.3895411,5.67191667 L30.3895411,5.67191667 Z" id="Fill-9" fill="#FFFFFF"></path>
                <path d="M177.261493,9.84308333 C176.435151,9.84308333 175.764514,10.5040417 175.764514,11.320875 C175.764514,12.1377083 176.435151,12.799875 177.261493,12.799875 C178.090288,12.799875 178.763377,12.1377083 178.763377,11.320875 C178.763377,10.5040417 178.090288,9.84308333 177.261493,9.84308333 L177.261493,9.84308333 Z M178.509589,11.320875 C178.509589,11.9999583 177.951747,12.5509583 177.261493,12.5509583 C176.573692,12.5509583 176.015849,11.9999583 176.015849,11.320875 C176.015849,10.6417917 176.573692,10.0907917 177.261493,10.0907917 C177.951747,10.0907917 178.509589,10.6417917 178.509589,11.320875 L178.509589,11.320875 Z" id="Fill-10" fill="#FFFFFF"></path>
                <path d="M177.288466,11.40425 C177.381644,11.4102917 177.479726,11.40425 177.545932,11.4815833 C177.628075,11.567375 177.628075,11.705125 177.646466,11.8585833 C177.658726,11.9600833 177.685699,12.07125 177.706541,12.1715417 L177.962781,12.1715417 C177.901479,12.0120417 177.881863,11.8307917 177.85489,11.6604167 C177.829144,11.4695 177.799719,11.3631667 177.592521,11.3112083 L177.592521,11.3075833 C177.793589,11.25925 177.917418,11.1009583 177.917418,10.89675 C177.917418,10.559625 177.620719,10.469 177.328925,10.469 L176.713459,10.469 L176.713459,12.1715417 L176.952534,12.1715417 L176.952534,11.40425 L177.288466,11.40425 L177.288466,11.40425 Z M176.94763,10.6732083 L177.343637,10.6732083 C177.608459,10.6852917 177.666082,10.8025 177.666082,10.9378333 C177.666082,11.0719583 177.608459,11.1891667 177.343637,11.2000417 L176.94763,11.2000417 L176.94763,10.6732083 L176.94763,10.6732083 Z" id="Fill-11" fill="#FFFFFF"></path>
            </g>
            <g id="bt_info" transform="translate(1.000000, 100.000000)">
                <g id="Group-4">
                    <g id="bt-more-copy">
                        <g id="Stroke-4">
                            <use fill="#FFFFFF" fill-rule="evenodd" xlink:href="#path-5"></use>
                            <use stroke="#4990E2" mask="url(#mask-6)" stroke-width="2" xlink:href="#path-5"></use>
                        </g>
                    </g>
                    <path d="M8.98946413,4.5514146 C8.98946413,4.37160477 8.92887694,4.22306844 8.80770075,4.10580116 C8.68652456,3.98853388 8.53603381,3.92990112 8.35622398,3.92990112 C8.17641416,3.92990112 8.0259234,3.98853388 7.90474722,4.10580116 C7.78357103,4.22306844 7.72298384,4.37160477 7.72298384,4.5514146 C7.72298384,4.72340661 7.78552545,4.87194293 7.91061055,4.99702803 C8.03569565,5.12211313 8.18423197,5.18465474 8.35622398,5.18465474 C8.53603381,5.18465474 8.68652456,5.12406755 8.80770075,5.00289137 C8.92887694,4.88171518 8.98946413,4.73122443 8.98946413,4.5514146 L8.98946413,4.5514146 Z M9.64615761,12.0682096 L9.64615761,11.9509429 C9.56797942,11.9353073 9.48784798,11.9255352 9.40576089,11.9216263 C9.32367379,11.9177173 9.2474512,11.9079452 9.17709084,11.8923096 C9.10673047,11.8766739 9.04614328,11.8512664 8.99532746,11.8160862 C8.94451164,11.7809061 8.91128641,11.7242277 8.89565077,11.6460495 L8.89565077,6.40422835 L8.82529076,6.40422835 L7.2421904,6.9202018 L7.2421904,6.99056181 C7.35163986,7.02965091 7.4552244,7.07264826 7.55294714,7.11955518 C7.65066987,7.16646209 7.73471016,7.2133683 7.80507053,7.26027521 C7.85979526,7.2993643 7.89302049,7.34236166 7.90474722,7.38926857 C7.91647394,7.43617548 7.92233722,7.49089939 7.92233722,7.55344194 L7.92233722,11.5756895 C7.92233722,11.6460499 7.89692969,11.7046826 7.84611387,11.7515896 C7.79529805,11.7984965 7.73275644,11.8356305 7.65848716,11.8629929 C7.58421788,11.8903553 7.50017759,11.9098995 7.40636377,11.9216263 C7.31254995,11.933353 7.21873753,11.9431251 7.12492371,11.9509429 L7.12492371,12.0682096 L9.64615761,12.0682096 Z" id="i" stroke="#4990E2" stroke-width="0.5" fill="#3B92ED"></path>
                </g>
            </g>
            <g id="Group-14" transform="translate(0.000000, 201.000000)" stroke="#3B92ED" stroke-width="2" fill="#FFFFFF">
                <use id="Rectangle-14" mask="url(#mask-8)" xlink:href="#path-7"></use>
                <use id="Rectangle-14" mask="url(#mask-10)" transform="translate(14.000000, 10.500000) scale(-1, 1) translate(-14.000000, -10.500000) " xlink:href="#path-9"></use>
                <use id="Rectangle-14" mask="url(#mask-12)" xlink:href="#path-11"></use>
                <use id="Rectangle-14" mask="url(#mask-14)" transform="translate(12.000000, 9.000000) scale(-1, 1) translate(-12.000000, -9.000000) " xlink:href="#path-13"></use>
            </g>
            <g id="Group-17" transform="translate(1.000000, 51.000000)">
                <circle id="Oval-2" stroke-opacity="0.8" stroke="#444649" cx="11" cy="11" r="11"></circle>
                <polygon id="Triangle" fill-opacity="0.75" fill="#444649" transform="translate(11.916667, 11.000000) rotate(90.000000) translate(-11.916667, -11.000000) " points="11.9166667 7.33333333 15.5833333 14.6666667 8.25 14.6666667"></polygon>
            </g>
            <g id="Group-19" transform="translate(1.000000, 151.000000)">
                <g id="Combined-Shape" transform="translate(17.000000, 10.251979) scale(-1, 1) translate(-17.000000, -10.251979) ">
                    <use fill="#FFFFFF" fill-rule="evenodd" xlink:href="#path-15"></use>
                    <use stroke="#3B92ED" mask="url(#mask-16)" stroke-width="2" xlink:href="#path-15"></use>
                </g>
                <g id="Combined-Shape">
                    <use fill="#FFFFFF" fill-rule="evenodd" xlink:href="#path-17"></use>
                    <use stroke="#3B92ED" mask="url(#mask-18)" stroke-width="2" xlink:href="#path-17"></use>
                </g>
                <circle id="Oval-4" fill="#3785D7" cx="4.5" cy="5.5" r="0.5"></circle>
                <circle id="Oval-4-Copy-3" fill="#549FED" cx="13.5" cy="9.5" r="0.5"></circle>
                <circle id="Oval-4-Copy" fill="#3785D7" cx="7.5" cy="5.5" r="0.5"></circle>
                <circle id="Oval-4-Copy-4" fill="#549FED" cx="16.5" cy="9.5" r="0.5"></circle>
                <circle id="Oval-4-Copy-2" fill="#3785D7" cx="10.5" cy="5.5" r="0.5"></circle>
                <circle id="Oval-4-Copy-5" fill="#549FED" cx="19.5" cy="9.5" r="0.5"></circle>
            </g>
            <g id="Page-1" transform="translate(0.000000, 251.000000)">
                <g id="Group-3">
                    <mask id="mask-20" fill="white">
                        <use xlink:href="#path-19"></use>
                    </mask>
                    <g id="Clip-2"></g>
                    <polygon id="Fill-1" fill="#3B92ED" mask="url(#mask-20)" points="-5 -5 25 -5 25 20 -5 20"></polygon>
                </g>
                <g id="Group-12" transform="translate(3.000000, 3.000000)" stroke="#3B92ED" stroke-linecap="round">
                    <path d="M0,0 L7.151887,5.688699" id="Stroke-4"></path>
                    <path d="M14.31474,0 L7.303517,5.771362" id="Stroke-6"></path>
                    <path d="M13,8 L10,4" id="Stroke-8"></path>
                    <path d="M1,8 L4,4" id="Stroke-10"></path>
                </g>
            </g>
        </g>
    </g>
</svg>