<?xml version="1.0" encoding="UTF-8"?>
<svg width="24px" height="489px" viewBox="0 0 24 489" version="1.1" xmlns="http://www.w3.org/2000/svg" xmlns:xlink="http://www.w3.org/1999/xlink">
    <!-- Generator: Sketch 48.2 (47327) - http://www.bohemiancoding.com/sketch -->
    <title>Artboard</title>
    <desc>Created with Sketch.</desc>
    <defs>
        <rect id="path-1" x="0" y="0" width="12" height="12" rx="2"></rect>
        <rect id="path-2" x="0" y="0" width="12" height="12" rx="2"></rect>
        <polyline id="path-3" points="3 6 5.5 8 9 4"></polyline>
        <rect id="path-4" x="3" y="3" width="12" height="12" rx="2"></rect>
        <polyline id="path-5" points="6 9 8.5 11 12 7"></polyline>
        <rect id="path-6" x="3" y="3" width="12" height="12" rx="2"></rect>
        <filter x="-29.2%" y="-20.8%" width="158.3%" height="158.3%" filterUnits="objectBoundingBox" id="filter-7">
            <feOffset dx="0" dy="1" in="SourceAlpha" result="shadowOffsetOuter1"></feOffset>
            <feGaussianBlur stdDeviation="1" in="shadowOffsetOuter1" result="shadowBlurOuter1"></feGaussianBlur>
            <feComposite in="shadowBlurOuter1" in2="SourceAlpha" operator="out" result="shadowBlurOuter1"></feComposite>
            <feColorMatrix values="0 0 0 0 0.266666667   0 0 0 0 0.274509804   0 0 0 0 0.28627451  0 0 0 0.05 0" type="matrix" in="shadowBlurOuter1"></feColorMatrix>
        </filter>
        <polyline id="path-8" points="6 9 8.5 11 12 7"></polyline>
        <rect id="path-9" x="3" y="3" width="12" height="12" rx="2"></rect>
        <filter x="-29.2%" y="-20.8%" width="158.3%" height="158.3%" filterUnits="objectBoundingBox" id="filter-10">
            <feOffset dx="0" dy="1" in="SourceAlpha" result="shadowOffsetOuter1"></feOffset>
            <feGaussianBlur stdDeviation="1" in="shadowOffsetOuter1" result="shadowBlurOuter1"></feGaussianBlur>
            <feComposite in="shadowBlurOuter1" in2="SourceAlpha" operator="out" result="shadowBlurOuter1"></feComposite>
            <feColorMatrix values="0 0 0 0 0.266666667   0 0 0 0 0.274509804   0 0 0 0 0.28627451  0 0 0 0.05 0" type="matrix" in="shadowBlurOuter1"></feColorMatrix>
        </filter>
        <rect id="path-11" x="3" y="3" width="12" height="12" rx="2"></rect>
        <filter x="-29.2%" y="-20.8%" width="158.3%" height="158.3%" filterUnits="objectBoundingBox" id="filter-12">
            <feOffset dx="0" dy="1" in="SourceAlpha" result="shadowOffsetOuter1"></feOffset>
            <feGaussianBlur stdDeviation="1" in="shadowOffsetOuter1" result="shadowBlurOuter1"></feGaussianBlur>
            <feComposite in="shadowBlurOuter1" in2="SourceAlpha" operator="out" result="shadowBlurOuter1"></feComposite>
            <feColorMatrix values="0 0 0 0 0.266666667   0 0 0 0 0.274509804   0 0 0 0 0.28627451  0 0 0 0.05 0" type="matrix" in="shadowBlurOuter1"></feColorMatrix>
        </filter>
        <polyline id="path-13" points="3 6 5.5 8 9 4"></polyline>
        <polyline id="path-14" points="0 2 2.5 4 6 0"></polyline>
        <polyline id="path-15" points="3 6 5.5 8 9 4"></polyline>
        <polyline id="path-16" points="3 6 5.5 8 9 4"></polyline>
        <circle id="path-17" cx="6" cy="6" r="6"></circle>
    </defs>
    <g id="Page-1" stroke="none" stroke-width="1" fill="none" fill-rule="evenodd">
        <g id="Artboard">
            <g id="Group" transform="translate(0.000000, 25.000000)">
                <rect id="Rectangle-201" fill="#00FFA0" opacity="0" x="0" y="0" width="18" height="18"></rect>
                <g id="Group-2-Copy-2" transform="translate(3.000000, 3.000000)">
                    <g id="Rectangle-3087">
                        <use fill="#FFFFFF" fill-rule="evenodd" xlink:href="#path-1"></use>
                        <rect stroke="#A8A9AA" stroke-width="1" x="0.5" y="0.5" width="11" height="11" rx="2"></rect>
                    </g>
                    <rect id="Rectangle-3087" fill="#FFFFFF" x="1" y="1" width="10" height="10" rx="2"></rect>
                </g>
            </g>
            <g id="Group-Copy" transform="translate(0.000000, 250.000000)">
                <rect id="Rectangle-201" fill="#00FFA0" opacity="0" x="0" y="0" width="18" height="18"></rect>
                <g id="Group-2-Copy-2" transform="translate(3.000000, 3.000000)">
                    <g id="Rectangle-3087">
                        <use fill="#FFFFFF" fill-rule="evenodd" xlink:href="#path-2"></use>
                        <rect stroke="#444649" stroke-width="1" x="0.5" y="0.5" width="11" height="11" rx="2"></rect>
                    </g>
                    <rect id="Rectangle-3087" fill="#17191A" x="1" y="1" width="10" height="10" rx="1"></rect>
                </g>
            </g>
            <g id="Group-5-Copy" transform="translate(0.000000, 50.000000)">
                <g id="Group-15" fill="#00FFA0" opacity="0">
                    <rect id="Rectangle-201" x="0" y="0" width="18" height="18"></rect>
                </g>
                <g id="Group-5-Copy-2" transform="translate(3.000000, 3.000000)">
                    <g id="Group-Copy-2">
                        <rect id="Rectangle-370" fill="#3B92ED" x="0" y="0" width="12" height="12" rx="2"></rect>
                        <g id="Path-390" stroke-linecap="square" stroke="#FFFFFF">
                            <use xlink:href="#path-3"></use>
                            <use xlink:href="#path-3"></use>
                        </g>
                    </g>
                </g>
            </g>
            <g id="Group-5-Copy-3" transform="translate(0.000000, 175.000000)">
                <g id="Group-15" fill="#00FFA0" opacity="0">
                    <rect id="Rectangle-201" x="0" y="0" width="18" height="18"></rect>
                </g>
                <rect id="Rectangle-370" fill="#3B92ED" x="3" y="3" width="12" height="12" rx="2"></rect>
                <polygon id="Line" fill="#FFFFFF" fill-rule="nonzero" points="11.5 10 12 10 12 8 11.5 8 6.5 8 6 8 6 10 6.5 10"></polygon>
            </g>
            <g id="Group-5-Copy-5" transform="translate(0.000000, 398.000000)">
                <g id="Group-15" fill="#00FFA0" opacity="0">
                    <rect id="Rectangle-201" x="0" y="0" width="18" height="18"></rect>
                </g>
                <rect id="Rectangle-370" fill="#3B92ED" x="3" y="3" width="12" height="12" rx="2"></rect>
                <polygon id="Line" fill="#FFFFFF" fill-rule="nonzero" points="11.5 10 12 10 12 8 11.5 8 6.5 8 6 8 6 10 6.5 10"></polygon>
            </g>
            <g id="Group-11" transform="translate(0.000000, 75.000000)">
                <g id="Group-17">
                    <g id="Group-16-Copy">
                        <g id="Group-14">
                            <g id="Group-7">
                                <rect id="Rectangle-201-Copy" fill="#00FFA0" opacity="0" x="0" y="0" width="18" height="18"></rect>
                                <g id="Rectangle-370-Copy-2">
                                    <use fill="#E7E8E8" fill-rule="evenodd" xlink:href="#path-4"></use>
                                    <rect stroke-opacity="0.1" stroke="#444649" stroke-width="1" x="3.5" y="3.5" width="11" height="11" rx="2"></rect>
                                </g>
                                <g id="Path-390" stroke-linecap="square" stroke="#C6C7C8">
                                    <use xlink:href="#path-5"></use>
                                    <use xlink:href="#path-5"></use>
                                </g>
                            </g>
                        </g>
                    </g>
                </g>
                <g id="Group-4-Copy" transform="translate(3.000000, 3.000000)"></g>
            </g>
            <g id="Group-11-Copy" transform="translate(0.000000, 298.000000)">
                <g id="Group-7">
                    <rect id="Rectangle-201-Copy" fill="#00FFA0" opacity="0" x="0" y="0" width="18" height="18"></rect>
                    <g id="Rectangle-370-Copy-2">
                        <use fill="black" fill-opacity="1" filter="url(#filter-7)" xlink:href="#path-6"></use>
                        <use fill="#464B53" fill-rule="evenodd" xlink:href="#path-6"></use>
                        <rect stroke-opacity="0.1" stroke="#444649" stroke-width="1" x="3.5" y="3.5" width="11" height="11" rx="2"></rect>
                    </g>
                    <g id="Path-390" stroke-linecap="square" stroke="#AAACAE">
                        <use xlink:href="#path-8"></use>
                        <use xlink:href="#path-8"></use>
                    </g>
                </g>
            </g>
            <g id="Group-16" transform="translate(0.000000, 100.000000)">
                <g id="Group-14">
                    <g id="Group-6">
                        <rect id="Rectangle-201-Copy" fill="#00FFA0" opacity="0" x="0" y="0" width="18" height="18"></rect>
                        <g id="Rectangle-370-Copy">
                            <use fill="black" fill-opacity="1" filter="url(#filter-10)" xlink:href="#path-9"></use>
                            <use fill="#FFFFFF" fill-rule="evenodd" xlink:href="#path-9"></use>
                            <rect stroke-opacity="0.1" stroke="#444649" stroke-width="1" x="3.5" y="3.5" width="11" height="11" rx="2"></rect>
                        </g>
                    </g>
                </g>
            </g>
            <g id="Group-16-Copy-2" transform="translate(0.000000, 323.000000)">
                <rect id="Rectangle-201-Copy" fill="#00FFA0" opacity="0" x="0" y="0" width="18" height="18"></rect>
                <g id="Rectangle-370-Copy">
                    <use fill="black" fill-opacity="1" filter="url(#filter-12)" xlink:href="#path-11"></use>
                    <use fill="#464B53" fill-rule="evenodd" xlink:href="#path-11"></use>
                    <rect stroke-opacity="0.1" stroke="#444649" stroke-width="1" x="3.5" y="3.5" width="11" height="11" rx="2"></rect>
                </g>
            </g>
            <g id="Group-2" transform="translate(0.000000, 150.000000)">
                <rect id="Rectangle-201-Copy-2" fill="#00FFA0" opacity="0" x="0" y="0" width="18" height="18"></rect>
                <g id="Group-3" transform="translate(3.000000, 3.000000)">
                    <path d="M6,11 C8.76142375,11 11,8.76142375 11,6 C11,3.23857625 8.76142375,1 6,1 C3.23857625,1 1,3.23857625 1,6 C1,8.76142375 3.23857625,11 6,11 L6,11 Z M6,12 L6,12 C2.6862915,12 0,9.3137085 0,6 C0,2.6862915 2.6862915,0 6,0 C9.3137085,0 12,2.6862915 12,6 C12,9.3137085 9.3137085,12 6,12 L6,12 Z" id="Oval-223" fill-opacity="0.45" fill="#444649" fill-rule="nonzero"></path>
                    <circle id="Oval-286" fill="#FFFFFF" cx="6" cy="6" r="5.14285714"></circle>
                </g>
            </g>
            <g id="Group-2-Copy" transform="translate(0.000000, 373.000000)">
                <rect id="Rectangle-201-Copy-2" fill="#00FFA0" opacity="0" x="0" y="0" width="18" height="18"></rect>
                <g id="Group-3" transform="translate(3.000000, 3.000000)" fill="#444649">
                    <path d="M6,11 C8.76142375,11 11,8.76142375 11,6 C11,3.23857625 8.76142375,1 6,1 C3.23857625,1 1,3.23857625 1,6 C1,8.76142375 3.23857625,11 6,11 L6,11 Z M6,12 L6,12 C2.6862915,12 0,9.3137085 0,6 C0,2.6862915 2.6862915,0 6,0 C9.3137085,0 12,2.6862915 12,6 C12,9.3137085 9.3137085,12 6,12 L6,12 Z" id="Oval-223" fill-rule="nonzero"></path>
                    <circle id="Oval-286" cx="6" cy="6" r="5.14285714"></circle>
                </g>
            </g>
            <g id="Group-5">
                <g id="Group-15" fill="#00FFA0" opacity="0">
                    <rect id="Rectangle-201" x="0" y="0" width="18" height="18"></rect>
                </g>
                <g id="Group-5-Copy-2" transform="translate(3.000000, 3.000000)">
                    <g id="Group-Copy-2">
                        <rect id="Rectangle-370" fill="#3B92ED" x="0" y="0" width="12" height="12" rx="2"></rect>
                        <g id="Path-390" stroke-linecap="square" stroke="#FFFFFF">
                            <use xlink:href="#path-13"></use>
                            <use xlink:href="#path-13"></use>
                        </g>
                    </g>
                </g>
            </g>
            <g id="Group-5-Copy-6" transform="translate(0.000000, 200.000000)">
                <g id="Group-15" fill="#00FFA0" opacity="0">
                    <rect id="Rectangle-201" x="0" y="0" width="18" height="18"></rect>
                </g>
                <g id="Group-5-Copy-2" transform="translate(6.000000, 7.000000)" stroke="#444649" stroke-linecap="square">
                    <g id="Group-Copy-2">
                        <g id="Path-390">
                            <use xlink:href="#path-14"></use>
                            <use xlink:href="#path-14"></use>
                        </g>
                    </g>
                </g>
            </g>
            <g id="Group-4" transform="translate(0.000000, 125.000000)">
                <rect id="Rectangle-201-Copy-3" fill="#00FFA0" opacity="0" x="0" y="0" width="18" height="18"></rect>
                <g id="Group-8" transform="translate(3.000000, 3.000000)">
                    <g id="radio-h">
                        <circle id="Oval-223-Copy" fill="#3B92ED" cx="6" cy="6" r="6"></circle>
                        <path d="M6,8 C7.1045695,8 8,7.1045695 8,6 C8,4.8954305 7.1045695,4 6,4 C4.8954305,4 4,4.8954305 4,6 C4,7.1045695 4.8954305,8 6,8 Z" id="Oval-226" fill="#FFFFFF"></path>
                    </g>
                </g>
            </g>
            <g id="Group-4-Copy-2" transform="translate(0.000000, 348.000000)">
                <rect id="Rectangle-201-Copy-3" fill="#00FFA0" opacity="0" x="0" y="0" width="18" height="18"></rect>
                <g id="Group-8" transform="translate(3.000000, 3.000000)">
                    <g id="radio-h">
                        <circle id="Oval-223-Copy" fill="#3B92ED" cx="6" cy="6" r="6"></circle>
                        <path d="M6,8 C7.1045695,8 8,7.1045695 8,6 C8,4.8954305 7.1045695,4 6,4 C4.8954305,4 4,4.8954305 4,6 C4,7.1045695 4.8954305,8 6,8 Z" id="Oval-226" fill="#FFFFFF"></path>
                    </g>
                </g>
            </g>
            <circle id="Oval" fill="#D14D4D" cx="14" cy="211" r="2"></circle>
            <circle id="Oval-Copy-2" fill="#D14D4D" cx="16" cy="64" r="2"></circle>
            <circle id="Oval-Copy" fill="#D14D4D" cx="7" cy="433" r="2"></circle>
            <g id="Group-5-Copy-4" transform="translate(0.000000, 225.000000)">
                <g id="Group-15" fill="#00FFA0" opacity="0">
                    <rect id="Rectangle-201" x="0" y="0" width="18" height="18"></rect>
                </g>
                <g id="Group-5-Copy-2" transform="translate(3.000000, 3.000000)">
                    <g id="Group-Copy-2">
                        <rect id="Rectangle-370" fill="#3B92ED" x="0" y="0" width="12" height="12" rx="2"></rect>
                        <g id="Path-390" stroke-linecap="square" stroke="#FFFFFF">
                            <use xlink:href="#path-15"></use>
                            <use xlink:href="#path-15"></use>
                        </g>
                    </g>
                </g>
            </g>
            <g id="Group-5-Copy-7" transform="translate(0.000000, 275.000000)">
                <g id="Group-15" fill="#00FFA0" opacity="0">
                    <rect id="Rectangle-201" x="0" y="0" width="18" height="18"></rect>
                </g>
                <g id="Group-5-Copy-2" transform="translate(3.000000, 3.000000)">
                    <g id="Group-Copy-2">
                        <rect id="Rectangle-370" fill="#3B92ED" x="0" y="0" width="12" height="12" rx="2"></rect>
                        <g id="Path-390" stroke-linecap="square" stroke="#FFFFFF">
                            <use xlink:href="#path-16"></use>
                            <use xlink:href="#path-16"></use>
                        </g>
                    </g>
                </g>
            </g>
            <g id="Group-10" transform="translate(0.000000, 448.000000)">
                <rect id="Rectangle-201-Copy-5" fill="#00FFA0" opacity="0" x="0" y="0" width="18" height="18"></rect>
                <g id="Group-8-Copy-2" transform="translate(3.000000, 3.000000)">
                    <g id="Oval-223-Copy">
                        <use fill="#E7E8E8" fill-rule="evenodd" xlink:href="#path-17"></use>
                        <circle stroke-opacity="0.1" stroke="#444649" stroke-width="1" cx="6" cy="6" r="5.5"></circle>
                    </g>
                    <path d="M6,8 C7.1045695,8 8,7.1045695 8,6 C8,4.8954305 7.1045695,4 6,4 C4.8954305,4 4,4.8954305 4,6 C4,7.1045695 4.8954305,8 6,8 Z" id="Oval-226" fill="#C6C7C8"></path>
                </g>
            </g>
        </g>
    </g>
</svg>