<?xml version="1.0" encoding="UTF-8"?>
<svg width="328px" height="161px" viewBox="0 0 328 161" version="1.1" xmlns="http://www.w3.org/2000/svg" xmlns:xlink="http://www.w3.org/1999/xlink">
    <!-- Generator: Sketch 47 (45396) - http://www.bohemiancoding.com/sketch -->
    <title>legend sprite</title>
    <desc>Created with Sketch.</desc>
    <defs></defs>
    <g id="legend-&amp;-datatip" stroke="none" stroke-width="1" fill="none" fill-rule="evenodd">
        <g id="legend-sprite">
            <g id="clear" transform="translate(0.000000, 30.000000)" fill="#6E6E6E">
                <polygon points="9.975 3.5 6.99992708 6.47507292 4.025 3.5 3.5 4.025 6.47492708 7.00007292 3.5 9.975 4.025 10.5 6.99992708 7.52507292 9.975 10.5 10.5 9.975 7.52492708 7.00007292 10.5 4.025"></polygon>
            </g>
            <text id="left-top-of-each-ico" font-family="SFUIDisplay-Semibold, SF UI Display" font-size="9" font-weight="500" fill="#444649">
                <tspan x="3" y="9">left top of each icon(30x, 30(y+1)), each icon 14*14px; x= #column, y=#row</tspan>
            </text>
            <g id="multi_layer-copy" transform="translate(30.000000, 30.000000)" fill="#444649">
                <path d="M6.99002474,10.7022349 L3.21715942,8.44552596 L5.25310982,7.22507524 L6.78938822,8.14406901 C6.9130657,8.21812093 7.06689015,8.21812093 7.19066125,8.14406901 L8.72693965,7.22507524 L10.76289,8.44552596 L6.99002474,10.7022349 Z M3.21715942,5.35212396 L6.99002474,3.09072814 L10.76289,5.35212396 L8.17980022,6.89718457 L6.99002474,7.60892668 L5.80015563,6.89718457 L3.21715942,5.35212396 Z M11.2874661,8.10441842 L9.27426633,6.89774699 L11.2871852,5.69370018 C11.3438278,5.65976753 11.3912016,5.61214933 11.424719,5.55496999 C11.5357573,5.3665594 11.4742462,5.12303167 11.2874661,5.01111016 L7.19094212,2.55567955 C7.0670774,2.48144015 6.91297207,2.48144015 6.78910735,2.55567955 L2.69248978,5.01111016 C2.6359408,5.04504281 2.58866062,5.09275475 2.55504955,5.14993408 C2.4442922,5.33843841 2.50589688,5.5818724 2.69286428,5.69370018 L4.70578314,6.89774699 L2.69248978,8.10441842 C2.6359408,8.13835108 2.58866062,8.18606301 2.55504955,8.24324235 C2.4442922,8.43174668 2.50589688,8.67518066 2.69286428,8.78691471 L6.78938822,11.2373773 C6.9130657,11.3114292 7.06689015,11.3114292 7.19066125,11.2373773 L11.2871852,8.78691471 C11.3438278,8.75307579 11.3912016,8.70536385 11.424719,8.64837199 C11.5357573,8.45986766 11.4742462,8.21633994 11.2874661,8.10441842 L11.2874661,8.10441842 Z"></path>
            </g>
            <g id="expanded" opacity="0.699999988" transform="translate(60.000000, 30.000000)">
                <g id="Group-2-Copy" transform="translate(-2.000000, -2.000000)">
                    <rect id="Rectangle-2961-Copy-8" fill="#00FFA0" opacity="0" x="0" y="0" width="18" height="18"></rect>
                    <polygon id="Triangle-8" fill="#2F3133" transform="translate(9.000000, 9.500000) scale(1, -1) translate(-9.000000, -9.500000) " points="9 7 13 12 5 12"></polygon>
                </g>
            </g>
            <g id="expanded-copy-3" opacity="0.7" transform="translate(60.000000, 60.000000)">
                <g id="Group-2-Copy" transform="translate(-2.000000, -2.000000)">
                    <rect id="Rectangle-2961-Copy-8" fill="#00FFA0" opacity="0" x="0" y="0" width="18" height="18"></rect>
                    <polygon id="Triangle-8" fill="#2F3133" transform="translate(9.000000, 9.000000) scale(1, -1) rotate(90.000000) translate(-9.000000, -9.000000) " points="9 6.5 13 11.5 5 11.5"></polygon>
                </g>
            </g>
            <g id="movehandle" transform="translate(90.000000, 30.000000)" fill="#BEBEBE">
                <g id="Group-2" transform="translate(1.500000, 4.000000)">
                    <path d="M0.886469436,1.77293887 C0.396885885,1.77293887 0,1.37605299 0,0.886469436 C0,0.396885885 0.396885885,0 0.886469436,0 C1.37605299,0 1.77293887,0.396885885 1.77293887,0.886469436 C1.77293887,1.37605299 1.37605299,1.77293887 0.886469436,1.77293887 Z M5.31881662,1.77293887 C4.82923307,1.77293887 4.43234718,1.37605299 4.43234718,0.886469436 C4.43234718,0.396885885 4.82923307,0 5.31881662,0 C5.80840017,0 6.20528605,0.396885885 6.20528605,0.886469436 C6.20528605,1.37605299 5.80840017,1.77293887 5.31881662,1.77293887 Z M9.7511638,1.77293887 C9.26158025,1.77293887 8.86469436,1.37605299 8.86469436,0.886469436 C8.86469436,0.396885885 9.26158025,0 9.7511638,0 C10.2407473,0 10.6376332,0.396885885 10.6376332,0.886469436 C10.6376332,1.37605299 10.2407473,1.77293887 9.7511638,1.77293887 Z M13.8864694,1.77293887 C13.3968859,1.77293887 13,1.37605299 13,0.886469436 C13,0.396885885 13.3968859,-2.22044605e-16 13.8864694,-2.22044605e-16 C14.376053,-2.22044605e-16 14.7729389,0.396885885 14.7729389,0.886469436 C14.7729389,1.37605299 14.376053,1.77293887 13.8864694,1.77293887 Z" id="more_inside" transform="translate(7.386469, 0.886469) scale(1, -1) translate(-7.386469, -0.886469) "></path>
                    <path d="M0.886469436,5.77293887 C0.396885885,5.77293887 0,5.37605299 0,4.88646944 C0,4.39688589 0.396885885,4 0.886469436,4 C1.37605299,4 1.77293887,4.39688589 1.77293887,4.88646944 C1.77293887,5.37605299 1.37605299,5.77293887 0.886469436,5.77293887 Z M5.31881662,5.77293887 C4.82923307,5.77293887 4.43234718,5.37605299 4.43234718,4.88646944 C4.43234718,4.39688589 4.82923307,4 5.31881662,4 C5.80840017,4 6.20528605,4.39688589 6.20528605,4.88646944 C6.20528605,5.37605299 5.80840017,5.77293887 5.31881662,5.77293887 Z M9.7511638,5.77293887 C9.26158025,5.77293887 8.86469436,5.37605299 8.86469436,4.88646944 C8.86469436,4.39688589 9.26158025,4 9.7511638,4 C10.2407473,4 10.6376332,4.39688589 10.6376332,4.88646944 C10.6376332,5.37605299 10.2407473,5.77293887 9.7511638,5.77293887 Z M13.8864694,5.77293887 C13.3968859,5.77293887 13,5.37605299 13,4.88646944 C13,4.39688589 13.3968859,4 13.8864694,4 C14.376053,4 14.7729389,4.39688589 14.7729389,4.88646944 C14.7729389,5.37605299 14.376053,5.77293887 13.8864694,5.77293887 Z" id="more_inside-copy" transform="translate(7.386469, 4.886469) scale(1, -1) translate(-7.386469, -4.886469) "></path>
                </g>
            </g>
            <text id="18*14" font-family="SFUIDisplay-Semibold, SF UI Display" font-size="9" font-weight="500" fill="#444649">
                <tspan x="157" y="39">18*14</tspan>
            </text>
            <path d="M151.5,36.5 L124.5,36.5" id="Line-2" stroke="#2F3133" stroke-width="0.5" stroke-linecap="square"></path>
            <path id="Line-2-decoration-1" d="M124.5,36.5 L135.3,39.5 L135.3,33.5 L124.5,36.5 Z" stroke="#2F3133" stroke-width="0.5" stroke-linecap="square"></path>
        </g>
    </g>
</svg>