<?xml version="1.0" encoding="UTF-8"?>
<svg width="25px" height="1628px" viewBox="0 0 25 1628" version="1.1" xmlns="http://www.w3.org/2000/svg" xmlns:xlink="http://www.w3.org/1999/xlink">
    <!-- Generator: Sketch 51.1 (57501) - http://www.bohemiancoding.com/sketch -->
    <title>Artboard</title>
    <desc>Created with Sketch.</desc>
    <defs>
        <path d="M18.5003204,2.05135732e-08 L2.50032045,2.05135732e-08 C1.83029023,-8.57489325e-05 1.18826762,0.268790116 0.718259692,0.746318174 C0.248251761,1.22384623 -0.0104000397,1.87005557 0.000320449448,2.54000002 L0.000320449448,18.54 C0.0221642873,19.9050658 1.13507989,21.0001748 2.50032045,21 L18.5003204,21 C19.8810323,21 21.0003204,19.8807119 21.0003204,18.5 L21.0003204,2.50000002 C21.0003204,1.11928815 19.8810323,2.05135732e-08 18.5003204,2.05135732e-08 Z M20.0003204,18.54 C19.978639,19.3527652 19.3133747,20.0002891 18.5003204,20 L2.50032045,20 C1.68726618,20.0002891 1.02200185,19.3527652 1.00032045,18.54 L1.00032045,2.54000002 C0.989524338,2.13529081 1.14278059,1.7434025 1.4252638,1.4533864 C1.70774702,1.16337031 2.09546729,0.999856047 2.50032045,1.00000002 L18.5003204,1.00000002 C19.3287475,1.00000002 20.0003204,1.6715729 20.0003204,2.50000002 L20.0003204,18.54 Z" id="path-1"></path>
        <filter x="-14.3%" y="-14.3%" width="128.6%" height="128.6%" filterUnits="objectBoundingBox" id="filter-2">
            <feOffset dx="0" dy="0" in="SourceAlpha" result="shadowOffsetOuter1"></feOffset>
            <feGaussianBlur stdDeviation="1" in="shadowOffsetOuter1" result="shadowBlurOuter1"></feGaussianBlur>
            <feColorMatrix values="0 0 0 0 0   0 0 0 0 0   0 0 0 0 0  0 0 0 0.2 0" type="matrix" in="shadowBlurOuter1"></feColorMatrix>
        </filter>
        <path d="M18.5,0 L2.5,0 C1.11928813,0 0,1.11928813 0,2.5 L0,18.5 C3.55271368e-15,19.8807119 1.11928813,21 2.5,21 L18.5,21 C19.8807119,21 21,19.8807119 21,18.5 L21,2.5 C21,1.83695878 20.7366079,1.20107399 20.267767,0.732233047 C19.798926,0.263392101 19.1630412,0 18.5,0 Z M20,18.5 C20,19.3284271 19.3284271,20 18.5,20 L2.5,20 C1.67157288,20 1,19.3284271 1,18.5 L1,2.5 C1,1.67157288 1.67157288,1 2.5,1 L18.5,1 C19.3284271,1 20,1.67157288 20,2.5 L20,18.5 Z" id="path-3"></path>
        <filter x="-14.3%" y="-14.3%" width="128.6%" height="128.6%" filterUnits="objectBoundingBox" id="filter-4">
            <feOffset dx="0" dy="0" in="SourceAlpha" result="shadowOffsetOuter1"></feOffset>
            <feGaussianBlur stdDeviation="1" in="shadowOffsetOuter1" result="shadowBlurOuter1"></feGaussianBlur>
            <feColorMatrix values="0 0 0 0 0   0 0 0 0 0   0 0 0 0 0  0 0 0 0.2 0" type="matrix" in="shadowBlurOuter1"></feColorMatrix>
        </filter>
        <path d="M18.5,0 L2.5,0 C1.11928813,0 0,1.11928813 0,2.5 L0,18.5 C3.55271368e-15,19.8807119 1.11928813,21 2.5,21 L18.5,21 C19.8807119,21 21,19.8807119 21,18.5 L21,2.5 C21,1.83695878 20.7366079,1.20107399 20.267767,0.732233047 C19.798926,0.263392101 19.1630412,0 18.5,0 Z M20,18.5 C20,19.3284271 19.3284271,20 18.5,20 L2.5,20 C1.67157288,20 1,19.3284271 1,18.5 L1,2.5 C1,1.67157288 1.67157288,1 2.5,1 L18.5,1 C19.3284271,1 20,1.67157288 20,2.5 L20,18.5 Z" id="path-5"></path>
        <filter x="-14.3%" y="-14.3%" width="128.6%" height="128.6%" filterUnits="objectBoundingBox" id="filter-6">
            <feOffset dx="0" dy="0" in="SourceAlpha" result="shadowOffsetOuter1"></feOffset>
            <feGaussianBlur stdDeviation="1" in="shadowOffsetOuter1" result="shadowBlurOuter1"></feGaussianBlur>
            <feColorMatrix values="0 0 0 0 0   0 0 0 0 0   0 0 0 0 0  0 0 0 0.2 0" type="matrix" in="shadowBlurOuter1"></feColorMatrix>
        </filter>
        <path d="M18.5003204,2.05135732e-08 L2.50032045,2.05135732e-08 C1.83029023,-8.57489325e-05 1.18826762,0.268790116 0.718259692,0.746318174 C0.248251761,1.22384623 -0.0104000397,1.87005557 0.000320449448,2.54000002 L0.000320449448,18.54 C0.0221642873,19.9050658 1.13507989,21.0001748 2.50032045,21 L18.5003204,21 C19.8810323,21 21.0003204,19.8807119 21.0003204,18.5 L21.0003204,2.50000002 C21.0003204,1.11928815 19.8810323,2.05135732e-08 18.5003204,2.05135732e-08 Z M20.0003204,18.54 C19.978639,19.3527652 19.3133747,20.0002891 18.5003204,20 L2.50032045,20 C1.68726618,20.0002891 1.02200185,19.3527652 1.00032045,18.54 L1.00032045,2.54000002 C0.989524338,2.13529081 1.14278059,1.7434025 1.4252638,1.4533864 C1.70774702,1.16337031 2.09546729,0.999856047 2.50032045,1.00000002 L18.5003204,1.00000002 C19.3287475,1.00000002 20.0003204,1.6715729 20.0003204,2.50000002 L20.0003204,18.54 Z" id="path-7"></path>
        <filter x="-14.3%" y="-14.3%" width="128.6%" height="128.6%" filterUnits="objectBoundingBox" id="filter-8">
            <feOffset dx="0" dy="0" in="SourceAlpha" result="shadowOffsetOuter1"></feOffset>
            <feGaussianBlur stdDeviation="1" in="shadowOffsetOuter1" result="shadowBlurOuter1"></feGaussianBlur>
            <feColorMatrix values="0 0 0 0 0   0 0 0 0 0   0 0 0 0 0  0 0 0 0.2 0" type="matrix" in="shadowBlurOuter1"></feColorMatrix>
        </filter>
    </defs>
    <g id="Artboard" stroke="none" stroke-width="1" fill="none" fill-rule="evenodd">
        <g id="GridGraph-sc" transform="translate(1.000000, 1612.000000)">
            <rect id="Rectangle-path_10_" fill="#555555" fill-rule="nonzero" x="1" y="11" width="4" height="2"></rect>
            <rect id="Rectangle-path_10_" fill="#555555" fill-rule="nonzero" x="6" y="11" width="4" height="2"></rect>
            <rect id="Rectangle-path_10_" fill="#555555" fill-rule="nonzero" x="11" y="11" width="4" height="2"></rect>
            <rect id="Rectangle-path_10_" fill="#555555" fill-rule="nonzero" x="1" y="8" width="14" height="2"></rect>
            <rect id="Rectangle-5" fill="#CF2C2C" x="11" y="0" width="4" height="7"></rect>
            <rect id="Rectangle-5" fill="#CF2C2C" x="6" y="2" width="4" height="5"></rect>
            <rect id="Rectangle-5" fill="#CF2C2C" x="1" y="4" width="4" height="3"></rect>
            <path d="M3.83090369,11.2727551 C2.76279708,11.9600138 2.26439923,12.6220247 2.3154452,13.2005557 C2.33116284,13.3734497 2.39307454,13.5344201 2.4908926,13.6648442 L2.94259135,14.2671092 L2.22035102,14.0546855 C1.45239306,13.8288156 0.960285483,13.4747382 0.809206971,12.9962183 C0.754314902,12.8315421 0.738686444,12.656665 0.757747303,12.4748005 C0.792625286,12.1420208 0.939389894,11.8011623 1.16060312,11.4618866 C1.30900396,11.2342835 1.45719916,11.0555201 1.56633878,10.9419979 L2.57220371,9.97023007 L1.1442749,8.75 L5.33768053,8.75 L5.31194074,12.4822687 L3.83090366,11.2727551 Z" id="arrow" stroke="#FFFFFF" stroke-width="0.5" fill="#000000" fill-rule="nonzero"></path>
        </g>
        <g id="GridGraph" transform="translate(2.000000, 1582.000000)">
            <rect id="Rectangle-path_10_" fill="#555555" fill-rule="nonzero" x="0" y="11" width="4" height="2"></rect>
            <rect id="Rectangle-path_10_" fill="#555555" fill-rule="nonzero" x="5" y="11" width="4" height="2"></rect>
            <rect id="Rectangle-path_10_" fill="#555555" fill-rule="nonzero" x="10" y="11" width="4" height="2"></rect>
            <rect id="Rectangle-path_10_" fill="#555555" fill-rule="nonzero" x="0" y="8" width="14" height="2"></rect>
            <rect id="Rectangle-5" fill="#CF2C2C" x="10" y="0" width="4" height="7"></rect>
            <rect id="Rectangle-5" fill="#CF2C2C" x="5" y="2" width="4" height="5"></rect>
            <rect id="Rectangle-5" fill="#CF2C2C" x="0" y="4" width="4" height="3"></rect>
        </g>
        <g id="Table-sc" transform="translate(1.000000, 1553.000000)" fill-rule="nonzero">
            <rect id="Rectangle-path_10_" fill="#555555" x="1" y="4" width="4" height="2"></rect>
            <rect id="Rectangle-path_10_" fill="#555555" x="6" y="4" width="4" height="2"></rect>
            <rect id="Rectangle-path_10_" fill="#555555" x="11" y="4" width="4" height="2"></rect>
            <rect id="Rectangle-path_10_" fill="#555555" x="1" y="7" width="4" height="2"></rect>
            <rect id="Rectangle-path_10_" fill="#555555" x="6" y="7" width="4" height="2"></rect>
            <rect id="Rectangle-path_10_" fill="#555555" x="11" y="7" width="4" height="2"></rect>
            <rect id="Rectangle-path_10_" fill="#555555" x="1" y="10" width="4" height="2"></rect>
            <rect id="Rectangle-path_10_" fill="#555555" x="6" y="10" width="4" height="2"></rect>
            <rect id="Rectangle-path_10_" fill="#555555" x="11" y="10" width="4" height="2"></rect>
            <rect id="Rectangle-path_10_" fill="#555555" x="1" y="0" width="14" height="2"></rect>
            <path d="M3.83090369,10.2727551 C2.76279708,10.9600138 2.26439923,11.6220247 2.3154452,12.2005557 C2.33116284,12.3734497 2.39307454,12.5344201 2.4908926,12.6648442 L2.94259135,13.2671092 L2.22035102,13.0546855 C1.45239306,12.8288156 0.960285483,12.4747382 0.809206971,11.9962183 C0.754314902,11.8315421 0.738686444,11.656665 0.757747303,11.4748005 C0.792625286,11.1420208 0.939389894,10.8011623 1.16060312,10.4618866 C1.30900396,10.2342835 1.45719916,10.0555201 1.56633878,9.9419979 L2.57220371,8.97023007 L1.1442749,7.75 L5.33768053,7.75 L5.31194074,11.4822687 L3.83090366,10.2727551 Z" id="arrow" stroke="#FFFFFF" stroke-width="0.5" fill="#000000"></path>
        </g>
        <g id="Table" transform="translate(2.000000, 1523.000000)" fill="#555555" fill-rule="nonzero">
            <rect id="Rectangle-path_10_" x="0" y="4" width="4" height="2"></rect>
            <rect id="Rectangle-path_10_" x="5" y="4" width="4" height="2"></rect>
            <rect id="Rectangle-path_10_" x="10" y="4" width="4" height="2"></rect>
            <rect id="Rectangle-path_10_" x="0" y="7" width="4" height="2"></rect>
            <rect id="Rectangle-path_10_" x="5" y="7" width="4" height="2"></rect>
            <rect id="Rectangle-path_10_" x="10" y="7" width="4" height="2"></rect>
            <rect id="Rectangle-path_10_" x="0" y="10" width="4" height="2"></rect>
            <rect id="Rectangle-path_10_" x="5" y="10" width="4" height="2"></rect>
            <rect id="Rectangle-path_10_" x="10" y="10" width="4" height="2"></rect>
            <rect id="Rectangle-path_10_" x="0" y="0" width="14" height="2"></rect>
        </g>
        <g id="Graph-sc" transform="translate(1.000000, 1493.000000)">
            <rect id="Rectangle-5" fill="#CF2C2C" x="11" y="0" width="4" height="12"></rect>
            <rect id="Rectangle-5" fill="#CF2C2C" x="6" y="3" width="4" height="9"></rect>
            <rect id="Rectangle-5" fill="#CF2C2C" x="1" y="6" width="4" height="6"></rect>
            <path d="M3.83090369,10.2727551 C2.76279708,10.9600138 2.26439923,11.6220247 2.3154452,12.2005557 C2.33116284,12.3734497 2.39307454,12.5344201 2.4908926,12.6648442 L2.94259135,13.2671092 L2.22035102,13.0546855 C1.45239306,12.8288156 0.960285483,12.4747382 0.809206971,11.9962183 C0.754314902,11.8315421 0.738686444,11.656665 0.757747303,11.4748005 C0.792625286,11.1420208 0.939389894,10.8011623 1.16060312,10.4618866 C1.30900396,10.2342835 1.45719916,10.0555201 1.56633878,9.9419979 L2.57220371,8.97023007 L1.1442749,7.75 L5.33768053,7.75 L5.31194074,11.4822687 L3.83090366,10.2727551 Z" id="arrow" stroke="#FFFFFF" stroke-width="0.5" fill="#000000" fill-rule="nonzero"></path>
        </g>
        <g id="Graph" transform="translate(2.000000, 1463.000000)" fill="#CF2C2C">
            <rect id="Rectangle-5" x="10" y="0" width="4" height="12"></rect>
            <rect id="Rectangle-5" x="5" y="3" width="4" height="9"></rect>
            <rect id="Rectangle-5" x="0" y="6" width="4" height="6"></rect>
        </g>
        <g id="Dossier" transform="translate(1.000000, 1433.000000)" fill="#1C91DC">
            <path d="M14.8679574,6.07628146 L9.20250752,11.8513892 L4.57137757,7.24228654 C4.20553332,6.87855663 4.20237268,6.28560524 4.56347597,5.91789579 C4.92457926,5.54939043 5.51324874,5.5462068 5.87909299,5.90993671 L10.0685233,10.0796982 L15.2978046,4.74870708 L10.8879196,0.359274991 C10.4027611,-0.123841107 9.61339092,-0.119065659 9.13455373,0.369621793 L3.90448222,5.70061293 C3.42485487,6.18930038 3.42959583,6.98441238 3.91554446,7.46752848 L9.20724848,12.734847 L15.3088669,6.51482672 L14.8679574,6.07628146" id="Fill-8"></path>
            <path d="M6.15576761,0.395578199 C5.82152978,0.395578199 5.48650178,0.52451528 5.23444062,0.781593533 L0.372583838,5.73691614 C-0.128377839,6.24868492 -0.123636877,7.07881687 0.383646083,7.58421838 L5.20520468,12.3692167 L5.66112722,11.9044065 L1.06950529,7.34862964 C0.687857827,6.96818567 0.683907025,6.34896932 1.06160368,5.9645458 C1.25203233,5.77034427 1.50251317,5.67324351 1.75299401,5.67324351 C1.99952405,5.67324351 2.24684424,5.76716064 2.43648273,5.95579081 L8.19122074,11.68394 L8.20781411,11.66643 L4.34392988,7.82060303 C3.85798125,7.33748693 3.85324028,6.54237494 4.33286763,6.05368749 L8.30579399,2.00331216 L7.06761269,0.770450822 C6.81555153,0.52053574 6.48605465,0.395578199 6.15576761,0.395578199" id="Fill-4"></path>
        </g>
        <g id="attr-shortcut" transform="translate(2.000000, 1402.000000)" fill-rule="nonzero">
            <g id="Attribute">
                <rect id="Attribute-2" fill="#86D4B2" transform="translate(7.032689, 6.499411) rotate(-45.000000) translate(-7.032689, -6.499411) " x="2.78768925" y="2.25441134" width="8.49" height="8.49"></rect>
                <path d="M6.68,13.42 L0,6.71 L6.68,0 L13.41,6.71 L6.68,13.42 Z M1.41,6.71 L6.68,12 L12,6.71 L6.68,1.42 L1.41,6.71 Z" id="Shape" fill="#3FB582"></path>
            </g>
            <path d="M3.83090369,11.2727551 C2.76279708,11.9600138 2.26439923,12.6220247 2.3154452,13.2005557 C2.33116284,13.3734497 2.39307454,13.5344201 2.4908926,13.6648442 L2.94259135,14.2671092 L2.22035102,14.0546855 C1.45239306,13.8288156 0.960285483,13.4747382 0.809206971,12.9962183 C0.754314902,12.8315421 0.738686444,12.656665 0.757747303,12.4748005 C0.792625286,12.1420208 0.939389894,11.8011623 1.16060312,11.4618866 C1.30900396,11.2342835 1.45719916,11.0555201 1.56633878,10.9419979 L2.57220371,9.97023007 L1.1442749,8.75 L5.33768053,8.75 L5.31194074,12.4822687 L3.83090366,11.2727551 Z" id="Shape" stroke="#FFFFFF" stroke-width="0.5" fill="#000000"></path>
        </g>
        <g id="Filter-shortcut" transform="translate(2.000000, 1373.000000)" fill-rule="nonzero">
            <path d="M5,13.9 C4.8,13.8 4.6,13.5 4.6,13.3 L4.6,7 L0.2,2.7 C0.1,2.6 0,2.4 0,2.2 L0,0 L13,0 L13,2.1 C13,2.3 12.9,2.5 12.8,2.6 L8.3,6.9 L8.3,11.4 C8.3,11.6 8.18911743,11.7424927 8,11.9 L5.6,13.8 C5.38165283,14 5.21322632,14 5,13.9 Z" id="Shape" fill="#555555"></path>
            <path d="M2.83090369,10.2727551 C1.76279708,10.9600138 1.26439923,11.6220247 1.3154452,12.2005557 C1.33116284,12.3734497 1.39307454,12.5344201 1.4908926,12.6648442 L1.94259135,13.2671092 L1.22035102,13.0546855 C0.452393059,12.8288156 -0.039714517,12.4747382 -0.190793029,11.9962183 C-0.245685098,11.8315421 -0.261313556,11.656665 -0.242252697,11.4748005 C-0.207374714,11.1420208 -0.0606101059,10.8011623 0.160603121,10.4618866 C0.309003963,10.2342835 0.457199155,10.0555201 0.566338781,9.94199789 L1.57220371,8.97023007 L0.144274905,7.75 L4.33768053,7.75 L4.31194074,11.4822687 L2.83090366,10.2727551 Z" id="Shape-Copy" stroke="#FFFFFF" stroke-width="0.5" fill="#000000"></path>
        </g>
        <g id="HTML-Doc" transform="translate(1.000000, 1344.000000)" fill="#555555">
            <polygon id="Rectangle-4" points="9 0 10 0 7 10 6 10"></polygon>
            <polygon id="Back-Arrow" points="5.04954868 1.59071902 5.04954868 0 0 4.94222222 5.04954868 10 5.04954868 8.4791218 1.58724147 4.94222222"></polygon>
            <polygon id="Back-Arrow" transform="translate(13.524774, 5.000000) scale(-1, 1) translate(-13.524774, -5.000000) " points="16.0495487 1.59071902 16.0495487 0 11 4.94222222 16.0495487 10 16.0495487 8.4791218 12.5872415 4.94222222"></polygon>
        </g>
        <g id="RSD-shortcut" transform="translate(2.000000, 1314.000000)">
            <path d="M6.5,9.5 L13.5,9.5" id="Line" stroke="#CF2C2C" stroke-linecap="square"></path>
            <path d="M6.5,7.5 L13.5,7.5" id="Line" stroke="#CF2C2C" stroke-linecap="square"></path>
            <path d="M6.5,5.5 L13.5,5.5" id="Line" stroke="#CF2C2C" stroke-linecap="square"></path>
            <path d="M6.5,3.5 L13.5,3.5" id="Line" stroke="#CF2C2C" stroke-linecap="square"></path>
            <rect id="Rectangle-3" fill="#CF2C2C" x="0" y="5" width="2" height="5"></rect>
            <rect id="Rectangle-3" fill="#CF2C2C" x="3" y="3" width="2" height="7"></rect>
            <rect id="Rectangle-path_10_" fill="#CF2C2C" fill-rule="nonzero" x="0" y="0" width="14" height="2"></rect>
            <path d="M2.83090369,8.27275509 C1.76279708,8.96001377 1.26439923,9.62202468 1.3154452,10.2005557 C1.33116284,10.3734497 1.39307454,10.5344201 1.4908926,10.6648442 L1.94259135,11.2671092 L1.22035102,11.0546855 C0.452393059,10.8288156 -0.039714517,10.4747382 -0.190793029,9.9962183 C-0.245685098,9.83154209 -0.261313556,9.65666503 -0.242252697,9.47480054 C-0.207374714,9.14202083 -0.0606101059,8.80116229 0.160603121,8.46188657 C0.309003963,8.23428353 0.457199155,8.05552007 0.566338781,7.94199789 L1.57220371,6.97023007 L0.144274905,5.75 L4.33768053,5.75 L4.31194074,9.48226869 L2.83090366,8.27275507 Z" id="Shape-Copy-8" stroke="#FFFFFF" stroke-width="0.5" fill="#000000" fill-rule="nonzero"></path>
        </g>
        <g id="RSD" transform="translate(2.000000, 1284.000000)">
            <path d="M6.5,9.5 L13.5,9.5" id="Line" stroke="#CF2C2C" stroke-linecap="square"></path>
            <path d="M6.5,7.5 L13.5,7.5" id="Line" stroke="#CF2C2C" stroke-linecap="square"></path>
            <path d="M6.5,5.5 L13.5,5.5" id="Line" stroke="#CF2C2C" stroke-linecap="square"></path>
            <path d="M6.5,3.5 L13.5,3.5" id="Line" stroke="#CF2C2C" stroke-linecap="square"></path>
            <rect id="Rectangle-3" fill="#CF2C2C" x="0" y="5" width="2" height="5"></rect>
            <rect id="Rectangle-3" fill="#CF2C2C" x="3" y="3" width="2" height="7"></rect>
            <rect id="Rectangle-path_10_" fill="#CF2C2C" fill-rule="nonzero" x="0" y="0" width="14" height="2"></rect>
        </g>
        <g id="Table" transform="translate(2.000000, 1253.000000)" fill="#555555" fill-rule="nonzero">
            <rect id="Rectangle-path_10_" x="0" y="0" width="14" height="2"></rect>
            <rect id="Rectangle-path_10_" x="0" y="3" width="4" height="4"></rect>
            <rect id="Rectangle-path_10_" x="5" y="3" width="4" height="4"></rect>
            <rect id="Rectangle-path_10_" x="10" y="3" width="4" height="4"></rect>
            <rect id="Rectangle-path_10_" x="0" y="8" width="4" height="4"></rect>
            <rect id="Rectangle-path_10_" x="5" y="8" width="4" height="4"></rect>
            <rect id="Rectangle-path_10_" x="10" y="8" width="4" height="4"></rect>
        </g>
        <g id="dataset" transform="translate(2.000000, 1161.000000)" fill="#555555" fill-rule="nonzero">
            <path d="M14,10 C14,10.1 14,10.2 14,10.3 C14,10.3 14,10.3 14,10.4 L14,12.1 C14,12.1 14,12.1 14,12.2 C14,12.3 14,12.2 14,12.3 L14,12.4 C13.8,13.9 10.7,15.1 7,15.1 C3.3,15.1 0.2,13.9 0,12.4 L0,10.4 C0,10.4 0,10.3 0,10.3 C0,10.2 0,10.1 0,10 C0.4,11.4 3.3,12.5 7,12.5 C10.7,12.5 13.6,11.4 14,10 Z" id="Shape_26_"></path>
            <path d="M14,6 C14,6.1 14,6.2 14,6.3 C14,6.3 14,6.4 14,6.4 L14,8.1 C14,8.1 14,8.1 14,8.2 C14,8.3 14,8.2 14,8.3 L14,8.4 C13.8,9.8 10.7,11 7,11 C3.3,11 0.2,9.8 0,8.3 L0,6.3 C0,6.3 0,6.2 0,6.2 C0,6.1 0,6 0,5.9 C0.4,7.3 3.3,8.4 7,8.4 C10.7,8.4 13.6,7.4 14,6 Z" id="Shape_27_"></path>
            <path d="M14,2.7 L14,4.3 C14,4.3 14,4.3 14,4.4 C14,4.5 14,4.4 14,4.5 L14,4.6 C13.8,5.9 10.7,7 7,7 C3.3,7 0.2,5.9 0,4.5 L0,2.7 C0,2.7 0,2.7 0,2.6 C0,1.2 3.2,0 7,0 C10.8,0 14,1.2 14,2.7 C14,2.6 14,2.7 14,2.7 Z" id="Shape_28_"></path>
        </g>
        <g id="custom_group" transform="translate(2.000000, 1103.000000)" fill-rule="nonzero">
            <polygon id="Shape_35_" fill="#3FB582" points="4 2 4 1 1 1 0 1 0 10 1 10 4 10 4 9 1 9 1 6 4 6 4 5 1 5 1 2"></polygon>
            <rect id="Rectangle-path_24_" fill="#6FCBA3" x="4.5" y="0.5" width="8" height="2"></rect>
            <path d="M12,1 L12,2 L5,2 L5,1 L12,1 Z M13,0 L4,0 L4,3 L13,3 L13,0 Z" id="Shape_36_" fill="#3FB582"></path>
            <rect id="Rectangle-path_25_" fill="#6FCBA3" x="4.5" y="4.5" width="8" height="2"></rect>
            <path d="M12,5 L12,6 L5,6 L5,5 L12,5 Z M13,4 L4,4 L4,7 L13,7 L13,4 Z" id="Shape_37_" fill="#3FB582"></path>
            <rect id="Rectangle-path_26_" fill="#6FCBA3" x="4.5" y="8.5" width="8" height="2"></rect>
            <path d="M12,9 L12,10 L5,10 L5,9 L12,9 Z M13,8 L4,8 L4,11 L13,11 L13,8 Z" id="Shape_38_" fill="#3FB582"></path>
        </g>
        <g id="Hierarchy" transform="translate(2.000000, 1073.000000)">
            <path d="M6,4 L3.5,7.5" id="Shape_33_" stroke="#277B57" stroke-linecap="square"></path>
            <path d="M8,4 L10.5,7.5" id="Shape_34_" stroke="#277B57" stroke-linecap="square"></path>
            <rect id="Rectangle-path_21_" fill="#3FB582" fill-rule="nonzero" x="4" y="0" width="6" height="4"></rect>
            <rect id="Rectangle-path_22_" fill="#3FB582" fill-rule="nonzero" x="0" y="7" width="6" height="4"></rect>
            <rect id="Rectangle-path_23_" fill="#3FB582" fill-rule="nonzero" x="8" y="7" width="6" height="4"></rect>
        </g>
        <g id="folder" transform="translate(1.000000, 1042.000000)" fill-rule="nonzero">
            <rect id="Rectangle-path_16_" fill="#3B92ED" x="0.5" y="2" width="15" height="3"></rect>
            <rect id="Rectangle-path_17_" fill="#3773AA" x="0.5" y="3" width="15" height="1"></rect>
            <rect id="Rectangle-path_18_" fill="#FFFFFF" x="1.5" y="3" width="13" height="3"></rect>
            <polygon id="Shape_24_" fill="#5AA5F4" points="15.5 13 0.5 13 0 4 16 4"></polygon>
            <polygon id="Shape_25_" fill="#3B92ED" points="7.5 2 0.5 2 0.5 0 5.5 0"></polygon>
        </g>
        <g id="Group-3" transform="translate(2.000000, 963.000000)" fill="#9F9FA0">
            <rect id="Rectangle-Copy-28" x="0" y="0" width="2" height="2" rx="1"></rect>
            <rect id="Rectangle-Copy-32" x="5" y="0" width="2" height="2" rx="1"></rect>
            <rect id="Rectangle-Copy-33" x="10" y="0" width="2" height="2" rx="1"></rect>
        </g>
        <g id="Page-1" transform="translate(2.000000, 422.000000)" fill="#555555">
            <path d="M2.06823474,5.25315871 L2.35701457,4.27569413 C2.40531634,4.11220187 2.55546112,4 2.72593921,4 L5.93789909,4 C6.04412785,4 6.13024327,4.08611542 6.13024327,4.19234418 C6.13024327,4.20879607 6.12813253,4.22517997 6.12396272,4.24109466 L5.83174024,5.3564063 C5.80957487,5.4410038 5.73312969,5.5 5.64567661,5.5 L2.25269706,5.5 C2.1464683,5.5 2.06035288,5.41388458 2.06035288,5.30765582 C2.06035288,5.28920611 2.06300736,5.27085238 2.06823474,5.25315871 Z" id="Path-2"></path>
            <path d="M6.74271724,2.20246405 L6.81721179,1.20333031 C6.8295285,1.0380923 6.70556129,0.894155772 6.54032329,0.881839066 C6.5292909,0.88101672 6.51822147,0.88080522 6.50716572,0.881205534 C5.63874154,0.912649997 5.08494196,0.995500185 4.84576699,1.1297561 C3.48605579,1.89300179 3.22266312,2.94728886 3.00288645,3.8438633 C2.58147567,5.563 1.92890471,8.55044593 1.15456483,10.8300991 C1.04119583,11.163857 0.746226682,11.3548778 0.26965738,11.4031617 L0.269667741,11.4032639 C0.116528572,11.4187793 1.77447101e-14,11.5477105 1.77635616e-14,11.7016337 L-3.22925875e-05,12.5846143 C-3.22925875e-05,12.7503176 0.13429674,12.8846466 0.3,12.8846466 C0.303110946,12.8846466 0.306221704,12.8845982 0.309331146,12.8845015 C1.72722092,12.8403831 2.62507269,12.2610472 3.00288645,11.1464938 C3.36238246,10.0859779 3.81412491,7.77462163 5.10695335,3.36768086 C5.24280961,2.90457961 5.70473729,2.60737777 6.4927364,2.47607532 L6.49275605,2.47619328 C6.62920191,2.45345763 6.73243497,2.34040844 6.74271724,2.20246405 Z" id="Path-3"></path>
            <path d="M11,7.2 L12.0684523,10.2 C12.1563105,10.4501573 11.9615606,10.6 11.7558776,10.6 C11.5501945,10.6 10.8967987,10.6 10.665291,10.6 C10.4337834,10.6 10.3380008,10.427174 10.3103262,10.3499727 L9.6,8.2 L8,10.4 L7.9,10.5 C7.9,10.5 7.8,10.6 7.7,10.6 C7.6,10.6 7.5,10.6 7.4,10.6 C7.3,10.6 7.1,10.6 6.9,10.6 C6.7,10.6 6.5,10.6 6.4,10.6 C6.3,10.6 6.2,10.6 6.1,10.5 C6,10.5 6,10.4 6,10.4 C6,10.4 6,10.3 6.1,10.2 L8.4,7.2 L7.4,4.4 C7.32928467,4.2 7.38075256,4 7.9,4 C8.41924744,4 8.2,4 8.4,4 C8.6,4 8.7,4 8.8,4 C8.9,4 9,4 9.1,4 C9.2,4 9.24457104,4.06385554 9.3,4.2 L10,6.2 L11.5303448,4.16993519 C11.6192564,4.04879927 11.7934258,4 11.9682667,4 C12.1070567,4 12.7460072,4 12.9986115,4 C13.2375641,4 13.2730103,4.20787048 13.2,4.3 L11,7.2 Z" id="Fill-4" fill-rule="nonzero"></path>
        </g>
        <polygon id="Shape" fill="#565656" fill-rule="nonzero" points="12 759 4 765 12 771"></polygon>
        <g id="Group" transform="translate(3.000000, 789.000000)" fill="#565656" fill-rule="nonzero">
            <polygon id="Shape" points="11 0 3 6 11 12"></polygon>
            <rect id="Rectangle-path" x="0" y="0" width="1" height="12"></rect>
        </g>
        <path d="M7,832.934315 C6.8,832.834315 6.6,832.534315 6.6,832.334315 L6.6,826.034315 L2.2,821.734315 C2.1,821.634315 2,821.434315 2,821.234315 L2,819.034315 L15,819.034315 L15,821.134315 C15,821.334315 14.9,821.534315 14.8,821.634315 L10.3,825.934315 L10.3,830.434315 C10.3,830.634315 10.1891174,830.776807 10,830.934315 L7.6,832.834315 C7.38165283,833.034315 7.21322632,833.034315 7,832.934315 Z" id="Shape" fill="#555555" fill-rule="nonzero"></path>
        <g id="Group-2" transform="translate(1.000000, 848.000000)">
            <path d="M11.5,7.3 C12.3,7.3 12.5,7.7 12.5,8.3 L12.5,9.4 C12.5,10 12.4,10 11.8,10 C11.2,10 10.6,10 10.6,9.4 L10.6,8.3 C10.5,7.7 10.7,7.3 11.5,7.3 Z M9.4,8.3 L9.4,9.4 C9.4,10.6 10.5,10.4 11.5,10.6 C12.5,10.3 13.5,10.6 13.5,9.4 L13.5,8.3 C13.5,7.1 13.1,6.2 11.5,6.2 C9.9,6.2 9.4,7.1 9.4,8.3 Z" id="Shape" fill="#727272"></path>
            <path d="M2.75616,2.75921706 L11.24616,2.75921706 L11.0925737,8.32877632 C10.2908322,7.95109153 9.58996902,7.7989151 8.98998414,7.87224705 C8.38999926,7.94557901 7.85661931,8.24860833 7.38984431,8.78133502 L6.30694317,7.69843389 L2.75616,11.2492171 L2.75616,2.75921706 Z" id="Attribute-2" fill="#86D4B2" fill-rule="nonzero" transform="translate(7.001185, 7.001149) rotate(-45.000000) translate(-7.001185, -7.001149) "></path>
            <path d="M7,11.7 L6.7,12 L1.4,6.7 L6.7,1.4 L10.5,5.2 C10.8,5.1 11.1,5.1 11.5,5.1 C11.6,5.1 11.7,5.1 11.8,5.1 L6.7,0 L0,6.7 L6.7,13.4 L7,13.1 L7,11.7 Z" id="Shape" fill="#3FB582" fill-rule="nonzero"></path>
            <path d="M8,9 L8,14 L15,14 L15,9 L8,9 Z M11.5,12.2 C11.1,12.2 10.8,11.9 10.8,11.5 C10.8,11.1 11.1,10.8 11.5,10.8 C11.9,10.8 12.2,11.1 12.2,11.5 C12.2,11.9 11.9,12.2 11.5,12.2 Z" id="Shape" fill="#727272"></path>
        </g>
        <g id="attr-lock-sc" transform="translate(1.000000, 982.000000)">
            <g id="attr" fill-rule="nonzero">
                <path d="M2.75616,2.75921706 L11.24616,2.75921706 L11.0925737,8.32877632 C10.2908322,7.95109153 9.58996902,7.7989151 8.98998414,7.87224705 C8.38999926,7.94557901 7.85661931,8.24860833 7.38984431,8.78133502 L6.30694317,7.69843389 L2.75616,11.2492171 L2.75616,2.75921706 Z" id="Attribute-2" fill="#86D4B2" transform="translate(7.001185, 7.001149) rotate(-45.000000) translate(-7.001185, -7.001149) "></path>
                <path d="M7,11.7 L6.7,12 L1.4,6.7 L6.7,1.4 L10.5,5.2 C10.8,5.1 11.1,5.1 11.5,5.1 C11.6,5.1 11.7,5.1 11.8,5.1 L6.7,0 L0,6.7 L6.7,13.4 L7,13.1 L7,11.7 Z" id="Shape" fill="#3FB582"></path>
            </g>
            <path d="M11.5,7.3 C12.3,7.3 12.5,7.7 12.5,8.3 L12.5,9.4 C12.5,10 12.4,10 11.8,10 C11.2,10 10.6,10 10.6,9.4 L10.6,8.3 C10.5,7.7 10.7,7.3 11.5,7.3 Z M9.4,8.3 L9.4,9.4 C9.4,10.6 10.5,10.4 11.5,10.6 C12.5,10.3 13.5,10.6 13.5,9.4 L13.5,8.3 C13.5,7.1 13.1,6.2 11.5,6.2 C9.9,6.2 9.4,7.1 9.4,8.3 Z" id="Shape" fill="#727272"></path>
            <path d="M8,9 L8,14 L15,14 L15,9 L8,9 Z M11.5,12.2 C11.1,12.2 10.8,11.9 10.8,11.5 C10.8,11.1 11.1,10.8 11.5,10.8 C11.9,10.8 12.2,11.1 12.2,11.5 C12.2,11.9 11.9,12.2 11.5,12.2 Z" id="Shape" fill="#727272"></path>
            <path d="M3.83090369,11.2727551 C2.76279708,11.9600138 2.26439923,12.6220247 2.3154452,13.2005557 C2.33116284,13.3734497 2.39307454,13.5344201 2.4908926,13.6648442 L2.94259135,14.2671092 L2.22035102,14.0546855 C1.45239306,13.8288156 0.960285483,13.4747382 0.809206971,12.9962183 C0.754314902,12.8315421 0.738686444,12.656665 0.757747303,12.4748005 C0.792625286,12.1420208 0.939389894,11.8011623 1.16060312,11.4618866 C1.30900396,11.2342835 1.45719916,11.0555201 1.56633878,10.9419979 L2.57220371,9.97023007 L1.1442749,8.75 L5.33768053,8.75 L5.31194074,12.4822687 L3.83090366,11.2727551 Z" id="Shape" stroke="#FFFFFF" stroke-width="0.5" fill="#000000" fill-rule="nonzero"></path>
        </g>
        <g id="sc_move-copy" transform="translate(2.000000, 878.000000)">
            <g id="Shape" fill-rule="nonzero">
                <use fill="black" fill-opacity="1" filter="url(#filter-2)" xlink:href="#path-1"></use>
                <use fill="#8E8E8F" xlink:href="#path-1"></use>
            </g>
            <path d="M20.0003204,18.54 C19.978639,19.3527652 19.3133747,20.0002891 18.5003204,20 L2.50032045,20 C1.68726618,20.0002891 1.02200185,19.3527652 1.00032045,18.54 L1.00032045,2.54000002 C0.989524338,2.13529081 1.14278059,1.7434025 1.4252638,1.4533864 C1.70774702,1.16337031 2.09546729,0.999856047 2.50032045,1.00000002 L18.5003204,1.00000002 C19.3287475,1.00000002 20.0003204,1.6715729 20.0003204,2.50000002 L20.0003204,18.54 Z" id="Shape-path" fill="#FFFFFF"></path>
            <path d="M8.49130801,15.996308 C8.61462486,15.9911108 8.7318729,15.9413692 8.82130801,15.856308 L14.041308,11.296308 C14.1263692,11.2068729 14.1761108,11.0896248 14.181308,10.966308 C14.1946,10.8395362 14.1417025,10.7148491 14.041308,10.636308 L8.78130801,6.11630801 C8.58524692,5.94509977 8.2875163,5.96524697 8.11630804,6.16130804 C7.94509978,6.35736911 7.96524695,6.65509973 8.16130801,6.82630801 L13.001308,11.006308 L8.16130801,15.236308 C8.07210981,15.3229298 8.02177642,15.4419711 8.02177642,15.566308 C8.02177642,15.6906449 8.07210981,15.8096862 8.16130801,15.896308 C8.2589462,15.9606202 8.37453817,15.9921452 8.49130801,15.986308" id="Shape" fill="#555555" fill-rule="nonzero"></path>
        </g>
        <g id="Group-2-Copy" transform="translate(2.000000, 915.000000)">
            <g id="Shape" fill-rule="nonzero">
                <use fill="black" fill-opacity="1" filter="url(#filter-4)" xlink:href="#path-3"></use>
                <use fill="#8E8E8F" xlink:href="#path-3"></use>
            </g>
            <path d="M20.0003204,18.54 C19.978639,19.3527652 19.3133747,20.0002891 18.5003204,20 L2.50032045,20 C1.68726618,20.0002891 1.02200185,19.3527652 1.00032045,18.54 L1.00032045,2.54000002 C0.989524338,2.13529081 1.14278059,1.7434025 1.4252638,1.4533864 C1.70774702,1.16337031 2.09546729,0.999856047 2.50032045,1.00000002 L18.5003204,1.00000002 C19.3287475,1.00000002 20.0003204,1.6715729 20.0003204,2.50000002 L20.0003204,18.54 Z" id="Shape-path" fill="#FFFFFF"></path>
            <path d="M5.44078249,16 C5.56122216,15.9947957 5.67573462,15.9449859 5.76308307,15.8598081 L10.8612923,11.2935565 C10.9443689,11.2039988 10.99295,11.08659 10.9980259,10.9631041 C11.0110078,10.8361585 10.9593444,10.7113005 10.8612923,10.6326517 L5.76308307,6.11646872 C5.63921291,6.00556455 5.46704506,5.97084025 5.31143348,6.02537613 C5.1558219,6.07991201 5.04040769,6.21542277 5.00866627,6.38086282 C4.97692484,6.54630287 5.03367849,6.71653792 5.15754864,6.82744209 L9.88462385,11.003159 L5.15754864,15.2389581 C5.07043157,15.3256987 5.02127254,15.4449031 5.02127254,15.5694105 C5.02127254,15.6939178 5.07043157,15.8131223 5.15754864,15.8998629 C5.25290878,15.9642632 5.36580381,15.9958315 5.47984923,15.9899863" id="Shape" fill="#555555" fill-rule="nonzero"></path>
            <path d="M10.4407786,16 C10.5612183,15.9948009 10.6757309,15.945041 10.7630794,15.8599483 L15.8612922,11.2982641 C15.9443689,11.208796 15.99295,11.0915046 15.9980259,10.9681422 C16.0110078,10.8413236 15.9593444,10.7165905 15.8612922,10.6380204 L10.7630794,6.11635095 C10.5715926,5.94507949 10.2808083,5.96523414 10.1135945,6.16136762 C9.94638065,6.3575011 9.96605777,6.65534167 10.1575445,6.82661318 L14.8846231,11.008157 L10.1575445,15.2397193 C10.0704274,15.3263731 10.0212683,15.4454584 10.0212683,15.5698412 C10.0212683,15.694224 10.0704274,15.8133092 10.1575445,15.8999631 C10.2529047,15.964299 10.3657998,15.9958357 10.4798453,15.9899963" id="Shape" fill="#555555" fill-rule="nonzero"></path>
        </g>
        <g id="Prompt-icon" transform="translate(1.000000, 2.000000)">
            <g id="Group-2" transform="translate(1.000000, 693.000000)">
                <g id="Shape" fill-rule="nonzero">
                    <use fill="black" fill-opacity="1" filter="url(#filter-6)" xlink:href="#path-5"></use>
                    <use fill="#D2D2D2" xlink:href="#path-5"></use>
                </g>
                <path d="M20.0003204,18.54 C19.978639,19.3527652 19.3133747,20.0002891 18.5003204,20 L2.50032045,20 C1.68726618,20.0002891 1.02200185,19.3527652 1.00032045,18.54 L1.00032045,2.54000002 C0.989524338,2.13529081 1.14278059,1.7434025 1.4252638,1.4533864 C1.70774702,1.16337031 2.09546729,0.999856047 2.50032045,1.00000002 L18.5003204,1.00000002 C19.3287475,1.00000002 20.0003204,1.6715729 20.0003204,2.50000002 L20.0003204,18.54 Z" id="Shape-path" fill="#FFFFFF"></path>
                <path d="M5.44078249,16 C5.56122216,15.9947957 5.67573462,15.9449859 5.76308307,15.8598081 L10.8612923,11.2935565 C10.9443689,11.2039988 10.99295,11.08659 10.9980259,10.9631041 C11.0110078,10.8361585 10.9593444,10.7113005 10.8612923,10.6326517 L5.76308307,6.11646872 C5.63921291,6.00556455 5.46704506,5.97084025 5.31143348,6.02537613 C5.1558219,6.07991201 5.04040769,6.21542277 5.00866627,6.38086282 C4.97692484,6.54630287 5.03367849,6.71653792 5.15754864,6.82744209 L9.88462385,11.003159 L5.15754864,15.2389581 C5.07043157,15.3256987 5.02127254,15.4449031 5.02127254,15.5694105 C5.02127254,15.6939178 5.07043157,15.8131223 5.15754864,15.8998629 C5.25290878,15.9642632 5.36580381,15.9958315 5.47984923,15.9899863" id="Shape" fill="#555555" fill-rule="nonzero"></path>
                <path d="M10.4407786,16 C10.5612183,15.9948009 10.6757309,15.945041 10.7630794,15.8599483 L15.8612922,11.2982641 C15.9443689,11.208796 15.99295,11.0915046 15.9980259,10.9681422 C16.0110078,10.8413236 15.9593444,10.7165905 15.8612922,10.6380204 L10.7630794,6.11635095 C10.5715926,5.94507949 10.2808083,5.96523414 10.1135945,6.16136762 C9.94638065,6.3575011 9.96605777,6.65534167 10.1575445,6.82661318 L14.8846231,11.008157 L10.1575445,15.2397193 C10.0704274,15.3263731 10.0212683,15.4454584 10.0212683,15.5698412 C10.0212683,15.694224 10.0704274,15.8133092 10.1575445,15.8999631 C10.2529047,15.964299 10.3657998,15.9958357 10.4798453,15.9899963" id="Shape" fill="#555555" fill-rule="nonzero"></path>
            </g>
            <g id="sc_move" transform="translate(1.000000, 660.000000)">
                <g id="Shape" fill-rule="nonzero">
                    <use fill="black" fill-opacity="1" filter="url(#filter-8)" xlink:href="#path-7"></use>
                    <use fill="#D2D2D2" xlink:href="#path-7"></use>
                </g>
                <path d="M20.0003204,18.54 C19.978639,19.3527652 19.3133747,20.0002891 18.5003204,20 L2.50032045,20 C1.68726618,20.0002891 1.02200185,19.3527652 1.00032045,18.54 L1.00032045,2.54000002 C0.989524338,2.13529081 1.14278059,1.7434025 1.4252638,1.4533864 C1.70774702,1.16337031 2.09546729,0.999856047 2.50032045,1.00000002 L18.5003204,1.00000002 C19.3287475,1.00000002 20.0003204,1.6715729 20.0003204,2.50000002 L20.0003204,18.54 Z" id="Shape-path" fill="#FFFFFF"></path>
                <path d="M8.49130801,15.996308 C8.61462486,15.9911108 8.7318729,15.9413692 8.82130801,15.856308 L14.041308,11.296308 C14.1263692,11.2068729 14.1761108,11.0896248 14.181308,10.966308 C14.1946,10.8395362 14.1417025,10.7148491 14.041308,10.636308 L8.78130801,6.11630801 C8.58524692,5.94509977 8.2875163,5.96524697 8.11630804,6.16130804 C7.94509978,6.35736911 7.96524695,6.65509973 8.16130801,6.82630801 L13.001308,11.006308 L8.16130801,15.236308 C8.07210981,15.3229298 8.02177642,15.4419711 8.02177642,15.566308 C8.02177642,15.6906449 8.07210981,15.8096862 8.16130801,15.896308 C8.2589462,15.9606202 8.37453817,15.9921452 8.49130801,15.986308" id="Shape" fill="#555555" fill-rule="nonzero"></path>
            </g>
            <g id="group" transform="translate(1.000000, 632.000000)" fill="#8E8E8F" fill-rule="nonzero">
                <polygon id="Shape" points="4.53 4.92 4.53 2.88 7.98 5.91 4.53 8.92 4.53 6.92 0.98 6.92 0.98 4.92"></polygon>
                <rect id="Rectangle-path" x="8.98" y="8.92" width="4" height="2"></rect>
                <rect id="Rectangle-path" x="8.98" y="4.92" width="2" height="2"></rect>
                <rect id="Rectangle-path" x="8.98" y="0.92" width="4" height="2"></rect>
            </g>
            <g id="ungroup" transform="translate(1.000000, 602.000000)" fill="#8E8E8F" fill-rule="nonzero">
                <polygon id="Shape" points="4.44 4.92 4.44 2.88 0.98 5.91 4.44 8.92 4.44 6.92 7.98 6.92 7.98 4.92"></polygon>
                <rect id="Rectangle-path" x="8.98" y="8.92" width="4" height="2"></rect>
                <rect id="Rectangle-path" x="8.98" y="4.92" width="2" height="2"></rect>
                <rect id="Rectangle-path" x="8.98" y="0.92" width="4" height="2"></rect>
            </g>
            <g id="checked_box" transform="translate(3.000000, 572.000000)" fill-rule="nonzero">
                <path d="M10,10 L0,10 L0,0 L10,0 L10,10 Z M1,9 L9,9 L9,1 L1,1 L1,9 Z" id="Shape" fill="#8A8A8A"></path>
                <polygon id="Shape" fill="#010101" points="4.57 7.91 1.77 5.11 2.91 3.96 4.5 5.55 7.56 2.14 8.77 3.22"></polygon>
            </g>
            <path d="M13,552 L3,552 L3,542 L13,542 L13,552 Z M4,551 L12,551 L12,543 L4,543 L4,551 Z" id="Shape" fill="#979797" fill-rule="nonzero"></path>
            <g id="radio_select" transform="translate(2.000000, 511.000000)" fill-rule="nonzero">
                <path d="M6.48,11.92 C3.44243388,11.92 0.98,9.45756612 0.98,6.42 C0.98,3.38243388 3.44243388,0.92 6.48,0.92 C9.51756612,0.92 11.98,3.38243388 11.98,6.42 C11.9744963,9.45528349 9.51528349,11.9144963 6.48,11.92 Z M6.48,1.92 C4.65001449,1.92001791 3.00060728,3.0234571 2.30218523,4.71492203 C1.60376317,6.40638696 1.99415504,8.3520787 3.29101618,9.64320152 C4.58787733,10.9343243 6.53528116,11.3160841 8.22363226,10.610168 C9.91198335,9.90425186 11.0080973,8.2499676 11,6.42 C11.0000061,3.92205013 8.97794378,1.89551424 6.48,1.89 L6.48,1.92 Z" id="Shape" fill="#8E8E8F"></path>
                <circle id="Oval" fill="#565656" cx="6.48" cy="6.42" r="2.44"></circle>
            </g>
            <path d="M8.5,493 C5.46243388,493 3,490.537566 3,487.5 C3,484.462434 5.46243388,482 8.5,482 C11.5375661,482 14,484.462434 14,487.5 C13.9944963,490.535283 11.5352835,492.994496 8.5,493 Z M8.5,483 C6.67001449,483.000018 5.02060728,484.103457 4.32218523,485.794922 C3.62376317,487.486387 4.01415504,489.432079 5.31101618,490.723202 C6.60787733,492.014324 8.55528116,492.396084 10.2436323,491.690168 C11.9319834,490.984252 13.0280973,489.329968 13.02,487.5 C13.0200061,485.00205 10.9979438,482.975514 8.5,482.97 L8.5,483 Z" id="Shape" fill="#8E8E8F" fill-rule="nonzero"></path>
            <g id="calendar" transform="translate(0.000000, 449.000000)" fill="#555555">
                <path d="M14,1 L14,0 L13,0 L13,3 L12,3 L12,1 L3,1 L3,0 L2,0 L2,3 L1,3 L1,1 L0,1 L0,16 L16,16 L16,1 L14,1 Z M15,15 L1,15 L1,4 L15,4 L15,15 Z" id="Shape" fill-rule="nonzero"></path>
                <g id="12" transform="translate(2.000000, 3.000000)" font-family="Helvetica" font-size="10" font-weight="normal">
                    <text>
                        <tspan x="0.68" y="10">12</tspan>
                    </text>
                </g>
            </g>
            <g id="fact" transform="translate(3.000000, 391.000000)" fill="#777777" fill-rule="nonzero">
                <path d="M1.1,8.7 L0,8.7 L0,7 L1.4,7 L1.9,4.7 L0,4.7 L0,3 L2.2,3 L2.8,0 L4.6,0 L4,3 L6.7,3 L7.3,0 L9.1,0 L8.5,3 L9.6,3 L9.6,4.7 L8.2,4.7 L7.7,7 L9.6,7 L9.6,8.7 L7.3,8.7 L6.7,11.7 L5,11.7 L5.6,8.7 L2.8,8.7 L2.2,11.7 L0.5,11.7 L1.1,8.7 Z M3.6,4.7 L3.1,7 L5.8,7 L6.3,4.7 L3.6,4.7 Z" id="Shape"></path>
            </g>
            <g id="transformation" transform="translate(2.000000, 361.000000)" fill-rule="nonzero">
                <rect id="Rectangle-path" fill="#C8C8C8" x="4" y="1" width="7" height="7"></rect>
                <polygon id="Shape" fill="#2F3133" points="1 11 1 7 0 7 0 11 0 12 1 12 5 12 5 11"></polygon>
                <polygon id="Shape" fill="#2F3133" points="3 0 3 6 4 6 4 1 11 1 11 8 6 8 6 9 12 9 12 0"></polygon>
                <rect id="Rectangle-path" fill="#2F3133" transform="translate(5.174145, 6.943138) rotate(-45.000000) translate(-5.174145, -6.943138) " x="2.67414487" y="6.44313782" width="5" height="1"></rect>
                <polygon id="Shape" fill="#2F3133" points="1.98 10.09 2.69 7.26 4.81 9.38"></polygon>
                <polygon id="Shape" fill="#2F3133" points="8.32 3.81 7.62 6.63 5.5 4.51"></polygon>
            </g>
            <g id="prompt" transform="translate(1.000000, 330.000000)" fill="#555555" fill-rule="nonzero">
                <path d="M5,13 L12,13 L12,4 L9,4 L9,1 L3,1 L3,4 L2,4 L2,0.67 C1.99732137,0.493230942 2.06567258,0.32277687 2.1897381,0.196831563 C2.31380363,0.070886256 2.48321065,-2.02938078e-05 2.66,2.77555773e-17 L9.72,2.77555773e-17 C10.38,2.77555773e-17 10.51,0.15 11.03,0.67 C11.55,1.19 11.92,1.56 12.34,2 C12.7608647,2.31158103 13.0064084,2.8063887 13,3.33 L13,13.33 C13.0026786,13.5067691 12.9343274,13.6772231 12.8102619,13.8031684 C12.6861964,13.9291137 12.5167894,14.0000203 12.34,14 L5,14 L5,13 Z" id="Shape"></path>
                <path d="M4,11.21 L2,11.21 L2,11 C1.98729847,10.6624358 2.02779373,10.3249753 2.12,10 C2.19007017,9.75912489 2.30175491,9.53237104 2.45,9.33 C2.75320913,8.94941465 3.08770753,8.59484635 3.45,8.27 C3.68677864,8.09539068 3.8420775,7.83174376 3.88,7.54 C3.89288185,7.3511833 3.83193037,7.16474347 3.71,7.02 C3.56976976,6.88941462 3.38095237,6.82405476 3.19,6.84 C2.9516736,6.83501224 2.72383779,6.93790583 2.57,7.12 C2.36986827,7.41525551 2.26197002,7.76331436 2.26,8.12 L0.21,7.83 C0.241406503,7.08153834 0.519121319,6.36440135 1,5.79 C1.58523769,5.22195831 2.38709092,4.9340201 3.2,5 C3.86379697,4.97231982 4.5180049,5.1657684 5.06,5.55 C5.70664564,6.00763661 6.0818781,6.75810152 6.06,7.55 C6.06062018,7.89887534 5.97472385,8.24246067 5.81,8.55 C5.55076526,8.99482042 5.21177006,9.38805486 4.81,9.71 C4.5434414,9.92950342 4.31677942,10.1933786 4.14,10.49 C4.04210755,10.7171422 3.99435524,10.9627255 4,11.21 Z M2,12 L4,12 L4,14 L2,14 L2,12 Z" id="Shape"></path>
            </g>
            <g id="template" transform="translate(1.000000, 301.000000)" fill="#555555" fill-rule="nonzero">
                <rect id="Rectangle-path" x="3" y="3" width="11" height="10"></rect>
                <rect id="Rectangle-path" x="0" y="3" width="2" height="10"></rect>
                <rect id="Rectangle-path" x="3" y="0" width="11" height="2"></rect>
                <rect id="Rectangle-path" x="0" y="0" width="2" height="2"></rect>
            </g>
            <path d="M9,271.25 L9,274 L11.75,274 L9,271.25 Z M4,281 L11,281 L11,280 L4,280 L4,281 Z M4,279 L11,279 L11,278 L4,278 L4,279 Z M4,277 L11,277 L11,276 L4,276 L4,277 Z M2,270 L9,270 L13,274 L13,285 L2,285 L2,270 Z" id="report" fill="#555555" fill-rule="nonzero"></path>
            <g id="app_folder" transform="translate(0.000000, 241.000000)" fill-rule="nonzero">
                <rect id="Rectangle-path" fill="#1E5793" x="0.52" y="2" width="15" height="3"></rect>
                <rect id="Rectangle-path" fill="#1B466D" x="0.52" y="3" width="15" height="1"></rect>
                <rect id="Rectangle-path" fill="#FFFFFF" x="1.52" y="3" width="13" height="3"></rect>
                <polygon id="Shape" fill="#2869AE" points="15.52 13 0.52 13 0.02 4 16.02 4"></polygon>
                <circle id="Oval" fill="#FFFFFF" cx="9.47" cy="10.46" r="1"></circle>
                <polygon id="Shape" fill="#FFFFFF" points="10.17 7.69 8.78 7.69 9.47 6.3"></polygon>
                <rect id="Rectangle-path" fill="#FFFFFF" x="5.32" y="9.76" width="1.39" height="1.39"></rect>
                <path d="M6.13,7.49 C5.7931063,7.49 5.52,7.2168937 5.52,6.88 C5.52,6.5431063 5.7931063,6.27 6.13,6.27 C6.4668937,6.27 6.74,6.5431063 6.74,6.88 C6.74,7.04178206 6.67573233,7.19693795 6.56133514,7.31133514 C6.44693795,7.42573233 6.29178206,7.49 6.13,7.49 Z M6.13,7.69 C6.57735065,7.69 6.94,7.32735065 6.94,6.88 C6.94,6.43264935 6.57735065,6.07 6.13,6.07 C5.68264935,6.07 5.32,6.43264935 5.32,6.88 C5.32,7.32735065 5.68264935,7.69 6.13,7.69 Z" id="Shape" fill="#FFFFFF"></path>
                <polygon id="Shape" fill="#1E5793" points="7.52 2 0.52 2 0.52 0 5.52 0"></polygon>
            </g>
            <g id="folder" transform="translate(0.000000, 211.000000)" fill-rule="nonzero">
                <rect id="Rectangle-path" fill="#3B92ED" x="0.52" y="2" width="15" height="3"></rect>
                <rect id="Rectangle-path" fill="#3773AA" x="0.52" y="3" width="15" height="1"></rect>
                <rect id="Rectangle-path" fill="#FFFFFF" x="1.52" y="3" width="13" height="3"></rect>
                <polygon id="Shape" fill="#5AA5F4" points="15.52 13 0.52 13 0.02 4 16.02 4"></polygon>
                <polygon id="Shape" fill="#3B92ED" points="7.52 2 0.52 2 0.52 0 5.52 0"></polygon>
            </g>
            <g id="dataset" transform="translate(0.000000, 180.000000)" fill="#555555" fill-rule="nonzero">
                <path d="M15,10 C15.013517,10.1028913 15.013517,10.2071087 15,10.31 C15,10.31 15,10.36 15,10.39 L15,12.1 C15,12.1 15,12.1 15,12.17 C15,12.24 15,12.17 15,12.24 L15,12.34 C14.78,13.82 11.74,15 8,15 C4.26,15 1.23,13.82 1,12.34 L1,10.34 C1,10.34 1,10.29 1,10.26 C0.98648304,10.1571087 0.98648304,10.0528913 1,9.95 C1.38,11.37 4.35,12.47 8,12.47 C11.65,12.47 14.59,11.42 15,10 Z" id="Shape"></path>
                <path d="M15,6 C15.013517,6.1028913 15.013517,6.2071087 15,6.31 C15,6.31 15,6.36 15,6.39 L15,8.1 C15,8.1 15,8.1 15,8.17 C15,8.24 15,8.17 15,8.24 L15,8.34 C14.78,9.82 11.74,11 8,11 C4.26,11 1.23,9.82 1,8.34 L1,6.34 C1,6.34 1,6.29 1,6.26 C0.98648304,6.1571087 0.98648304,6.0528913 1,5.95 C1.38,7.37 4.35,8.47 8,8.47 C11.65,8.47 14.59,7.42 15,6 Z" id="Shape"></path>
                <path d="M15,2.71 L15,4.3 C15,4.3 15,4.3 15,4.37 C15,4.44 15,4.37 15,4.44 L15,4.53 C14.79,5.91 11.74,7 8,7 C4.26,7 1.23,5.91 1,4.52 L1,2.71 C1,2.71 1,2.71 1,2.64 C1,1.18 4.15,0 8,0 C11.85,0 15,1.18 15,2.64 C15,2.64 15,2.66333333 15,2.71 Z" id="Shape"></path>
            </g>
            <g id="Recursive_attr" transform="translate(0.000000, 151.000000)" fill-rule="nonzero">
                <rect id="Rectangle-path" fill="#74CCA6" transform="translate(3.515440, 3.504019) rotate(-45.000000) translate(-3.515440, -3.504019) " x="1.04044046" y="1.02901889" width="4.95" height="4.95"></rect>
                <path d="M3.52,1.41 L5.6,3.5 L3.51,5.59 L1.43,3.5 L3.52,1.41 Z M3.52,0 L0,3.5 L3.5,7 L7,3.5 L3.52,0 Z" id="Shape" fill="#3FB582"></path>
                <rect id="Rectangle-path" fill="#74CCA6" transform="translate(10.517829, 9.506912) rotate(-45.000000) translate(-10.517829, -9.506912) " x="8.04282871" y="7.03191194" width="4.95" height="4.95"></rect>
                <path d="M10.52,7.41 L12.61,9.5 L10.52,11.59 L8.43,9.5 L10.52,7.41 Z M10.52,6 L7,9.5 L10.5,13 L14,9.5 L10.52,6 Z" id="Shape" fill="#3FB582"></path>
                <polygon id="Shape" fill="#3FB582" points="12.02 1 12.02 5 11.02 5 11.02 2.04 8.43 2.04 8.43 2.63 7 1.52 8.43 0.41 8.43 1"></polygon>
                <polygon id="Shape" fill="#3FB582" points="2.02 12 2.02 8 3.02 8 3.02 11 5.6 11 5.6 10.41 7.03 11.52 5.6 12.62 5.6 12"></polygon>
            </g>
            <g id="Hierarchy" transform="translate(1.000000, 122.000000)">
                <path d="M6,4 L3.5,7.5" id="Shape" stroke="#277B57" stroke-linecap="square"></path>
                <path d="M8,4 L10.5,7.5" id="Shape" stroke="#277B57" stroke-linecap="square"></path>
                <rect id="Rectangle-path" fill="#3FB582" fill-rule="nonzero" x="4" y="0" width="6" height="4"></rect>
                <rect id="Rectangle-path" fill="#3FB582" fill-rule="nonzero" x="0" y="7" width="6" height="4"></rect>
                <rect id="Rectangle-path" fill="#3FB582" fill-rule="nonzero" x="8" y="7" width="6" height="4"></rect>
            </g>
            <g id="custom_group" transform="translate(1.000000, 92.000000)" fill-rule="nonzero">
                <polygon id="Shape" fill="#3FB582" points="4 2 4 1 1 1 0 1 0 10 1 10 4 10 4 9 1 9 1 6 4 6 4 5 1 5 1 2"></polygon>
                <rect id="Rectangle-path" fill="#6FCBA3" x="4.5" y="0.5" width="8" height="2"></rect>
                <path d="M12,1 L12,2 L5,2 L5,1 L12,1 Z M13,0 L4,0 L4,3 L13,3 L13,0 Z" id="Shape" fill="#3FB582"></path>
                <rect id="Rectangle-path" fill="#6FCBA3" x="4.5" y="4.5" width="8" height="2"></rect>
                <path d="M12,5 L12,6 L5,6 L5,5 L12,5 Z M13,4 L4,4 L4,7 L13,7 L13,4 Z" id="Shape" fill="#3FB582"></path>
                <rect id="Rectangle-path" fill="#6FCBA3" x="4.5" y="8.5" width="8" height="2"></rect>
                <path d="M12,9 L12,10 L5,10 L5,9 L12,9 Z M13,8 L4,8 L4,11 L13,11 L13,8 Z" id="Shape" fill="#3FB582"></path>
            </g>
            <g id="Metric" transform="translate(2.000000, 60.000000)" fill-rule="nonzero">
                <rect id="Rectangle-path" fill="#F7ECDE" x="1" y="1" width="5" height="11"></rect>
                <rect id="Rectangle-path" fill="#F7ECDE" x="7" y="4" width="2" height="8"></rect>
                <rect id="Rectangle-path" fill="#F7ECDE" x="10" y="6" width="1" height="6"></rect>
                <path d="M10,5 L10,3 L7,3 L7,0 L0,0 L0,13 L12,13 L12,5 L10,5 Z M1,12 L1,1 L6,1 L6,3 L2,3 L2,4 L6,4 L6,6 L3,6 L3,7 L6,7 L6,9 L2,9 L2,10 L6,10 L6,12 L1,12 Z M9,12 L7,12 L7,4 L9,4 L9,12 Z M11,12 L10,12 L10,6 L11,6 L11,12 Z" id="Shape" fill="#E99D42"></path>
            </g>
            <g id="Attribute_Element" transform="translate(1.000000, 29.000000)" fill="#3FB582" fill-rule="nonzero">
                <path d="M7,14.21 L0.31,7.5 L7,0.79 L13.73,7.5 L7,14.21 Z M1.73,7.5 L7,12.79 L12.31,7.5 L7,2.21 L1.73,7.5 Z" id="Shape"></path>
                <rect id="Rectangle-path" x="5.02" y="5" width="4" height="1"></rect>
                <rect id="Rectangle-path" x="5.02" y="9" width="4" height="1"></rect>
            </g>
            <g id="Attribute" transform="translate(1.000000, 0.000000)" fill-rule="nonzero">
                <rect id="Attribute-2" fill="#86D4B2" transform="translate(7.032689, 6.499411) rotate(-45.000000) translate(-7.032689, -6.499411) " x="2.78768894" y="2.25441142" width="8.49" height="8.49"></rect>
                <path d="M6.68,13.42 L0,6.71 L6.68,0 L13.41,6.71 L6.68,13.42 Z M1.41,6.71 L6.68,12 L12,6.71 L6.68,1.42 L1.41,6.71 Z" id="Shape" fill="#3FB582"></path>
            </g>
            <g id="cube" transform="translate(2.000000, 726.000000)" fill="#6B70D0">
                <polygon id="Fill-1" points="0.4626 3.2522 6.2216 6.5062 11.9786 3.2522 6.2216 0.0002"></polygon>
                <polygon id="Fill-2" points="6.696 7.3859 6.683 13.9999 12.354 10.5969 12.366 4.4559 12.366 3.9849"></polygon>
                <polygon id="Fill-3" points="0.0126 10.5971 5.6836 14.0001 5.6706 7.3861 -0.0004 3.9841"></polygon>
            </g>
        </g>
        <g id="cube" transform="translate(3.000000, 1012.000000)" fill="#6B70D0" fill-rule="nonzero">
            <polygon id="Fill-1" points="0.5 3.3 6.2 6.5 12 3.3 6.2 0"></polygon>
            <polygon id="Fill-2" points="6.7 7.4 6.7 14 12.4 10.6 12.4 4.5 12.4 4"></polygon>
            <polygon id="Fill-3" points="0 10.6 5.7 14 5.7 7.4 0 4"></polygon>
        </g>
        <path d="M4.83090369,1023.27276 C3.76279708,1023.96001 3.26439923,1024.62202 3.3154452,1025.20056 C3.33116284,1025.37345 3.39307454,1025.53442 3.4908926,1025.66484 L3.94259135,1026.26711 L3.22035102,1026.05469 C2.45239306,1025.82882 1.96028548,1025.47474 1.80920697,1024.99622 C1.7543149,1024.83154 1.73868644,1024.65667 1.7577473,1024.4748 C1.79262529,1024.14202 1.93938989,1023.80116 2.16060312,1023.46189 C2.30900396,1023.23428 2.45719916,1023.05552 2.56633878,1022.942 L3.57220371,1021.97023 L2.1442749,1020.75 L6.33768053,1020.75 L6.31194074,1024.48227 L4.83090366,1023.27276 Z" id="Shape-Copy" stroke="#FFFFFF" stroke-width="0.5" fill="#000000" fill-rule="nonzero"></path>
        <path d="M4.83090369,1053.27276 C3.76279708,1053.96001 3.26439923,1054.62202 3.3154452,1055.20056 C3.33116284,1055.37345 3.39307454,1055.53442 3.4908926,1055.66484 L3.94259135,1056.26711 L3.22035102,1056.05469 C2.45239306,1055.82882 1.96028548,1055.47474 1.80920697,1054.99622 C1.7543149,1054.83154 1.73868644,1054.65667 1.7577473,1054.4748 C1.79262529,1054.14202 1.93938989,1053.80116 2.16060312,1053.46189 C2.30900396,1053.23428 2.45719916,1053.05552 2.56633878,1052.942 L3.57220371,1051.97023 L2.1442749,1050.75 L6.33768053,1050.75 L6.31194074,1054.48227 L4.83090366,1053.27276 Z" id="Shape-Copy-2" stroke="#FFFFFF" stroke-width="0.5" fill="#000000" fill-rule="nonzero"></path>
        <path d="M4.83090369,1082.27276 C3.76279708,1082.96001 3.26439923,1083.62202 3.3154452,1084.20056 C3.33116284,1084.37345 3.39307454,1084.53442 3.4908926,1084.66484 L3.94259135,1085.26711 L3.22035102,1085.05469 C2.45239306,1084.82882 1.96028548,1084.47474 1.80920697,1083.99622 C1.7543149,1083.83154 1.73868644,1083.65667 1.7577473,1083.4748 C1.79262529,1083.14202 1.93938989,1082.80116 2.16060312,1082.46189 C2.30900396,1082.23428 2.45719916,1082.05552 2.56633878,1081.942 L3.57220371,1080.97023 L2.1442749,1079.75 L6.33768053,1079.75 L6.31194074,1083.48227 L4.83090366,1082.27276 Z" id="Shape-Copy-3" stroke="#FFFFFF" stroke-width="0.5" fill="#000000" fill-rule="nonzero"></path>
        <path d="M4.83090369,1112.27276 C3.76279708,1112.96001 3.26439923,1113.62202 3.3154452,1114.20056 C3.33116284,1114.37345 3.39307454,1114.53442 3.4908926,1114.66484 L3.94259135,1115.26711 L3.22035102,1115.05469 C2.45239306,1114.82882 1.96028548,1114.47474 1.80920697,1113.99622 C1.7543149,1113.83154 1.73868644,1113.65667 1.7577473,1113.4748 C1.79262529,1113.14202 1.93938989,1112.80116 2.16060312,1112.46189 C2.30900396,1112.23428 2.45719916,1112.05552 2.56633878,1111.942 L3.57220371,1110.97023 L2.1442749,1109.75 L6.33768053,1109.75 L6.31194074,1113.48227 L4.83090366,1112.27276 Z" id="Shape-Copy-4" stroke="#FFFFFF" stroke-width="0.5" fill="#000000" fill-rule="nonzero"></path>
        <path d="M4.83090369,1173.27276 C3.76279708,1173.96001 3.26439923,1174.62202 3.3154452,1175.20056 C3.33116284,1175.37345 3.39307454,1175.53442 3.4908926,1175.66484 L3.94259135,1176.26711 L3.22035102,1176.05469 C2.45239306,1175.82882 1.96028548,1175.47474 1.80920697,1174.99622 C1.7543149,1174.83154 1.73868644,1174.65667 1.7577473,1174.4748 C1.79262529,1174.14202 1.93938989,1173.80116 2.16060312,1173.46189 C2.30900396,1173.23428 2.45719916,1173.05552 2.56633878,1172.942 L3.57220371,1171.97023 L2.1442749,1170.75 L6.33768053,1170.75 L6.31194074,1174.48227 L4.83090366,1173.27276 Z" id="Shape-Copy-5" stroke="#FFFFFF" stroke-width="0.5" fill="#000000" fill-rule="nonzero"></path>
        <g id="prompt" transform="translate(2.000000, 1132.000000)" fill="#555555" fill-rule="nonzero">
            <path d="M5,13 L12,13 L12,4 L9,4 L9,1 L3,1 L3,4 L2,4 L2,0.7 C2,0.5 2.1,0.4 2.2,0.2 C2.3,0.1 2.5,0 2.7,0 L9.8,0 C10.5,0 10.6,0.2 11.1,0.7 C11.6,1.2 12,1.6 12.4,2 C12.8,2.3 13,2.8 13,3.3 L13,13.3 C13,13.5 12.9,13.6 12.8,13.8 C12.7,14 12.5,14 12.3,14 L5,14 L5,13 Z" id="Shape_18_"></path>
            <path d="M4,11.2 L2,11.2 L2,11 C2,10.7 2,10.3 2.1,10 C2.2,9.8 2.3,9.5 2.4,9.3 C2.7,8.9 3,8.6 3.4,8.2 C3.6,8 3.8,7.8 3.8,7.5 C3.8,7.3 3.8,7.1 3.6,7 C3.6,6.9 3.4,6.8 3.2,6.8 C3,6.8 2.7,6.9 2.6,7.1 C2.4,7.4 2.3,7.7 2.3,8.1 L0.3,7.8 C0.3,7.1 0.6,6.3 1.1,5.8 C1.6,5.2 2.4,4.9 3.2,5 C3.9,5 4.5,5.2 5.1,5.6 C5.7,6.1 6.1,6.8 6.1,7.6 C6.1,7.9 6,8.3 5.9,8.6 C5.6,9 5.2,9.4 4.8,9.7 C4.5,9.9 4.3,10.2 4.1,10.5 C4,10.7 4,11 4,11.2 Z M2,12 L4,12 L4,14 L2,14 L2,12 Z" id="Shape_19_"></path>
        </g>
        <path d="M4.83090369,1143.27276 C3.76279708,1143.96001 3.26439923,1144.62202 3.3154452,1145.20056 C3.33116284,1145.37345 3.39307454,1145.53442 3.4908926,1145.66484 L3.94259135,1146.26711 L3.22035102,1146.05469 C2.45239306,1145.82882 1.96028548,1145.47474 1.80920697,1144.99622 C1.7543149,1144.83154 1.73868644,1144.65667 1.7577473,1144.4748 C1.79262529,1144.14202 1.93938989,1143.80116 2.16060312,1143.46189 C2.30900396,1143.23428 2.45719916,1143.05552 2.56633878,1142.942 L3.57220371,1141.97023 L2.1442749,1140.75 L6.33768053,1140.75 L6.31194074,1144.48227 L4.83090366,1143.27276 Z" id="Shape-Copy-6" stroke="#FFFFFF" stroke-width="0.5" fill="#000000" fill-rule="nonzero"></path>
        <g id="template" transform="translate(2.000000, 1192.000000)" fill="#555555" fill-rule="nonzero">
            <rect id="Rectangle-path_8_" x="3" y="3" width="11" height="10"></rect>
            <rect id="Rectangle-path_9_" x="0" y="3" width="2" height="10"></rect>
            <rect id="Rectangle-path_10_" x="3" y="0" width="11" height="2"></rect>
            <rect id="Rectangle-path_11_" x="0" y="0" width="2" height="2"></rect>
        </g>
        <path d="M4.83090369,1203.27276 C3.76279708,1203.96001 3.26439923,1204.62202 3.3154452,1205.20056 C3.33116284,1205.37345 3.39307454,1205.53442 3.4908926,1205.66484 L3.94259135,1206.26711 L3.22035102,1206.05469 C2.45239306,1205.82882 1.96028548,1205.47474 1.80920697,1204.99622 C1.7543149,1204.83154 1.73868644,1204.65667 1.7577473,1204.4748 C1.79262529,1204.14202 1.93938989,1203.80116 2.16060312,1203.46189 C2.30900396,1203.23428 2.45719916,1203.05552 2.56633878,1202.942 L3.57220371,1201.97023 L2.1442749,1200.75 L6.33768053,1200.75 L6.31194074,1204.48227 L4.83090366,1203.27276 Z" id="Shape-Copy-7" stroke="#FFFFFF" stroke-width="0.5" fill="#000000" fill-rule="nonzero"></path>
        <g id="Metric" transform="translate(3.000000, 1222.000000)" fill-rule="nonzero">
            <rect id="Rectangle-path_27_" fill="#F7ECDE" x="1" y="1" width="5" height="11"></rect>
            <rect id="Rectangle-path_28_" fill="#F7ECDE" x="7" y="4" width="2" height="8"></rect>
            <rect id="Rectangle-path_29_" fill="#F7ECDE" x="10" y="6" width="1" height="6"></rect>
            <path d="M10,5 L10,3 L7,3 L7,0 L0,0 L0,13 L12,13 L12,5 L10,5 Z M1,12 L1,1 L6,1 L6,3 L2,3 L2,4 L6,4 L6,6 L3,6 L3,7 L6,7 L6,9 L2,9 L2,10 L6,10 L6,12 L1,12 Z M9,12 L7,12 L7,4 L9,4 L9,12 Z M11,12 L10,12 L10,6 L11,6 L11,12 Z" id="Shape_39_" fill="#E99D42"></path>
        </g>
        <path d="M4.83090369,1233.27276 C3.76279708,1233.96001 3.26439923,1234.62202 3.3154452,1235.20056 C3.33116284,1235.37345 3.39307454,1235.53442 3.4908926,1235.66484 L3.94259135,1236.26711 L3.22035102,1236.05469 C2.45239306,1235.82882 1.96028548,1235.47474 1.80920697,1234.99622 C1.7543149,1234.83154 1.73868644,1234.65667 1.7577473,1234.4748 C1.79262529,1234.14202 1.93938989,1233.80116 2.16060312,1233.46189 C2.30900396,1233.23428 2.45719916,1233.05552 2.56633878,1232.942 L3.57220371,1231.97023 L2.1442749,1230.75 L6.33768053,1230.75 L6.31194074,1234.48227 L4.83090366,1233.27276 Z" id="Shape-Copy-8" stroke="#FFFFFF" stroke-width="0.5" fill="#000000" fill-rule="nonzero"></path>
    </g>
</svg>